<?xml version="1.0" standalone="no"?>
<!DOCTYPE svg PUBLIC "-//W3C//DTD SVG 1.1//EN" "http://www.w3.org/Graphics/SVG/1.1/DTD/svg11.dtd" >
<svg xmlns="http://www.w3.org/2000/svg">
    <defs>
        <font id="Mariupol-Bold">
            <font-face font-family="Mariupol-Bold"
                       units-per-em="1024"
                       ascent="777"
                       descent="-187"
                       bbox="-90 -209 1560 881"
                    />
            <missing-glyph horiz-adv-x="0" />
            
            <glyph glyph-name="!" unicode="&#x21;" horiz-adv-x="228" d=" M67,220 L67,677 L212,677 L212,220 M52,73 Q52,112 77.5,136.5 Q103,161 140,161 Q177,161 202.5,136.5 Q228,112 228,73 Q228,33 203,9 Q178,-15 140,-15 Q102,-15 77,9 Q52,33 52,73"/> 
            <glyph glyph-name="&quot;" unicode="&#x22;" horiz-adv-x="405" d=" M290,383 L290,677 L405,677 L405,383 M75,383 L75,677 L190,677 L190,383"/> 
            <glyph glyph-name="#" unicode="&#x23;" horiz-adv-x="685" d=" M315,208 L470,208 L470,390 L315,390 M100,98 L100,208 L200,208 L200,390 L100,390 L100,500 L200,500 L200,607 L315,607 L315,500 L470,500 L470,607 L585,607 L585,500 L685,500 L685,390 L585,390 L585,208 L685,208 L685,98 L585,98 L585,0 L470,0 L470,98 L315,98 L315,0 L200,0 L200,98"/> 
            <glyph glyph-name="$" unicode="&#x24;" horiz-adv-x="560" d=" M351,103 Q424,117 424,195 Q424,251 351,271 M181,482 Q181,420 256,400 L256,573 Q181,560 181,482 M40,183 L185,183 Q185,120 256,104 L256,287 Q169,306 107,357.5 Q45,409 45,492 Q45,571 97.5,625.5 Q150,680 256,690 L256,777 L351,777 L351,689 Q457,676 505,619 Q553,562 553,494 L408,494 Q408,554 351,571 L351,385 Q437,368 498.5,320.5 Q560,273 560,195 Q560,108 509.5,52.5 Q459,-3 351,-13 L351,-100 L256,-100 L256,-12 Q194,-7 149.5,13 Q105,33 82.5,62.5 Q60,92 50,121.5 Q40,151 40,183"/> 
            <glyph glyph-name="%" unicode="&#x25;" horiz-adv-x="713" d=" M499,147 Q499,112 514.5,91 Q530,70 557,70 Q584,70 599,91.5 Q614,113 614,147 Q614,181 599,200.5 Q584,220 557,220 Q529,220 514,200.5 Q499,181 499,147 M400,78 Q400,216 443.5,259.5 Q487,303 556,303 Q625,303 669,259.5 Q713,216 713,147 Q713,78 668.5,31.5 Q624,-15 556,-15 Q488,-15 400,78 M139,536 Q139,501 154.5,480 Q170,459 197,459 Q224,459 239,480.5 Q254,502 254,536 Q254,570 239,589.5 Q224,609 197,609 Q169,609 154,589.5 Q139,570 139,536 M77,0 L542,677 L670,677 L205,0 M40,467 Q40,605 83.5,648.5 Q127,692 196,692 Q265,692 309,648.5 Q353,605 353,536 Q353,467 308.5,420.5 Q264,374 196,374 Q128,374 40,467"/> 
            <glyph glyph-name="&amp;" unicode="&#x26;" horiz-adv-x="650" d=" M220,507 Q220,462 275,421 Q350,459 350,507 Q350,541 332.5,559 Q315,577 287,577 Q260,577 240,557 Q220,537 220,507 M185,194 Q185,153 210.5,126.5 Q236,100 287,100 Q342,100 382,138 L254,295 Q185,250 185,194 M40,179 Q40,293 160,362 Q75,431 75,517 Q75,590 137.5,641 Q200,692 287,692 Q375,692 435,643 Q495,594 495,517 Q495,461 460.5,424 Q426,387 364,354 L446,252 Q452,274 456.5,296.5 Q461,319 462,330 L463,342 L601,342 Q591,236 536,140 L650,0 L495,0 L458,44 Q386,-15 287,-15 Q176,-15 108,37.5 Q40,90 40,179"/> 
            <glyph glyph-name="'" unicode="&#x27;" horiz-adv-x="190" d=" M75,383 L75,677 L190,677 L190,383"/> 
            <glyph glyph-name="(" unicode="&#x28;" horiz-adv-x="350" d=" M70,174 Q70,336 85,409 Q100,482 121,528.5 Q142,575 163.5,610.5 Q185,646 200,662 L215,677 L350,677 Q344,671 334.5,658.5 Q325,646 300,605 Q275,564 255.5,518.5 Q236,473 220.5,401 Q205,329 205,255 Q205,181 220,109 Q235,37 256.5,-12.5 Q278,-62 299,-101 Q320,-140 335,-158 L350,-177 L215,-177 Q209,-171 199.5,-159.5 Q190,-148 165,-108 Q140,-68 120.5,-21.5 Q101,25 70,174"/> 
            <glyph glyph-name=")" unicode="&#x29;" horiz-adv-x="280" d=" M0,-177 Q6,-171 15.5,-158.5 Q25,-146 50,-105 Q75,-64 94.5,-18.5 Q114,27 129.5,99 Q145,171 145,245 Q145,319 130,391 Q115,463 94,512.5 Q73,562 51.5,601 Q30,640 15,658 L0,677 L135,677 Q141,671 150.5,659.5 Q160,648 185,608 Q210,568 229.5,521.5 Q249,475 264.5,400.5 Q280,326 280,245 Q280,164 265,91 Q250,18 229,-28.5 Q208,-75 186.5,-110.5 Q165,-146 150,-162 L135,-177"/> 
            <glyph glyph-name="*" unicode="&#x2A;" horiz-adv-x="496" d=" M40,468 L77,582 L208,539 L208,677 L328,677 L328,539 L459,582 L496,468 L365,425 L446,314 L349,244 L268,355 L187,244 L90,314 L171,425"/> 
            <glyph glyph-name="+" unicode="&#x2B;" horiz-adv-x="460" d=" M40,225 L40,340 L190,340 L190,490 L310,490 L310,340 L460,340 L460,225 L310,225 L310,70 L190,70 L190,225"/> 
            <glyph glyph-name="," unicode="&#x2C;" horiz-adv-x="250" d=" M3,-66 L150,188 L250,131 L103,-123"/> 
            <glyph glyph-name="-" unicode="&#x2D;" horiz-adv-x="360" d=" M40,225 L40,340 L360,340 L360,225"/> 
            <glyph glyph-name="." unicode="&#x2E;" horiz-adv-x="228" d=" M52,73 Q52,112 77.5,136.5 Q103,161 140,161 Q177,161 202.5,136.5 Q228,112 228,73 Q228,33 203,9 Q178,-15 140,-15 Q102,-15 77,9 Q52,33 52,73"/> 
            <glyph glyph-name="/" unicode="&#x2F;" horiz-adv-x="490" d=" M50,-77 L340,777 L490,777 L200,-77"/> 
            <glyph glyph-name="0" unicode="&#x30;" horiz-adv-x="582" d=" M186,346 Q186,100 311,100 Q436,100 436,346 Q436,577 311,577 Q186,577 186,346 M40,346 Q40,522 115.5,607 Q191,692 310,692 Q367,692 415,672.5 Q463,653 501,612.5 Q539,572 560.5,504 Q582,436 582,346 Q582,167 507,76 Q432,-15 310,-15 Q189,-15 114.5,76 Q40,167 40,346"/> 
            <glyph glyph-name="1" unicode="&#x31;" horiz-adv-x="290" d=" M50,557 L50,677 L290,677 L290,0 L150,0 L150,557"/> 
            <glyph glyph-name="2" unicode="&#x32;" horiz-adv-x="530" d=" M40,0 L40,75 L229,254 Q374,392 374,490 Q374,577 282,577 Q240,577 212.5,556.5 Q185,536 185,500 L40,500 Q40,525 47,550 Q54,575 71.5,601 Q89,627 116,647 Q143,667 186,679.5 Q229,692 283,692 Q395,692 457.5,634.5 Q520,577 520,489 Q520,410 464,330.5 Q408,251 318,165 L270,120 L530,120 L530,0"/> 
            <glyph glyph-name="3" unicode="&#x33;" horiz-adv-x="540" d=" M40,165 L185,165 Q185,142 215.5,121 Q246,100 285,100 Q331,100 363,125.5 Q395,151 395,195 Q395,239 356.5,263 Q318,287 267,287 L169,287 L169,407 L266,407 Q315,407 348,433.5 Q381,460 381,497 Q381,533 354,555 Q327,577 282,577 Q240,577 214,556.5 Q188,536 188,500 L43,500 Q43,525 49.5,549.5 Q56,574 73.5,600.5 Q91,627 117,647 Q143,667 186,679.5 Q229,692 283,692 Q395,692 460,636 Q525,580 525,498 Q525,392 403,353 Q540,309 540,195 Q540,101 472.5,43 Q405,-15 285,-15 Q171,-15 105.5,42 Q40,99 40,165"/> 
            <glyph glyph-name="4" unicode="&#x34;" horiz-adv-x="570" d=" M152,288 L335,288 L335,524 M20,168 L20,308 L315,677 L480,677 L480,288 L570,288 L570,168 L480,168 L480,0 L335,0 L335,168"/> 
            <glyph glyph-name="5" unicode="&#x35;" horiz-adv-x="530" d=" M40,165 L185,165 Q185,131 210.5,115.5 Q236,100 269,100 Q384,100 384,225 Q384,340 269,340 Q180,340 167,277 L62,277 L92,677 L472,677 L472,557 L207,557 L197,428 Q239,450 296,450 Q402,450 466,388.5 Q530,327 530,225 Q530,118 463,51.5 Q396,-15 270,-15 Q162,-15 101,42 Q40,99 40,165"/> 
            <glyph glyph-name="6" unicode="&#x36;" horiz-adv-x="550" d=" M185,225 Q185,100 299,100 Q344,100 374,130 Q404,160 404,225 Q404,285 375.5,312.5 Q347,340 299,340 Q188,340 185,234 M40,303 Q40,692 311,692 Q368,692 411,675.5 Q454,659 475,635 Q496,611 509,587 Q522,563 525,546 L528,530 L393,530 Q393,532 392,535 Q391,538 386.5,546 Q382,554 374,560.5 Q366,567 349.5,572 Q333,577 311,577 Q253,577 223.5,536.5 Q194,496 187,392 Q242,450 328,450 Q426,450 488,388 Q550,326 550,225 Q550,119 485,52 Q420,-15 300,-15 Q40,-15 40,303"/> 
            <glyph glyph-name="7" unicode="&#x37;" horiz-adv-x="545" d=" M20,557 L20,677 L545,677 L545,627 L255,0 L105,0 L362,557"/> 
            <glyph glyph-name="8" unicode="&#x38;" horiz-adv-x="550" d=" M200,497 Q200,454 226.5,432 Q253,410 295,410 Q337,410 363.5,432 Q390,454 390,497 Q390,535 364,556 Q338,577 295,577 Q252,577 226,556 Q200,535 200,497 M185,205 Q185,162 213,131 Q241,100 295,100 Q349,100 377,131 Q405,162 405,205 Q405,250 374.5,276.5 Q344,303 295,303 Q246,303 215.5,276.5 Q185,250 185,205 M40,195 Q40,315 165,355 Q55,399 55,507 Q55,588 123.5,640 Q192,692 295,692 Q398,692 466.5,640 Q535,588 535,507 Q535,399 424,355 Q550,315 550,195 Q550,100 479.5,42.5 Q409,-15 295,-15 Q181,-15 110.5,42.5 Q40,100 40,195"/> 
            <glyph glyph-name="9" unicode="&#x39;" horiz-adv-x="550" d=" M186,452 Q186,392 214.5,364.5 Q243,337 291,337 Q405,337 405,449 L405,452 Q405,577 291,577 Q246,577 216,547.5 Q186,518 186,452 M40,452 Q40,558 105,625 Q170,692 290,692 Q550,692 550,374 Q550,-15 279,-15 Q222,-15 179,1.5 Q136,18 115,42 Q94,66 81,90 Q68,114 65,130 L62,147 L197,147 Q197,145 198,142 Q199,139 203.5,131 Q208,123 216,116.5 Q224,110 240.5,105 Q257,100 279,100 Q337,100 366,140.5 Q395,181 402,285 Q350,227 262,227 Q164,227 102,289 Q40,351 40,452"/> 
            <glyph glyph-name=":" unicode="&#x3A;" horiz-adv-x="228" d=" M52,427 Q52,466 77.5,490.5 Q103,515 140,515 Q177,515 202.5,490.5 Q228,466 228,427 Q228,387 203,363 Q178,339 140,339 Q102,339 77,363 Q52,387 52,427 M52,73 Q52,112 77.5,136.5 Q103,161 140,161 Q177,161 202.5,136.5 Q228,112 228,73 Q228,33 203,9 Q178,-15 140,-15 Q102,-15 77,9 Q52,33 52,73"/> 
            <glyph glyph-name=";" unicode="&#x3B;" horiz-adv-x="250" d=" M63,427 Q63,466 88.5,490.5 Q114,515 151,515 Q188,515 213.5,490.5 Q239,466 239,427 Q239,387 214,363 Q189,339 151,339 Q113,339 88,363 Q63,387 63,427 M3,-66 L150,188 L250,131 L103,-123"/> 
            <glyph glyph-name="&lt;" unicode="&#x3C;" horiz-adv-x="330" d=" M10,293 L330,490 L330,362 L209,293 L330,224 L330,96"/> 
            <glyph glyph-name="=" unicode="&#x3D;" horiz-adv-x="380" d=" M20,325 L20,440 L380,440 L380,325 M20,125 L20,240 L380,240 L380,125"/> 
            <glyph glyph-name="&gt;" unicode="&#x3E;" horiz-adv-x="330" d=" M10,96 L10,224 L131,293 L10,362 L10,490 L330,293"/> 
            <glyph glyph-name="?" unicode="&#x3F;" horiz-adv-x="510" d=" M192,73 Q192,112 217.5,136.5 Q243,161 280,161 Q317,161 342.5,136.5 Q368,112 368,73 Q368,33 343,9 Q318,-15 280,-15 Q242,-15 217,9 Q192,33 192,73 M40,500 Q40,525 46.5,550 Q53,575 70,601 Q87,627 112.5,647 Q138,667 179.5,679.5 Q221,692 273,692 Q381,692 445.5,638 Q510,584 510,503 Q510,465 492.5,432 Q475,399 449.5,374.5 Q424,350 399,327 Q374,304 356.5,276.5 Q339,249 339,220 L212,220 Q212,262 227.5,297 Q243,332 265.5,355.5 Q288,379 310.5,400.5 Q333,422 348.5,447.5 Q364,473 364,502 Q364,577 272,577 Q234,577 209.5,556.5 Q185,536 185,500"/> 
            <glyph glyph-name="@" unicode="&#x40;" horiz-adv-x="1010" d=" M426,235 Q426,164 455.5,127 Q485,90 521,90 Q554,90 582,121 Q610,152 612,213 L612,239 Q610,305 582.5,337.5 Q555,370 521,370 Q486,370 456,336.5 Q426,303 426,235 M60,255 Q60,458 198,575 Q336,692 550,692 Q751,692 880.5,580.5 Q1010,469 1010,292 Q1010,164 952,82 Q894,0 797,0 Q719,0 684,20.5 Q649,41 640,89 Q618,41 579,13 Q540,-15 490,-15 Q407,-15 348.5,54 Q290,123 290,235 Q290,345 349.5,410 Q409,475 490,475 Q577,475 627,394 L652,460 L747,460 L747,174 Q747,135 756.5,120.5 Q766,106 791,105 Q831,107 853,154.5 Q875,202 875,292 Q875,424 785,504.5 Q695,585 550,585 Q404,585 299.5,497 Q195,409 195,255 Q195,83 281,-2 Q367,-87 523,-87 L582,-87 L582,-192 L525,-192 Q296,-192 178,-74 Q60,44 60,255"/> 
            <glyph glyph-name="A" unicode="&#x41;" horiz-adv-x="680" d=" M256,258 L439,258 L347,535 M20,0 L269,677 L428,677 L680,0 L525,0 L479,138 L216,138 L170,0"/> 
            <glyph glyph-name="B" unicode="&#x42;" horiz-adv-x="640" d=" M215,400 L319,400 Q459,400 459,483 Q459,557 329,557 L215,557 M215,120 L359,120 Q489,120 489,205 Q489,245 449,267.5 Q409,290 349,290 L215,290 M70,0 L70,677 L330,677 Q469,677 539.5,626 Q610,575 610,493 Q610,391 514,352 Q640,307 640,195 Q640,105 568.5,52.5 Q497,0 360,0"/> 
            <glyph glyph-name="C" unicode="&#x43;" horiz-adv-x="680" d=" M40,344 Q40,512 131.5,602 Q223,692 380,692 Q524,692 601.5,620.5 Q679,549 679,450 L532,450 Q532,503 491.5,537.5 Q451,572 381,572 Q301,572 248.5,516 Q196,460 196,344 Q196,227 249.5,166 Q303,105 381,105 Q450,105 492.5,144 Q535,183 535,237 L680,237 Q680,137 602,61 Q524,-15 380,-15 Q224,-15 132,80 Q40,175 40,344"/> 
            <glyph glyph-name="D" unicode="&#x44;" horiz-adv-x="710" d=" M215,120 L369,120 Q444,120 501.5,177 Q559,234 559,343 Q559,452 504,504.5 Q449,557 369,557 L215,557 M70,0 L70,677 L370,677 Q527,677 618.5,590.5 Q710,504 710,343 Q710,183 615.5,91.5 Q521,0 370,0"/> 
            <glyph glyph-name="E" unicode="&#x45;" horiz-adv-x="560" d=" M70,0 L70,677 L560,677 L560,557 L215,557 L215,418 L500,418 L500,298 L215,298 L215,120 L560,120 L560,0"/> 
            <glyph glyph-name="F" unicode="&#x46;" horiz-adv-x="530" d=" M70,0 L70,677 L530,677 L530,557 L215,557 L215,388 L490,388 L490,268 L215,268 L215,0"/> 
            <glyph glyph-name="G" unicode="&#x47;" horiz-adv-x="720" d=" M40,344 Q40,512 131.5,602 Q223,692 380,692 Q530,692 604.5,621.5 Q679,551 679,450 L532,450 Q532,504 494.5,538 Q457,572 381,572 Q301,572 248.5,516 Q196,460 196,344 Q196,226 251,165.5 Q306,105 391,105 Q463,105 512.5,141.5 Q562,178 578,245 L370,245 L370,365 L720,365 L720,295 Q720,156 633.5,70.5 Q547,-15 390,-15 Q227,-15 133.5,79.5 Q40,174 40,344"/> 
            <glyph glyph-name="H" unicode="&#x48;" horiz-adv-x="655" d=" M70,0 L70,677 L215,677 L215,418 L510,418 L510,677 L655,677 L655,0 L510,0 L510,298 L215,298 L215,0"/> 
            <glyph glyph-name="I" unicode="&#x49;" horiz-adv-x="215" d=" M70,0 L70,677 L215,677 L215,0"/> 
            <glyph glyph-name="J" unicode="&#x4A;" horiz-adv-x="490" d=" M40,203 L185,203 Q185,141 205,120.5 Q225,100 269,100 Q310,100 327.5,120 Q345,140 345,195 L345,677 L490,677 L490,195 Q490,90 436,37.5 Q382,-15 269,-15 Q148,-15 94,41 Q40,97 40,203"/> 
            <glyph glyph-name="K" unicode="&#x4B;" horiz-adv-x="655" d=" M70,0 L70,677 L215,677 L215,418 L263,418 L474,677 L638,677 L371,355 L655,0 L481,0 L247,298 L215,298 L215,0"/> 
            <glyph glyph-name="L" unicode="&#x4C;" horiz-adv-x="530" d=" M70,0 L70,677 L215,677 L215,120 L530,120 L530,0"/> 
            <glyph glyph-name="M" unicode="&#x4D;" horiz-adv-x="765" d=" M70,0 L70,677 L240,677 L417,359 L595,677 L765,677 L765,0 L620,0 L620,469 L466,190 L367,190 L215,462 L215,0"/> 
            <glyph glyph-name="N" unicode="&#x4E;" horiz-adv-x="685" d=" M70,0 L70,677 L240,677 L540,199 L540,677 L685,677 L685,0 L515,0 L215,478 L215,0"/> 
            <glyph glyph-name="O" unicode="&#x4F;" horiz-adv-x="740" d=" M195,344 Q195,232 252,168.5 Q309,105 390,105 Q471,105 528,168.5 Q585,232 585,344 Q585,455 528.5,513.5 Q472,572 390,572 Q308,572 251.5,513.5 Q195,455 195,344 M40,344 Q40,506 135.5,599 Q231,692 390,692 Q549,692 644.5,599 Q740,506 740,344 Q740,181 644,83 Q548,-15 390,-15 Q232,-15 136,83 Q40,181 40,344"/> 
            <glyph glyph-name="P" unicode="&#x50;" horiz-adv-x="620" d=" M215,320 L332,320 Q469,325 469,443 Q469,505 431.5,531 Q394,557 319,557 L215,557 M70,0 L70,677 L320,677 Q620,677 620,443 Q620,325 543.5,262.5 Q467,200 320,200 L215,200 L215,0"/> 
            <glyph glyph-name="Q" unicode="&#x51;" horiz-adv-x="740" d=" M195,344 Q195,232 252,168.5 Q309,105 390,105 L391,105 L313,244 L440,309 L522,163 Q585,229 585,344 Q585,455 528.5,513.5 Q472,572 390,572 Q308,572 251.5,513.5 Q195,455 195,344 M40,344 Q40,506 135.5,599 Q231,692 390,692 Q549,692 644.5,599 Q740,506 740,344 Q740,243 701.5,164.5 Q663,86 592,40 L715,-177 L551,-177 L456,-10 Q421,-15 390,-15 Q232,-15 136,83 Q40,181 40,344"/> 
            <glyph glyph-name="R" unicode="&#x52;" horiz-adv-x="620" d=" M215,340 L319,340 Q469,340 469,444 Q469,557 319,557 L215,557 M70,0 L70,677 L320,677 Q466,677 543,616 Q620,555 620,444 Q620,296 481,245 L620,0 L456,0 L331,220 L320,220 L215,220 L215,0"/> 
            <glyph glyph-name="S" unicode="&#x53;" horiz-adv-x="626" d=" M40,213 L191,213 Q191,164 232.5,134.5 Q274,105 348,105 Q404,105 439,127.5 Q474,150 474,185 Q474,214 451.5,232.5 Q429,251 393,260.5 Q357,270 313.5,277.5 Q270,285 226,298.5 Q182,312 146,333.5 Q110,355 87.5,396.5 Q65,438 65,497 Q65,576 139.5,634 Q214,692 342,692 Q416,692 472,671.5 Q528,651 558.5,617 Q589,583 604,546 Q619,509 619,469 L468,469 Q468,514 438,543 Q408,572 342,572 Q288,572 252.5,551.5 Q217,531 217,497 Q217,464 239.5,442.5 Q262,421 298,411 Q334,401 378,393 Q422,385 465.5,372.5 Q509,360 545,340.5 Q581,321 603.5,281.5 Q626,242 626,185 Q626,99 553.5,42 Q481,-15 348,-15 Q267,-15 205.5,5 Q144,25 109,58.5 Q74,92 57,131 Q40,170 40,213"/> 
            <glyph glyph-name="T" unicode="&#x54;" horiz-adv-x="565" d=" M20,557 L20,677 L565,677 L565,557 L365,557 L365,0 L220,0 L220,557"/> 
            <glyph glyph-name="U" unicode="&#x55;" horiz-adv-x="624" d=" M60,260 L60,677 L205,677 L205,260 Q205,174 244.5,139 Q284,104 342,104 Q400,104 439.5,139 Q479,174 479,260 L479,677 L624,677 L624,260 Q624,120 545.5,52.5 Q467,-15 341,-15 Q216,-15 138,52.5 Q60,120 60,260"/> 
            <glyph glyph-name="V" unicode="&#x56;" horiz-adv-x="680" d=" M20,677 L180,677 L352,191 L525,677 L680,677 L421,0 L282,0"/> 
            <glyph glyph-name="W" unicode="&#x57;" horiz-adv-x="875" d=" M20,677 L155,677 L261,195 L389,677 L508,677 L635,204 L740,677 L875,677 L725,0 L565,0 L447,444 L330,0 L170,0"/> 
            <glyph glyph-name="X" unicode="&#x58;" horiz-adv-x="680" d=" M20,0 L249,338 L28,677 L187,677 L350,414 L513,677 L672,677 L451,338 L680,0 L510,0 L352,257 L184,0"/> 
            <glyph glyph-name="Y" unicode="&#x59;" horiz-adv-x="660" d=" M20,677 L176,677 L343,394 L510,677 L660,677 L413,275 L413,0 L268,0 L268,278"/> 
            <glyph glyph-name="Z" unicode="&#x5A;" horiz-adv-x="562" d=" M20,0 L20,60 L357,557 L20,557 L20,677 L562,677 L562,622 L221,120 L562,120 L562,0"/> 
            <glyph glyph-name="[" unicode="&#x5B;" horiz-adv-x="360" d=" M100,-177 L100,677 L360,677 L360,562 L240,562 L240,-62 L360,-62 L360,-177"/> 
            <glyph glyph-name="\" unicode="&#x5C;" horiz-adv-x="490" d=" M50,777 L200,777 L490,-77 L340,-77"/> 
            <glyph glyph-name="]" unicode="&#x5D;" horiz-adv-x="290" d=" M30,-62 L150,-62 L150,562 L30,562 L30,677 L290,677 L290,-177 L30,-177"/> 
            <glyph glyph-name="_" unicode="&#x5F;" horiz-adv-x="630" d=" M10,50 L630,50 L630,-65 L10,-65"/> 
            <glyph glyph-name="a" unicode="&#x61;" horiz-adv-x="557" d=" M186,325 Q186,181 218.5,140.5 Q251,100 301,100 Q348,100 379,138 Q410,176 412,245 L412,260 Q410,329 379.5,364.5 Q349,400 301,400 Q251,400 186,325 M40,137 Q40,369 104,442 Q168,515 270,515 Q369,515 424,426 L452,500 L557,500 L557,0 L452,0 L421,73 Q367,-15 270,-15 Q169,-15 40,137"/> 
            <glyph glyph-name="b" unicode="&#x62;" horiz-adv-x="582" d=" M210,250 Q210,182 239,141 Q268,100 321,100 Q375,100 405.5,141 Q436,182 436,250 Q436,319 406,359.5 Q376,400 321,400 Q269,400 239.5,356 Q210,312 210,250 M70,0 L70,677 L210,677 L210,442 Q263,515 352,515 Q459,515 520.5,441.5 Q582,368 582,250 Q582,133 519,59 Q456,-15 352,-15 Q253,-15 198,74 L170,0"/> 
            <glyph glyph-name="c" unicode="&#x63;" horiz-adv-x="525" d=" M40,253 Q40,368 113,441.5 Q186,515 300,515 Q418,515 483,440 Q523,394 523,317 L378,317 Q378,354 362,374 Q342,400 295,400 Q247,400 216.5,360.5 Q186,321 186,253 Q186,185 216.5,142.5 Q247,100 295,100 Q341,100 363,127 Q380,148 380,185 L525,185 Q525,109 486,63 Q419,-15 300,-15 Q186,-15 113,61 Q40,137 40,253"/> 
            <glyph glyph-name="d" unicode="&#x64;" horiz-adv-x="552" d=" M186,325 Q186,181 218.5,140.5 Q251,100 301,100 Q350,100 381,140 Q412,180 412,253 L412,260 Q410,329 379.5,364.5 Q349,400 301,400 Q251,400 186,325 M40,137 Q40,369 104,442 Q168,515 270,515 Q358,515 412,444 L412,677 L552,677 L552,0 L452,0 L421,73 Q367,-15 270,-15 Q169,-15 40,137"/> 
            <glyph glyph-name="e" unicode="&#x65;" horiz-adv-x="545" d=" M188,310 L403,310 Q402,353 374.5,381.5 Q347,410 297,410 Q247,410 218,381.5 Q189,353 188,310 M40,132 Q40,374 112,444.5 Q184,515 297,515 Q407,515 476,444 Q545,373 545,266 L545,225 L188,225 Q189,171 220.5,135.5 Q252,100 303,100 Q358,100 382,131 Q396,149 396,165 L541,165 Q541,117 505,72 Q436,-15 303,-15 Q190,-15 40,132"/> 
            <glyph glyph-name="f" unicode="&#x66;" horiz-adv-x="363" d=" M20,385 L20,500 L100,500 L100,505 Q100,588 147,632.5 Q194,677 284,677 L363,677 L363,562 L277,562 Q247,562 234.5,548 Q222,534 220,500 L363,500 L363,385 L240,385 L240,0 L100,0 L100,385"/> 
            <glyph glyph-name="g" unicode="&#x67;" horiz-adv-x="542" d=" M186,333 Q186,207 221,173.5 Q256,140 301,140 Q341,140 370.5,174 Q400,208 402,264 L402,270 Q402,328 372.5,364 Q343,400 301,400 Q256,400 186,333 M40,166 Q40,374 102,444.5 Q164,515 270,515 Q360,515 414,426 L442,500 L542,500 L542,93 Q542,-192 281,-192 Q71,-192 71,-44 L216,-44 Q216,-77 281,-77 Q342,-77 371.5,-41 Q401,-5 402,96 Q350,25 270,25 Q164,25 40,166"/> 
            <glyph glyph-name="h" unicode="&#x68;" horiz-adv-x="570" d=" M70,0 L70,677 L210,677 L210,444 Q267,515 360,515 Q462,515 516,454.5 Q570,394 570,290 L570,0 L430,0 L430,280 L430,285 Q430,334 401,367 Q372,400 321,400 Q273,400 242.5,365 Q212,330 210,283 L210,0"/> 
            <glyph glyph-name="i" unicode="&#x69;" horiz-adv-x="221" d=" M70,0 L70,500 L200,500 L200,0 M50,630 Q50,663 74.5,683.5 Q99,704 136,704 Q173,704 197,683.5 Q221,663 221,630 Q221,596 197,576 Q173,556 136,556 Q99,556 74.5,576 Q50,596 50,630"/> 
            <glyph glyph-name="j" unicode="&#x6A;" horiz-adv-x="255" d=" M84,630 Q84,663 108.5,683.5 Q133,704 170,704 Q207,704 231,683.5 Q255,663 255,630 Q255,596 231,576 Q207,556 170,556 Q133,556 108.5,576 Q84,596 84,630 M5,-56 L41,-56 Q100,-56 100,40 L100,500 L240,500 L240,0 Q240,-86 187,-131.5 Q134,-177 54,-177 L5,-177"/> 
            <glyph glyph-name="k" unicode="&#x6B;" horiz-adv-x="549" d=" M70,0 L70,677 L210,677 L210,320 L244,320 L387,500 L541,500 L351,260 L549,0 L385,0 L229,205 L210,205 L210,0"/> 
            <glyph glyph-name="l" unicode="&#x6C;" horiz-adv-x="210" d=" M70,0 L70,677 L210,677 L210,0"/> 
            <glyph glyph-name="m" unicode="&#x6D;" horiz-adv-x="830" d=" M70,0 L70,500 L170,500 L193,439 Q239,515 330,515 Q438,515 462,390 Q505,515 640,515 Q731,515 780.5,459 Q830,403 830,290 L830,0 L690,0 L690,280 L690,290 Q690,348 671.5,374 Q653,400 611,400 Q573,400 547.5,365 Q522,330 520,283 L520,0 L380,0 L380,290 Q380,348 361,374 Q342,400 301,400 Q263,400 237.5,365 Q212,330 210,283 L210,0"/> 
            <glyph glyph-name="n" unicode="&#x6E;" horiz-adv-x="570" d=" M70,0 L70,500 L170,500 L197,427 Q253,515 360,515 Q462,515 516,454.5 Q570,394 570,290 L570,0 L430,0 L430,290 Q428,337 399,368.5 Q370,400 321,400 Q273,400 242.5,365 Q212,330 210,283 L210,0"/> 
            <glyph glyph-name="o" unicode="&#x6F;" horiz-adv-x="560" d=" M185,253 Q185,184 215.5,142 Q246,100 300,100 Q354,100 384.5,142 Q415,184 415,253 Q415,321 384.5,360.5 Q354,400 300,400 Q246,400 215.5,360.5 Q185,321 185,253 M40,253 Q40,368 113,441.5 Q186,515 300,515 Q414,515 487,441.5 Q560,368 560,253 Q560,137 487,61 Q414,-15 300,-15 Q186,-15 113,61 Q40,137 40,253"/> 
            <glyph glyph-name="p" unicode="&#x70;" horiz-adv-x="582" d=" M210,253 Q210,184 239,142 Q268,100 321,100 Q375,100 405.5,142.5 Q436,185 436,253 Q436,321 406,360.5 Q376,400 321,400 Q271,400 241.5,359 Q212,318 210,259 M70,-177 L70,500 L170,500 L197,423 Q252,515 352,515 Q460,515 521,443 Q582,371 582,253 Q582,136 519,60.5 Q456,-15 352,-15 Q263,-15 210,58 L210,-177"/> 
            <glyph glyph-name="q" unicode="&#x71;" horiz-adv-x="552" d=" M186,325 Q186,181 218.5,140.5 Q251,100 301,100 Q348,100 379,138 Q410,176 412,245 L412,260 Q410,329 379.5,364.5 Q349,400 301,400 Q251,400 186,325 M40,137 Q40,369 104,442 Q168,515 270,515 Q369,515 424,426 L452,500 L552,500 L552,-177 L412,-177 L412,59 Q358,-15 270,-15 Q169,-15 40,137"/> 
            <glyph glyph-name="r" unicode="&#x72;" horiz-adv-x="360" d=" M70,0 L70,500 L170,500 L205,408 Q241,500 340,500 L360,500 L360,375 L340,375 Q278,375 245,342 Q212,309 210,254 L210,0"/> 
            <glyph glyph-name="s" unicode="&#x73;" horiz-adv-x="490" d=" M40,153 L185,153 Q185,100 275,100 Q308,100 326,112.5 Q344,125 344,145 Q344,162 322.5,174.5 Q301,187 269,193.5 Q237,200 199.5,212.5 Q162,225 130,240.5 Q98,256 76.5,288 Q55,320 55,365 Q55,434 106.5,474.5 Q158,515 259,515 Q369,515 426,465.5 Q483,416 483,347 L338,347 Q338,375 319,387.5 Q300,400 259,400 Q201,400 201,355 Q201,332 231,319 Q261,306 303.5,298 Q346,290 388,277 Q430,264 460,231 Q490,198 490,145 Q490,75 435,30 Q380,-15 275,-15 Q153,-15 96.5,33.5 Q40,82 40,153"/> 
            <glyph glyph-name="t" unicode="&#x74;" horiz-adv-x="363" d=" M20,385 L20,500 L100,500 L100,620 L240,620 L240,500 L363,500 L363,385 L240,385 L240,212 Q240,121 287,121 L363,121 L363,0 L274,0 Q187,0 143.5,48.5 Q100,97 100,182 L100,385"/> 
            <glyph glyph-name="u" unicode="&#x75;" horiz-adv-x="560" d=" M60,210 L60,500 L200,500 L200,220 L200,212 Q200,100 299,100 Q363,100 391.5,140.5 Q420,181 420,231 L420,500 L560,500 L560,0 L460,0 L435,65 Q383,-15 270,-15 Q166,-15 113,42.5 Q60,100 60,210"/> 
            <glyph glyph-name="v" unicode="&#x76;" horiz-adv-x="580" d=" M20,500 L175,500 L302,184 L430,500 L580,500 L371,0 L232,0"/> 
            <glyph glyph-name="w" unicode="&#x77;" horiz-adv-x="730" d=" M20,500 L150,500 L231,205 L314,500 L436,500 L519,205 L600,500 L730,500 L610,0 L470,0 L375,304 L280,0 L140,0"/> 
            <glyph glyph-name="x" unicode="&#x78;" horiz-adv-x="560" d=" M30,0 L199,251 L38,500 L192,500 L300,321 L398,500 L552,500 L391,251 L560,0 L395,0 L293,172 L189,0"/> 
            <glyph glyph-name="y" unicode="&#x79;" horiz-adv-x="560" d=" M20,500 L170,500 L298,165 L415,500 L560,500 L373,5 Q299,-177 144,-177 L95,-177 L95,-56 L141,-56 Q196,-56 226,13"/> 
            <glyph glyph-name="z" unicode="&#x7A;" horiz-adv-x="462" d=" M30,0 L30,55 L263,385 L30,385 L30,500 L462,500 L462,445 L228,115 L462,115 L462,0"/> 
            <glyph glyph-name="{" unicode="&#x7B;" horiz-adv-x="436" d=" M100,190 L100,311 L136,311 Q170,311 181.5,327.5 Q193,344 193,392 L193,505 Q193,588 240,632.5 Q287,677 377,677 L436,677 L436,556 L390,556 Q356,556 344.5,539.5 Q333,523 333,475 L333,362 Q333,281 267,250 Q333,221 333,139 L333,25 Q333,-23 344.5,-39.5 Q356,-56 390,-56 L436,-56 L436,-177 L377,-177 Q287,-177 240,-132.5 Q193,-88 193,-5 L193,109 Q193,157 181.5,173.5 Q170,190 136,190"/> 
            <glyph glyph-name="|" unicode="&#x7C;" horiz-adv-x="210" d=" M70,-77 L70,777 L210,777 L210,-77"/> 
            <glyph glyph-name="}" unicode="&#x7D;" horiz-adv-x="356" d=" M20,-56 L66,-56 Q100,-56 111.5,-39.5 Q123,-23 123,25 L123,138 Q123,221 189,249 Q123,279 123,361 L123,475 Q123,523 111.5,539.5 Q100,556 66,556 L20,556 L20,677 L79,677 Q169,677 216,632.5 Q263,588 263,505 L263,391 Q263,343 274.5,326.5 Q286,310 320,310 L356,310 L356,189 L320,189 Q286,189 274.5,172.5 Q263,156 263,108 L263,-5 Q263,-88 216,-132.5 Q169,-177 79,-177 L20,-177"/> 
            <glyph glyph-name="~" unicode="&#x7E;" horiz-adv-x="648" d=" M20,291 L41,311 Q86,357 115,375.5 Q144,394 175,394 Q202,394 241,382 L447,319 Q452,317 463,317 Q494,317 529,353 L562,386 L648,301 L606,259 Q567,220 541.5,204.5 Q516,189 487,189 Q461,189 416,203 L210,266 Q200,268 195,268 Q168,268 130,233 L106,206"/> 
            <glyph glyph-name="¡" unicode="&#xA1;" horiz-adv-x="228" d=" M67,-177 L67,280 L212,280 L212,-177 M52,427 Q52,466 77.5,490.5 Q103,515 140,515 Q177,515 202.5,490.5 Q228,466 228,427 Q228,387 203,363 Q178,339 140,339 Q102,339 77,363 Q52,387 52,427"/> 
            <glyph glyph-name="£" unicode="&#xA3;" horiz-adv-x="580" d=" M40,0 L40,75 Q45,78 54,84 Q63,90 85.5,109 Q108,128 125,148.5 Q142,169 156,200 Q170,231 170,262 L170,265 L60,265 L60,380 L146,380 Q123,447 123,491 Q123,592 182.5,642 Q242,692 343,692 Q444,692 498.5,639.5 Q553,587 553,514 L408,514 Q408,544 390,560.5 Q372,577 343,577 Q311,577 290,554.5 Q269,532 269,492 Q269,476 272,460 Q275,444 281,420 Q287,396 290,380 L460,380 L460,265 L300,265 L300,262 Q300,192 255,120 L580,120 L580,0"/> 
            <glyph glyph-name="¥" unicode="&#xA5;" horiz-adv-x="660" d=" M20,677 L165,677 L342,390 L520,677 L660,677 L508,430 L613,430 L613,315 L437,315 L413,276 L413,262 L613,262 L613,147 L413,147 L413,0 L268,0 L268,147 L68,147 L68,262 L268,262 L268,279 L245,315 L68,315 L68,430 L174,430"/> 
            <glyph glyph-name="¦" unicode="&#xA6;" horiz-adv-x="210" d=" M70,423 L70,777 L210,777 L210,423 M70,-77 L70,277 L210,277 L210,-77"/> 
            <glyph glyph-name="§" unicode="&#xA7;" horiz-adv-x="570" d=" M176,305 Q176,271 202,241 Q228,211 270,191 L367,146 Q367,145 369,145 L370,144 Q380,139 393,139 Q412,139 423,154 Q434,169 434,195 Q434,229 408,259 Q382,289 340,309 L243,354 Q241,354 241,355 L239,355 Q229,360 216,360 Q197,360 186.5,345 Q176,330 176,305 M40,298 Q40,350 69,383.5 Q98,417 142,430 Q110,473 110,532 Q110,601 167,646.5 Q224,692 327,692 Q429,692 483.5,642.5 Q538,593 538,524 L393,524 Q393,577 326,577 Q290,577 273,560.5 Q256,544 256,522 Q256,472 314,446 L401,405 Q482,367 526,318.5 Q570,270 570,202 Q570,150 541,116 Q512,82 468,69 Q500,24 500,-32 Q500,-101 443,-146.5 Q386,-192 283,-192 Q181,-192 126.5,-142.5 Q72,-93 72,-24 L217,-24 Q217,-77 284,-77 Q320,-77 337,-60.5 Q354,-44 354,-22 Q354,28 296,54 L209,95 Q128,133 84,181.5 Q40,230 40,298"/> 
            <glyph glyph-name="¨" unicode="&#xA8;" horiz-adv-x="325" d=" M154,630 Q154,663 178.5,683.5 Q203,704 240,704 Q277,704 301,683.5 Q325,663 325,630 Q325,596 301,576 Q277,556 240,556 Q203,556 178.5,576 Q154,596 154,630 M-46,630 Q-46,663 -21.5,683.5 Q3,704 40,704 Q77,704 101,683.5 Q125,663 125,630 Q125,596 101,576 Q77,556 40,556 Q3,556 -21.5,576 Q-46,596 -46,630"/> 
            <glyph glyph-name="©" unicode="&#xA9;" horiz-adv-x="761" d=" M222,265 Q222,425 272,476 Q322,527 397,527 Q470,527 515,488 Q560,449 560,389 L459,389 Q459,447 400,447 Q366,447 345,420 Q324,393 324,345 Q324,297 345.5,267 Q367,237 400,237 Q460,237 460,296 L561,296 Q561,236 515.5,196 Q470,156 397,156 Q323,156 222,265 M138,345 Q138,218 216,145 Q294,72 401,72 Q508,72 585.5,145 Q663,218 663,345 Q663,470 586.5,537.5 Q510,605 401,605 Q292,605 215,537.5 Q138,470 138,345 M40,344 Q40,505 140,598.5 Q240,692 400,692 Q560,692 660.5,598.5 Q761,505 761,344 Q761,182 660,83.5 Q559,-15 400,-15 Q241,-15 140.5,83.5 Q40,182 40,344"/> 
            <glyph glyph-name="«" unicode="&#xAB;" horiz-adv-x="584" d=" M270,263 L440,460 L584,460 L420,263 L584,66 L440,66 M20,263 L190,460 L334,460 L170,263 L334,66 L190,66"/> 
            <glyph glyph-name="­" unicode="&#xAD;" horiz-adv-x="360" d=" M40,225 L40,340 L360,340 L360,225"/> 
            <glyph glyph-name="®" unicode="&#xAE;" horiz-adv-x="629" d=" M302,420 L342,420 Q368,420 379.5,426.5 Q391,433 391,450 Q391,472 350,474 L302,474 M215,258 L215,546 L350,546 Q406,546 439.5,521 Q473,496 473,450 Q473,388 412,365 L471,258 L376,258 L323,354 L302,354 L302,258 M120,409 Q120,305 183.5,245.5 Q247,186 335,186 Q422,186 485,245.5 Q548,305 548,409 Q548,511 486,566 Q424,621 335,621 Q246,621 183,566 Q120,511 120,409 M40,408 Q40,539 121.5,615.5 Q203,692 334,692 Q465,692 547,615.5 Q629,539 629,408 Q629,276 546.5,195.5 Q464,115 334,115 Q204,115 122,195.5 Q40,276 40,408"/> 
            <glyph glyph-name="°" unicode="&#xB0;" horiz-adv-x="353" d=" M139,452 Q139,417 154.5,396 Q170,375 197,375 Q224,375 239,396.5 Q254,418 254,452 Q254,486 239,505.5 Q224,525 197,525 Q169,525 154,505.5 Q139,486 139,452 M40,383 Q40,521 83.5,564.5 Q127,608 196,608 Q265,608 309,564.5 Q353,521 353,452 Q353,383 308.5,336.5 Q264,290 196,290 Q128,290 40,383"/> 
            <glyph glyph-name="±" unicode="&#xB1;" horiz-adv-x="460" d=" M70,5 L70,120 L430,120 L430,5 M40,375 L40,490 L190,490 L190,640 L310,640 L310,490 L460,490 L460,375 L310,375 L310,220 L190,220 L190,375"/> 
            <glyph glyph-name="²" unicode="&#xB2;" horiz-adv-x="321" d=" M14,610 Q14,658 51,696.5 Q88,735 169,735 Q240,735 280.5,698 Q321,661 321,603 Q321,528 199,419 L190,411 L317,411 L317,320 L24,320 L24,365 L127,472 Q215,549 215,604 Q215,658 168,658 Q147,658 133,645.5 Q119,633 119,610"/> 
            <glyph glyph-name="³" unicode="&#xB3;" horiz-adv-x="333" d=" M14,439 L119,439 Q119,389 171,389 Q195,389 211.5,402 Q228,415 228,437 Q228,461 207.5,474.5 Q187,488 160,488 L101,488 L101,569 L159,569 Q184,569 201.5,584 Q219,599 219,619 Q219,636 205.5,647 Q192,658 169,658 Q148,658 134.5,645.5 Q121,633 121,610 L16,610 Q16,658 52.5,696.5 Q89,735 169,735 Q240,735 282,701.5 Q324,668 324,619 Q324,557 246,535 Q333,507 333,437 Q333,380 290,345.5 Q247,311 171,311 Q96,311 55,348.5 Q14,386 14,439"/> 
            <glyph glyph-name="µ" unicode="&#xB5;" horiz-adv-x="570" d=" M70,-177 L70,500 L210,500 L210,220 L210,212 Q210,100 309,100 Q373,100 401.5,140.5 Q430,181 430,231 L430,500 L570,500 L570,0 L470,0 L447,60 Q399,-12 300,-15 L295,-15 Q241,-15 210,13 L210,-177"/> 
            <glyph glyph-name="¶" unicode="&#xB6;" horiz-adv-x="660" d=" M35,492 Q35,573 103.5,625 Q172,677 275,677 L660,677 L660,-177 L515,-177 L515,557 L420,557 L420,-177 L275,-177 L275,288 Q169,288 102,341 Q35,394 35,492"/> 
            <glyph glyph-name="·" unicode="&#xB7;" horiz-adv-x="228" d=" M52,255 Q52,294 77.5,318.5 Q103,343 140,343 Q177,343 202.5,318.5 Q228,294 228,255 Q228,215 203,191 Q178,167 140,167 Q102,167 77,191 Q52,215 52,255"/> 
            <glyph glyph-name="¹" unicode="&#xB9;" horiz-adv-x="182" d=" M20,636 L20,726 L182,726 L182,320 L80,320 L80,636"/> 
            <glyph glyph-name="»" unicode="&#xBB;" horiz-adv-x="584" d=" M270,66 L433,263 L270,460 L414,460 L584,263 L414,66 M20,66 L183,263 L20,460 L164,460 L334,263 L164,66"/> 
            <glyph glyph-name="¼" unicode="&#xBC;" horiz-adv-x="752" d=" M510,122 L603,122 L603,247 M414,41 L414,134 L591,356 L708,356 L708,122 L752,122 L752,41 L708,41 L708,-50 L603,-50 L603,41 M66,0 L531,677 L659,677 L194,0 M20,636 L20,726 L182,726 L182,320 L80,320 L80,636"/> 
            <glyph glyph-name="½" unicode="&#xBD;" horiz-adv-x="793" d=" M486,240 Q486,288 523,326.5 Q560,365 641,365 Q712,365 752.5,328 Q793,291 793,233 Q793,158 671,49 L662,41 L789,41 L789,-50 L496,-50 L496,-5 L599,102 Q687,179 687,234 Q687,288 640,288 Q619,288 605,275.5 Q591,263 591,240 M66,0 L531,677 L659,677 L194,0 M20,636 L20,726 L182,726 L182,320 L80,320 L80,636"/> 
            <glyph glyph-name="¾" unicode="&#xBE;" horiz-adv-x="852" d=" M610,122 L703,122 L703,247 M514,41 L514,134 L691,356 L808,356 L808,122 L852,122 L852,41 L808,41 L808,-50 L703,-50 L703,41 M166,0 L631,677 L759,677 L294,0 M14,439 L119,439 Q119,389 171,389 Q195,389 211.5,402 Q228,415 228,437 Q228,461 207.5,474.5 Q187,488 160,488 L101,488 L101,569 L159,569 Q184,569 201.5,584 Q219,599 219,619 Q219,636 205.5,647 Q192,658 169,658 Q148,658 134.5,645.5 Q121,633 121,610 L16,610 Q16,658 52.5,696.5 Q89,735 169,735 Q240,735 282,701.5 Q324,668 324,619 Q324,557 246,535 Q333,507 333,437 Q333,380 290,345.5 Q247,311 171,311 Q96,311 55,348.5 Q14,386 14,439"/> 
            <glyph glyph-name="¿" unicode="&#xBF;" horiz-adv-x="510" d=" M192,427 Q192,466 217.5,490.5 Q243,515 280,515 Q317,515 342.5,490.5 Q368,466 368,427 Q368,387 343,363 Q318,339 280,339 Q242,339 217,363 Q192,387 192,427 M40,-3 Q40,35 57.5,68 Q75,101 100.5,125.5 Q126,150 151,173 Q176,196 193.5,223.5 Q211,251 211,280 L338,280 Q338,238 322.5,203 Q307,168 284.5,144.5 Q262,121 239.5,99.5 Q217,78 201.5,52.5 Q186,27 186,-2 Q186,-77 278,-77 Q316,-77 340.5,-56.5 Q365,-36 365,0 L510,0 Q510,-25 503.5,-50 Q497,-75 480,-101 Q463,-127 437.5,-147 Q412,-167 370.5,-179.5 Q329,-192 277,-192 Q169,-192 104.5,-138 Q40,-84 40,-3"/> 
            <glyph glyph-name="Æ" unicode="&#xC6;" horiz-adv-x="830" d=" M270,258 L419,258 L372,516 M10,0 L309,677 L830,677 L830,557 L495,557 L526,418 L770,418 L770,298 L553,298 L593,120 L830,120 L830,0 L465,0 L440,138 L220,138 L160,0"/> 
            <glyph glyph-name="×" unicode="&#xD7;" horiz-adv-x="441" d=" M59,224 L165,330 L59,436 L144,521 L250,415 L356,521 L441,436 L335,330 L441,224 L356,139 L250,245 L144,139"/> 
            <glyph glyph-name="æ" unicode="&#xE6;" horiz-adv-x="917" d=" M562,310 L773,310 Q759,410 669,410 Q582,410 562,310 M186,325 Q186,181 218.5,140.5 Q251,100 301,100 Q350,100 381,140 Q412,180 412,253 Q412,325 381.5,362.5 Q351,400 301,400 Q251,400 186,325 M40,137 Q40,369 104,442 Q168,515 270,515 Q369,515 424,426 L452,500 L557,500 L557,464 Q602,515 689,515 Q791,515 854,444 Q917,373 917,266 L917,225 L559,225 Q565,161 597,130.5 Q629,100 675,100 Q717,100 742.5,122.5 Q768,145 768,165 L913,165 Q913,106 850,45.5 Q787,-15 695,-15 Q602,-15 557,39 L557,0 L452,0 L421,73 Q367,-15 270,-15 Q169,-15 40,137"/> 
            <glyph glyph-name="÷" unicode="&#xF7;" horiz-adv-x="480" d=" M162,467 Q162,506 187.5,530.5 Q213,555 250,555 Q287,555 312.5,530.5 Q338,506 338,467 Q338,427 313,403 Q288,379 250,379 Q212,379 187,403 Q162,427 162,467 M162,98 Q162,137 187.5,161.5 Q213,186 250,186 Q287,186 312.5,161.5 Q338,137 338,98 Q338,58 313,34 Q288,10 250,10 Q212,10 187,34 Q162,58 162,98 M20,225 L20,340 L480,340 L480,225"/> 
            <glyph glyph-name="ı" unicode="&#x131;" horiz-adv-x="200" d=" M70,0 L70,500 L200,500 L200,0"/> 
            <glyph glyph-name="Œ" unicode="&#x152;" horiz-adv-x="1086" d=" M196,344 Q196,232 253,168.5 Q310,105 391,105 Q472,105 529,168.5 Q586,232 586,344 Q586,455 529.5,513.5 Q473,572 391,572 Q309,572 252.5,513.5 Q196,455 196,344 M40,344 Q40,506 132.5,599 Q225,692 380,692 Q523,692 596,617 L596,677 L1086,677 L1086,557 L741,557 L741,418 L1026,418 L1026,298 L741,298 L741,120 L1086,120 L1086,0 L596,0 L596,64 Q522,-15 380,-15 Q227,-15 133.5,83 Q40,181 40,344"/> 
            <glyph glyph-name="œ" unicode="&#x153;" horiz-adv-x="921" d=" M566,310 L777,310 Q763,410 673,410 Q586,410 566,310 M185,253 Q185,184 215.5,142 Q246,100 300,100 Q354,100 384.5,142 Q415,184 415,253 Q415,321 384.5,360.5 Q354,400 300,400 Q246,400 215.5,360.5 Q185,321 185,253 M40,253 Q40,368 113,441.5 Q186,515 300,515 Q427,515 501,425 Q552,515 683,515 Q792,515 856.5,444.5 Q921,374 921,266 L921,225 L563,225 Q569,161 601,130.5 Q633,100 679,100 Q721,100 746.5,122.5 Q772,145 772,165 L917,165 Q917,105 852.5,45 Q788,-15 689,-15 Q553,-15 501,78 Q427,-15 300,-15 Q186,-15 113,61 Q40,137 40,253"/> 
            <glyph glyph-name="˘" unicode="&#x2D8;" horiz-adv-x="494" d=" M122,677 L258,677 Q260,661 273,645 Q286,629 303,629 L313,629 Q330,629 343,645 Q356,661 358,677 L494,677 Q486,624 434,586 Q382,548 316,548 L300,548 Q234,548 182,586 Q130,624 122,677"/> 
            <glyph glyph-name="˙" unicode="&#x2D9;" horiz-adv-x="225" d=" M54,630 Q54,663 78.5,683.5 Q103,704 140,704 Q177,704 201,683.5 Q225,663 225,630 Q225,596 201,576 Q177,556 140,556 Q103,556 78.5,576 Q54,596 54,630"/> 
            <glyph glyph-name="΄" unicode="&#x384;" horiz-adv-x="235" d=" M75,557 L105,717 L235,717 L205,557"/> 
            <glyph glyph-name="΅" unicode="&#x385;" horiz-adv-x="377" d=" M245,616 Q245,643 263.5,660 Q282,677 311,677 Q340,677 358.5,660 Q377,643 377,616 Q377,588 358.5,571.5 Q340,555 311,555 Q282,555 263.5,571.5 Q245,588 245,616 M75,557 L105,717 L235,717 L205,557 M-77,616 Q-77,643 -58.5,660 Q-40,677 -11,677 Q18,677 36.5,660 Q55,643 55,616 Q55,588 36.5,571.5 Q18,555 -11,555 Q-40,555 -58.5,571.5 Q-77,588 -77,616"/> 
            <glyph glyph-name="Ά" unicode="&#x386;" horiz-adv-x="735" d=" M311,258 L494,258 L402,535 M80,557 L110,717 L240,717 L210,557 M75,0 L324,677 L483,677 L735,0 L580,0 L534,138 L271,138 L225,0"/> 
            <glyph glyph-name="Έ" unicode="&#x388;" horiz-adv-x="675" d=" M185,0 L185,677 L675,677 L675,557 L330,557 L330,418 L615,418 L615,298 L330,298 L330,120 L675,120 L675,0 M10,557 L40,717 L170,717 L140,557"/> 
            <glyph glyph-name="Ή" unicode="&#x389;" horiz-adv-x="770" d=" M185,0 L185,677 L330,677 L330,418 L625,418 L625,677 L770,677 L770,0 L625,0 L625,298 L330,298 L330,0 M10,557 L40,717 L170,717 L140,557"/> 
            <glyph glyph-name="Ί" unicode="&#x38A;" horiz-adv-x="330" d=" M185,0 L185,677 L330,677 L330,0 M10,557 L40,717 L170,717 L140,557"/> 
            <glyph glyph-name="Ό" unicode="&#x38C;" horiz-adv-x="800" d=" M255,344 Q255,232 312,168.5 Q369,105 450,105 Q531,105 588,168.5 Q645,232 645,344 Q645,455 588.5,513.5 Q532,572 450,572 Q368,572 311.5,513.5 Q255,455 255,344 M100,344 Q100,506 195.5,599 Q291,692 450,692 Q609,692 704.5,599 Q800,506 800,344 Q800,181 704,83 Q608,-15 450,-15 Q292,-15 196,83 Q100,181 100,344 M10,557 L40,717 L170,717 L140,557"/> 
            <glyph glyph-name="Ύ" unicode="&#x38E;" horiz-adv-x="815" d=" M175,677 L331,677 L498,394 L665,677 L815,677 L568,275 L568,0 L423,0 L423,278 M10,557 L40,717 L170,717 L140,557"/> 
            <glyph glyph-name="Ώ" unicode="&#x38F;" horiz-adv-x="811" d=" M105,0 L105,120 L232,120 Q115,235 115,368 Q115,516 207,604 Q299,692 459,692 Q618,692 709.5,604 Q801,516 801,368 Q801,234 683,120 L811,120 L811,0 L495,0 L495,85 Q501,89 511.5,96 Q522,103 549,128.5 Q576,154 596,184 Q616,214 633,263.5 Q650,313 650,368 Q650,459 596,515.5 Q542,572 458,572 Q374,572 320,515.5 Q266,459 266,368 Q266,313 282,263.5 Q298,214 321,183 Q344,152 366.5,128.5 Q389,105 405,95 L421,85 L421,0 M10,557 L40,717 L170,717 L140,557"/> 
            <glyph glyph-name="ΐ" unicode="&#x390;" horiz-adv-x="364" d=" M232,616 Q232,643 250.5,660 Q269,677 298,677 Q327,677 345.5,660 Q364,643 364,616 Q364,588 345.5,571.5 Q327,555 298,555 Q269,555 250.5,571.5 Q232,588 232,616 M62,557 L92,717 L222,717 L192,557 M60,139 L60,500 L200,500 L200,179 Q200,139 210.5,124.5 Q221,110 250,110 L250,0 Q138,0 99,31 Q60,62 60,139 M-90,616 Q-90,643 -71.5,660 Q-53,677 -24,677 Q5,677 23.5,660 Q42,643 42,616 Q42,588 23.5,571.5 Q5,555 -24,555 Q-53,555 -71.5,571.5 Q-90,588 -90,616"/> 
            <glyph glyph-name="Α" unicode="&#x391;" horiz-adv-x="680" d=" M256,258 L439,258 L347,535 M20,0 L269,677 L428,677 L680,0 L525,0 L479,138 L216,138 L170,0"/> 
            <glyph glyph-name="Β" unicode="&#x392;" horiz-adv-x="640" d=" M215,400 L319,400 Q459,400 459,483 Q459,557 329,557 L215,557 M215,120 L359,120 Q489,120 489,205 Q489,245 449,267.5 Q409,290 349,290 L215,290 M70,0 L70,677 L330,677 Q469,677 539.5,626 Q610,575 610,493 Q610,391 514,352 Q640,307 640,195 Q640,105 568.5,52.5 Q497,0 360,0"/> 
            <glyph glyph-name="Γ" unicode="&#x393;" horiz-adv-x="450" d=" M70,0 L70,677 L450,677 L450,557 L215,557 L215,0"/> 
            <glyph glyph-name="Δ" unicode="&#x394;" horiz-adv-x="680" d=" M205,120 L489,120 L347,494 M20,0 L279,677 L418,677 L680,0"/> 
            <glyph glyph-name="Ε" unicode="&#x395;" horiz-adv-x="560" d=" M70,0 L70,677 L560,677 L560,557 L215,557 L215,418 L500,418 L500,298 L215,298 L215,120 L560,120 L560,0"/> 
            <glyph glyph-name="Ζ" unicode="&#x396;" horiz-adv-x="562" d=" M20,0 L20,60 L357,557 L20,557 L20,677 L562,677 L562,622 L221,120 L562,120 L562,0"/> 
            <glyph glyph-name="Η" unicode="&#x397;" horiz-adv-x="655" d=" M70,0 L70,677 L215,677 L215,418 L510,418 L510,677 L655,677 L655,0 L510,0 L510,298 L215,298 L215,0"/> 
            <glyph glyph-name="Θ" unicode="&#x398;" horiz-adv-x="740" d=" M251,280 L251,400 L521,400 L521,280 M195,344 Q195,232 252,168.5 Q309,105 390,105 Q471,105 528,168.5 Q585,232 585,344 Q585,455 528.5,513.5 Q472,572 390,572 Q308,572 251.5,513.5 Q195,455 195,344 M40,344 Q40,506 135.5,599 Q231,692 390,692 Q549,692 644.5,599 Q740,506 740,344 Q740,181 644,83 Q548,-15 390,-15 Q232,-15 136,83 Q40,181 40,344"/> 
            <glyph glyph-name="Ι" unicode="&#x399;" horiz-adv-x="215" d=" M70,0 L70,677 L215,677 L215,0"/> 
            <glyph glyph-name="Κ" unicode="&#x39A;" horiz-adv-x="655" d=" M70,0 L70,677 L215,677 L215,418 L263,418 L474,677 L638,677 L371,355 L655,0 L481,0 L247,298 L215,298 L215,0"/> 
            <glyph glyph-name="Λ" unicode="&#x39B;" horiz-adv-x="680" d=" M20,0 L279,677 L418,677 L680,0 L525,0 L347,473 L170,0"/> 
            <glyph glyph-name="Μ" unicode="&#x39C;" horiz-adv-x="765" d=" M70,0 L70,677 L240,677 L417,359 L595,677 L765,677 L765,0 L620,0 L620,469 L466,190 L367,190 L215,462 L215,0"/> 
            <glyph glyph-name="Ν" unicode="&#x39D;" horiz-adv-x="685" d=" M70,0 L70,677 L240,677 L540,199 L540,677 L685,677 L685,0 L515,0 L215,478 L215,0"/> 
            <glyph glyph-name="Ξ" unicode="&#x39E;" horiz-adv-x="570" d=" M100,288 L100,408 L490,408 L490,288 M20,557 L20,677 L570,677 L570,557 M20,0 L20,120 L570,120 L570,0"/> 
            <glyph glyph-name="Ο" unicode="&#x39F;" horiz-adv-x="740" d=" M195,344 Q195,232 252,168.5 Q309,105 390,105 Q471,105 528,168.5 Q585,232 585,344 Q585,455 528.5,513.5 Q472,572 390,572 Q308,572 251.5,513.5 Q195,455 195,344 M40,344 Q40,506 135.5,599 Q231,692 390,692 Q549,692 644.5,599 Q740,506 740,344 Q740,181 644,83 Q548,-15 390,-15 Q232,-15 136,83 Q40,181 40,344"/> 
            <glyph glyph-name="Π" unicode="&#x3A0;" horiz-adv-x="645" d=" M70,0 L70,677 L645,677 L645,0 L500,0 L500,557 L215,557 L215,0"/> 
            <glyph glyph-name="Ρ" unicode="&#x3A1;" horiz-adv-x="620" d=" M215,320 L332,320 Q469,325 469,443 Q469,505 431.5,531 Q394,557 319,557 L215,557 M70,0 L70,677 L320,677 Q620,677 620,443 Q620,325 543.5,262.5 Q467,200 320,200 L215,200 L215,0"/> 
            <glyph glyph-name="Σ" unicode="&#x3A3;" horiz-adv-x="562" d=" M20,0 L20,60 L211,340 L20,622 L20,677 L551,677 L551,557 L225,557 L371,341 L221,120 L562,120 L562,0"/> 
            <glyph glyph-name="Τ" unicode="&#x3A4;" horiz-adv-x="565" d=" M20,557 L20,677 L565,677 L565,557 L365,557 L365,0 L220,0 L220,557"/> 
            <glyph glyph-name="Υ" unicode="&#x3A5;" horiz-adv-x="660" d=" M20,677 L176,677 L343,394 L510,677 L660,677 L413,275 L413,0 L268,0 L268,278"/> 
            <glyph glyph-name="Φ" unicode="&#x3A6;" horiz-adv-x="835" d=" M510,200 L534,200 Q603,200 643.5,239 Q684,278 684,353 Q684,424 645.5,460.5 Q607,497 534,497 L510,497 M191,353 Q191,278 231.5,239 Q272,200 341,200 L365,200 L365,497 L334,497 Q191,492 191,353 M40,353 Q40,472 116,544.5 Q192,617 340,617 L365,617 L365,677 L510,677 L510,617 L535,617 Q683,617 759,544.5 Q835,472 835,353 Q835,231 756.5,155.5 Q678,80 535,80 L510,80 L510,0 L365,0 L365,80 L340,80 Q197,80 118.5,155.5 Q40,231 40,353"/> 
            <glyph glyph-name="Χ" unicode="&#x3A7;" horiz-adv-x="680" d=" M20,0 L249,338 L28,677 L187,677 L350,414 L513,677 L672,677 L451,338 L680,0 L510,0 L352,257 L184,0"/> 
            <glyph glyph-name="Ψ" unicode="&#x3A8;" horiz-adv-x="753" d=" M40,483 L40,677 L180,677 L180,483 Q180,410 219,371 Q258,332 324,330 L324,677 L469,677 L469,330 Q535,332 574,371 Q613,410 613,483 L613,677 L753,677 L753,483 Q753,361 681,286 Q609,211 469,210 L469,0 L324,0 L324,210 Q184,211 112,286 Q40,361 40,483"/> 
            <glyph glyph-name="Ω" unicode="&#x3A9;" horiz-adv-x="746" d=" M40,0 L40,120 L167,120 Q50,235 50,368 Q50,516 142,604 Q234,692 394,692 Q553,692 644.5,604 Q736,516 736,368 Q736,234 618,120 L746,120 L746,0 L430,0 L430,85 Q436,89 446.5,96 Q457,103 484,128.5 Q511,154 531,184 Q551,214 568,263.5 Q585,313 585,368 Q585,459 531,515.5 Q477,572 393,572 Q309,572 255,515.5 Q201,459 201,368 Q201,313 217,263.5 Q233,214 255.5,183 Q278,152 301,128.5 Q324,105 340,95 L356,85 L356,0"/> 
            <glyph glyph-name="Ϊ" unicode="&#x3AA;" horiz-adv-x="328" d=" M157,807 Q157,840 181.5,860.5 Q206,881 243,881 Q280,881 304,860.5 Q328,840 328,807 Q328,773 304,753 Q280,733 243,733 Q206,733 181.5,753 Q157,773 157,807 M70,0 L70,677 L215,677 L215,0 M-43,807 Q-43,840 -18.5,860.5 Q6,881 43,881 Q80,881 104,860.5 Q128,840 128,807 Q128,773 104,753 Q80,733 43,733 Q6,733 -18.5,753 Q-43,773 -43,807"/> 
            <glyph glyph-name="Ϋ" unicode="&#x3AB;" horiz-adv-x="660" d=" M357,807 Q357,840 381.5,860.5 Q406,881 443,881 Q480,881 504,860.5 Q528,840 528,807 Q528,773 504,753 Q480,733 443,733 Q406,733 381.5,753 Q357,773 357,807 M157,807 Q157,840 181.5,860.5 Q206,881 243,881 Q280,881 304,860.5 Q328,840 328,807 Q328,773 304,753 Q280,733 243,733 Q206,733 181.5,753 Q157,773 157,807 M20,677 L176,677 L343,394 L510,677 L660,677 L413,275 L413,0 L268,0 L268,278"/> 
            <glyph glyph-name="ά" unicode="&#x3AC;" horiz-adv-x="602" d=" M216,557 L246,717 L376,717 L346,557 M186,325 Q186,181 218.5,140.5 Q251,100 301,100 Q348,100 379,138 Q410,176 412,245 L412,260 Q410,329 379.5,364.5 Q349,400 301,400 Q251,400 186,325 M40,137 Q40,369 104,442 Q168,515 270,515 Q369,515 424,426 L452,500 L552,500 L552,179 Q552,139 562.5,124.5 Q573,110 602,110 L602,0 Q515,0 480.5,26.5 Q446,53 442,117 Q419,57 375.5,21 Q332,-15 270,-15 Q169,-15 40,137"/> 
            <glyph glyph-name="έ" unicode="&#x3AD;" horiz-adv-x="500" d=" M195,557 L225,717 L355,717 L325,557 M40,135 Q40,239 184,260 Q50,279 50,365 Q50,432 109,473.5 Q168,515 270,515 Q383,515 436.5,465 Q490,415 490,347 L345,347 Q345,374 329.5,387 Q314,400 270,400 Q196,400 196,355 Q196,313 280,310 L340,310 L340,195 L273,195 Q231,195 208.5,183 Q186,171 186,155 Q186,128 202,114 Q218,100 260,100 Q355,100 355,153 L500,153 Q500,85 441,35 Q382,-15 260,-15 Q158,-15 99,26.5 Q40,68 40,135"/> 
            <glyph glyph-name="ή" unicode="&#x3AE;" horiz-adv-x="570" d=" M252,557 L282,717 L412,717 L382,557 M70,0 L70,500 L170,500 L197,427 Q253,515 360,515 Q462,515 516,454.5 Q570,394 570,290 L570,-177 L430,-177 L430,290 Q428,337 399,368.5 Q370,400 321,400 Q273,400 242.5,365 Q212,330 210,283 L210,0"/> 
            <glyph glyph-name="ί" unicode="&#x3AF;" horiz-adv-x="250" d=" M63,557 L93,717 L223,717 L193,557 M60,139 L60,500 L200,500 L200,179 Q200,139 210.5,124.5 Q221,110 250,110 L250,0 Q138,0 99,31 Q60,62 60,139"/> 
            <glyph glyph-name="ΰ" unicode="&#x3B0;" horiz-adv-x="540" d=" M395,616 Q395,643 413.5,660 Q432,677 461,677 Q490,677 508.5,660 Q527,643 527,616 Q527,588 508.5,571.5 Q490,555 461,555 Q432,555 413.5,571.5 Q395,588 395,616 M225,557 L255,717 L385,717 L355,557 M73,616 Q73,643 91.5,660 Q110,677 139,677 Q168,677 186.5,660 Q205,643 205,616 Q205,588 186.5,571.5 Q168,555 139,555 Q110,555 91.5,571.5 Q73,588 73,616 M60,220 L60,500 L200,500 L200,220 Q200,172 224.5,136 Q249,100 301,100 Q352,100 376,136 Q400,172 400,220 L400,500 L540,500 L540,220 Q540,-15 300,-15 Q60,-15 60,220"/> 
            <glyph glyph-name="α" unicode="&#x3B1;" horiz-adv-x="602" d=" M186,325 Q186,181 218.5,140.5 Q251,100 301,100 Q348,100 379,138 Q410,176 412,245 L412,260 Q410,329 379.5,364.5 Q349,400 301,400 Q251,400 186,325 M40,137 Q40,369 104,442 Q168,515 270,515 Q369,515 424,426 L452,500 L552,500 L552,179 Q552,139 562.5,124.5 Q573,110 602,110 L602,0 Q515,0 480.5,26.5 Q446,53 442,117 Q419,57 375.5,21 Q332,-15 270,-15 Q169,-15 40,137"/> 
            <glyph glyph-name="β" unicode="&#x3B2;" horiz-adv-x="580" d=" M210,210 Q210,159 244,129.5 Q278,100 334,100 Q381,100 407.5,125 Q434,150 434,195 Q434,242 397,268.5 Q360,295 287,295 L260,295 L260,410 L274,410 Q327,411 355.5,437 Q384,463 384,502 Q384,532 362,554.5 Q340,577 298,577 Q250,577 230,535 Q210,493 210,389 M70,-177 L70,447 Q70,560 130.5,626 Q191,692 298,692 Q394,692 462,639 Q530,586 530,512 Q530,388 379,362 Q473,352 526.5,308.5 Q580,265 580,185 Q580,96 519.5,40.5 Q459,-15 368,-15 Q262,-15 210,39 L210,-177"/> 
            <glyph glyph-name="γ" unicode="&#x3B3;" horiz-adv-x="571" d=" M10,500 L165,500 L293,178 L421,500 L571,500 L357,0 L357,-177 L227,-177 L227,0"/> 
            <glyph glyph-name="δ" unicode="&#x3B4;" horiz-adv-x="561" d=" M186,235 Q186,175 216.5,137.5 Q247,100 301,100 Q355,100 385.5,137.5 Q416,175 416,235 Q416,294 386,327 Q356,360 301,360 Q246,360 216,327 Q186,294 186,235 M40,235 Q40,304 72.5,358.5 Q105,413 162,443 Q101,474 101,536 Q101,602 160,639.5 Q219,677 328,677 L417,677 L417,556 L321,556 Q296,556 280,552.5 Q264,549 257.5,542.5 Q251,536 249,530.5 Q247,525 247,517 Q247,477 293,475 L300,475 Q414,475 487.5,408 Q561,341 561,235 Q561,128 487,56.5 Q413,-15 300,-15 Q187,-15 113.5,56.5 Q40,128 40,235"/> 
            <glyph glyph-name="ε" unicode="&#x3B5;" horiz-adv-x="500" d=" M40,135 Q40,239 184,260 Q50,279 50,365 Q50,432 109,473.5 Q168,515 270,515 Q383,515 436.5,465 Q490,415 490,347 L345,347 Q345,374 329.5,387 Q314,400 270,400 Q196,400 196,355 Q196,310 291,310 L340,310 L340,195 L273,195 Q231,195 208.5,183 Q186,171 186,155 Q186,128 202,114 Q218,100 260,100 Q355,100 355,153 L500,153 Q500,85 441,35 Q382,-15 260,-15 Q158,-15 99,26.5 Q40,68 40,135"/> 
            <glyph glyph-name="ζ" unicode="&#x3B6;" horiz-adv-x="490" d=" M40,194 Q40,329 268,562 L60,562 L60,677 L490,677 L490,622 Q478,611 457.5,591 Q437,571 384.5,514.5 Q332,458 292,407 Q252,356 219,295.5 Q186,235 186,194 Q186,158 211,136.5 Q236,115 277,115 Q371,115 430.5,79.5 Q490,44 490,-33 Q490,-177 262,-177 L262,-72 Q339,-72 339,-33 Q339,-13 323.5,-6.5 Q308,0 277,0 Q158,0 99,51 Q40,102 40,194"/> 
            <glyph glyph-name="η" unicode="&#x3B7;" horiz-adv-x="570" d=" M70,0 L70,500 L170,500 L197,427 Q253,515 360,515 Q462,515 516,454.5 Q570,394 570,290 L570,-177 L430,-177 L430,290 Q428,337 399,368.5 Q370,400 321,400 Q273,400 242.5,365 Q212,330 210,283 L210,0"/> 
            <glyph glyph-name="θ" unicode="&#x3B8;" horiz-adv-x="562" d=" M178,407 L424,407 Q417,503 387,540 Q357,577 301,577 Q245,577 214.5,540 Q184,503 178,407 M177,292 Q182,187 212,143.5 Q242,100 301,100 Q359,100 389,143.5 Q419,187 425,292 M40,346 Q40,521 114,606.5 Q188,692 300,692 Q353,692 399,672.5 Q445,653 482,613 Q519,573 540.5,504.5 Q562,436 562,346 Q562,168 488.5,76.5 Q415,-15 300,-15 Q185,-15 112.5,76.5 Q40,168 40,346"/> 
            <glyph glyph-name="ι" unicode="&#x3B9;" horiz-adv-x="250" d=" M60,139 L60,500 L200,500 L200,179 Q200,139 210.5,124.5 Q221,110 250,110 L250,0 Q138,0 99,31 Q60,62 60,139"/> 
            <glyph glyph-name="κ" unicode="&#x3BA;" horiz-adv-x="549" d=" M70,0 L70,500 L210,500 L210,320 L244,320 L387,500 L541,500 L351,260 L549,0 L385,0 L229,205 L210,205 L210,0"/> 
            <glyph glyph-name="λ" unicode="&#x3BB;" horiz-adv-x="547" d=" M10,0 L218,490 Q196,556 141,556 L141,677 Q240,677 286,634.5 Q332,592 363,495 L461,215 Q484,160 503,135.5 Q522,111 547,111 L547,0 Q463,0 409,41 Q355,82 328,172 L284,317 L160,0"/> 
            <glyph glyph-name="μ" unicode="&#x3BC;" horiz-adv-x="570" d=" M70,-177 L70,500 L210,500 L210,220 L210,212 Q210,100 309,100 Q373,100 401.5,140.5 Q430,181 430,231 L430,500 L570,500 L570,0 L470,0 L447,60 Q399,-12 300,-15 L295,-15 Q241,-15 210,13 L210,-177"/> 
            <glyph glyph-name="ν" unicode="&#x3BD;" horiz-adv-x="580" d=" M20,500 L175,500 L302,184 L430,500 L580,500 L371,0 L232,0"/> 
            <glyph glyph-name="ξ" unicode="&#x3BE;" horiz-adv-x="490" d=" M40,195 Q40,338 206,361 Q50,385 50,512 Q50,588 109.5,640 Q169,692 270,692 Q383,692 436.5,642 Q490,592 490,524 L345,524 Q345,551 329.5,564 Q314,577 270,577 Q196,577 196,502 Q196,462 226,436 Q256,410 311,410 L420,410 L420,295 L293,295 Q246,295 216,271.5 Q186,248 186,205 Q186,115 297,115 Q377,115 433.5,79 Q490,43 490,-33 Q490,-177 262,-177 L262,-72 Q339,-72 339,-33 Q339,-13 323.5,-6.5 Q308,0 277,0 Q158,0 99,51 Q40,102 40,195"/> 
            <glyph glyph-name="ο" unicode="&#x3BF;" horiz-adv-x="560" d=" M185,253 Q185,184 215.5,142 Q246,100 300,100 Q354,100 384.5,142 Q415,184 415,253 Q415,321 384.5,360.5 Q354,400 300,400 Q246,400 215.5,360.5 Q185,321 185,253 M40,253 Q40,368 113,441.5 Q186,515 300,515 Q414,515 487,441.5 Q560,368 560,253 Q560,137 487,61 Q414,-15 300,-15 Q186,-15 113,61 Q40,137 40,253"/> 
            <glyph glyph-name="π" unicode="&#x3C0;" horiz-adv-x="580" d=" M40,385 L40,500 L580,500 L580,385 L530,385 L530,179 Q530,139 540.5,124.5 Q551,110 580,110 L580,0 Q468,0 429,31 Q390,62 390,139 L390,385 L230,385 L230,0 L90,0 L90,385"/> 
            <glyph glyph-name="ρ" unicode="&#x3C1;" horiz-adv-x="592" d=" M200,246 Q202,181 234.5,140.5 Q267,100 321,100 Q377,100 411.5,142.5 Q446,185 446,253 Q446,320 412,360 Q378,400 321,400 Q265,400 232.5,360.5 Q200,321 200,253 M60,-177 L60,253 Q60,366 129,440.5 Q198,515 321,515 Q445,515 518.5,440 Q592,365 592,253 Q592,136 532,60.5 Q472,-15 352,-15 Q251,-15 200,49 L200,-177"/> 
            <glyph glyph-name="ς" unicode="&#x3C2;" horiz-adv-x="523" d=" M40,253 Q40,368 111.5,441.5 Q183,515 290,515 Q418,515 483,440 Q523,394 523,317 L378,317 Q378,354 362,374 Q342,400 295,400 Q247,400 216.5,360.5 Q186,321 186,253 Q186,174 217.5,144.5 Q249,115 330,115 Q410,115 466.5,79 Q523,43 523,-33 Q523,-177 295,-177 L295,-72 Q372,-72 372,-33 Q372,-13 356.5,-6.5 Q341,0 310,0 Q257,0 211.5,12.5 Q166,25 126,52.5 Q86,80 63,131.5 Q40,183 40,253"/> 
            <glyph glyph-name="σ" unicode="&#x3C3;" horiz-adv-x="600" d=" M176,248 Q176,180 206.5,140 Q237,100 291,100 Q345,100 375.5,140 Q406,180 406,248 Q406,309 375.5,347 Q345,385 291,385 L290,385 Q236,384 206,346.5 Q176,309 176,248 M30,248 Q30,357 103.5,428.5 Q177,500 290,500 L600,500 L600,385 L512,385 Q551,324 551,248 Q551,133 477.5,59 Q404,-15 290,-15 Q176,-15 103,59 Q30,133 30,248"/> 
            <glyph glyph-name="τ" unicode="&#x3C4;" horiz-adv-x="480" d=" M20,385 L20,500 L480,500 L480,385 L320,385 L320,179 Q320,139 330.5,124.5 Q341,110 370,110 L370,0 Q258,0 219,31 Q180,62 180,139 L180,385"/> 
            <glyph glyph-name="υ" unicode="&#x3C5;" horiz-adv-x="540" d=" M60,220 L60,500 L200,500 L200,220 Q200,172 224.5,136 Q249,100 301,100 Q352,100 376,136 Q400,172 400,220 L400,500 L540,500 L540,220 Q540,-15 300,-15 Q60,-15 60,220"/> 
            <glyph glyph-name="φ" unicode="&#x3C6;" horiz-adv-x="762" d=" M471,115 L481,115 Q541,115 578.5,154 Q616,193 616,253 Q616,313 578.5,349 Q541,385 481,385 L471,385 M186,313 Q186,193 223.5,154 Q261,115 321,115 L331,115 L331,385 L321,385 Q261,385 186,313 M40,149 Q40,357 111,428.5 Q182,500 300,500 L331,500 L331,677 L471,677 L471,500 L502,500 Q620,500 691,428.5 Q762,357 762,253 Q762,149 689,74.5 Q616,0 502,0 L471,0 L471,-177 L331,-177 L331,0 L300,0 Q186,0 40,149"/> 
            <glyph glyph-name="χ" unicode="&#x3C7;" horiz-adv-x="560" d=" M10,-177 L199,174 L18,500 L167,500 L290,266 L403,500 L552,500 L370,174 L560,-177 L400,-177 L283,64 L164,-177"/> 
            <glyph glyph-name="ψ" unicode="&#x3C8;" horiz-adv-x="730" d=" M60,255 L60,500 L200,500 L200,255 Q200,196 236.5,155.5 Q273,115 325,115 L325,677 L465,677 L465,115 Q517,115 553.5,155.5 Q590,196 590,255 L590,500 L730,500 L730,255 Q730,151 661.5,75.5 Q593,0 486,0 L465,0 L465,-177 L325,-177 L325,0 L304,0 Q197,0 128.5,75.5 Q60,151 60,255"/> 
            <glyph glyph-name="ω" unicode="&#x3C9;" horiz-adv-x="760" d=" M40,250 Q40,322 62.5,384.5 Q85,447 108,474 L130,500 L250,500 Q242,487 230.5,464 Q219,441 199.5,375 Q180,309 180,250 Q180,100 263,100 Q330,100 330,220 L330,400 L470,400 L470,220 Q470,171 485.5,135.5 Q501,100 537,100 Q620,100 620,250 Q620,309 602.5,371.5 Q585,434 568,467 L550,500 L670,500 Q674,496 680,489.5 Q686,483 701.5,459 Q717,435 729,408.5 Q741,382 750.5,339 Q760,296 760,250 Q760,116 707.5,50.5 Q655,-15 561,-15 Q427,-15 400,94 Q371,-15 239,-15 Q145,-15 92.5,50.5 Q40,116 40,250"/> 
            <glyph glyph-name="ϊ" unicode="&#x3CA;" horiz-adv-x="317" d=" M146,630 Q146,663 170.5,683.5 Q195,704 232,704 Q269,704 293,683.5 Q317,663 317,630 Q317,596 293,576 Q269,556 232,556 Q195,556 170.5,576 Q146,596 146,630 M60,139 L60,500 L200,500 L200,179 Q200,139 210.5,124.5 Q221,110 250,110 L250,0 Q138,0 99,31 Q60,62 60,139 M-54,630 Q-54,663 -29.5,683.5 Q-5,704 32,704 Q69,704 93,683.5 Q117,663 117,630 Q117,596 93,576 Q69,556 32,556 Q-5,556 -29.5,576 Q-54,596 -54,630"/> 
            <glyph glyph-name="ϋ" unicode="&#x3CB;" horiz-adv-x="540" d=" M317,630 Q317,663 341.5,683.5 Q366,704 403,704 Q440,704 464,683.5 Q488,663 488,630 Q488,596 464,576 Q440,556 403,556 Q366,556 341.5,576 Q317,596 317,630 M117,630 Q117,663 141.5,683.5 Q166,704 203,704 Q240,704 264,683.5 Q288,663 288,630 Q288,596 264,576 Q240,556 203,556 Q166,556 141.5,576 Q117,596 117,630 M60,220 L60,500 L200,500 L200,220 Q200,172 224.5,136 Q249,100 301,100 Q352,100 376,136 Q400,172 400,220 L400,500 L540,500 L540,220 Q540,-15 300,-15 Q60,-15 60,220"/> 
            <glyph glyph-name="ό" unicode="&#x3CC;" horiz-adv-x="560" d=" M215,557 L245,717 L375,717 L345,557 M185,253 Q185,184 215.5,142 Q246,100 300,100 Q354,100 384.5,142 Q415,184 415,253 Q415,321 384.5,360.5 Q354,400 300,400 Q246,400 215.5,360.5 Q185,321 185,253 M40,253 Q40,368 113,441.5 Q186,515 300,515 Q414,515 487,441.5 Q560,368 560,253 Q560,137 487,61 Q414,-15 300,-15 Q186,-15 113,61 Q40,137 40,253"/> 
            <glyph glyph-name="ύ" unicode="&#x3CD;" horiz-adv-x="540" d=" M225,557 L255,717 L385,717 L355,557 M60,220 L60,500 L200,500 L200,220 Q200,172 224.5,136 Q249,100 301,100 Q352,100 376,136 Q400,172 400,220 L400,500 L540,500 L540,220 Q540,-15 300,-15 Q60,-15 60,220"/> 
            <glyph glyph-name="ώ" unicode="&#x3CE;" horiz-adv-x="760" d=" M320,557 L350,717 L480,717 L450,557 M40,250 Q40,322 62.5,384.5 Q85,447 108,474 L130,500 L250,500 Q242,487 230.5,464 Q219,441 199.5,375 Q180,309 180,250 Q180,100 263,100 Q330,100 330,220 L330,400 L470,400 L470,220 Q470,171 485.5,135.5 Q501,100 537,100 Q620,100 620,250 Q620,309 602.5,371.5 Q585,434 568,467 L550,500 L670,500 Q674,496 680,489.5 Q686,483 701.5,459 Q717,435 729,408.5 Q741,382 750.5,339 Q760,296 760,250 Q760,116 707.5,50.5 Q655,-15 561,-15 Q427,-15 400,94 Q371,-15 239,-15 Q145,-15 92.5,50.5 Q40,116 40,250"/> 
            <glyph glyph-name="Ё" unicode="&#x401;" horiz-adv-x="560" d=" M329,807 Q329,840 353.5,860.5 Q378,881 415,881 Q452,881 476,860.5 Q500,840 500,807 Q500,773 476,753 Q452,733 415,733 Q378,733 353.5,753 Q329,773 329,807 M129,807 Q129,840 153.5,860.5 Q178,881 215,881 Q252,881 276,860.5 Q300,840 300,807 Q300,773 276,753 Q252,733 215,733 Q178,733 153.5,753 Q129,773 129,807 M70,0 L70,677 L560,677 L560,557 L215,557 L215,418 L500,418 L500,298 L215,298 L215,120 L560,120 L560,0"/> 
            <glyph glyph-name="Ђ" unicode="&#x402;" horiz-adv-x="760" d=" M20,557 L20,677 L565,677 L565,557 L365,557 L365,427 L501,427 Q760,427 760,221 L760,177 Q760,91 707,45.5 Q654,0 574,0 L525,0 L525,121 L561,121 Q620,121 620,217 L620,221 Q620,307 500,307 L365,307 L365,0 L220,0 L220,557"/> 
            <glyph glyph-name="Є" unicode="&#x404;" horiz-adv-x="680" d=" M40,344 Q40,512 131.5,602 Q223,692 380,692 Q524,692 601.5,620.5 Q679,549 679,450 L532,450 Q532,503 491.5,537.5 Q451,572 381,572 Q216,572 190,408 L422,408 L422,288 L189,288 Q201,193 253,149 Q305,105 381,105 Q450,105 492.5,144 Q535,183 535,237 L680,237 Q680,137 602,61 Q524,-15 380,-15 Q224,-15 132,80 Q40,175 40,344"/> 
            <glyph glyph-name="Ѕ" unicode="&#x405;" horiz-adv-x="626" d=" M40,213 L191,213 Q191,164 232.5,134.5 Q274,105 348,105 Q404,105 439,127.5 Q474,150 474,185 Q474,214 451.5,232.5 Q429,251 393,260.5 Q357,270 313.5,277.5 Q270,285 226,298.5 Q182,312 146,333.5 Q110,355 87.5,396.5 Q65,438 65,497 Q65,576 139.5,634 Q214,692 342,692 Q416,692 472,671.5 Q528,651 558.5,617 Q589,583 604,546 Q619,509 619,469 L468,469 Q468,514 438,543 Q408,572 342,572 Q288,572 252.5,551.5 Q217,531 217,497 Q217,464 239.5,442.5 Q262,421 298,411 Q334,401 378,393 Q422,385 465.5,372.5 Q509,360 545,340.5 Q581,321 603.5,281.5 Q626,242 626,185 Q626,99 553.5,42 Q481,-15 348,-15 Q267,-15 205.5,5 Q144,25 109,58.5 Q74,92 57,131 Q40,170 40,213"/> 
            <glyph glyph-name="І" unicode="&#x406;" horiz-adv-x="215" d=" M70,0 L70,677 L215,677 L215,0"/> 
            <glyph glyph-name="Ї" unicode="&#x407;" horiz-adv-x="328" d=" M157,807 Q157,840 181.5,860.5 Q206,881 243,881 Q280,881 304,860.5 Q328,840 328,807 Q328,773 304,753 Q280,733 243,733 Q206,733 181.5,753 Q157,773 157,807 M70,0 L70,677 L215,677 L215,0 M-43,807 Q-43,840 -18.5,860.5 Q6,881 43,881 Q80,881 104,860.5 Q128,840 128,807 Q128,773 104,753 Q80,733 43,733 Q6,733 -18.5,753 Q-43,773 -43,807"/> 
            <glyph glyph-name="Ј" unicode="&#x408;" horiz-adv-x="490" d=" M40,203 L185,203 Q185,141 205,120.5 Q225,100 269,100 Q310,100 327.5,120 Q345,140 345,195 L345,677 L490,677 L490,195 Q490,90 436,37.5 Q382,-15 269,-15 Q148,-15 94,41 Q40,97 40,203"/> 
            <glyph glyph-name="Љ" unicode="&#x409;" horiz-adv-x="1000" d=" M595,120 L699,120 Q849,120 849,243 Q849,305 811.5,331 Q774,357 699,357 L595,357 M20,0 L20,136 L48,136 Q91,136 115.5,217 Q140,298 140,459 L140,677 L595,677 L595,477 L700,477 Q1000,477 1000,243 Q1000,125 923.5,62.5 Q847,0 700,0 L450,0 L450,557 L285,557 L285,432 Q285,0 51,0"/> 
            <glyph glyph-name="Њ" unicode="&#x40A;" horiz-adv-x="1060" d=" M655,120 L759,120 Q909,120 909,243 Q909,305 871.5,331 Q834,357 759,357 L655,357 M70,0 L70,677 L215,677 L215,418 L510,418 L510,677 L655,677 L655,477 L760,477 Q1060,477 1060,243 Q1060,125 983.5,62.5 Q907,0 760,0 L510,0 L510,298 L215,298 L215,0"/> 
            <glyph glyph-name="Ћ" unicode="&#x40B;" horiz-adv-x="760" d=" M20,557 L20,677 L565,677 L565,557 L365,557 L365,427 L501,427 Q641,427 700.5,366 Q760,305 760,194 L760,0 L620,0 L620,194 Q620,250 592,278.5 Q564,307 500,307 L365,307 L365,0 L220,0 L220,557"/> 
            <glyph glyph-name="Ў" unicode="&#x40E;" horiz-adv-x="700" d=" M180,821 L316,821 Q318,805 331,789 Q344,773 361,773 L371,773 Q388,773 401,789 Q414,805 416,821 L552,821 Q544,768 492,730 Q440,692 374,692 L358,692 Q292,692 240,730 Q188,768 180,821 M20,677 L178,677 L377,322 L540,677 L700,677 L451,177 Q356,0 204,0 L155,0 L155,126 L201,126 Q274,126 303,192"/> 
            <glyph glyph-name="Џ" unicode="&#x40F;" horiz-adv-x="645" d=" M70,0 L70,677 L215,677 L215,120 L500,120 L500,677 L645,677 L645,0 L425,0 L425,-177 L280,-177 L280,0"/> 
            <glyph glyph-name="А" unicode="&#x410;" horiz-adv-x="680" d=" M256,258 L439,258 L347,535 M20,0 L269,677 L428,677 L680,0 L525,0 L479,138 L216,138 L170,0"/> 
            <glyph glyph-name="Б" unicode="&#x411;" horiz-adv-x="620" d=" M215,120 L332,120 Q469,123 469,213 Q469,260 432.5,278.5 Q396,297 319,297 L215,297 M70,0 L70,677 L520,677 L520,557 L215,557 L215,417 L320,417 Q620,417 620,213 Q620,110 543.5,55 Q467,0 320,0"/> 
            <glyph glyph-name="В" unicode="&#x412;" horiz-adv-x="640" d=" M215,400 L319,400 Q459,400 459,483 Q459,557 329,557 L215,557 M215,120 L359,120 Q489,120 489,205 Q489,245 449,267.5 Q409,290 349,290 L215,290 M70,0 L70,677 L330,677 Q469,677 539.5,626 Q610,575 610,493 Q610,391 514,352 Q640,307 640,195 Q640,105 568.5,52.5 Q497,0 360,0"/> 
            <glyph glyph-name="Г" unicode="&#x413;" horiz-adv-x="450" d=" M70,0 L70,677 L450,677 L450,557 L215,557 L215,0"/> 
            <glyph glyph-name="Д" unicode="&#x414;" horiz-adv-x="695" d=" M232,120 L470,120 L470,557 L275,557 L275,432 Q275,238 232,120 M20,120 L87,120 Q130,247 130,459 L130,677 L615,677 L615,120 L695,120 L695,-177 L550,-177 L550,0 L165,0 L165,-177 L20,-177"/> 
            <glyph glyph-name="Е" unicode="&#x415;" horiz-adv-x="560" d=" M70,0 L70,677 L560,677 L560,557 L215,557 L215,418 L500,418 L500,298 L215,298 L215,120 L560,120 L560,0"/> 
            <glyph glyph-name="Ж" unicode="&#x416;" horiz-adv-x="945" d=" M20,0 L254,356 L37,677 L191,677 L362,418 L410,418 L410,677 L555,677 L555,418 L602,418 L774,677 L928,677 L710,356 L945,0 L781,0 L588,298 L555,298 L555,0 L410,0 L410,298 L376,298 L184,0"/> 
            <glyph glyph-name="З" unicode="&#x417;" horiz-adv-x="650" d=" M40,213 L191,213 Q191,163 230,134 Q269,105 349,105 Q499,105 499,205 Q499,285 349,285 L290,285 L290,405 L333,405 Q404,406 436.5,423 Q469,440 469,483 Q469,525 431.5,548.5 Q394,572 330,572 Q270,572 237,542 Q204,512 204,469 L53,469 Q53,508 69,546 Q85,584 117,617.5 Q149,651 204.5,671.5 Q260,692 330,692 Q472,692 546,631.5 Q620,571 620,493 Q620,385 507,348 Q650,310 650,195 Q650,107 573,46 Q496,-15 349,-15 Q265,-15 202.5,5 Q140,25 106,58.5 Q72,92 56,130.5 Q40,169 40,213"/> 
            <glyph glyph-name="И" unicode="&#x418;" horiz-adv-x="685" d=" M70,0 L70,677 L215,677 L215,199 L515,677 L685,677 L685,0 L540,0 L540,478 L240,0"/> 
            <glyph glyph-name="Й" unicode="&#x419;" horiz-adv-x="685" d=" M192,821 L328,821 Q330,805 343,789 Q356,773 373,773 L383,773 Q400,773 413,789 Q426,805 428,821 L564,821 Q556,768 504,730 Q452,692 386,692 L370,692 Q304,692 252,730 Q200,768 192,821 M70,0 L70,677 L215,677 L215,199 L515,677 L685,677 L685,0 L540,0 L540,478 L240,0"/> 
            <glyph glyph-name="К" unicode="&#x41A;" horiz-adv-x="655" d=" M70,0 L70,677 L215,677 L215,418 L263,418 L474,677 L638,677 L371,355 L655,0 L481,0 L247,298 L215,298 L215,0"/> 
            <glyph glyph-name="Л" unicode="&#x41B;" horiz-adv-x="595" d=" M20,0 L20,136 L48,136 Q91,136 115.5,217 Q140,298 140,459 L140,677 L595,677 L595,0 L450,0 L450,557 L285,557 L285,432 Q285,0 51,0"/> 
            <glyph glyph-name="М" unicode="&#x41C;" horiz-adv-x="765" d=" M70,0 L70,677 L240,677 L417,359 L595,677 L765,677 L765,0 L620,0 L620,469 L466,190 L367,190 L215,462 L215,0"/> 
            <glyph glyph-name="Н" unicode="&#x41D;" horiz-adv-x="655" d=" M70,0 L70,677 L215,677 L215,418 L510,418 L510,677 L655,677 L655,0 L510,0 L510,298 L215,298 L215,0"/> 
            <glyph glyph-name="О" unicode="&#x41E;" horiz-adv-x="740" d=" M195,344 Q195,232 252,168.5 Q309,105 390,105 Q471,105 528,168.5 Q585,232 585,344 Q585,455 528.5,513.5 Q472,572 390,572 Q308,572 251.5,513.5 Q195,455 195,344 M40,344 Q40,506 135.5,599 Q231,692 390,692 Q549,692 644.5,599 Q740,506 740,344 Q740,181 644,83 Q548,-15 390,-15 Q232,-15 136,83 Q40,181 40,344"/> 
            <glyph glyph-name="П" unicode="&#x41F;" horiz-adv-x="645" d=" M70,0 L70,677 L645,677 L645,0 L500,0 L500,557 L215,557 L215,0"/> 
            <glyph glyph-name="Р" unicode="&#x420;" horiz-adv-x="620" d=" M215,320 L332,320 Q469,325 469,443 Q469,505 431.5,531 Q394,557 319,557 L215,557 M70,0 L70,677 L320,677 Q620,677 620,443 Q620,325 543.5,262.5 Q467,200 320,200 L215,200 L215,0"/> 
            <glyph glyph-name="С" unicode="&#x421;" horiz-adv-x="680" d=" M40,344 Q40,512 131.5,602 Q223,692 380,692 Q524,692 601.5,620.5 Q679,549 679,450 L532,450 Q532,503 491.5,537.5 Q451,572 381,572 Q301,572 248.5,516 Q196,460 196,344 Q196,227 249.5,166 Q303,105 381,105 Q450,105 492.5,144 Q535,183 535,237 L680,237 Q680,137 602,61 Q524,-15 380,-15 Q224,-15 132,80 Q40,175 40,344"/> 
            <glyph glyph-name="Т" unicode="&#x422;" horiz-adv-x="565" d=" M20,557 L20,677 L565,677 L565,557 L365,557 L365,0 L220,0 L220,557"/> 
            <glyph glyph-name="У" unicode="&#x423;" horiz-adv-x="700" d=" M20,677 L178,677 L377,322 L540,677 L700,677 L451,177 Q356,0 204,0 L155,0 L155,126 L201,126 Q274,126 303,192"/> 
            <glyph glyph-name="Ф" unicode="&#x424;" horiz-adv-x="835" d=" M510,200 L534,200 Q603,200 643.5,239 Q684,278 684,353 Q684,424 645.5,460.5 Q607,497 534,497 L510,497 M191,353 Q191,278 231.5,239 Q272,200 341,200 L365,200 L365,497 L334,497 Q191,492 191,353 M40,353 Q40,472 116,544.5 Q192,617 340,617 L365,617 L365,677 L510,677 L510,617 L535,617 Q683,617 759,544.5 Q835,472 835,353 Q835,231 756.5,155.5 Q678,80 535,80 L510,80 L510,0 L365,0 L365,80 L340,80 Q197,80 118.5,155.5 Q40,231 40,353"/> 
            <glyph glyph-name="Х" unicode="&#x425;" horiz-adv-x="680" d=" M20,0 L249,338 L28,677 L187,677 L350,414 L513,677 L672,677 L451,338 L680,0 L510,0 L352,257 L184,0"/> 
            <glyph glyph-name="Ц" unicode="&#x426;" horiz-adv-x="725" d=" M70,0 L70,677 L215,677 L215,120 L500,120 L500,677 L645,677 L645,120 L725,120 L725,-177 L580,-177 L580,0"/> 
            <glyph glyph-name="Ч" unicode="&#x427;" horiz-adv-x="580" d=" M40,483 L40,677 L180,677 L180,483 Q180,413 207,381.5 Q234,350 300,350 L435,350 L435,677 L580,677 L580,0 L435,0 L435,230 L299,230 Q158,230 99,294 Q40,358 40,483"/> 
            <glyph glyph-name="Ш" unicode="&#x428;" horiz-adv-x="895" d=" M70,0 L70,677 L215,677 L215,120 L410,120 L410,677 L555,677 L555,120 L750,120 L750,677 L895,677 L895,0"/> 
            <glyph glyph-name="Щ" unicode="&#x429;" horiz-adv-x="975" d=" M70,0 L70,677 L215,677 L215,120 L410,120 L410,677 L555,677 L555,120 L750,120 L750,677 L895,677 L895,120 L975,120 L975,-177 L830,-177 L830,0"/> 
            <glyph glyph-name="Ъ" unicode="&#x42A;" horiz-adv-x="800" d=" M395,120 L499,120 Q649,120 649,243 Q649,305 611.5,331 Q574,357 499,357 L395,357 M20,557 L20,677 L395,677 L395,477 L500,477 Q800,477 800,243 Q800,125 723.5,62.5 Q647,0 500,0 L250,0 L250,557"/> 
            <glyph glyph-name="Ы" unicode="&#x42B;" horiz-adv-x="825" d=" M680,0 L680,677 L825,677 L825,0 M215,120 L302,120 Q439,125 439,243 Q439,305 401.5,331 Q364,357 289,357 L215,357 M70,0 L70,677 L215,677 L215,477 L290,477 Q590,477 590,243 Q590,125 513.5,62.5 Q437,0 290,0"/> 
            <glyph glyph-name="Ь" unicode="&#x42C;" horiz-adv-x="620" d=" M215,120 L319,120 Q469,120 469,243 Q469,305 431.5,331 Q394,357 319,357 L215,357 M70,0 L70,677 L215,677 L215,477 L320,477 Q620,477 620,243 Q620,125 543.5,62.5 Q467,0 320,0"/> 
            <glyph glyph-name="Э" unicode="&#x42D;" horiz-adv-x="680" d=" M40,440 Q40,540 118,616 Q196,692 340,692 Q496,692 588,597 Q680,502 680,333 Q680,165 588.5,75 Q497,-15 340,-15 Q196,-15 118.5,56.5 Q41,128 41,227 L188,227 Q188,174 228.5,139.5 Q269,105 339,105 Q504,105 529,269 L298,269 L298,389 L530,389 Q518,483 466.5,527.5 Q415,572 339,572 Q270,572 227.5,533 Q185,494 185,440"/> 
            <glyph glyph-name="Ю" unicode="&#x42E;" horiz-adv-x="1031" d=" M486,344 Q486,232 543,168.5 Q600,105 681,105 Q762,105 819,168.5 Q876,232 876,344 Q876,455 819.5,513.5 Q763,572 681,572 Q599,572 542.5,513.5 Q486,455 486,344 M70,0 L70,677 L215,677 L215,418 L345,418 Q365,548 453,620 Q541,692 680,692 Q839,692 935,599 Q1031,506 1031,344 Q1031,181 934.5,83 Q838,-15 680,-15 Q535,-15 445,69 Q355,153 342,298 L215,298 L215,0"/> 
            <glyph glyph-name="Я" unicode="&#x42F;" horiz-adv-x="590" d=" M191,434 Q191,372 228.5,346 Q266,320 341,320 L445,320 L445,557 L328,557 Q191,552 191,434 M40,0 L176,225 Q40,277 40,434 Q40,552 116.5,614.5 Q193,677 340,677 L590,677 L590,0 L445,0 L445,200 L340,200 L321,200 L199,0"/> 
            <glyph glyph-name="а" unicode="&#x430;" horiz-adv-x="557" d=" M186,325 Q186,181 218.5,140.5 Q251,100 301,100 Q348,100 379,138 Q410,176 412,245 L412,260 Q410,329 379.5,364.5 Q349,400 301,400 Q251,400 186,325 M40,137 Q40,369 104,442 Q168,515 270,515 Q369,515 424,426 L452,500 L557,500 L557,0 L452,0 L421,73 Q367,-15 270,-15 Q169,-15 40,137"/> 
            <glyph glyph-name="б" unicode="&#x431;" horiz-adv-x="572" d=" M200,225 Q200,172 231.5,136 Q263,100 311,100 Q360,100 393,136 Q426,172 426,225 Q426,277 393.5,308.5 Q361,340 311,340 Q262,340 231,308.5 Q200,277 200,225 M60,225 L60,333 Q60,414 83.5,476 Q107,538 149.5,576 Q192,614 242,636 Q292,658 354,667 L522,692 L542,564 L382,539 Q274,522 227,482.5 Q180,443 180,347 Q203,400 245,427.5 Q287,455 339,455 Q442,455 507,390 Q572,325 572,225 Q572,126 499.5,55.5 Q427,-15 311,-15 Q199,-15 129.5,55.5 Q60,126 60,225"/> 
            <glyph glyph-name="в" unicode="&#x432;" horiz-adv-x="530" d=" M200,295 L290,295 Q335,295 354.5,306.5 Q374,318 374,345 Q374,395 290,395 L200,395 M200,105 L300,105 Q384,105 384,160 Q384,210 300,210 L200,210 M70,0 L70,500 L300,500 Q520,500 520,365 Q520,278 392,256 Q530,240 530,145 Q530,79 476.5,39.5 Q423,0 310,0"/> 
            <glyph glyph-name="г" unicode="&#x433;" horiz-adv-x="430" d=" M70,0 L70,500 L430,500 L430,385 L210,385 L210,0"/> 
            <glyph glyph-name="д" unicode="&#x434;" horiz-adv-x="610" d=" M229,115 L390,115 L390,385 L260,385 L260,362 Q260,244 229,115 M20,115 L88,115 Q120,253 120,389 L120,500 L530,500 L530,115 L610,115 L610,-177 L470,-177 L470,0 L160,0 L160,-177 L20,-177"/> 
            <glyph glyph-name="е" unicode="&#x435;" horiz-adv-x="545" d=" M188,310 L403,310 Q402,353 374.5,381.5 Q347,410 297,410 Q247,410 218,381.5 Q189,353 188,310 M40,132 Q40,374 112,444.5 Q184,515 297,515 Q407,515 476,444 Q545,373 545,266 L545,225 L188,225 Q189,171 220.5,135.5 Q252,100 303,100 Q358,100 382,131 Q396,149 396,165 L541,165 Q541,117 505,72 Q436,-15 303,-15 Q190,-15 40,132"/> 
            <glyph glyph-name="ж" unicode="&#x436;" horiz-adv-x="778" d=" M20,0 L169,261 L28,500 L177,500 L283,320 L324,320 L324,500 L464,500 L464,320 L507,320 L621,500 L770,500 L619,261 L778,0 L624,0 L499,205 L464,205 L464,0 L324,0 L324,205 L291,205 L174,0"/> 
            <glyph glyph-name="з" unicode="&#x437;" horiz-adv-x="505" d=" M40,153 L185,153 Q185,90 270,90 Q354,90 354,147 Q354,175 333,187.5 Q312,200 267,200 L210,200 L210,305 L260,305 Q344,308 344,360 Q344,385 328,397.5 Q312,410 270,410 Q227,410 211,394 Q195,378 195,347 L50,347 Q50,415 103.5,465 Q157,515 270,515 Q379,515 437,474 Q495,433 495,365 Q495,282 387,256 Q505,232 505,135 Q505,68 442.5,26.5 Q380,-15 270,-15 Q154,-15 97,35 Q40,85 40,153"/> 
            <glyph glyph-name="и" unicode="&#x438;" horiz-adv-x="550" d=" M70,0 L70,500 L210,500 L210,205 L400,500 L550,500 L550,0 L410,0 L410,295 L220,0"/> 
            <glyph glyph-name="й" unicode="&#x439;" horiz-adv-x="550" d=" M122,677 L258,677 Q260,661 273,645 Q286,629 303,629 L313,629 Q330,629 343,645 Q356,661 358,677 L494,677 Q486,624 434,586 Q382,548 316,548 L300,548 Q234,548 182,586 Q130,624 122,677 M70,0 L70,500 L210,500 L210,205 L400,500 L550,500 L550,0 L410,0 L410,295 L220,0"/> 
            <glyph glyph-name="к" unicode="&#x43A;" horiz-adv-x="549" d=" M70,0 L70,500 L210,500 L210,320 L244,320 L387,500 L541,500 L351,260 L549,0 L385,0 L229,205 L210,205 L210,0"/> 
            <glyph glyph-name="л" unicode="&#x43B;" horiz-adv-x="510" d=" M20,0 L20,131 L48,131 Q88,131 104,193 Q120,255 120,389 L120,500 L510,500 L510,0 L370,0 L370,385 L260,385 L260,362 Q260,166 209.5,83 Q159,0 51,0"/> 
            <glyph glyph-name="м" unicode="&#x43C;" horiz-adv-x="660" d=" M70,0 L70,500 L230,500 L365,274 L500,500 L660,500 L660,0 L520,0 L520,309 L406,117 L324,117 L210,309 L210,0"/> 
            <glyph glyph-name="н" unicode="&#x43D;" horiz-adv-x="540" d=" M70,0 L70,500 L210,500 L210,320 L400,320 L400,500 L540,500 L540,0 L400,0 L400,205 L210,205 L210,0"/> 
            <glyph glyph-name="о" unicode="&#x43E;" horiz-adv-x="560" d=" M185,253 Q185,184 215.5,142 Q246,100 300,100 Q354,100 384.5,142 Q415,184 415,253 Q415,321 384.5,360.5 Q354,400 300,400 Q246,400 215.5,360.5 Q185,321 185,253 M40,253 Q40,368 113,441.5 Q186,515 300,515 Q414,515 487,441.5 Q560,368 560,253 Q560,137 487,61 Q414,-15 300,-15 Q186,-15 113,61 Q40,137 40,253"/> 
            <glyph glyph-name="п" unicode="&#x43F;" horiz-adv-x="530" d=" M70,0 L70,500 L530,500 L530,0 L390,0 L390,385 L210,385 L210,0"/> 
            <glyph glyph-name="р" unicode="&#x440;" horiz-adv-x="582" d=" M210,253 Q210,184 239,142 Q268,100 321,100 Q375,100 405.5,142.5 Q436,185 436,253 Q436,321 406,360.5 Q376,400 321,400 Q271,400 241.5,359 Q212,318 210,259 M70,-177 L70,500 L170,500 L197,423 Q252,515 352,515 Q460,515 521,443 Q582,371 582,253 Q582,136 519,60.5 Q456,-15 352,-15 Q263,-15 210,58 L210,-177"/> 
            <glyph glyph-name="с" unicode="&#x441;" horiz-adv-x="525" d=" M40,253 Q40,368 113,441.5 Q186,515 300,515 Q418,515 483,440 Q523,394 523,317 L378,317 Q378,354 362,374 Q342,400 295,400 Q247,400 216.5,360.5 Q186,321 186,253 Q186,185 216.5,142.5 Q247,100 295,100 Q341,100 363,127 Q380,148 380,185 L525,185 Q525,109 486,63 Q419,-15 300,-15 Q186,-15 113,61 Q40,137 40,253"/> 
            <glyph glyph-name="т" unicode="&#x442;" horiz-adv-x="480" d=" M20,385 L20,500 L480,500 L480,385 L320,385 L320,0 L180,0 L180,385"/> 
            <glyph glyph-name="у" unicode="&#x443;" horiz-adv-x="560" d=" M20,500 L170,500 L298,165 L415,500 L560,500 L373,5 Q299,-177 144,-177 L95,-177 L95,-56 L141,-56 Q196,-56 226,13"/> 
            <glyph glyph-name="ф" unicode="&#x444;" horiz-adv-x="762" d=" M471,115 L481,115 Q541,115 578.5,154 Q616,193 616,253 Q616,313 578.5,349 Q541,385 481,385 L471,385 M186,313 Q186,193 223.5,154 Q261,115 321,115 L331,115 L331,385 L321,385 Q261,385 186,313 M40,149 Q40,357 111,428.5 Q182,500 300,500 L331,500 L331,677 L471,677 L471,500 L502,500 Q620,500 691,428.5 Q762,357 762,253 Q762,149 689,74.5 Q616,0 502,0 L471,0 L471,-177 L331,-177 L331,0 L300,0 Q186,0 40,149"/> 
            <glyph glyph-name="х" unicode="&#x445;" horiz-adv-x="560" d=" M30,0 L199,251 L38,500 L192,500 L300,321 L398,500 L552,500 L391,251 L560,0 L395,0 L293,172 L189,0"/> 
            <glyph glyph-name="ц" unicode="&#x446;" horiz-adv-x="610" d=" M70,0 L70,500 L210,500 L210,115 L390,115 L390,500 L530,500 L530,115 L610,115 L610,-177 L470,-177 L470,0"/> 
            <glyph glyph-name="ч" unicode="&#x447;" horiz-adv-x="490" d=" M40,350 L40,500 L180,500 L180,360 L180,353 Q180,260 259,260 Q303,260 350,269 L350,500 L490,500 L490,0 L350,0 L350,163 Q287,150 230,150 Q40,150 40,350"/> 
            <glyph glyph-name="ш" unicode="&#x448;" horiz-adv-x="750" d=" M70,0 L70,500 L210,500 L210,115 L340,115 L340,500 L480,500 L480,115 L610,115 L610,500 L750,500 L750,0"/> 
            <glyph glyph-name="щ" unicode="&#x449;" horiz-adv-x="830" d=" M70,0 L70,500 L210,500 L210,115 L340,115 L340,500 L480,500 L480,115 L610,115 L610,500 L750,500 L750,115 L830,115 L830,-177 L690,-177 L690,0"/> 
            <glyph glyph-name="ъ" unicode="&#x44A;" horiz-adv-x="630" d=" M310,115 L400,115 Q438,115 461,132.5 Q484,150 484,180 Q484,235 397,235 L310,235 M20,385 L20,500 L310,500 L310,350 L398,350 Q506,350 568,307 Q630,264 630,180 Q630,98 571.5,49 Q513,0 410,0 L170,0 L170,385"/> 
            <glyph glyph-name="ы" unicode="&#x44B;" horiz-adv-x="695" d=" M565,0 L565,500 L695,500 L695,0 M210,115 L277,115 Q312,117 333,134.5 Q354,152 354,180 Q354,235 267,235 L210,235 M70,0 L70,500 L210,500 L210,350 L268,350 Q376,350 438,307 Q500,264 500,180 Q500,98 441.5,49 Q383,0 280,0"/> 
            <glyph glyph-name="ь" unicode="&#x44C;" horiz-adv-x="530" d=" M210,115 L300,115 Q338,115 361,132.5 Q384,150 384,180 Q384,235 297,235 L210,235 M70,0 L70,500 L210,500 L210,350 L298,350 Q406,350 468,307 Q530,264 530,180 Q530,98 471.5,49 Q413,0 310,0"/> 
            <glyph glyph-name="э" unicode="&#x44D;" horiz-adv-x="505" d=" M20,325 Q20,395 59,437 Q126,515 255,515 Q368,515 436.5,441 Q505,367 505,250 Q505,133 436.5,59 Q368,-15 255,-15 Q127,-15 62,60 Q22,101 22,173 L167,173 Q167,143 183,126 Q203,100 260,100 Q305,100 336.5,124 Q368,148 369,190 L203,190 L203,305 L369,305 Q368,347 335.5,373.5 Q303,400 260,400 Q204,400 182,373 Q165,356 165,325"/> 
            <glyph glyph-name="ю" unicode="&#x44E;" horiz-adv-x="810" d=" M435,255 Q435,186 465.5,143 Q496,100 550,100 Q604,100 634.5,143 Q665,186 665,255 Q665,323 634.5,361.5 Q604,400 550,400 Q496,400 465.5,361.5 Q435,323 435,255 M70,0 L70,500 L210,500 L210,320 L305,320 Q323,410 388,462.5 Q453,515 549,515 Q669,515 739.5,443.5 Q810,372 810,255 Q810,137 739,61 Q668,-15 549,-15 Q449,-15 383,46 Q317,107 302,205 L210,205 L210,0"/> 
            <glyph glyph-name="я" unicode="&#x44F;" horiz-adv-x="500" d=" M186,335 Q186,275 273,275 L360,275 L360,385 L260,385 Q186,382 186,335 M40,0 L159,185 Q40,222 40,335 Q40,416 100,458 Q160,500 260,500 L500,500 L500,0 L360,0 L360,170 L304,170 L194,0"/> 
            <glyph glyph-name="ё" unicode="&#x451;" horiz-adv-x="545" d=" M311,630 Q311,663 335.5,683.5 Q360,704 397,704 Q434,704 458,683.5 Q482,663 482,630 Q482,596 458,576 Q434,556 397,556 Q360,556 335.5,576 Q311,596 311,630 M188,310 L403,310 Q402,353 374.5,381.5 Q347,410 297,410 Q247,410 218,381.5 Q189,353 188,310 M111,630 Q111,663 135.5,683.5 Q160,704 197,704 Q234,704 258,683.5 Q282,663 282,630 Q282,596 258,576 Q234,556 197,556 Q160,556 135.5,576 Q111,596 111,630 M40,132 Q40,374 112,444.5 Q184,515 297,515 Q407,515 476,444 Q545,373 545,266 L545,225 L188,225 Q189,171 220.5,135.5 Q252,100 303,100 Q358,100 382,131 Q396,149 396,165 L541,165 Q541,117 505,72 Q436,-15 303,-15 Q190,-15 40,132"/> 
            <glyph glyph-name="ђ" unicode="&#x452;" horiz-adv-x="550" d=" M20,442 L20,557 L100,557 L100,677 L240,677 L240,557 L383,557 L383,442 L240,442 L240,336 Q305,350 360,350 Q550,350 550,150 L550,0 Q550,-86 497,-131.5 Q444,-177 364,-177 L315,-177 L315,-56 L351,-56 Q377,-56 393,-34 Q409,-12 410,30 L410,150 Q409,240 331,240 Q285,240 240,231 L240,0 L100,0 L100,442"/> 
            <glyph glyph-name="є" unicode="&#x454;" horiz-adv-x="525" d=" M40,133 Q40,367 108.5,441 Q177,515 290,515 Q418,515 483,440 Q523,399 523,327 L378,327 Q378,357 362,374 Q342,400 285,400 Q240,400 208.5,375.5 Q177,351 176,310 L342,310 L342,195 L176,195 Q177,153 209,126.5 Q241,100 285,100 Q341,100 363,127 Q380,144 380,175 L525,175 Q525,105 486,63 Q419,-15 290,-15 Q177,-15 40,133"/> 
            <glyph glyph-name="ѕ" unicode="&#x455;" horiz-adv-x="490" d=" M40,153 L185,153 Q185,100 275,100 Q308,100 326,112.5 Q344,125 344,145 Q344,162 322.5,174.5 Q301,187 269,193.5 Q237,200 199.5,212.5 Q162,225 130,240.5 Q98,256 76.5,288 Q55,320 55,365 Q55,434 106.5,474.5 Q158,515 259,515 Q369,515 426,465.5 Q483,416 483,347 L338,347 Q338,375 319,387.5 Q300,400 259,400 Q201,400 201,355 Q201,332 231,319 Q261,306 303.5,298 Q346,290 388,277 Q430,264 460,231 Q490,198 490,145 Q490,75 435,30 Q380,-15 275,-15 Q153,-15 96.5,33.5 Q40,82 40,153"/> 
            <glyph glyph-name="і" unicode="&#x456;" horiz-adv-x="221" d=" M70,0 L70,500 L200,500 L200,0 M50,630 Q50,663 74.5,683.5 Q99,704 136,704 Q173,704 197,683.5 Q221,663 221,630 Q221,596 197,576 Q173,556 136,556 Q99,556 74.5,576 Q50,596 50,630"/> 
            <glyph glyph-name="ї" unicode="&#x457;" horiz-adv-x="320" d=" M149,630 Q149,663 173.5,683.5 Q198,704 235,704 Q272,704 296,683.5 Q320,663 320,630 Q320,596 296,576 Q272,556 235,556 Q198,556 173.5,576 Q149,596 149,630 M70,0 L70,500 L200,500 L200,0 M-51,630 Q-51,663 -26.5,683.5 Q-2,704 35,704 Q72,704 96,683.5 Q120,663 120,630 Q120,596 96,576 Q72,556 35,556 Q-2,556 -26.5,576 Q-51,596 -51,630"/> 
            <glyph glyph-name="ј" unicode="&#x458;" horiz-adv-x="255" d=" M84,630 Q84,663 108.5,683.5 Q133,704 170,704 Q207,704 231,683.5 Q255,663 255,630 Q255,596 231,576 Q207,556 170,556 Q133,556 108.5,576 Q84,596 84,630 M5,-56 L41,-56 Q100,-56 100,40 L100,500 L240,500 L240,0 Q240,-86 187,-131.5 Q134,-177 54,-177 L5,-177"/> 
            <glyph glyph-name="љ" unicode="&#x459;" horiz-adv-x="820" d=" M510,115 L590,115 Q628,115 651,132.5 Q674,150 674,180 Q674,235 587,235 L510,235 M20,0 L20,131 L48,131 Q88,131 104,193 Q120,255 120,389 L120,500 L510,500 L510,350 L588,350 Q696,350 758,307 Q820,264 820,180 Q820,98 761.5,49 Q703,0 600,0 L360,0 L360,385 L260,385 L260,362 Q260,166 209.5,83 Q159,0 51,0"/> 
            <glyph glyph-name="њ" unicode="&#x45A;" horiz-adv-x="860" d=" M540,115 L630,115 Q668,115 691,132.5 Q714,150 714,180 Q714,235 627,235 L540,235 M70,0 L70,500 L210,500 L210,320 L400,320 L400,500 L540,500 L540,350 L628,350 Q736,350 798,307 Q860,264 860,180 Q860,98 801.5,49 Q743,0 640,0 L400,0 L400,205 L210,205 L210,0"/> 
            <glyph glyph-name="ћ" unicode="&#x45B;" horiz-adv-x="550" d=" M20,442 L20,557 L100,557 L100,677 L240,677 L240,557 L383,557 L383,442 L240,442 L240,336 Q305,350 360,350 Q550,350 550,150 L550,0 L410,0 L410,140 L410,147 Q410,240 331,240 Q285,240 240,231 L240,0 L100,0 L100,442"/> 
            <glyph glyph-name="ў" unicode="&#x45E;" horiz-adv-x="560" d=" M104,677 L240,677 Q242,661 255,645 Q268,629 285,629 L295,629 Q312,629 325,645 Q338,661 340,677 L476,677 Q468,624 416,586 Q364,548 298,548 L282,548 Q216,548 164,586 Q112,624 104,677 M20,500 L170,500 L298,165 L415,500 L560,500 L373,5 L371,0 Q296,-177 144,-177 L95,-177 L95,-56 L141,-56 Q196,-56 226,13"/> 
            <glyph glyph-name="џ" unicode="&#x45F;" horiz-adv-x="530" d=" M70,0 L70,500 L210,500 L210,115 L390,115 L390,500 L530,500 L530,0 L370,0 L370,-177 L230,-177 L230,0"/> 
            <glyph glyph-name="Ґ" unicode="&#x490;" horiz-adv-x="480" d=" M70,0 L70,677 L340,677 L340,849 L480,849 L480,557 L215,557 L215,0"/> 
            <glyph glyph-name="ґ" unicode="&#x491;" horiz-adv-x="430" d=" M70,0 L70,500 L290,500 L290,677 L430,677 L430,385 L210,385 L210,0"/> 
            <glyph glyph-name="–" unicode="&#x2013;" horiz-adv-x="480" d=" M20,225 L20,340 L480,340 L480,225"/> 
            <glyph glyph-name="—" unicode="&#x2014;" horiz-adv-x="630" d=" M10,225 L10,340 L630,340 L630,225"/> 
            <glyph glyph-name="‘" unicode="&#x2018;" horiz-adv-x="238" d=" M29,655 L137,694 L238,418 L130,379"/> 
            <glyph glyph-name="’" unicode="&#x2019;" horiz-adv-x="238" d=" M29,418 L130,694 L238,655 L137,379"/> 
            <glyph glyph-name="‚" unicode="&#x201A;" horiz-adv-x="248" d=" M39,-82 L140,194 L248,155 L147,-121"/> 
            <glyph glyph-name="“" unicode="&#x201C;" horiz-adv-x="438" d=" M229,655 L337,694 L438,418 L330,379 M29,655 L137,694 L238,418 L130,379"/> 
            <glyph glyph-name="”" unicode="&#x201D;" horiz-adv-x="438" d=" M229,418 L330,694 L438,655 L337,379 M29,418 L130,694 L238,655 L137,379"/> 
            <glyph glyph-name="„" unicode="&#x201E;" horiz-adv-x="448" d=" M239,-82 L340,194 L448,155 L347,-121 M39,-82 L140,194 L248,155 L147,-121"/> 
            <glyph glyph-name="‰" unicode="&#x2030;" horiz-adv-x="1053" d=" M839,147 Q839,112 854.5,91 Q870,70 897,70 Q924,70 939,91.5 Q954,113 954,147 Q954,181 939,200.5 Q924,220 897,220 Q869,220 854,200.5 Q839,181 839,147 M740,78 Q740,216 783.5,259.5 Q827,303 896,303 Q965,303 1009,259.5 Q1053,216 1053,147 Q1053,78 1008.5,31.5 Q964,-15 896,-15 Q828,-15 740,78 M499,147 Q499,112 514.5,91 Q530,70 557,70 Q584,70 599,91.5 Q614,113 614,147 Q614,181 599,200.5 Q584,220 557,220 Q529,220 514,200.5 Q499,181 499,147 M400,78 Q400,216 443.5,259.5 Q487,303 556,303 Q625,303 669,259.5 Q713,216 713,147 Q713,78 668.5,31.5 Q624,-15 556,-15 Q488,-15 400,78 M139,536 Q139,501 154.5,480 Q170,459 197,459 Q224,459 239,480.5 Q254,502 254,536 Q254,570 239,589.5 Q224,609 197,609 Q169,609 154,589.5 Q139,570 139,536 M77,0 L542,677 L670,677 L205,0 M40,467 Q40,605 83.5,648.5 Q127,692 196,692 Q265,692 309,648.5 Q353,605 353,536 Q353,467 308.5,420.5 Q264,374 196,374 Q128,374 40,467"/> 
            <glyph glyph-name="‹" unicode="&#x2039;" horiz-adv-x="334" d=" M20,263 L190,460 L334,460 L170,263 L334,66 L190,66"/> 
            <glyph glyph-name="›" unicode="&#x203A;" horiz-adv-x="334" d=" M20,66 L183,263 L20,460 L164,460 L334,263 L164,66"/> 
            <glyph glyph-name="⁄" unicode="&#x2044;" horiz-adv-x="658" d=" M65,0 L530,677 L658,677 L193,0"/> 
            <glyph glyph-name="₀" unicode="&#x2080;" horiz-adv-x="357" d=" M120,8 Q120,-131 186,-131 Q262,-131 262,8 Q262,138 186,138 Q120,138 120,8 M24,8 Q24,113 69,164 Q114,215 185,215 Q261,215 309,164 Q357,113 357,8 Q357,-100 310,-154.5 Q263,-209 185,-209 Q112,-209 68,-154 Q24,-99 24,8"/> 
            <glyph glyph-name="₁" unicode="&#x2081;" horiz-adv-x="182" d=" M20,116 L20,206 L182,206 L182,-200 L80,-200 L80,116"/> 
            <glyph glyph-name="₂" unicode="&#x2082;" horiz-adv-x="321" d=" M14,90 Q14,138 51,176.5 Q88,215 169,215 Q240,215 280.5,178 Q321,141 321,83 Q321,8 199,-101 L190,-109 L317,-109 L317,-200 L24,-200 L24,-155 L127,-48 Q215,29 215,84 Q215,138 168,138 Q147,138 133,125.5 Q119,113 119,90"/> 
            <glyph glyph-name="₃" unicode="&#x2083;" horiz-adv-x="333" d=" M14,-81 L119,-81 Q119,-131 171,-131 Q195,-131 211.5,-118 Q228,-105 228,-83 Q228,-59 207.5,-45.5 Q187,-32 160,-32 L101,-32 L101,49 L159,49 Q184,49 201.5,64 Q219,79 219,99 Q219,116 205.5,127 Q192,138 169,138 Q148,138 134.5,125.5 Q121,113 121,90 L16,90 Q16,138 52.5,176.5 Q89,215 169,215 Q240,215 282,181.5 Q324,148 324,99 Q324,37 246,15 Q333,-13 333,-83 Q333,-140 290,-174.5 Q247,-209 171,-209 Q96,-209 55,-171.5 Q14,-134 14,-81"/> 
            <glyph glyph-name="₄" unicode="&#x2084;" horiz-adv-x="340" d=" M98,-28 L191,-28 L191,97 M2,-16 L179,206 L296,206 L296,-28 L340,-28 L340,-109 L296,-109 L296,-200 L191,-200 L191,-109 L2,-109"/> 
            <glyph glyph-name="₅" unicode="&#x2085;" horiz-adv-x="327" d=" M14,-91 L119,-91 Q119,-131 161,-131 Q221,-131 221,-65 Q221,-5 161,-5 Q116,-5 109,-34 L27,-34 L45,206 L282,206 L282,126 L132,126 L127,61 Q146,70 177,70 Q245,70 286,33 Q327,-4 327,-65 Q327,-129 284,-169 Q241,-209 161,-209 Q92,-209 53,-171.5 Q14,-134 14,-91"/> 
            <glyph glyph-name="₆" unicode="&#x2086;" horiz-adv-x="338" d=" M119,-63 L119,-65 Q119,-131 178,-131 Q233,-131 233,-65 Q233,-5 178,-5 Q119,-5 119,-63 M14,-19 Q14,215 186,215 Q226,215 255,204 Q284,193 297,176 Q310,159 315.5,145 Q321,131 321,120 L222,120 Q222,123 219.5,126.5 Q217,130 208,134 Q199,138 186,138 Q155,138 140,118.5 Q125,99 121,49 Q152,70 195,70 Q259,70 298.5,33 Q338,-4 338,-65 Q338,-129 296.5,-169 Q255,-209 179,-209 Q14,-209 14,-19"/> 
            <glyph glyph-name="₇" unicode="&#x2087;" horiz-adv-x="325" d=" M12,116 L12,206 L325,206 L325,177 L151,-200 L43,-200 L189,116"/> 
            <glyph glyph-name="₈" unicode="&#x2088;" horiz-adv-x="338" d=" M128,99 Q128,50 176,50 Q224,50 224,99 Q224,138 176,138 Q128,138 128,99 M119,-78 Q119,-100 133.5,-115.5 Q148,-131 176,-131 Q204,-131 218.5,-115.5 Q233,-100 233,-78 Q233,-51 217.5,-37 Q202,-23 176,-23 Q150,-23 134.5,-37 Q119,-51 119,-78 M14,-83 Q14,-12 94,13 Q23,38 23,104 Q23,153 66.5,184 Q110,215 176,215 Q242,215 285.5,184 Q329,153 329,104 Q329,39 257,13 Q338,-11 338,-83 Q338,-140 293.5,-174.5 Q249,-209 176,-209 Q104,-209 59,-174.5 Q14,-140 14,-83"/> 
            <glyph glyph-name="₉" unicode="&#x2089;" horiz-adv-x="338" d=" M119,71 Q119,11 174,11 Q233,11 233,69 L233,71 Q233,137 174,137 Q119,137 119,71 M14,71 Q14,135 55.5,175 Q97,215 173,215 Q338,215 338,25 Q338,-209 166,-209 Q126,-209 97,-198 Q68,-187 55,-170 Q42,-153 36.5,-139 Q31,-125 31,-114 L130,-114 Q130,-117 132.5,-120.5 Q135,-124 144,-128 Q153,-132 166,-132 Q197,-132 211.5,-112.5 Q226,-93 230,-43 Q199,-64 157,-64 Q93,-64 53.5,-27 Q14,10 14,71"/> 
            <glyph glyph-name="€" unicode="&#x20AC;" horiz-adv-x="605" d=" M20,196 L20,311 L106,311 L106,344 L106,365 L20,365 L20,480 L120,480 Q144,585 210.5,638.5 Q277,692 377,692 Q441,692 488.5,672.5 Q536,653 560,622 Q584,591 594.5,560.5 Q605,530 605,500 L470,500 Q470,527 446.5,552 Q423,577 377,577 Q329,577 301.5,554 Q274,531 262,480 L440,480 L440,365 L251,365 L251,344 L251,311 L440,311 L440,196 L263,196 Q275,145 302,122.5 Q329,100 377,100 Q424,100 447,125 Q470,150 470,177 L605,177 Q605,147 594.5,116.5 Q584,86 560,55 Q536,24 488.5,4.5 Q441,-15 377,-15 Q174,-15 122,196"/> 
            <glyph glyph-name="₴" unicode="&#x20B4;" horiz-adv-x="640" d=" M50,197 L50,312 L250,312 L305,365 L50,365 L50,480 L418,480 Q429,497 429,517 Q429,545 408.5,566 Q388,587 340,587 Q296,587 273,571.5 Q250,556 250,534 L105,534 Q105,594 166,643 Q227,692 340,692 Q447,692 508.5,642 Q570,592 570,522 Q570,501 562,480 L640,480 L640,365 L456,365 L401,312 L640,312 L640,197 L271,197 Q261,179 261,160 Q261,132 281.5,111 Q302,90 350,90 Q430,90 430,143 L575,143 Q575,82 518.5,33.5 Q462,-15 350,-15 Q243,-15 181.5,35 Q120,85 120,155 Q120,174 127,197"/> 
            <glyph glyph-name="₽" unicode="&#x20BD;" horiz-adv-x="610" d=" M255,380 L326,380 Q459,383 459,473 Q459,516 425.5,536.5 Q392,557 319,557 L255,557 M20,96 L20,211 L110,211 L110,265 L20,265 L20,380 L110,380 L110,677 L330,677 Q463,677 536.5,619 Q610,561 610,473 Q610,265 330,265 L255,265 L255,211 L444,211 L444,96 L255,96 L255,0 L110,0 L110,96"/> 
            <glyph glyph-name="№" unicode="&#x2116;" horiz-adv-x="1133" d=" M894,452 Q894,417 909.5,396 Q925,375 952,375 Q979,375 994,396.5 Q1009,418 1009,452 Q1009,486 994,505.5 Q979,525 952,525 Q924,525 909,505.5 Q894,486 894,452 M795,383 Q795,521 838.5,564.5 Q882,608 951,608 Q1020,608 1064,564.5 Q1108,521 1108,452 Q1108,383 1063.5,336.5 Q1019,290 951,290 Q883,290 795,383 M773,82 L773,197 L1133,197 L1133,82 M70,0 L70,677 L240,677 L540,199 L540,677 L685,677 L685,0 L515,0 L215,478 L215,0"/> 
            <glyph glyph-name="Ω" unicode="&#x2126;" horiz-adv-x="746" d=" M40,0 L40,120 L167,120 Q50,235 50,368 Q50,516 142,604 Q234,692 394,692 Q553,692 644.5,604 Q736,516 736,368 Q736,234 618,120 L746,120 L746,0 L430,0 L430,85 Q436,89 446.5,96 Q457,103 484,128.5 Q511,154 531,184 Q551,214 568,263.5 Q585,313 585,368 Q585,459 531,515.5 Q477,572 393,572 Q309,572 255,515.5 Q201,459 201,368 Q201,313 217,263.5 Q233,214 255.5,183 Q278,152 301,128.5 Q324,105 340,95 L356,85 L356,0"/> 
            <glyph glyph-name="←" unicode="&#x2190;" horiz-adv-x="654" d=" M40,287 L360,587 L434,511 L246,339 L654,339 L654,233 L246,233 L434,61 L360,-15"/> 
            <glyph glyph-name="↑" unicode="&#x2191;" horiz-adv-x="682" d=" M40,294 L362,634 L682,294 L606,220 L414,428 L414,0 L308,0 L308,428 L116,220"/> 
            <glyph glyph-name="→" unicode="&#x2192;" horiz-adv-x="654" d=" M40,233 L40,339 L448,339 L260,511 L334,587 L654,285 L334,-15 L260,61 L448,233"/> 
            <glyph glyph-name="↓" unicode="&#x2193;" horiz-adv-x="682" d=" M40,325 L116,399 L308,191 L308,619 L414,619 L414,191 L606,399 L682,325 L360,-15"/> 
            <glyph glyph-name="∆" unicode="&#x2206;" horiz-adv-x="680" d=" M205,120 L489,120 L347,494 M20,0 L279,677 L418,677 L680,0"/> 
            <glyph glyph-name="−" unicode="&#x2212;" horiz-adv-x="380" d=" M20,225 L20,340 L380,340 L380,225"/> 
            <glyph glyph-name="∶" unicode="&#x2236;" horiz-adv-x="228" d=" M52,507 Q52,546 77.5,570.5 Q103,595 140,595 Q177,595 202.5,570.5 Q228,546 228,507 Q228,467 203,443 Q178,419 140,419 Q102,419 77,443 Q52,467 52,507 M52,153 Q52,192 77.5,216.5 Q103,241 140,241 Q177,241 202.5,216.5 Q228,192 228,153 Q228,113 203,89 Q178,65 140,65 Q102,65 77,89 Q52,113 52,153"/> 
            <glyph glyph-name="≈" unicode="&#x2248;" horiz-adv-x="648" d=" M20,391 L41,411 Q86,457 115,475.5 Q144,494 175,494 Q202,494 241,482 L447,419 Q452,417 463,417 Q494,417 529,453 L562,486 L648,401 L606,359 Q567,320 541.5,304.5 Q516,289 487,289 Q461,289 416,303 L210,366 Q200,368 195,368 Q168,368 130,333 L106,306 M20,191 L41,211 Q86,257 115,275.5 Q144,294 175,294 Q202,294 241,282 L447,219 Q452,217 463,217 Q494,217 529,253 L562,286 L648,201 L606,159 Q567,120 541.5,104.5 Q516,89 487,89 Q461,89 416,103 L210,166 Q200,168 195,168 Q168,168 130,133 L106,106"/> 
            <glyph glyph-name="≠" unicode="&#x2260;" horiz-adv-x="380" d=" M20,125 L20,240 L107,240 L131,325 L20,325 L20,440 L163,440 L230,677 L360,677 L293,440 L380,440 L380,325 L261,325 L237,240 L380,240 L380,125 L205,125 L170,0 L40,0 L75,125"/> 
            <glyph glyph-name="≤" unicode="&#x2264;" horiz-adv-x="370" d=" M20,343 L340,540 L340,412 L219,343 L340,274 L340,146 M10,-25 L10,90 L370,90 L370,-25"/> 
            <glyph glyph-name="≥" unicode="&#x2265;" horiz-adv-x="390" d=" M40,146 L40,274 L161,343 L40,412 L40,540 L360,343 M30,-25 L30,90 L390,90 L390,-25"/> 
            <glyph glyph-name="ﬀ" unicode="&#xFB00;" horiz-adv-x="686" d=" M20,385 L20,500 L100,500 L100,505 Q100,588 147,632.5 Q194,677 284,677 L363,677 L363,562 L277,562 Q247,562 234.5,548 Q222,534 220,500 L423,500 L423,505 Q423,588 470,632.5 Q517,677 607,677 L686,677 L686,562 L600,562 Q570,562 557.5,548 Q545,534 543,500 L686,500 L686,385 L563,385 L563,0 L423,0 L423,385 L240,385 L240,0 L100,0 L100,385"/> 
            <glyph glyph-name=" " unicode="&#x20;" horiz-adv-x="405" d=" M290,383 L290,677 L405,677 L405,383 M75,383 L75,677 L190,677 L190,383"/> 
            <glyph glyph-name="!" unicode="&#x21;" horiz-adv-x="685" d=" M315,208 L470,208 L470,390 L315,390 M100,98 L100,208 L200,208 L200,390 L100,390 L100,500 L200,500 L200,607 L315,607 L315,500 L470,500 L470,607 L585,607 L585,500 L685,500 L685,390 L585,390 L585,208 L685,208 L685,98 L585,98 L585,0 L470,0 L470,98 L315,98 L315,0 L200,0 L200,98"/> 
            <glyph glyph-name="&quot;" unicode="&#x22;" horiz-adv-x="560" d=" M351,103 Q424,117 424,195 Q424,251 351,271 M181,482 Q181,420 256,400 L256,573 Q181,560 181,482 M40,183 L185,183 Q185,120 256,104 L256,287 Q169,306 107,357.5 Q45,409 45,492 Q45,571 97.5,625.5 Q150,680 256,690 L256,777 L351,777 L351,689 Q457,676 505,619 Q553,562 553,494 L408,494 Q408,554 351,571 L351,385 Q437,368 498.5,320.5 Q560,273 560,195 Q560,108 509.5,52.5 Q459,-3 351,-13 L351,-100 L256,-100 L256,-12 Q194,-7 149.5,13 Q105,33 82.5,62.5 Q60,92 50,121.5 Q40,151 40,183"/> 
            <glyph glyph-name="#" unicode="&#x23;" horiz-adv-x="713" d=" M499,147 Q499,112 514.5,91 Q530,70 557,70 Q584,70 599,91.5 Q614,113 614,147 Q614,181 599,200.5 Q584,220 557,220 Q529,220 514,200.5 Q499,181 499,147 M400,78 Q400,216 443.5,259.5 Q487,303 556,303 Q625,303 669,259.5 Q713,216 713,147 Q713,78 668.5,31.5 Q624,-15 556,-15 Q488,-15 400,78 M139,536 Q139,501 154.5,480 Q170,459 197,459 Q224,459 239,480.5 Q254,502 254,536 Q254,570 239,589.5 Q224,609 197,609 Q169,609 154,589.5 Q139,570 139,536 M77,0 L542,677 L670,677 L205,0 M40,467 Q40,605 83.5,648.5 Q127,692 196,692 Q265,692 309,648.5 Q353,605 353,536 Q353,467 308.5,420.5 Q264,374 196,374 Q128,374 40,467"/> 
            </font>
</defs>
</svg>
