<?xml version="1.0" standalone="no"?>
<!DOCTYPE svg PUBLIC "-//W3C//DTD SVG 1.1//EN" "http://www.w3.org/Graphics/SVG/1.1/DTD/svg11.dtd" >
<svg xmlns="http://www.w3.org/2000/svg">
    <defs>
        <font id="Mariupol-Regular">
            <font-face font-family="Mariupol-Regular"
                       units-per-em="1024"
                       ascent="777"
                       descent="-187"
                       bbox="-90 -209 1480 864"
                    />
            <missing-glyph horiz-adv-x="0" />
            
            <glyph glyph-name="!" unicode="&#x21;" horiz-adv-x="203" d=" M95,220 L95,677 L180,677 L180,220 M77,53 Q77,81 95,98.5 Q113,116 140,116 Q167,116 185,98.5 Q203,81 203,53 Q203,24 185,7 Q167,-10 140,-10 Q113,-10 95,7 Q77,24 77,53"/> 
            <glyph glyph-name="&quot;" unicode="&#x22;" horiz-adv-x="370" d=" M295,405 L295,677 L370,677 L370,405 M90,405 L90,677 L165,677 L165,405"/> 
            <glyph glyph-name="#" unicode="&#x23;" horiz-adv-x="645" d=" M295,188 L470,188 L470,430 L295,430 M120,118 L120,188 L220,188 L220,430 L120,430 L120,500 L220,500 L220,607 L295,607 L295,500 L470,500 L470,607 L545,607 L545,500 L645,500 L645,430 L545,430 L545,188 L645,188 L645,118 L545,118 L545,0 L470,0 L470,118 L295,118 L295,0 L220,0 L220,118"/> 
            <glyph glyph-name="$" unicode="&#x24;" horiz-adv-x="530" d=" M335,62 Q384,70 414,99 Q444,128 444,175 Q444,272 335,292 M151,502 Q151,446 177.5,417.5 Q204,389 260,379 L260,615 Q212,610 181.5,580.5 Q151,551 151,502 M50,173 L135,173 Q135,134 168.5,103 Q202,72 260,63 L260,302 Q65,334 65,502 Q65,577 120,627.5 Q175,678 260,686 L260,777 L335,777 L335,683 Q428,671 475.5,619 Q523,567 523,504 L438,504 Q438,540 410.5,570 Q383,600 335,611 L335,369 Q421,354 475.5,308 Q530,262 530,175 Q530,102 475,51.5 Q420,1 335,-8 L335,-100 L260,-100 L260,-8 Q157,1 103.5,54 Q50,107 50,173"/> 
            <glyph glyph-name="%" unicode="&#x25;" horiz-adv-x="639" d=" M417,148 Q417,105 438.5,78 Q460,51 495,51 Q530,51 551,78 Q572,105 572,148 Q572,190 551,215.5 Q530,241 495,241 Q459,241 438,215.5 Q417,190 417,148 M350,78 Q350,218 389.5,260 Q429,302 494,302 Q559,302 599,260 Q639,218 639,148 Q639,78 599,34 Q559,-10 494,-10 Q429,-10 350,78 M107,533 Q107,490 128.5,463 Q150,436 185,436 Q220,436 241,463 Q262,490 262,533 Q262,575 241,600.5 Q220,626 185,626 Q149,626 128,600.5 Q107,575 107,533 M62,0 L522,677 L603,677 L143,0 M40,463 Q40,603 79.5,645 Q119,687 184,687 Q249,687 289,645 Q329,603 329,533 Q329,464 289,419.5 Q249,375 184,375 Q119,375 40,463"/> 
            <glyph glyph-name="&amp;" unicode="&#x26;" horiz-adv-x="610" d=" M191,524 Q191,463 263,410 Q310,437 334.5,463 Q359,489 359,525 Q359,571 336,594 Q313,617 275,617 Q239,617 215,592 Q191,567 191,524 M136,180 Q136,126 169.5,93 Q203,60 262,60 Q348,60 402,135 L248,327 Q194,294 165,260.5 Q136,227 136,180 M50,180 Q50,247 88.5,290 Q127,333 196,372 Q105,447 105,524 Q105,595 153.5,641 Q202,687 275,687 Q348,687 391.5,643.5 Q435,600 435,524 Q435,472 403.5,436 Q372,400 315,366 L440,210 Q451,240 457.5,273 Q464,306 466,324 L467,342 L553,342 Q546,237 496,141 L610,0 L510,0 L450,74 Q375,-10 262,-10 Q173,-10 111.5,40.5 Q50,91 50,180"/> 
            <glyph glyph-name="'" unicode="&#x27;" horiz-adv-x="165" d=" M90,405 L90,677 L165,677 L165,405"/> 
            <glyph glyph-name="(" unicode="&#x28;" horiz-adv-x="265" d=" M45,255 Q45,333 59,405 Q73,477 92.5,524.5 Q112,572 132,608 Q152,644 166,660 L180,677 L265,677 Q259,671 249.5,658.5 Q240,646 216,605 Q192,564 173.5,518.5 Q155,473 140,401 Q125,329 125,255 Q125,181 139.5,109 Q154,37 174.5,-12.5 Q195,-62 215.5,-101 Q236,-140 250,-158 L265,-177 L180,-177 Q175,-171 165.5,-159.5 Q156,-148 133,-108 Q110,-68 92,-21.5 Q74,25 59.5,99.5 Q45,174 45,255"/> 
            <glyph glyph-name=")" unicode="&#x29;" horiz-adv-x="220" d=" M0,-177 Q6,-171 15.5,-158.5 Q25,-146 49,-105 Q73,-64 91.5,-18.5 Q110,27 125,99 Q140,171 140,245 Q140,319 125.5,391 Q111,463 90.5,512.5 Q70,562 49.5,601 Q29,640 14,658 L0,677 L85,677 Q90,671 99.5,659.5 Q109,648 132,608 Q155,568 173,521.5 Q191,475 205.5,400.5 Q220,326 220,245 Q220,167 206,95 Q192,23 172,-24.5 Q152,-72 132.5,-108 Q113,-144 99,-160 L85,-177"/> 
            <glyph glyph-name="*" unicode="&#x2A;" horiz-adv-x="484" d=" M40,487 L65,563 L222,512 L222,677 L302,677 L302,512 L459,563 L484,487 L326,436 L424,302 L359,255 L262,389 L165,255 L100,302 L198,436"/> 
            <glyph glyph-name="+" unicode="&#x2B;" horiz-adv-x="440" d=" M40,245 L40,320 L200,320 L200,490 L280,490 L280,320 L440,320 L440,245 L280,245 L280,70 L200,70 L200,245"/> 
            <glyph glyph-name="," unicode="&#x2C;" horiz-adv-x="217" d=" M16,-87 L152,149 L217,112 L81,-124"/> 
            <glyph glyph-name="-" unicode="&#x2D;" horiz-adv-x="340" d=" M40,245 L40,320 L340,320 L340,245"/> 
            <glyph glyph-name="." unicode="&#x2E;" horiz-adv-x="203" d=" M77,53 Q77,81 95,98.5 Q113,116 140,116 Q167,116 185,98.5 Q203,81 203,53 Q203,24 185,7 Q167,-10 140,-10 Q113,-10 95,7 Q77,24 77,53"/> 
            <glyph glyph-name="/" unicode="&#x2F;" horiz-adv-x="430" d=" M50,-77 L345,777 L430,777 L135,-77"/> 
            <glyph glyph-name="0" unicode="&#x30;" horiz-adv-x="532" d=" M136,344 Q136,201 176.5,130.5 Q217,60 291,60 Q365,60 405.5,130.5 Q446,201 446,344 Q446,484 404.5,550.5 Q363,617 291,617 Q219,617 177.5,550.5 Q136,484 136,344 M50,344 Q50,521 115,604 Q180,687 290,687 Q401,687 466.5,604 Q532,521 532,344 Q532,164 467.5,77 Q403,-10 290,-10 Q177,-10 113.5,77 Q50,164 50,344"/> 
            <glyph glyph-name="1" unicode="&#x31;" horiz-adv-x="250" d=" M60,597 L60,677 L250,677 L250,0 L170,0 L170,597"/> 
            <glyph glyph-name="2" unicode="&#x32;" horiz-adv-x="500" d=" M50,0 L50,60 L237,230 Q404,382 404,490 Q404,617 269,617 Q203,617 169,586 Q135,555 135,500 L50,500 Q50,579 105,633 Q160,687 270,687 Q376,687 433,634 Q490,581 490,490 Q490,413 433.5,333 Q377,253 283,166 L191,80 L500,80 L500,0"/> 
            <glyph glyph-name="3" unicode="&#x33;" horiz-adv-x="510" d=" M50,165 L135,165 Q135,126 178.5,93 Q222,60 280,60 Q342,60 383,94.5 Q424,129 424,190 Q424,249 378,278.5 Q332,308 263,308 L181,308 L181,388 L263,388 Q328,388 368.5,421.5 Q409,455 409,513 Q409,557 372,587 Q335,617 280,617 Q222,617 186.5,587.5 Q151,558 151,500 L66,500 Q66,581 124,634 Q182,687 280,687 Q375,687 435,632.5 Q495,578 495,513 Q495,388 379,353 Q510,312 510,190 Q510,101 448.5,45.5 Q387,-10 280,-10 Q178,-10 114,46 Q50,102 50,165"/> 
            <glyph glyph-name="4" unicode="&#x34;" horiz-adv-x="520" d=" M95,268 L345,268 L345,586 M20,188 L20,288 L325,677 L430,677 L430,268 L520,268 L520,188 L430,188 L430,0 L345,0 L345,188"/> 
            <glyph glyph-name="5" unicode="&#x35;" horiz-adv-x="500" d=" M50,165 L135,165 Q135,125 172,92.5 Q209,60 259,60 Q329,60 371.5,106.5 Q414,153 414,225 Q414,295 370.5,337.5 Q327,380 259,380 Q213,380 179,350.5 Q145,321 137,277 L72,277 L102,677 L442,677 L442,597 L170,597 L155,404 Q206,450 286,450 Q373,450 436.5,387 Q500,324 500,225 Q500,122 433.5,56 Q367,-10 260,-10 Q165,-10 107.5,45.5 Q50,101 50,165"/> 
            <glyph glyph-name="6" unicode="&#x36;" horiz-adv-x="510" d=" M135,225 Q135,155 174.5,107.5 Q214,60 279,60 Q349,60 386.5,106 Q424,152 424,225 Q424,296 385,338 Q346,380 279,380 Q212,380 173.5,340 Q135,300 135,225 M50,305 Q50,687 291,687 Q340,687 376.5,673 Q413,659 430,638.5 Q447,618 456.5,598 Q466,578 468,564 L469,550 L394,550 Q394,553 393,557.5 Q392,562 385.5,573.5 Q379,585 369,594 Q359,603 338.5,610 Q318,617 291,617 Q152,617 137,370 Q189,450 296,450 Q383,450 446.5,387 Q510,324 510,225 Q510,121 448,55.5 Q386,-10 280,-10 Q162,-10 106,67 Q50,144 50,305"/> 
            <glyph glyph-name="7" unicode="&#x37;" horiz-adv-x="485" d=" M20,597 L20,677 L485,677 L485,637 L195,0 L105,0 L377,597"/> 
            <glyph glyph-name="8" unicode="&#x38;" horiz-adv-x="510" d=" M151,563 Q151,461 187,428 Q223,395 280,395 Q337,395 373,428 Q409,461 409,512 Q409,563 373,590 Q337,617 280,617 Q223,617 151,563 M136,190 Q136,133 172.5,96.5 Q209,60 280,60 Q351,60 387.5,96.5 Q424,133 424,190 Q424,242 383.5,278 Q343,314 280,314 Q217,314 176.5,278 Q136,242 136,190 M50,190 Q50,257 86.5,299 Q123,341 184,360 Q65,401 65,512 Q65,591 126,639 Q187,687 280,687 Q373,687 434,639 Q495,591 495,512 Q495,401 376,360 Q437,341 473.5,299 Q510,257 510,190 Q510,92 444.5,41 Q379,-10 280,-10 Q181,-10 115.5,41 Q50,92 50,190"/> 
            <glyph glyph-name="9" unicode="&#x39;" horiz-adv-x="510" d=" M136,452 Q136,381 175,339 Q214,297 281,297 Q348,297 386.5,337 Q425,377 425,452 Q425,522 385.5,569.5 Q346,617 281,617 Q211,617 173.5,571 Q136,525 136,452 M50,452 Q50,556 112,621.5 Q174,687 280,687 Q398,687 454,610 Q510,533 510,372 Q510,-10 269,-10 Q220,-10 183.5,4 Q147,18 130,38 Q113,58 103.5,78.5 Q94,99 92,113 L91,127 L166,127 Q166,124 167,119.5 Q168,115 174.5,103.5 Q181,92 191,83 Q201,74 221.5,67 Q242,60 269,60 Q408,60 423,306 Q371,227 264,227 Q177,227 113.5,290 Q50,353 50,452"/> 
            <glyph glyph-name=":" unicode="&#x3A;" horiz-adv-x="203" d=" M77,447 Q77,475 95,492.5 Q113,510 140,510 Q167,510 185,492.5 Q203,475 203,447 Q203,418 185,401 Q167,384 140,384 Q113,384 95,401 Q77,418 77,447 M77,53 Q77,81 95,98.5 Q113,116 140,116 Q167,116 185,98.5 Q203,81 203,53 Q203,24 185,7 Q167,-10 140,-10 Q113,-10 95,7 Q77,24 77,53"/> 
            <glyph glyph-name=";" unicode="&#x3B;" horiz-adv-x="217" d=" M84,447 Q84,475 102,492.5 Q120,510 147,510 Q174,510 192,492.5 Q210,475 210,447 Q210,418 192,401 Q174,384 147,384 Q120,384 102,401 Q84,418 84,447 M16,-87 L152,149 L217,112 L81,-124"/> 
            <glyph glyph-name="&lt;" unicode="&#x3C;" horiz-adv-x="340" d=" M20,293 L340,490 L340,405 L161,293 L340,181 L340,96"/> 
            <glyph glyph-name="=" unicode="&#x3D;" horiz-adv-x="360" d=" M20,345 L20,420 L360,420 L360,345 M20,145 L20,220 L360,220 L360,145"/> 
            <glyph glyph-name="&gt;" unicode="&#x3E;" horiz-adv-x="340" d=" M20,96 L20,181 L199,293 L20,405 L20,490 L340,293"/> 
            <glyph glyph-name="?" unicode="&#x3F;" horiz-adv-x="480" d=" M207,53 Q207,81 225,98.5 Q243,116 270,116 Q297,116 315,98.5 Q333,81 333,53 Q333,24 315,7 Q297,-10 270,-10 Q243,-10 225,7 Q207,24 207,53 M50,500 Q50,579 102.5,633 Q155,687 260,687 Q363,687 421.5,638.5 Q480,590 480,506 Q480,469 462.5,435 Q445,401 419.5,375.5 Q394,350 368.5,326 Q343,302 325.5,274.5 Q308,247 308,220 L226,220 Q226,256 243.5,289.5 Q261,323 285.5,348.5 Q310,374 334.5,398.5 Q359,423 376.5,450.5 Q394,478 394,506 Q394,559 359.5,588 Q325,617 259,617 Q198,617 166.5,586 Q135,555 135,500"/> 
            <glyph glyph-name="@" unicode="&#x40;" horiz-adv-x="935" d=" M361,235 Q361,158 395.5,109 Q430,60 486,60 Q541,60 574,104 Q607,148 607,220 L608,220 L608,232 L607,232 Q607,311 574.5,355.5 Q542,400 486,400 Q432,400 396.5,355 Q361,310 361,235 M65,255 Q65,390 126.5,489.5 Q188,589 288.5,638 Q389,687 515,687 Q704,687 819.5,576 Q935,465 935,274 Q935,210 916,149.5 Q897,89 852.5,44.5 Q808,0 748,0 Q695,0 666,17.5 Q637,35 626,74 Q585,-10 475,-10 Q389,-10 337,55.5 Q285,121 285,235 Q285,347 337.5,408.5 Q390,470 475,470 Q563,470 611,393 L618,460 L688,460 L688,154 Q688,113 699.5,92.5 Q711,72 741,70 Q795,71 822,132 Q849,193 849,275 Q849,429 757.5,518 Q666,607 515,607 Q359,607 255,513 Q151,419 151,255 Q151,160 181,86 Q211,12 261,-31 Q311,-74 368.5,-95.5 Q426,-117 487,-117 L547,-117 L547,-187 L487,-187 Q402,-187 327,-159 Q252,-131 193,-78 Q134,-25 99.5,61 Q65,147 65,255"/> 
            <glyph glyph-name="A" unicode="&#x41;" horiz-adv-x="650" d=" M205,258 L459,258 L332,580 M20,0 L289,677 L378,677 L650,0 L560,0 L491,178 L174,178 L105,0"/> 
            <glyph glyph-name="B" unicode="&#x42;" horiz-adv-x="570" d=" M155,385 L269,385 Q449,385 449,495 Q449,597 279,597 L155,597 M155,80 L309,80 Q479,80 479,195 Q479,305 299,305 L155,305 M70,0 L70,677 L280,677 Q405,677 472.5,632.5 Q540,588 540,505 Q540,384 421,351 Q491,332 530.5,290.5 Q570,249 570,185 Q570,0 310,0"/> 
            <glyph glyph-name="C" unicode="&#x43;" horiz-adv-x="650" d=" M40,344 Q40,508 134,597.5 Q228,687 370,687 Q499,687 574,622.5 Q649,558 649,470 L552,470 Q552,522 503.5,567 Q455,612 371,612 Q273,612 202,540.5 Q131,469 131,344 Q131,218 203,141.5 Q275,65 371,65 Q454,65 504.5,115 Q555,165 555,217 L650,217 Q650,128 574,59 Q498,-10 370,-10 Q229,-10 134.5,84.5 Q40,179 40,344"/> 
            <glyph glyph-name="D" unicode="&#x44;" horiz-adv-x="660" d=" M155,80 L339,80 Q427,80 498,152.5 Q569,225 569,343 Q569,461 500.5,529 Q432,597 339,597 L155,597 M70,0 L70,677 L340,677 Q478,677 569,588.5 Q660,500 660,343 Q660,186 566,93 Q472,0 340,0"/> 
            <glyph glyph-name="E" unicode="&#x45;" horiz-adv-x="510" d=" M70,0 L70,677 L510,677 L510,597 L155,597 L155,398 L450,398 L450,318 L155,318 L155,80 L510,80 L510,0"/> 
            <glyph glyph-name="F" unicode="&#x46;" horiz-adv-x="480" d=" M70,0 L70,677 L480,677 L480,597 L155,597 L155,378 L440,378 L440,298 L155,298 L155,0"/> 
            <glyph glyph-name="G" unicode="&#x47;" horiz-adv-x="680" d=" M40,344 Q40,508 134,597.5 Q228,687 370,687 Q499,687 574,623 Q649,559 649,470 L552,470 Q552,522 503.5,567 Q455,612 371,612 Q273,612 202,540.5 Q131,469 131,344 Q131,217 201.5,141 Q272,65 371,65 Q462,65 520,120.5 Q578,176 588,265 L355,265 L355,345 L680,345 L680,297 Q680,160 594.5,75 Q509,-10 370,-10 Q226,-10 133,84 Q40,178 40,344"/> 
            <glyph glyph-name="H" unicode="&#x48;" horiz-adv-x="595" d=" M70,0 L70,677 L155,677 L155,398 L510,398 L510,677 L595,677 L595,0 L510,0 L510,318 L155,318 L155,0"/> 
            <glyph glyph-name="I" unicode="&#x49;" horiz-adv-x="155" d=" M70,0 L70,677 L155,677 L155,0"/> 
            <glyph glyph-name="J" unicode="&#x4A;" horiz-adv-x="440" d=" M40,213 L125,213 Q125,136 157.5,98 Q190,60 242,60 Q297,60 326,88.5 Q355,117 355,185 L355,677 L440,677 L440,185 Q440,85 387,37.5 Q334,-10 241,-10 Q141,-10 90.5,49.5 Q40,109 40,213"/> 
            <glyph glyph-name="K" unicode="&#x4B;" horiz-adv-x="575" d=" M70,0 L70,677 L155,677 L155,398 L206,398 L456,677 L559,677 L267,354 L575,0 L462,0 L189,318 L155,318 L155,0"/> 
            <glyph glyph-name="L" unicode="&#x4C;" horiz-adv-x="480" d=" M70,0 L70,677 L155,677 L155,80 L480,80 L480,0"/> 
            <glyph glyph-name="M" unicode="&#x4D;" horiz-adv-x="705" d=" M70,0 L70,677 L160,677 L387,290 L615,677 L705,677 L705,0 L620,0 L620,546 L416,190 L357,190 L155,539 L155,0"/> 
            <glyph glyph-name="N" unicode="&#x4E;" horiz-adv-x="615" d=" M70,0 L70,677 L160,677 L530,126 L530,677 L615,677 L615,0 L525,0 L155,550 L155,0"/> 
            <glyph glyph-name="O" unicode="&#x4F;" horiz-adv-x="700" d=" M130,344 Q130,222 200,143.5 Q270,65 370,65 Q470,65 540,143.5 Q610,222 610,344 Q610,465 540.5,538.5 Q471,612 370,612 Q269,612 199.5,538.5 Q130,465 130,344 M40,344 Q40,504 132,595.5 Q224,687 370,687 Q516,687 608,595.5 Q700,504 700,344 Q700,183 607.5,86.5 Q515,-10 370,-10 Q225,-10 132.5,86.5 Q40,183 40,344"/> 
            <glyph glyph-name="P" unicode="&#x50;" horiz-adv-x="550" d=" M155,320 L277,320 Q459,323 459,463 Q459,535 410,566 Q361,597 269,597 L155,597 M70,0 L70,677 L270,677 Q550,677 550,463 Q550,349 475.5,294.5 Q401,240 270,240 L155,240 L155,0"/> 
            <glyph glyph-name="Q" unicode="&#x51;" horiz-adv-x="700" d=" M130,344 Q130,222 200,143.5 Q270,65 370,65 Q401,65 431,73 L319,270 L398,309 L509,114 Q556,151 583,210.5 Q610,270 610,344 Q610,465 540.5,538.5 Q471,612 370,612 Q269,612 199.5,538.5 Q130,465 130,344 M40,344 Q40,504 132,595.5 Q224,687 370,687 Q516,687 608,595.5 Q700,504 700,344 Q700,241 660.5,163 Q621,85 551,40 L676,-177 L575,-177 L471,4 Q423,-10 370,-10 Q225,-10 132.5,86.5 Q40,183 40,344"/> 
            <glyph glyph-name="R" unicode="&#x52;" horiz-adv-x="550" d=" M155,340 L277,340 Q359,341 409,371 Q459,401 459,464 Q459,533 407.5,565 Q356,597 269,597 L155,597 M70,0 L70,677 L270,677 Q401,677 475.5,624 Q550,571 550,464 Q550,316 395,274 L550,0 L449,0 L301,261 Q291,260 270,260 L155,260 L155,0"/> 
            <glyph glyph-name="S" unicode="&#x53;" horiz-adv-x="584" d=" M40,213 L129,213 Q129,150 178,107.5 Q227,65 322,65 Q404,65 449,96.5 Q494,128 494,185 Q494,222 470.5,245.5 Q447,269 409,279.5 Q371,290 325.5,297.5 Q280,305 234,316 Q188,327 150,345 Q112,363 88.5,401.5 Q65,440 65,497 Q65,580 129.5,633.5 Q194,687 306,687 Q378,687 429,668 Q480,649 507,616.5 Q534,584 545.5,547.5 Q557,511 557,469 L468,469 Q468,612 306,612 Q237,612 196,582.5 Q155,553 155,497 Q155,455 178.5,429 Q202,403 240,391.5 Q278,380 324,373 Q370,366 415.5,356 Q461,346 499,329 Q537,312 560.5,276 Q584,240 584,185 Q584,96 513,43 Q442,-10 322,-10 Q248,-10 191.5,10 Q135,30 103,63 Q71,96 55.5,134 Q40,172 40,213"/> 
            <glyph glyph-name="T" unicode="&#x54;" horiz-adv-x="525" d=" M20,597 L20,677 L525,677 L525,597 L315,597 L315,0 L230,0 L230,597"/> 
            <glyph glyph-name="U" unicode="&#x55;" horiz-adv-x="566" d=" M60,260 L60,677 L145,677 L145,260 Q145,151 189,108.5 Q233,66 313,66 Q393,66 437,108.5 Q481,151 481,260 L481,677 L566,677 L566,260 Q566,119 497.5,54.5 Q429,-10 312,-10 Q196,-10 128,54.5 Q60,119 60,260"/> 
            <glyph glyph-name="V" unicode="&#x56;" horiz-adv-x="650" d=" M20,677 L115,677 L337,129 L560,677 L650,677 L371,0 L302,0"/> 
            <glyph glyph-name="W" unicode="&#x57;" horiz-adv-x="825" d=" M30,677 L110,677 L242,118 L394,677 L463,677 L615,127 L745,677 L825,677 L665,0 L575,0 L427,534 L280,0 L190,0"/> 
            <glyph glyph-name="X" unicode="&#x58;" horiz-adv-x="590" d=" M20,0 L249,338 L28,677 L122,677 L305,394 L488,677 L582,677 L361,338 L590,0 L485,0 L308,275 L119,0"/> 
            <glyph glyph-name="Y" unicode="&#x59;" horiz-adv-x="640" d=" M20,677 L120,677 L332,337 L545,677 L640,677 L375,271 L375,0 L290,0 L290,268"/> 
            <glyph glyph-name="Z" unicode="&#x5A;" horiz-adv-x="522" d=" M20,0 L20,40 L391,597 L20,597 L20,677 L522,677 L522,642 L147,80 L522,80 L522,0"/> 
            <glyph glyph-name="[" unicode="&#x5B;" horiz-adv-x="340" d=" M120,-177 L120,677 L340,677 L340,602 L200,602 L200,-102 L340,-102 L340,-177"/> 
            <glyph glyph-name="\" unicode="&#x5C;" horiz-adv-x="430" d=" M50,777 L135,777 L430,-77 L345,-77"/> 
            <glyph glyph-name="]" unicode="&#x5D;" horiz-adv-x="260" d=" M40,-102 L180,-102 L180,602 L40,602 L40,677 L260,677 L260,-177 L40,-177"/> 
            <glyph glyph-name="_" unicode="&#x5F;" horiz-adv-x="610" d=" M10,30 L610,30 L610,-45 L10,-45"/> 
            <glyph glyph-name="a" unicode="&#x61;" horiz-adv-x="492" d=" M126,338 Q126,168 165.5,114 Q205,60 271,60 Q335,60 372.5,111 Q410,162 412,244 L412,253 Q412,338 374.5,389 Q337,440 271,440 Q205,440 126,338 M40,138 Q40,368 101.5,439 Q163,510 260,510 Q357,510 414,418 L422,500 L492,500 L492,0 L422,0 L413,85 Q355,-10 260,-10 Q164,-10 40,138"/> 
            <glyph glyph-name="b" unicode="&#x62;" horiz-adv-x="522" d=" M150,250 Q150,167 185.5,113.5 Q221,60 291,60 Q354,60 395,113 Q436,166 436,250 Q436,335 396.5,387.5 Q357,440 291,440 Q224,440 188,385.5 Q152,331 150,257 M70,0 L70,677 L150,677 L150,424 Q204,510 302,510 Q398,510 460,437.5 Q522,365 522,250 Q522,136 459,63 Q396,-10 302,-10 Q202,-10 147,78 L140,0"/> 
            <glyph glyph-name="c" unicode="&#x63;" horiz-adv-x="470" d=" M40,253 Q40,373 105,441.5 Q170,510 275,510 Q379,510 433,439 Q468,392 468,332 L383,332 Q383,376 360,403 Q330,440 270,440 Q208,440 167,390.5 Q126,341 126,253 Q126,164 167.5,112 Q209,60 270,60 Q330,60 361,98 Q385,128 385,170 L470,170 Q470,104 436,60 Q382,-10 275,-10 Q171,-10 105.5,61 Q40,132 40,253"/> 
            <glyph glyph-name="d" unicode="&#x64;" horiz-adv-x="492" d=" M126,338 Q126,168 165.5,114 Q205,60 271,60 Q336,60 374,113.5 Q412,167 412,253 Q412,338 374.5,389 Q337,440 271,440 Q205,440 126,338 M40,138 Q40,368 101.5,439 Q163,510 260,510 Q354,510 412,422 L412,677 L492,677 L492,0 L422,0 L413,85 Q355,-10 260,-10 Q164,-10 40,138"/> 
            <glyph glyph-name="e" unicode="&#x65;" horiz-adv-x="499" d=" M130,310 L412,310 Q410,367 377.5,403.5 Q345,440 276,440 Q210,440 171,402 Q132,364 130,310 M40,136 Q40,370 103,440 Q166,510 276,510 Q383,510 441,445 Q499,380 499,276 L499,245 L126,245 Q128,157 168.5,108.5 Q209,60 280,60 Q354,60 386,102 Q405,128 405,155 L490,155 Q490,111 459,67 Q405,-10 280,-10 Q170,-10 40,136"/> 
            <glyph glyph-name="f" unicode="&#x66;" horiz-adv-x="323" d=" M20,425 L20,500 L110,500 L110,510 Q110,586 151,631.5 Q192,677 266,677 L323,677 L323,602 L269,602 Q225,602 208.5,578.5 Q192,555 190,500 L323,500 L323,425 L190,425 L190,0 L110,0 L110,425"/> 
            <glyph glyph-name="g" unicode="&#x67;" horiz-adv-x="482" d=" M126,275 Q126,203 165.5,156.5 Q205,110 271,110 Q333,110 366.5,158 Q400,206 402,269 L402,275 Q402,341 370,390.5 Q338,440 271,440 Q208,440 167,393 Q126,346 126,275 M40,275 Q40,385 102,447.5 Q164,510 260,510 Q350,510 405,426 L412,500 L482,500 L482,93 Q482,-42 423,-114.5 Q364,-187 251,-187 Q160,-187 115.5,-146.5 Q71,-106 71,-54 L156,-54 Q156,-79 181.5,-98 Q207,-117 251,-117 Q324,-117 363,-62.5 Q402,-8 402,100 L402,122 Q347,40 260,40 Q162,40 101,103.5 Q40,167 40,275"/> 
            <glyph glyph-name="h" unicode="&#x68;" horiz-adv-x="510" d=" M70,0 L70,677 L150,677 L150,419 Q210,510 310,510 Q404,510 457,451 Q510,392 510,290 L510,0 L430,0 L430,290 Q429,349 396,394.5 Q363,440 291,440 Q245,440 211.5,411.5 Q178,383 164,348 Q150,313 150,279 L150,0"/> 
            <glyph glyph-name="i" unicode="&#x69;" horiz-adv-x="167" d=" M70,0 L70,500 L150,500 L150,0 M53,604 Q53,656 69,671.5 Q85,687 110,687 Q135,687 151,671.5 Q167,656 167,630 Q167,604 151,588.5 Q135,573 110,573 Q85,573 53,604"/> 
            <glyph glyph-name="j" unicode="&#x6A;" horiz-adv-x="197" d=" M83,604 Q83,656 99,671.5 Q115,687 140,687 Q165,687 181,671.5 Q197,656 197,630 Q197,604 181,588.5 Q165,573 140,573 Q115,573 83,604 M5,-96 L21,-96 Q67,-96 83.5,-64 Q100,-32 100,30 L100,500 L180,500 L180,0 Q180,-77 138.5,-127 Q97,-177 24,-177 L5,-177"/> 
            <glyph glyph-name="k" unicode="&#x6B;" horiz-adv-x="479" d=" M70,0 L70,677 L150,677 L150,300 L203,300 L377,500 L471,500 L262,259 L479,0 L375,0 L187,225 L150,225 L150,0"/> 
            <glyph glyph-name="l" unicode="&#x6C;" horiz-adv-x="150" d=" M70,0 L70,677 L150,677 L150,0"/> 
            <glyph glyph-name="m" unicode="&#x6D;" horiz-adv-x="770" d=" M70,0 L70,500 L140,500 L147,422 Q202,510 290,510 Q400,510 429,394 Q495,510 600,510 Q678,510 724,455.5 Q770,401 770,290 L770,0 L690,0 L690,280 L690,290 Q690,440 581,440 Q525,440 493.5,389.5 Q462,339 460,283 L460,0 L380,0 L380,290 Q380,440 271,440 Q215,440 183.5,389.5 Q152,339 150,283 L150,0"/> 
            <glyph glyph-name="n" unicode="&#x6E;" horiz-adv-x="510" d=" M70,0 L70,500 L140,500 L148,416 Q209,510 310,510 Q404,510 457,451 Q510,392 510,290 L510,0 L430,0 L430,290 Q429,349 396,394.5 Q363,440 291,440 Q226,440 189,389.5 Q152,339 150,283 L150,0"/> 
            <glyph glyph-name="o" unicode="&#x6F;" horiz-adv-x="520" d=" M125,253 Q125,168 167.5,114 Q210,60 280,60 Q350,60 392.5,114 Q435,168 435,253 Q435,337 393,388.5 Q351,440 280,440 Q209,440 167,388.5 Q125,337 125,253 M40,137 Q40,369 105.5,439.5 Q171,510 280,510 Q389,510 454.5,439.5 Q520,369 520,253 Q520,137 454,63.5 Q388,-10 280,-10 Q172,-10 40,137"/> 
            <glyph glyph-name="p" unicode="&#x70;" horiz-adv-x="522" d=" M150,253 Q150,170 185.5,115 Q221,60 291,60 Q354,60 395,114.5 Q436,169 436,253 Q436,338 396.5,389 Q357,440 291,440 Q222,440 186,384.5 Q150,329 150,253 M70,-177 L70,500 L140,500 L147,420 Q201,510 302,510 Q399,510 460.5,439 Q522,368 522,253 Q522,139 458.5,64.5 Q395,-10 302,-10 Q203,-10 150,75 L150,-177"/> 
            <glyph glyph-name="q" unicode="&#x71;" horiz-adv-x="492" d=" M126,338 Q126,168 165.5,114 Q205,60 271,60 Q336,60 374,113.5 Q412,167 412,253 Q412,338 374.5,389 Q337,440 271,440 Q205,440 126,338 M40,138 Q40,368 101.5,439 Q163,510 260,510 Q357,510 414,418 L422,500 L492,500 L492,-177 L412,-177 L412,83 Q355,-10 260,-10 Q164,-10 40,138"/> 
            <glyph glyph-name="r" unicode="&#x72;" horiz-adv-x="310" d=" M70,0 L70,500 L140,500 L147,424 Q195,500 290,500 L310,500 L310,430 L290,430 Q154,430 150,262 L150,0"/> 
            <glyph glyph-name="s" unicode="&#x73;" horiz-adv-x="440" d=" M40,163 L125,163 Q125,119 160,89.5 Q195,60 250,60 Q296,60 325,80.5 Q354,101 354,135 Q354,167 323,184.5 Q292,202 248,212 Q204,222 160.5,235 Q117,248 86,280 Q55,312 55,365 Q55,430 105.5,470 Q156,510 234,510 Q332,510 382.5,458.5 Q433,407 433,337 L348,337 Q348,381 316,410.5 Q284,440 234,440 Q193,440 167,419.5 Q141,399 141,365 Q141,336 163,317.5 Q185,299 218.5,291.5 Q252,284 290.5,273.5 Q329,263 362.5,251 Q396,239 418,209.5 Q440,180 440,135 Q440,70 386.5,30 Q333,-10 250,-10 Q147,-10 93.5,41.5 Q40,93 40,163"/> 
            <glyph glyph-name="t" unicode="&#x74;" horiz-adv-x="323" d=" M20,425 L20,500 L110,500 L110,620 L190,620 L190,500 L323,500 L323,425 L190,425 L190,207 Q190,144 202,112.5 Q214,81 249,81 L323,81 L323,0 L246,0 Q182,0 146,49.5 Q110,99 110,177 L110,425"/> 
            <glyph glyph-name="u" unicode="&#x75;" horiz-adv-x="500" d=" M60,210 L60,500 L140,500 L140,220 L140,213 Q140,153 170.5,106.5 Q201,60 269,60 Q338,60 377.5,114.5 Q417,169 420,226 L420,500 L500,500 L500,0 L430,0 L421,91 Q357,-10 250,-10 Q161,-10 110.5,49 Q60,108 60,210"/> 
            <glyph glyph-name="v" unicode="&#x76;" horiz-adv-x="520" d=" M20,500 L115,500 L272,110 L430,500 L520,500 L311,0 L232,0"/> 
            <glyph glyph-name="w" unicode="&#x77;" horiz-adv-x="650" d=" M20,500 L95,500 L188,125 L304,500 L371,500 L482,128 L575,500 L650,500 L530,0 L450,0 L337,375 L220,0 L140,0"/> 
            <glyph glyph-name="x" unicode="&#x78;" horiz-adv-x="470" d=" M30,0 L199,251 L38,500 L127,500 L255,299 L373,500 L462,500 L301,251 L470,0 L370,0 L248,193 L124,0"/> 
            <glyph glyph-name="y" unicode="&#x79;" horiz-adv-x="500" d=" M20,500 L110,500 L270,97 L415,500 L500,500 L313,5 L311,0 Q272,-95 231,-136 Q190,-177 114,-177 L65,-177 L65,-96 L111,-96 Q186,-96 227,11"/> 
            <glyph glyph-name="z" unicode="&#x7A;" horiz-adv-x="452" d=" M50,0 L50,35 L327,425 L50,425 L50,500 L452,500 L452,465 L174,75 L452,75 L452,0"/> 
            <glyph glyph-name="{" unicode="&#x7B;" horiz-adv-x="416" d=" M120,210 L120,291 L134,291 Q181,291 197,319 Q213,347 213,407 L213,510 Q213,586 254,631.5 Q295,677 369,677 L416,677 L416,596 L372,596 Q325,596 309,568 Q293,540 293,480 L293,377 Q293,286 231,250 Q293,216 293,124 L293,20 Q293,-40 309,-68 Q325,-96 372,-96 L416,-96 L416,-177 L369,-177 Q295,-177 254,-131.5 Q213,-86 213,-10 L213,94 Q213,154 197,182 Q181,210 134,210"/> 
            <glyph glyph-name="|" unicode="&#x7C;" horiz-adv-x="160" d=" M80,-77 L80,777 L160,777 L160,-77"/> 
            <glyph glyph-name="}" unicode="&#x7D;" horiz-adv-x="316" d=" M20,-96 L64,-96 Q111,-96 127,-68 Q143,-40 143,20 L143,123 Q143,215 204,249 Q143,284 143,376 L143,480 Q143,540 127,568 Q111,596 64,596 L20,596 L20,677 L67,677 Q141,677 182,631.5 Q223,586 223,510 L223,406 Q223,346 239,318 Q255,290 302,290 L316,290 L316,209 L302,209 Q255,209 239,181 Q223,153 223,93 L223,-10 Q223,-86 182,-131.5 Q141,-177 67,-177 L20,-177"/> 
            <glyph glyph-name="~" unicode="&#x7E;" horiz-adv-x="613" d=" M20,280 L32,294 Q71,332 99.5,348.5 Q128,365 159,365 Q183,365 219,354 L420,292 Q437,287 449,287 Q482,287 525,330 L556,362 L613,304 L580,271 Q542,234 516,218.5 Q490,203 462,203 Q436,203 400,215 L199,277 Q187,281 173,281 Q136,281 87,235 L78,224"/> 
            <glyph glyph-name="¡" unicode="&#xA1;" horiz-adv-x="203" d=" M95,-177 L95,280 L180,280 L180,-177 M77,447 Q77,475 95,492.5 Q113,510 140,510 Q167,510 185,492.5 Q203,475 203,447 Q203,418 185,401 Q167,384 140,384 Q113,384 95,401 Q77,418 77,447"/> 
            <glyph glyph-name="£" unicode="&#xA3;" horiz-adv-x="550" d=" M50,0 L50,60 Q55,63 64,69 Q73,75 95.5,95 Q118,115 135,137 Q152,159 166,193 Q180,227 180,262 Q180,277 179,285 L70,285 L70,360 L171,360 Q167,383 158.5,416.5 Q150,450 145,475 Q140,500 140,522 Q140,601 192.5,644 Q245,687 330,687 Q424,687 472,637 Q520,587 520,514 L435,514 Q435,560 406,588.5 Q377,617 330,617 Q283,617 254.5,593.5 Q226,570 226,522 Q226,501 237.5,448.5 Q249,396 254,360 L430,360 L430,285 L260,285 L260,262 Q260,178 180,80 L550,80 L550,0 L105,0"/> 
            <glyph glyph-name="¥" unicode="&#xA5;" horiz-adv-x="645" d=" M25,677 L115,677 L336,337 L338,337 L560,677 L645,677 L464,400 L580,400 L580,325 L415,325 L380,271 L380,252 L580,252 L580,177 L380,177 L380,0 L295,0 L295,177 L95,177 L95,252 L295,252 L295,268 L257,325 L95,325 L95,400 L208,400"/> 
            <glyph glyph-name="¦" unicode="&#xA6;" horiz-adv-x="160" d=" M80,423 L80,777 L160,777 L160,423 M80,-77 L80,277 L160,277 L160,-77"/> 
            <glyph glyph-name="§" unicode="&#xA7;" horiz-adv-x="530" d=" M136,283 Q136,219 246,168 L338,125 Q340,123 346,121 L348,121 Q382,121 413,145 Q444,169 444,217 Q444,281 334,332 L242,375 Q236,377 234,379 Q199,379 167.5,355 Q136,331 136,283 M50,284 Q50,340 82,376.5 Q114,413 161,427 Q120,468 120,536 Q120,604 173,645.5 Q226,687 299,687 Q397,687 447.5,635.5 Q498,584 498,514 L413,514 Q413,558 381,587.5 Q349,617 299,617 Q257,617 231.5,595.5 Q206,574 206,536 Q206,475 277,441 L374,395 Q530,320 530,216 Q530,159 498,123 Q466,87 418,73 Q460,31 460,-36 Q460,-104 407,-145.5 Q354,-187 281,-187 Q183,-187 132.5,-135.5 Q82,-84 82,-14 L167,-14 Q167,-58 199,-87.5 Q231,-117 281,-117 Q323,-117 348.5,-95.5 Q374,-74 374,-36 Q374,25 303,59 L206,105 Q50,180 50,284"/> 
            <glyph glyph-name="¨" unicode="&#xA8;" horiz-adv-x="277" d=" M163,604 Q163,656 179,671.5 Q195,687 220,687 Q245,687 261,671.5 Q277,656 277,630 Q277,604 261,588.5 Q245,573 220,573 Q195,573 163,604 M3,604 Q3,656 19,671.5 Q35,687 60,687 Q85,687 101,671.5 Q117,656 117,630 Q117,604 101,588.5 Q85,573 60,573 Q35,573 3,604"/> 
            <glyph glyph-name="©" unicode="&#xA9;" horiz-adv-x="721" d=" M214,255 Q214,435 263,484.5 Q312,534 385,534 Q451,534 492.5,492.5 Q534,451 534,399 L464,399 Q464,433 444,454 Q424,475 385,475 Q342,475 313,441 Q284,407 284,345 Q284,283 313,246 Q342,209 385,209 Q424,209 444.5,231 Q465,253 465,286 L535,286 Q535,231 493.5,190.5 Q452,150 385,150 Q313,150 214,255 M106,345 Q106,212 187,130 Q268,48 381,48 Q494,48 575,130 Q656,212 656,345 Q656,476 575.5,552.5 Q495,629 381,629 Q267,629 186.5,552.5 Q106,476 106,345 M40,344 Q40,503 136.5,595 Q233,687 380,687 Q527,687 624,595 Q721,503 721,344 Q721,184 623.5,87 Q526,-10 380,-10 Q234,-10 137,87 Q40,184 40,344"/> 
            <glyph glyph-name="«" unicode="&#xAB;" horiz-adv-x="500" d=" M230,263 L407,460 L500,460 L324,263 L500,66 L407,66 M30,263 L207,460 L300,460 L124,263 L300,66 L207,66"/> 
            <glyph glyph-name="­" unicode="&#xAD;" horiz-adv-x="340" d=" M40,245 L40,320 L340,320 L340,245"/> 
            <glyph glyph-name="®" unicode="&#xAE;" horiz-adv-x="601" d=" M275,414 L344,414 Q398,417 398,458 Q398,495 340,495 L275,495 M222,258 L222,546 L345,546 Q396,546 425,521.5 Q454,497 454,458 Q454,426 435,402.5 Q416,379 382,369 L444,258 L383,258 L325,364 L275,364 L275,258 M101,406 Q101,300 166,234 Q231,168 321,168 Q411,168 476,234 Q541,300 541,406 Q541,510 476.5,571.5 Q412,633 321,633 Q230,633 165.5,571.5 Q101,510 101,406 M40,405 Q40,536 119,611.5 Q198,687 320,687 Q442,687 521.5,611.5 Q601,536 601,405 Q601,273 521,193.5 Q441,114 320,114 Q199,114 119.5,193.5 Q40,273 40,405"/> 
            <glyph glyph-name="°" unicode="&#xB0;" horiz-adv-x="339" d=" M117,452 Q117,409 138.5,382 Q160,355 195,355 Q230,355 251,382 Q272,409 272,452 Q272,494 251,519.5 Q230,545 195,545 Q159,545 138,519.5 Q117,494 117,452 M50,382 Q50,522 89.5,564 Q129,606 194,606 Q259,606 299,564 Q339,522 339,452 Q339,382 299,338 Q259,294 194,294 Q129,294 50,382"/> 
            <glyph glyph-name="±" unicode="&#xB1;" horiz-adv-x="440" d=" M70,45 L70,120 L410,120 L410,45 M40,395 L40,470 L200,470 L200,640 L280,640 L280,470 L440,470 L440,395 L280,395 L280,220 L200,220 L200,395"/> 
            <glyph glyph-name="²" unicode="&#xB2;" horiz-adv-x="317" d=" M24,320 L24,355 L137,462 Q235,553 235,614 Q235,678 168,678 Q138,678 118.5,662.5 Q99,647 99,620 L24,620 Q24,664 58.5,699.5 Q93,735 169,735 Q236,735 273.5,700.5 Q311,666 311,613 Q311,525 189,419 L145,381 L317,381 L317,320"/> 
            <glyph glyph-name="³" unicode="&#xB3;" horiz-adv-x="323" d=" M24,429 L99,429 Q99,404 120,386.5 Q141,369 171,369 Q203,369 225.5,387 Q248,405 248,437 Q248,467 221.5,482.5 Q195,498 160,498 L101,498 L101,559 L159,559 Q192,559 215.5,577.5 Q239,596 239,619 Q239,645 220,661.5 Q201,678 169,678 Q139,678 120,662.5 Q101,647 101,620 L26,620 Q26,664 60,699.5 Q94,735 169,735 Q236,735 275,701.5 Q314,668 314,619 Q314,556 240,535 Q323,507 323,437 Q323,380 282.5,345.5 Q242,311 171,311 Q102,311 63,347 Q24,383 24,429"/> 
            <glyph glyph-name="µ" unicode="&#xB5;" horiz-adv-x="510" d=" M70,-177 L70,500 L150,500 L150,220 L150,213 Q150,153 180.5,106.5 Q211,60 279,60 Q328,60 364,91 Q400,122 415,159.5 Q430,197 430,231 L430,500 L510,500 L510,0 L440,0 L432,85 Q374,-10 280,-10 Q195,-10 150,41 L150,-177"/> 
            <glyph glyph-name="¶" unicode="&#xB6;" horiz-adv-x="535" d=" M45,502 Q45,581 106,629 Q167,677 260,677 L535,677 L535,-177 L450,-177 L450,597 L345,597 L345,-177 L260,-177 L260,304 Q165,304 105,355 Q45,406 45,502"/> 
            <glyph glyph-name="·" unicode="&#xB7;" horiz-adv-x="203" d=" M77,255 Q77,283 95,300.5 Q113,318 140,318 Q167,318 185,300.5 Q203,283 203,255 Q203,226 185,209 Q167,192 140,192 Q113,192 95,209 Q77,226 77,255"/> 
            <glyph glyph-name="¹" unicode="&#xB9;" horiz-adv-x="167" d=" M30,666 L30,726 L167,726 L167,320 L95,320 L95,666"/> 
            <glyph glyph-name="»" unicode="&#xBB;" horiz-adv-x="500" d=" M230,66 L406,263 L230,460 L323,460 L500,263 L323,66 M30,66 L206,263 L30,460 L123,460 L300,263 L123,66"/> 
            <glyph glyph-name="¼" unicode="&#xBC;" horiz-adv-x="712" d=" M453,112 L578,112 L578,277 M384,51 L384,124 L566,356 L653,356 L653,112 L712,112 L712,51 L653,51 L653,-50 L578,-50 L578,51 M52,0 L512,677 L593,677 L133,0 M30,666 L30,726 L167,726 L167,320 L95,320 L95,666"/> 
            <glyph glyph-name="½" unicode="&#xBD;" horiz-adv-x="769" d=" M476,-15 L589,92 Q687,183 687,244 Q687,308 620,308 Q590,308 570.5,292.5 Q551,277 551,250 L476,250 Q476,294 510.5,329.5 Q545,365 621,365 Q688,365 725.5,330.5 Q763,296 763,243 Q763,155 641,49 L597,11 L769,11 L769,-50 L476,-50 M52,0 L512,677 L593,677 L133,0 M30,666 L30,726 L167,726 L167,320 L95,320 L95,666"/> 
            <glyph glyph-name="¾" unicode="&#xBE;" horiz-adv-x="822" d=" M563,112 L688,112 L688,277 M494,51 L494,124 L676,356 L763,356 L763,112 L822,112 L822,51 L763,51 L763,-50 L688,-50 L688,51 M162,0 L622,677 L703,677 L243,0 M24,429 L99,429 Q99,404 120,386.5 Q141,369 171,369 Q203,369 225.5,387 Q248,405 248,437 Q248,467 221.5,482.5 Q195,498 160,498 L101,498 L101,559 L159,559 Q192,559 215.5,577.5 Q239,596 239,619 Q239,645 220,661.5 Q201,678 169,678 Q139,678 120,662.5 Q101,647 101,620 L26,620 Q26,664 60,699.5 Q94,735 169,735 Q236,735 275,701.5 Q314,668 314,619 Q314,556 240,535 Q323,507 323,437 Q323,380 282.5,345.5 Q242,311 171,311 Q102,311 63,347 Q24,383 24,429"/> 
            <glyph glyph-name="¿" unicode="&#xBF;" horiz-adv-x="480" d=" M207,447 Q207,475 225,492.5 Q243,510 270,510 Q297,510 315,492.5 Q333,475 333,447 Q333,418 315,401 Q297,384 270,384 Q243,384 225,401 Q207,418 207,447 M50,-6 Q50,31 67.5,65 Q85,99 110.5,124.5 Q136,150 161.5,174 Q187,198 204.5,225.5 Q222,253 222,280 L304,280 Q304,244 286.5,210.5 Q269,177 244.5,151.5 Q220,126 195.5,101.5 Q171,77 153.5,49.5 Q136,22 136,-6 Q136,-59 170.5,-88 Q205,-117 271,-117 Q332,-117 363.5,-86 Q395,-55 395,0 L480,0 Q480,-79 427.5,-133 Q375,-187 270,-187 Q167,-187 108.5,-138.5 Q50,-90 50,-6"/> 
            <glyph glyph-name="Æ" unicode="&#xC6;" horiz-adv-x="790" d=" M219,258 L438,258 L363,570 M10,0 L329,677 L790,677 L790,597 L438,597 L489,398 L730,398 L730,318 L509,318 L569,80 L790,80 L790,0 L500,0 L457,178 L183,178 L105,0"/> 
            <glyph glyph-name="×" unicode="&#xD7;" horiz-adv-x="417" d=" M63,210 L183,330 L63,450 L120,507 L240,387 L360,507 L417,450 L297,330 L417,210 L360,153 L240,273 L120,153"/> 
            <glyph glyph-name="æ" unicode="&#xE6;" horiz-adv-x="871" d=" M503,310 L783,310 Q771,440 648,440 Q591,440 553,407 Q515,374 503,310 M126,338 Q126,168 165.5,114 Q205,60 271,60 Q335,60 372.5,111 Q410,162 412,244 L412,261 Q410,343 372.5,391.5 Q335,440 271,440 Q205,440 126,338 M40,138 Q40,368 101.5,439 Q163,510 260,510 Q357,510 414,418 L422,500 L492,500 L492,432 Q542,510 658,510 Q759,510 815,444.5 Q871,379 871,276 L871,245 L498,245 Q500,165 543.5,112.5 Q587,60 652,60 Q713,60 745,90.5 Q777,121 777,155 L862,155 Q862,94 808,42 Q754,-10 662,-10 Q543,-10 492,74 L492,0 L422,0 L413,85 Q355,-10 260,-10 Q164,-10 40,138"/> 
            <glyph glyph-name="÷" unicode="&#xF7;" horiz-adv-x="460" d=" M177,447 Q177,475 195,492.5 Q213,510 240,510 Q267,510 285,492.5 Q303,475 303,447 Q303,418 285,401 Q267,384 240,384 Q213,384 195,401 Q177,418 177,447 M177,118 Q177,146 195,163.5 Q213,181 240,181 Q267,181 285,163.5 Q303,146 303,118 Q303,89 285,72 Q267,55 240,55 Q213,55 195,72 Q177,89 177,118 M20,245 L20,320 L460,320 L460,245"/> 
            <glyph glyph-name="ı" unicode="&#x131;" horiz-adv-x="150" d=" M70,0 L70,500 L150,500 L150,0"/> 
            <glyph glyph-name="Œ" unicode="&#x152;" horiz-adv-x="1056" d=" M131,344 Q131,222 201,143.5 Q271,65 371,65 Q471,65 541,143.5 Q611,222 611,344 Q611,465 541.5,538.5 Q472,612 371,612 Q270,612 200.5,538.5 Q131,465 131,344 M40,344 Q40,504 132,595.5 Q224,687 370,687 Q533,687 616,573 L616,677 L1056,677 L1056,597 L701,597 L701,398 L996,398 L996,318 L701,318 L701,80 L1056,80 L1056,0 L616,0 L616,110 Q532,-10 370,-10 Q225,-10 132.5,86.5 Q40,183 40,344"/> 
            <glyph glyph-name="œ" unicode="&#x153;" horiz-adv-x="895" d=" M527,310 L807,310 Q795,440 672,440 Q615,440 577,407 Q539,374 527,310 M125,253 Q125,168 167.5,114 Q210,60 280,60 Q350,60 392.5,114 Q435,168 435,253 Q435,337 393,388.5 Q351,440 280,440 Q209,440 167,388.5 Q125,337 125,253 M40,137 Q40,369 105.5,439.5 Q171,510 280,510 Q419,510 484,399 Q536,510 672,510 Q779,510 837,445 Q895,380 895,276 L895,245 L522,245 Q524,165 567.5,112.5 Q611,60 676,60 Q737,60 769,90.5 Q801,121 801,155 L886,155 Q886,94 830.5,42 Q775,-10 676,-10 Q538,-10 484,106 Q454,51 401,20.5 Q348,-10 280,-10 Q172,-10 40,137"/> 
            <glyph glyph-name="˘" unicode="&#x2D8;" horiz-adv-x="444" d=" M132,677 L208,677 Q210,661 228.5,645 Q247,629 278,629 L298,629 Q329,629 347.5,645 Q366,661 368,677 L444,677 Q435,630 396.5,599 Q358,568 301,568 L275,568 Q218,568 179.5,599 Q141,630 132,677"/> 
            <glyph glyph-name="˙" unicode="&#x2D9;" horiz-adv-x="197" d=" M83,604 Q83,656 99,671.5 Q115,687 140,687 Q165,687 181,671.5 Q197,656 197,630 Q197,604 181,588.5 Q165,573 140,573 Q115,573 83,604"/> 
            <glyph glyph-name="΄" unicode="&#x384;" horiz-adv-x="180" d=" M90,557 L110,697 L180,697 L160,557"/> 
            <glyph glyph-name="΅" unicode="&#x385;" horiz-adv-x="294" d=" M192,593 Q192,639 206.5,653 Q221,667 243,667 Q265,667 279.5,653 Q294,639 294,616 Q294,593 279.5,579 Q265,565 243,565 Q221,565 192,593 M90,557 L110,697 L180,697 L160,557 M-30,593 Q-30,639 -15.5,653 Q-1,667 21,667 Q43,667 57.5,653 Q72,639 72,616 Q72,593 57.5,579 Q43,565 21,565 Q-1,565 -30,593"/> 
            <glyph glyph-name="Ά" unicode="&#x386;" horiz-adv-x="650" d=" M205,258 L459,258 L332,580 M35,557 L55,697 L125,697 L105,557 M20,0 L289,677 L378,677 L650,0 L560,0 L491,178 L174,178 L105,0"/> 
            <glyph glyph-name="Έ" unicode="&#x388;" horiz-adv-x="580" d=" M140,0 L140,677 L580,677 L580,597 L225,597 L225,398 L520,398 L520,318 L225,318 L225,80 L580,80 L580,0 M10,557 L30,697 L100,697 L80,557"/> 
            <glyph glyph-name="Ή" unicode="&#x389;" horiz-adv-x="675" d=" M150,0 L150,677 L235,677 L235,398 L590,398 L590,677 L675,677 L675,0 L590,0 L590,318 L235,318 L235,0 M10,557 L30,697 L100,697 L80,557"/> 
            <glyph glyph-name="Ί" unicode="&#x38A;" horiz-adv-x="225" d=" M140,0 L140,677 L225,677 L225,0 M10,557 L30,697 L100,697 L80,557"/> 
            <glyph glyph-name="Ό" unicode="&#x38C;" horiz-adv-x="735" d=" M165,344 Q165,222 235,143.5 Q305,65 405,65 Q505,65 575,143.5 Q645,222 645,344 Q645,465 575.5,538.5 Q506,612 405,612 Q304,612 234.5,538.5 Q165,465 165,344 M75,344 Q75,504 167,595.5 Q259,687 405,687 Q551,687 643,595.5 Q735,504 735,344 Q735,183 642.5,86.5 Q550,-10 405,-10 Q260,-10 167.5,86.5 Q75,183 75,344 M10,557 L30,697 L100,697 L80,557"/> 
            <glyph glyph-name="Ύ" unicode="&#x38E;" horiz-adv-x="755" d=" M135,677 L235,677 L447,337 L660,677 L755,677 L490,271 L490,0 L405,0 L405,268 M10,557 L30,697 L100,697 L80,557"/> 
            <glyph glyph-name="Ώ" unicode="&#x38F;" horiz-adv-x="822" d=" M160,0 L160,80 L311,80 Q170,206 170,370 Q170,509 258.5,598 Q347,687 492,687 Q636,687 724,598 Q812,509 812,370 Q812,206 670,80 L822,80 L822,0 L552,0 L552,70 Q559,74 570.5,82 Q582,90 611,118.5 Q640,147 662,179 Q684,211 702.5,263 Q721,315 721,370 Q721,470 656,541 Q591,612 491,612 Q391,612 326,541 Q261,470 261,370 Q261,315 278.5,263.5 Q296,212 321,178.5 Q346,145 370.5,119 Q395,93 412,82 L430,70 L430,0 M90,557 L110,697 L180,697 L160,557"/> 
            <glyph glyph-name="ΐ" unicode="&#x390;" horiz-adv-x="267" d=" M165,593 Q165,639 179.5,653 Q194,667 216,667 Q238,667 252.5,653 Q267,639 267,616 Q267,593 252.5,579 Q238,565 216,565 Q194,565 165,593 M63,557 L83,697 L153,697 L133,557 M60,144 L60,500 L140,500 L140,154 Q140,111 153,90.5 Q166,70 200,70 L200,0 Q124,0 92,34 Q60,68 60,144 M-57,593 Q-57,639 -42.5,653 Q-28,667 -6,667 Q16,667 30.5,653 Q45,639 45,616 Q45,593 30.5,579 Q16,565 -6,565 Q-28,565 -57,593"/> 
            <glyph glyph-name="Α" unicode="&#x391;" horiz-adv-x="650" d=" M205,258 L459,258 L332,580 M20,0 L289,677 L378,677 L650,0 L560,0 L491,178 L174,178 L105,0"/> 
            <glyph glyph-name="Β" unicode="&#x392;" horiz-adv-x="570" d=" M155,385 L269,385 Q449,385 449,495 Q449,597 279,597 L155,597 M155,80 L309,80 Q479,80 479,195 Q479,305 299,305 L155,305 M70,0 L70,677 L280,677 Q405,677 472.5,632.5 Q540,588 540,505 Q540,384 421,351 Q491,332 530.5,290.5 Q570,249 570,185 Q570,0 310,0"/> 
            <glyph glyph-name="Γ" unicode="&#x393;" horiz-adv-x="440" d=" M70,0 L70,677 L440,677 L440,597 L155,597 L155,0"/> 
            <glyph glyph-name="Δ" unicode="&#x394;" horiz-adv-x="650" d=" M137,80 L527,80 L332,562 M20,0 L299,677 L368,677 L650,0"/> 
            <glyph glyph-name="Ε" unicode="&#x395;" horiz-adv-x="510" d=" M70,0 L70,677 L510,677 L510,597 L155,597 L155,398 L450,398 L450,318 L155,318 L155,80 L510,80 L510,0"/> 
            <glyph glyph-name="Ζ" unicode="&#x396;" horiz-adv-x="522" d=" M20,0 L20,40 L391,597 L20,597 L20,677 L522,677 L522,642 L147,80 L522,80 L522,0"/> 
            <glyph glyph-name="Η" unicode="&#x397;" horiz-adv-x="595" d=" M70,0 L70,677 L155,677 L155,398 L510,398 L510,677 L595,677 L595,0 L510,0 L510,318 L155,318 L155,0"/> 
            <glyph glyph-name="Θ" unicode="&#x398;" horiz-adv-x="700" d=" M226,298 L226,378 L526,378 L526,298 M130,344 Q130,222 200,143.5 Q270,65 370,65 Q470,65 540,143.5 Q610,222 610,344 Q610,465 540.5,538.5 Q471,612 370,612 Q269,612 199.5,538.5 Q130,465 130,344 M40,344 Q40,504 132,595.5 Q224,687 370,687 Q516,687 608,595.5 Q700,504 700,344 Q700,183 607.5,86.5 Q515,-10 370,-10 Q225,-10 132.5,86.5 Q40,183 40,344"/> 
            <glyph glyph-name="Ι" unicode="&#x399;" horiz-adv-x="155" d=" M70,0 L70,677 L155,677 L155,0"/> 
            <glyph glyph-name="Κ" unicode="&#x39A;" horiz-adv-x="575" d=" M70,0 L70,677 L155,677 L155,398 L206,398 L456,677 L559,677 L267,354 L575,0 L462,0 L189,318 L155,318 L155,0"/> 
            <glyph glyph-name="Λ" unicode="&#x39B;" horiz-adv-x="650" d=" M20,0 L299,677 L368,677 L650,0 L560,0 L332,553 L105,0"/> 
            <glyph glyph-name="Μ" unicode="&#x39C;" horiz-adv-x="705" d=" M70,0 L70,677 L160,677 L387,290 L615,677 L705,677 L705,0 L620,0 L620,546 L416,190 L357,190 L155,539 L155,0"/> 
            <glyph glyph-name="Ν" unicode="&#x39D;" horiz-adv-x="615" d=" M70,0 L70,677 L160,677 L530,126 L530,677 L615,677 L615,0 L525,0 L155,550 L155,0"/> 
            <glyph glyph-name="Ξ" unicode="&#x39E;" horiz-adv-x="530" d=" M100,308 L100,388 L450,388 L450,308 M20,597 L20,677 L530,677 L530,597 M20,0 L20,80 L530,80 L530,0"/> 
            <glyph glyph-name="Ο" unicode="&#x39F;" horiz-adv-x="700" d=" M130,344 Q130,222 200,143.5 Q270,65 370,65 Q470,65 540,143.5 Q610,222 610,344 Q610,465 540.5,538.5 Q471,612 370,612 Q269,612 199.5,538.5 Q130,465 130,344 M40,344 Q40,504 132,595.5 Q224,687 370,687 Q516,687 608,595.5 Q700,504 700,344 Q700,183 607.5,86.5 Q515,-10 370,-10 Q225,-10 132.5,86.5 Q40,183 40,344"/> 
            <glyph glyph-name="Π" unicode="&#x3A0;" horiz-adv-x="545" d=" M30,0 L30,677 L545,677 L545,0 L460,0 L460,597 L115,597 L115,0"/> 
            <glyph glyph-name="Ρ" unicode="&#x3A1;" horiz-adv-x="550" d=" M155,320 L277,320 Q459,323 459,463 Q459,535 410,566 Q361,597 269,597 L155,597 M70,0 L70,677 L270,677 Q550,677 550,463 Q550,349 475.5,294.5 Q401,240 270,240 L155,240 L155,0"/> 
            <glyph glyph-name="Σ" unicode="&#x3A3;" horiz-adv-x="522" d=" M20,0 L20,40 L221,341 L20,642 L20,677 L522,677 L522,597 L150,597 L321,341 L147,80 L522,80 L522,0"/> 
            <glyph glyph-name="Τ" unicode="&#x3A4;" horiz-adv-x="525" d=" M20,597 L20,677 L525,677 L525,597 L315,597 L315,0 L230,0 L230,597"/> 
            <glyph glyph-name="Υ" unicode="&#x3A5;" horiz-adv-x="640" d=" M20,677 L120,677 L332,337 L545,677 L640,677 L375,271 L375,0 L290,0 L290,268"/> 
            <glyph glyph-name="Φ" unicode="&#x3A6;" horiz-adv-x="755" d=" M440,175 L472,175 Q557,177 610.5,221.5 Q664,266 664,353 Q664,439 610,480.5 Q556,522 464,522 L440,522 M131,353 Q131,263 187,219 Q243,175 331,175 L355,175 L355,522 L331,522 Q239,522 185,480.5 Q131,439 131,353 M40,353 Q40,470 120.5,533.5 Q201,597 330,597 L355,597 L355,677 L440,677 L440,597 L465,597 Q594,597 674.5,533.5 Q755,470 755,353 Q755,232 672,166 Q589,100 465,100 L440,100 L440,0 L355,0 L355,100 L330,100 Q206,100 123,166 Q40,232 40,353"/> 
            <glyph glyph-name="Χ" unicode="&#x3A7;" horiz-adv-x="590" d=" M20,0 L249,338 L28,677 L122,677 L305,394 L488,677 L582,677 L361,338 L590,0 L485,0 L308,275 L119,0"/> 
            <glyph glyph-name="Ψ" unicode="&#x3A8;" horiz-adv-x="673" d=" M40,483 L40,677 L120,677 L120,483 Q120,395 174,351 Q228,307 314,305 L314,677 L399,677 L399,305 Q485,307 539,351 Q593,395 593,483 L593,677 L673,677 L673,483 Q673,363 596.5,297.5 Q520,232 399,230 L399,0 L314,0 L314,230 Q193,232 116.5,297.5 Q40,363 40,483"/> 
            <glyph glyph-name="Ω" unicode="&#x3A9;" horiz-adv-x="702" d=" M40,0 L40,80 L191,80 Q50,206 50,370 Q50,509 138.5,598 Q227,687 372,687 Q516,687 604,598 Q692,509 692,370 Q692,206 550,80 L702,80 L702,0 L432,0 L432,70 Q439,74 450.5,82 Q462,90 491,118.5 Q520,147 542,179 Q564,211 582.5,263 Q601,315 601,370 Q601,470 536,541 Q471,612 371,612 Q271,612 206,541 Q141,470 141,370 Q141,315 158.5,263.5 Q176,212 201,178.5 Q226,145 250.5,119 Q275,93 292,82 L310,70 L310,0"/> 
            <glyph glyph-name="Ϊ" unicode="&#x3AA;" horiz-adv-x="249" d=" M135,781 Q135,833 151,848.5 Q167,864 192,864 Q217,864 233,848.5 Q249,833 249,807 Q249,781 233,765.5 Q217,750 192,750 Q167,750 135,781 M70,0 L70,677 L155,677 L155,0 M-25,781 Q-25,833 -9,848.5 Q7,864 32,864 Q57,864 73,848.5 Q89,833 89,807 Q89,781 73,765.5 Q57,750 32,750 Q7,750 -25,781"/> 
            <glyph glyph-name="Ϋ" unicode="&#x3AB;" horiz-adv-x="640" d=" M356,781 Q356,833 372,848.5 Q388,864 413,864 Q438,864 454,848.5 Q470,833 470,807 Q470,781 454,765.5 Q438,750 413,750 Q388,750 356,781 M196,781 Q196,833 212,848.5 Q228,864 253,864 Q278,864 294,848.5 Q310,833 310,807 Q310,781 294,765.5 Q278,750 253,750 Q228,750 196,781 M20,677 L120,677 L332,337 L545,677 L640,677 L375,271 L375,0 L290,0 L290,268"/> 
            <glyph glyph-name="ά" unicode="&#x3AC;" horiz-adv-x="552" d=" M231,557 L251,697 L321,697 L301,557 M126,338 Q126,168 165.5,114 Q205,60 271,60 Q335,60 372.5,111 Q410,162 412,244 L412,261 Q410,343 372.5,391.5 Q335,440 271,440 Q205,440 126,338 M40,138 Q40,368 101.5,439 Q163,510 260,510 Q357,510 414,418 L422,500 L492,500 L492,154 Q492,111 505,90.5 Q518,70 552,70 L552,0 Q490,0 460,25 Q430,50 424,105 Q367,-10 260,-10 Q164,-10 40,138"/> 
            <glyph glyph-name="έ" unicode="&#x3AD;" horiz-adv-x="440" d=" M200,557 L220,697 L290,697 L270,557 M40,135 Q40,229 145,257 Q50,286 50,365 Q50,430 103.5,470 Q157,510 240,510 Q333,510 381.5,461.5 Q430,413 430,347 L345,347 Q345,387 315.5,413.5 Q286,440 240,440 Q194,440 165,419.5 Q136,399 136,365 Q136,331 162.5,311 Q189,291 240,290 L300,290 L300,215 L233,215 Q188,215 157,195 Q126,175 126,145 Q126,107 155,83.5 Q184,60 230,60 Q285,60 320,86.5 Q355,113 355,153 L440,153 Q440,87 386.5,38.5 Q333,-10 230,-10 Q147,-10 93.5,30 Q40,70 40,135"/> 
            <glyph glyph-name="ή" unicode="&#x3AE;" horiz-adv-x="510" d=" M255,557 L275,697 L345,697 L325,557 M70,0 L70,500 L140,500 L148,416 Q209,510 310,510 Q404,510 457,451 Q510,392 510,290 L510,-177 L430,-177 L430,280 L430,286 Q430,346 397,393 Q364,440 291,440 Q226,440 189,389.5 Q152,339 150,283 L150,0"/> 
            <glyph glyph-name="ί" unicode="&#x3AF;" horiz-adv-x="200" d=" M65,557 L85,697 L155,697 L135,557 M60,144 L60,500 L140,500 L140,154 Q140,111 153,90.5 Q166,70 200,70 L200,0 Q124,0 92,34 Q60,68 60,144"/> 
            <glyph glyph-name="ΰ" unicode="&#x3B0;" horiz-adv-x="480" d=" M330,593 Q330,639 344.5,653 Q359,667 381,667 Q403,667 417.5,653 Q432,639 432,616 Q432,593 417.5,579 Q403,565 381,565 Q359,565 330,593 M228,557 L248,697 L318,697 L298,557 M108,593 Q108,639 122.5,653 Q137,667 159,667 Q181,667 195.5,653 Q210,639 210,616 Q210,593 195.5,579 Q181,565 159,565 Q137,565 108,593 M60,220 L60,500 L140,500 L140,220 Q140,193 146,167 Q152,141 165.5,116 Q179,91 206,75.5 Q233,60 271,60 Q308,60 334.5,75.5 Q361,91 374.5,116 Q388,141 394,167 Q400,193 400,220 L400,500 L480,500 L480,220 Q480,113 429.5,51.5 Q379,-10 270,-10 Q161,-10 110.5,51.5 Q60,113 60,220"/> 
            <glyph glyph-name="α" unicode="&#x3B1;" horiz-adv-x="552" d=" M126,338 Q126,168 165.5,114 Q205,60 271,60 Q336,60 374,113.5 Q412,167 412,253 L412,261 Q410,343 372.5,391.5 Q335,440 271,440 Q205,440 126,338 M40,138 Q40,368 101.5,439 Q163,510 260,510 Q357,510 414,418 L422,500 L492,500 L492,154 Q492,111 505,90.5 Q518,70 552,70 L552,0 Q490,0 460,25 Q430,50 424,105 Q367,-10 260,-10 Q164,-10 40,138"/> 
            <glyph glyph-name="β" unicode="&#x3B2;" horiz-adv-x="510" d=" M150,200 Q150,149 193,104.5 Q236,60 306,60 Q364,60 394,97.5 Q424,135 424,195 Q424,249 379,285.5 Q334,322 261,322 L214,322 L214,397 L251,397 Q319,399 348.5,431.5 Q378,464 378,512 Q378,556 348.5,586.5 Q319,617 269,617 Q153,617 150,439 M70,-177 L70,457 Q70,568 122.5,627.5 Q175,687 269,687 Q357,687 410.5,637 Q464,587 464,512 Q464,401 357,365 Q426,351 468,307.5 Q510,264 510,195 Q510,105 452,47.5 Q394,-10 308,-10 Q205,-10 150,60 L150,-177"/> 
            <glyph glyph-name="γ" unicode="&#x3B3;" horiz-adv-x="511" d=" M10,500 L105,500 L263,100 L421,500 L511,500 L302,0 L302,-177 L222,-177 L222,0"/> 
            <glyph glyph-name="δ" unicode="&#x3B4;" horiz-adv-x="521" d=" M126,235 Q126,159 168.5,109.5 Q211,60 281,60 Q351,60 393.5,109.5 Q436,159 436,235 Q436,310 394,355 Q352,400 281,400 Q210,400 168,355 Q126,310 126,235 M40,235 Q40,312 75,368 Q110,424 173,450 Q120,484 120,542 Q120,606 172,641.5 Q224,677 307,677 L384,677 L384,596 L310,596 Q206,596 206,532 Q206,470 280,470 Q389,470 455,405.5 Q521,341 521,235 Q521,128 454.5,59 Q388,-10 280,-10 Q172,-10 106,58.5 Q40,127 40,235"/> 
            <glyph glyph-name="ε" unicode="&#x3B5;" horiz-adv-x="440" d=" M40,135 Q40,229 145,257 Q50,286 50,365 Q50,430 103.5,470 Q157,510 240,510 Q333,510 381.5,461.5 Q430,413 430,347 L345,347 Q345,387 315.5,413.5 Q286,440 240,440 Q194,440 165,419.5 Q136,399 136,365 Q136,330 165.5,310 Q195,290 251,290 L300,290 L300,215 L233,215 Q188,215 157,195 Q126,175 126,145 Q126,107 155,83.5 Q184,60 230,60 Q285,60 320,86.5 Q355,113 355,153 L440,153 Q440,87 386.5,38.5 Q333,-10 230,-10 Q147,-10 93.5,30 Q40,70 40,135"/> 
            <glyph glyph-name="ζ" unicode="&#x3B6;" horiz-adv-x="430" d=" M40,183 Q40,229 66,289.5 Q92,350 135.5,410 Q179,470 215.5,515 Q252,560 292,602 L70,602 L70,677 L430,677 L430,642 Q418,629 397.5,607.5 Q377,586 324.5,524 Q272,462 232,407.5 Q192,353 159,288.5 Q126,224 126,183 Q126,138 159.5,104 Q193,70 250,70 Q345,70 387.5,41.5 Q430,13 430,-47 Q430,-177 230,-177 L230,-107 Q294,-107 319,-92 Q344,-77 344,-47 Q344,-21 323,-10.5 Q302,0 250,0 Q157,0 98.5,50.5 Q40,101 40,183"/> 
            <glyph glyph-name="η" unicode="&#x3B7;" horiz-adv-x="510" d=" M70,0 L70,500 L140,500 L148,416 Q209,510 310,510 Q404,510 457,451 Q510,392 510,290 L510,-177 L430,-177 L430,290 Q429,349 396,394.5 Q363,440 291,440 Q226,440 189,389.5 Q152,339 150,283 L150,0"/> 
            <glyph glyph-name="θ" unicode="&#x3B8;" horiz-adv-x="522" d=" M127,387 L435,387 Q429,507 390.5,562 Q352,617 281,617 Q209,617 170.5,562 Q132,507 127,387 M126,312 Q130,182 168,121 Q206,60 281,60 Q356,60 393.5,121 Q431,182 435,312 M40,344 Q40,521 105,604 Q170,687 280,687 Q391,687 456.5,604 Q522,521 522,344 Q522,164 457.5,77 Q393,-10 280,-10 Q167,-10 103.5,77 Q40,164 40,344"/> 
            <glyph glyph-name="ι" unicode="&#x3B9;" horiz-adv-x="200" d=" M60,144 L60,500 L140,500 L140,154 Q140,111 153,90.5 Q166,70 200,70 L200,0 Q124,0 92,34 Q60,68 60,144"/> 
            <glyph glyph-name="κ" unicode="&#x3BA;" horiz-adv-x="479" d=" M70,0 L70,500 L150,500 L150,300 L203,300 L377,500 L471,500 L262,259 L479,0 L375,0 L187,225 L150,225 L150,0"/> 
            <glyph glyph-name="λ" unicode="&#x3BB;" horiz-adv-x="517" d=" M10,0 L218,492 Q204,549 180,572.5 Q156,596 111,596 L114,677 Q192,677 232,634 Q272,591 303,495 L407,199 Q430,133 454,102 Q478,71 517,71 L517,0 Q437,0 397.5,38.5 Q358,77 328,172 L258,395 L100,0"/> 
            <glyph glyph-name="μ" unicode="&#x3BC;" horiz-adv-x="510" d=" M70,-177 L70,500 L150,500 L150,220 L150,213 Q150,153 180.5,106.5 Q211,60 279,60 Q328,60 364,91 Q400,122 415,159.5 Q430,197 430,231 L430,500 L510,500 L510,0 L440,0 L432,85 Q374,-10 280,-10 Q195,-10 150,41 L150,-177"/> 
            <glyph glyph-name="ν" unicode="&#x3BD;" horiz-adv-x="520" d=" M20,500 L115,500 L272,110 L430,500 L520,500 L311,0 L232,0"/> 
            <glyph glyph-name="ξ" unicode="&#x3BE;" horiz-adv-x="430" d=" M40,195 Q40,332 161,364 Q50,399 50,512 Q50,586 104.5,636.5 Q159,687 240,687 Q333,687 381.5,638.5 Q430,590 430,524 L345,524 Q345,564 315.5,590.5 Q286,617 240,617 Q196,617 166,586 Q136,555 136,512 Q136,464 165,431.5 Q194,399 263,397 L380,397 L380,322 L246,322 Q186,320 156,286.5 Q126,253 126,205 Q126,144 160,107 Q194,70 260,70 Q348,70 389,41 Q430,12 430,-47 Q430,-177 230,-177 L230,-107 Q294,-107 319,-92 Q344,-77 344,-47 Q344,-21 323,-10.5 Q302,0 250,0 Q156,0 98,52.5 Q40,105 40,195"/> 
            <glyph glyph-name="ο" unicode="&#x3BF;" horiz-adv-x="520" d=" M125,253 Q125,168 167.5,114 Q210,60 280,60 Q350,60 392.5,114 Q435,168 435,253 Q435,337 393,388.5 Q351,440 280,440 Q209,440 167,388.5 Q125,337 125,253 M40,137 Q40,369 105.5,439.5 Q171,510 280,510 Q389,510 454.5,439.5 Q520,369 520,253 Q520,137 454,63.5 Q388,-10 280,-10 Q172,-10 40,137"/> 
            <glyph glyph-name="π" unicode="&#x3C0;" horiz-adv-x="560" d=" M40,425 L40,500 L560,500 L560,425 L500,425 L500,154 Q500,111 513,90.5 Q526,70 560,70 L560,0 Q484,0 452,34 Q420,68 420,144 L420,425 L180,425 L180,0 L100,0 L100,425"/> 
            <glyph glyph-name="ρ" unicode="&#x3C1;" horiz-adv-x="532" d=" M140,253 Q140,169 182,114.5 Q224,60 291,60 Q358,60 402,114.5 Q446,169 446,253 Q446,336 402.5,388 Q359,440 291,440 Q226,440 184,391 Q142,342 140,261 M60,-177 L60,253 Q60,362 125.5,436 Q191,510 291,510 Q401,510 466.5,437 Q532,364 532,253 Q532,138 467.5,64 Q403,-10 302,-10 Q199,-10 140,85 L140,-177"/> 
            <glyph glyph-name="ς" unicode="&#x3C2;" horiz-adv-x="470" d=" M40,253 Q40,373 104.5,441.5 Q169,510 270,510 Q379,510 433,439 Q468,392 468,332 L383,332 Q383,376 360,403 Q330,440 270,440 Q208,440 167,390.5 Q126,341 126,253 Q126,172 167,121 Q208,70 300,70 Q388,70 429,41 Q470,12 470,-47 Q470,-177 270,-177 L270,-107 Q334,-107 359,-92 Q384,-77 384,-47 Q384,-21 363,-10.5 Q342,0 290,0 Q177,0 108.5,64.5 Q40,129 40,253"/> 
            <glyph glyph-name="σ" unicode="&#x3C3;" horiz-adv-x="580" d=" M126,252 Q126,167 168.5,113.5 Q211,60 281,60 Q351,60 393.5,113.5 Q436,167 436,252 Q436,326 396,376 Q356,426 290,430 L281,430 Q211,430 168.5,380 Q126,330 126,252 M40,252 Q40,361 106,430.5 Q172,500 280,500 L580,500 L580,425 L457,427 Q521,358 521,252 Q521,136 454.5,63 Q388,-10 280,-10 Q172,-10 106,63 Q40,136 40,252"/> 
            <glyph glyph-name="τ" unicode="&#x3C4;" horiz-adv-x="460" d=" M20,425 L20,500 L460,500 L460,425 L280,425 L280,154 Q280,111 293,90.5 Q306,70 340,70 L340,0 Q264,0 232,34 Q200,68 200,144 L200,425"/> 
            <glyph glyph-name="υ" unicode="&#x3C5;" horiz-adv-x="480" d=" M60,220 L60,500 L140,500 L140,220 Q140,193 146,167 Q152,141 165.5,116 Q179,91 206,75.5 Q233,60 271,60 Q308,60 334.5,75.5 Q361,91 374.5,116 Q388,141 394,167 Q400,193 400,220 L400,500 L480,500 L480,220 Q480,113 429.5,51.5 Q379,-10 270,-10 Q161,-10 110.5,51.5 Q60,113 60,220"/> 
            <glyph glyph-name="φ" unicode="&#x3C6;" horiz-adv-x="662" d=" M391,70 L411,70 Q480,70 528,120.5 Q576,171 576,253 Q576,335 530,382.5 Q484,430 411,430 L391,430 M126,335 Q126,171 174,120.5 Q222,70 291,70 L311,70 L311,430 L291,430 Q218,430 126,335 M40,253 Q40,366 108.5,433 Q177,500 280,500 L311,500 L311,677 L391,677 L391,500 L422,500 Q525,500 593.5,433 Q662,366 662,253 Q662,141 591.5,70.5 Q521,0 422,0 L391,0 L391,-177 L311,-177 L311,0 L280,0 Q181,0 110.5,70.5 Q40,141 40,253"/> 
            <glyph glyph-name="χ" unicode="&#x3C7;" horiz-adv-x="470" d=" M10,-177 L190,174 L18,500 L107,500 L245,236 L373,500 L462,500 L290,174 L470,-177 L370,-177 L239,94 L104,-177"/> 
            <glyph glyph-name="ψ" unicode="&#x3C8;" horiz-adv-x="670" d=" M60,255 L60,500 L140,500 L140,255 Q140,174 186.5,122 Q233,70 295,70 L325,70 L325,677 L405,677 L405,70 L435,70 Q497,70 543.5,122 Q590,174 590,255 L590,500 L670,500 L670,255 Q670,143 604,71.5 Q538,0 446,0 L405,0 L405,-177 L325,-177 L325,0 L284,0 Q192,0 126,71.5 Q60,143 60,255"/> 
            <glyph glyph-name="ω" unicode="&#x3C9;" horiz-adv-x="680" d=" M40,250 Q40,298 49,342 Q58,386 70,413.5 Q82,441 94.5,461.5 Q107,482 116,491 L125,500 L200,500 Q197,496 191.5,489.5 Q186,483 172,459 Q158,435 147.5,408.5 Q137,382 128.5,339 Q120,296 120,250 Q120,60 231,60 Q320,60 320,220 L320,400 L400,400 L400,220 Q400,60 489,60 Q600,60 600,250 Q600,322 580,384.5 Q560,447 540,474 L520,500 L595,500 Q598,497 604,490.5 Q610,484 624.5,461.5 Q639,439 650.5,412.5 Q662,386 671,342 Q680,298 680,250 Q680,114 629,52 Q578,-10 501,-10 Q394,-10 360,81 Q324,-10 219,-10 Q142,-10 91,52 Q40,114 40,250"/> 
            <glyph glyph-name="ϊ" unicode="&#x3CA;" horiz-adv-x="237" d=" M123,604 Q123,656 139,671.5 Q155,687 180,687 Q205,687 221,671.5 Q237,656 237,630 Q237,604 221,588.5 Q205,573 180,573 Q155,573 123,604 M60,144 L60,500 L140,500 L140,154 Q140,111 153,90.5 Q166,70 200,70 L200,0 Q124,0 92,34 Q60,68 60,144 M-37,604 Q-37,656 -21,671.5 Q-5,687 20,687 Q45,687 61,671.5 Q77,656 77,630 Q77,604 61,588.5 Q45,573 20,573 Q-5,573 -37,604"/> 
            <glyph glyph-name="ϋ" unicode="&#x3CB;" horiz-adv-x="480" d=" M295,604 Q295,656 311,671.5 Q327,687 352,687 Q377,687 393,671.5 Q409,656 409,630 Q409,604 393,588.5 Q377,573 352,573 Q327,573 295,604 M135,604 Q135,656 151,671.5 Q167,687 192,687 Q217,687 233,671.5 Q249,656 249,630 Q249,604 233,588.5 Q217,573 192,573 Q167,573 135,604 M60,220 L60,500 L140,500 L140,220 Q140,193 146,167 Q152,141 165.5,116 Q179,91 206,75.5 Q233,60 271,60 Q308,60 334.5,75.5 Q361,91 374.5,116 Q388,141 394,167 Q400,193 400,220 L400,500 L480,500 L480,220 Q480,113 429.5,51.5 Q379,-10 270,-10 Q161,-10 110.5,51.5 Q60,113 60,220"/> 
            <glyph glyph-name="ό" unicode="&#x3CC;" horiz-adv-x="520" d=" M230,557 L250,697 L320,697 L300,557 M125,253 Q125,168 167.5,114 Q210,60 280,60 Q350,60 392.5,114 Q435,168 435,253 Q435,337 393,388.5 Q351,440 280,440 Q209,440 167,388.5 Q125,337 125,253 M40,137 Q40,369 105.5,439.5 Q171,510 280,510 Q389,510 454.5,439.5 Q520,369 520,253 Q520,137 454,63.5 Q388,-10 280,-10 Q172,-10 40,137"/> 
            <glyph glyph-name="ύ" unicode="&#x3CD;" horiz-adv-x="480" d=" M230,557 L250,697 L320,697 L300,557 M60,220 L60,500 L140,500 L140,220 Q140,193 146,167 Q152,141 165.5,116 Q179,91 206,75.5 Q233,60 271,60 Q308,60 334.5,75.5 Q361,91 374.5,116 Q388,141 394,167 Q400,193 400,220 L400,500 L480,500 L480,220 Q480,113 429.5,51.5 Q379,-10 270,-10 Q161,-10 110.5,51.5 Q60,113 60,220"/> 
            <glyph glyph-name="ώ" unicode="&#x3CE;" horiz-adv-x="680" d=" M315,557 L335,697 L405,697 L385,557 M40,250 Q40,298 49,342 Q58,386 70,413.5 Q82,441 94.5,461.5 Q107,482 116,491 L125,500 L200,500 Q197,496 191.5,489.5 Q186,483 172,459 Q158,435 147.5,408.5 Q137,382 128.5,339 Q120,296 120,250 Q120,60 231,60 Q320,60 320,220 L320,400 L400,400 L400,220 Q400,60 489,60 Q600,60 600,250 Q600,322 580,384.5 Q560,447 540,474 L520,500 L595,500 Q598,497 604,490.5 Q610,484 624.5,461.5 Q639,439 650.5,412.5 Q662,386 671,342 Q680,298 680,250 Q680,114 629,52 Q578,-10 501,-10 Q394,-10 360,81 Q324,-10 219,-10 Q142,-10 91,52 Q40,114 40,250"/> 
            <glyph glyph-name="Ё" unicode="&#x401;" horiz-adv-x="510" d=" M328,781 Q328,833 344,848.5 Q360,864 385,864 Q410,864 426,848.5 Q442,833 442,807 Q442,781 426,765.5 Q410,750 385,750 Q360,750 328,781 M168,781 Q168,833 184,848.5 Q200,864 225,864 Q250,864 266,848.5 Q282,833 282,807 Q282,781 266,765.5 Q250,750 225,750 Q200,750 168,781 M70,0 L70,677 L510,677 L510,597 L155,597 L155,398 L450,398 L450,318 L155,318 L155,80 L510,80 L510,0"/> 
            <glyph glyph-name="Ђ" unicode="&#x402;" horiz-adv-x="690" d=" M20,597 L20,677 L525,677 L525,597 L315,597 L315,397 L451,397 Q690,397 690,214 L690,177 Q690,94 649,47 Q608,0 534,0 L515,0 L515,81 L531,81 Q577,81 591.5,112 Q606,143 606,207 L606,214 Q606,317 450,317 L315,317 L315,0 L230,0 L230,597"/> 
            <glyph glyph-name="Є" unicode="&#x404;" horiz-adv-x="650" d=" M40,344 Q40,508 134,597.5 Q228,687 370,687 Q499,687 574,622.5 Q649,558 649,470 L552,470 Q552,522 503.5,567 Q455,612 371,612 Q280,612 212,554.5 Q144,497 133,386 L432,386 L432,306 L133,306 Q143,190 209,127.5 Q275,65 371,65 Q454,65 504.5,115 Q555,165 555,217 L650,217 Q650,128 574,59 Q498,-10 370,-10 Q229,-10 134.5,84.5 Q40,179 40,344"/> 
            <glyph glyph-name="Ѕ" unicode="&#x405;" horiz-adv-x="584" d=" M40,213 L129,213 Q129,150 178,107.5 Q227,65 322,65 Q404,65 449,96.5 Q494,128 494,185 Q494,222 470.5,245.5 Q447,269 409,279.5 Q371,290 325.5,297.5 Q280,305 234,316 Q188,327 150,345 Q112,363 88.5,401.5 Q65,440 65,497 Q65,580 129.5,633.5 Q194,687 306,687 Q378,687 429,668 Q480,649 507,616.5 Q534,584 545.5,547.5 Q557,511 557,469 L468,469 Q468,612 306,612 Q237,612 196,582.5 Q155,553 155,497 Q155,455 178.5,429 Q202,403 240,391.5 Q278,380 324,373 Q370,366 415.5,356 Q461,346 499,329 Q537,312 560.5,276 Q584,240 584,185 Q584,96 513,43 Q442,-10 322,-10 Q248,-10 191.5,10 Q135,30 103,63 Q71,96 55.5,134 Q40,172 40,213"/> 
            <glyph glyph-name="І" unicode="&#x406;" horiz-adv-x="155" d=" M70,0 L70,677 L155,677 L155,0"/> 
            <glyph glyph-name="Ї" unicode="&#x407;" horiz-adv-x="249" d=" M135,781 Q135,833 151,848.5 Q167,864 192,864 Q217,864 233,848.5 Q249,833 249,807 Q249,781 233,765.5 Q217,750 192,750 Q167,750 135,781 M70,0 L70,677 L155,677 L155,0 M-25,781 Q-25,833 -9,848.5 Q7,864 32,864 Q57,864 73,848.5 Q89,833 89,807 Q89,781 73,765.5 Q57,750 32,750 Q7,750 -25,781"/> 
            <glyph glyph-name="Ј" unicode="&#x408;" horiz-adv-x="440" d=" M40,213 L125,213 Q125,136 157.5,98 Q190,60 242,60 Q297,60 326,88.5 Q355,117 355,185 L355,677 L440,677 L440,185 Q440,85 387,37.5 Q334,-10 241,-10 Q141,-10 90.5,49.5 Q40,109 40,213"/> 
            <glyph glyph-name="Љ" unicode="&#x409;" horiz-adv-x="950" d=" M555,80 L669,80 Q859,80 859,223 Q859,295 810,326 Q761,357 669,357 L555,357 M20,0 L20,86 L48,86 Q160,86 160,459 L160,677 L555,677 L555,437 L670,437 Q950,437 950,223 Q950,109 875.5,54.5 Q801,0 670,0 L470,0 L470,597 L245,597 L245,432 Q245,206 192.5,103 Q140,0 51,0"/> 
            <glyph glyph-name="Њ" unicode="&#x40A;" horiz-adv-x="990" d=" M595,80 L709,80 Q899,80 899,223 Q899,295 850,326 Q801,357 709,357 L595,357 M70,0 L70,677 L155,677 L155,398 L510,398 L510,677 L595,677 L595,437 L710,437 Q990,437 990,223 Q990,109 915.5,54.5 Q841,0 710,0 L510,0 L510,318 L155,318 L155,0"/> 
            <glyph glyph-name="Ћ" unicode="&#x40B;" horiz-adv-x="690" d=" M20,597 L20,677 L525,677 L525,597 L315,597 L315,397 L451,397 Q575,397 632.5,347.5 Q690,298 690,194 L690,0 L610,0 L610,194 Q610,258 571,287.5 Q532,317 450,317 L315,317 L315,0 L230,0 L230,597"/> 
            <glyph glyph-name="Ў" unicode="&#x40E;" horiz-adv-x="620" d=" M181,796 L257,796 Q259,780 277.5,764 Q296,748 327,748 L347,748 Q378,748 396.5,764 Q415,780 417,796 L493,796 Q484,749 445.5,718 Q407,687 350,687 L324,687 Q267,687 228.5,718 Q190,749 181,796 M20,677 L127,677 L349,278 L530,677 L620,677 L393,182 L391,177 L390,177 Q349,94 299,47 Q249,0 174,0 L125,0 L125,86 L171,86 Q254,86 302,193"/> 
            <glyph glyph-name="Џ" unicode="&#x40F;" horiz-adv-x="585" d=" M70,0 L70,677 L155,677 L155,80 L500,80 L500,677 L585,677 L585,0 L370,0 L370,-177 L285,-177 L285,0"/> 
            <glyph glyph-name="А" unicode="&#x410;" horiz-adv-x="650" d=" M205,258 L459,258 L332,580 M20,0 L289,677 L378,677 L650,0 L560,0 L491,178 L174,178 L105,0"/> 
            <glyph glyph-name="Б" unicode="&#x411;" horiz-adv-x="550" d=" M155,80 L278,80 Q371,82 415,111 Q459,140 459,203 Q459,263 414.5,290 Q370,317 269,317 L155,317 M70,0 L70,677 L480,677 L480,597 L155,597 L155,397 L270,397 Q550,397 550,203 Q550,101 477.5,50.5 Q405,0 270,0"/> 
            <glyph glyph-name="В" unicode="&#x412;" horiz-adv-x="570" d=" M155,385 L269,385 Q449,385 449,495 Q449,597 279,597 L155,597 M155,80 L309,80 Q479,80 479,195 Q479,305 299,305 L155,305 M70,0 L70,677 L280,677 Q405,677 472.5,632.5 Q540,588 540,505 Q540,384 421,351 Q491,332 530.5,290.5 Q570,249 570,185 Q570,0 310,0"/> 
            <glyph glyph-name="Г" unicode="&#x413;" horiz-adv-x="440" d=" M70,0 L70,677 L440,677 L440,597 L155,597 L155,0"/> 
            <glyph glyph-name="Д" unicode="&#x414;" horiz-adv-x="655" d=" M179,80 L490,80 L490,597 L235,597 L235,432 Q235,218 179,80 M30,80 L94,80 Q150,232 150,459 L150,677 L575,677 L575,80 L655,80 L655,-177 L570,-177 L570,0 L115,0 L115,-177 L30,-177"/> 
            <glyph glyph-name="Е" unicode="&#x415;" horiz-adv-x="510" d=" M70,0 L70,677 L510,677 L510,597 L155,597 L155,398 L450,398 L450,318 L155,318 L155,80 L510,80 L510,0"/> 
            <glyph glyph-name="Ж" unicode="&#x416;" horiz-adv-x="845" d=" M20,0 L279,355 L36,677 L134,677 L341,398 L390,398 L390,677 L475,677 L475,398 L523,398 L731,677 L829,677 L586,355 L845,0 L737,0 L508,318 L475,318 L475,0 L390,0 L390,318 L356,318 L128,0"/> 
            <glyph glyph-name="З" unicode="&#x417;" horiz-adv-x="610" d=" M40,213 L129,213 Q129,149 180.5,107 Q232,65 334,65 Q416,65 467.5,101.5 Q519,138 519,195 Q519,247 468,276 Q417,305 330,305 L250,305 L250,385 L319,385 Q494,385 494,495 Q494,547 444.5,579.5 Q395,612 316,612 Q228,612 186.5,572.5 Q145,533 145,469 L56,469 Q56,510 70.5,547.5 Q85,585 114.5,617 Q144,649 196,668 Q248,687 316,687 Q437,687 511,635 Q585,583 585,505 Q585,437 550,398.5 Q515,360 445,345 Q610,314 610,185 Q610,102 533.5,46 Q457,-10 334,-10 Q256,-10 197,10 Q138,30 105,63 Q72,96 56,134 Q40,172 40,213"/> 
            <glyph glyph-name="И" unicode="&#x418;" horiz-adv-x="615" d=" M70,0 L70,677 L155,677 L155,126 L525,677 L615,677 L615,0 L530,0 L530,550 L160,0"/> 
            <glyph glyph-name="Й" unicode="&#x419;" horiz-adv-x="615" d=" M197,796 L273,796 Q275,780 293.5,764 Q312,748 343,748 L363,748 Q394,748 412.5,764 Q431,780 433,796 L509,796 Q500,749 461.5,718 Q423,687 366,687 L340,687 Q283,687 244.5,718 Q206,749 197,796 M70,0 L70,677 L155,677 L155,126 L525,677 L615,677 L615,0 L530,0 L530,550 L160,0"/> 
            <glyph glyph-name="К" unicode="&#x41A;" horiz-adv-x="575" d=" M70,0 L70,677 L155,677 L155,398 L206,398 L456,677 L559,677 L267,354 L575,0 L462,0 L189,318 L155,318 L155,0"/> 
            <glyph glyph-name="Л" unicode="&#x41B;" horiz-adv-x="555" d=" M20,0 L20,86 L48,86 Q156,86 160,432 L160,677 L555,677 L555,0 L470,0 L470,597 L245,597 L245,432 Q245,206 192.5,103 Q140,0 51,0"/> 
            <glyph glyph-name="М" unicode="&#x41C;" horiz-adv-x="705" d=" M70,0 L70,677 L160,677 L387,290 L615,677 L705,677 L705,0 L620,0 L620,546 L416,190 L357,190 L155,539 L155,0"/> 
            <glyph glyph-name="Н" unicode="&#x41D;" horiz-adv-x="595" d=" M70,0 L70,677 L155,677 L155,398 L510,398 L510,677 L595,677 L595,0 L510,0 L510,318 L155,318 L155,0"/> 
            <glyph glyph-name="О" unicode="&#x41E;" horiz-adv-x="700" d=" M130,344 Q130,222 200,143.5 Q270,65 370,65 Q470,65 540,143.5 Q610,222 610,344 Q610,465 540.5,538.5 Q471,612 370,612 Q269,612 199.5,538.5 Q130,465 130,344 M40,344 Q40,504 132,595.5 Q224,687 370,687 Q516,687 608,595.5 Q700,504 700,344 Q700,183 607.5,86.5 Q515,-10 370,-10 Q225,-10 132.5,86.5 Q40,183 40,344"/> 
            <glyph glyph-name="П" unicode="&#x41F;" horiz-adv-x="585" d=" M70,0 L70,677 L585,677 L585,0 L500,0 L500,597 L155,597 L155,0"/> 
            <glyph glyph-name="Р" unicode="&#x420;" horiz-adv-x="550" d=" M155,320 L277,320 Q459,323 459,463 Q459,535 410,566 Q361,597 269,597 L155,597 M70,0 L70,677 L270,677 Q550,677 550,463 Q550,349 475.5,294.5 Q401,240 270,240 L155,240 L155,0"/> 
            <glyph glyph-name="С" unicode="&#x421;" horiz-adv-x="650" d=" M40,344 Q40,508 134,597.5 Q228,687 370,687 Q499,687 574,622.5 Q649,558 649,470 L552,470 Q552,522 503.5,567 Q455,612 371,612 Q273,612 202,540.5 Q131,469 131,344 Q131,218 203,141.5 Q275,65 371,65 Q454,65 504.5,115 Q555,165 555,217 L650,217 Q650,128 574,59 Q498,-10 370,-10 Q229,-10 134.5,84.5 Q40,179 40,344"/> 
            <glyph glyph-name="Т" unicode="&#x422;" horiz-adv-x="525" d=" M20,597 L20,677 L525,677 L525,597 L315,597 L315,0 L230,0 L230,597"/> 
            <glyph glyph-name="У" unicode="&#x423;" horiz-adv-x="620" d=" M20,677 L127,677 L349,278 L530,677 L620,677 L393,182 L391,177 L390,177 Q349,94 299,47 Q249,0 174,0 L125,0 L125,86 L171,86 Q254,86 302,193"/> 
            <glyph glyph-name="Ф" unicode="&#x424;" horiz-adv-x="755" d=" M440,175 L472,175 Q557,177 610.5,221.5 Q664,266 664,353 Q664,439 610,480.5 Q556,522 464,522 L440,522 M131,353 Q131,263 187,219 Q243,175 331,175 L355,175 L355,522 L331,522 Q239,522 185,480.5 Q131,439 131,353 M40,353 Q40,470 120.5,533.5 Q201,597 330,597 L355,597 L355,677 L440,677 L440,597 L465,597 Q594,597 674.5,533.5 Q755,470 755,353 Q755,232 672,166 Q589,100 465,100 L440,100 L440,0 L355,0 L355,100 L330,100 Q206,100 123,166 Q40,232 40,353"/> 
            <glyph glyph-name="Х" unicode="&#x425;" horiz-adv-x="590" d=" M20,0 L249,338 L28,677 L122,677 L305,394 L488,677 L582,677 L361,338 L590,0 L485,0 L308,275 L119,0"/> 
            <glyph glyph-name="Ц" unicode="&#x426;" horiz-adv-x="665" d=" M70,0 L70,677 L155,677 L155,80 L500,80 L500,677 L585,677 L585,80 L665,80 L665,-177 L580,-177 L580,0"/> 
            <glyph glyph-name="Ч" unicode="&#x427;" horiz-adv-x="500" d=" M40,483 L40,677 L120,677 L120,483 Q120,407 156,374.5 Q192,342 272,340 L415,340 L415,677 L500,677 L500,0 L415,0 L415,260 L279,260 Q153,260 96.5,312.5 Q40,365 40,483"/> 
            <glyph glyph-name="Ш" unicode="&#x428;" horiz-adv-x="835" d=" M70,0 L70,677 L155,677 L155,80 L410,80 L410,677 L495,677 L495,80 L750,80 L750,677 L835,677 L835,0"/> 
            <glyph glyph-name="Щ" unicode="&#x429;" horiz-adv-x="915" d=" M70,0 L70,677 L155,677 L155,80 L410,80 L410,677 L495,677 L495,80 L750,80 L750,677 L835,677 L835,80 L915,80 L915,-177 L830,-177 L830,0"/> 
            <glyph glyph-name="Ъ" unicode="&#x42A;" horiz-adv-x="720" d=" M325,80 L439,80 Q629,80 629,223 Q629,295 580,326 Q531,357 439,357 L325,357 M20,597 L20,677 L325,677 L325,437 L440,437 Q720,437 720,223 Q720,109 645.5,54.5 Q571,0 440,0 L240,0 L240,597"/> 
            <glyph glyph-name="Ы" unicode="&#x42B;" horiz-adv-x="685" d=" M600,0 L600,677 L685,677 L685,0 M155,80 L247,80 Q429,83 429,223 Q429,295 380,326 Q331,357 239,357 L155,357 M70,0 L70,677 L155,677 L155,437 L240,437 Q520,437 520,223 Q520,109 445.5,54.5 Q371,0 240,0"/> 
            <glyph glyph-name="Ь" unicode="&#x42C;" horiz-adv-x="550" d=" M155,80 L269,80 Q459,80 459,223 Q459,295 410,326 Q361,357 269,357 L155,357 M70,0 L70,677 L155,677 L155,437 L270,437 Q550,437 550,223 Q550,109 475.5,54.5 Q401,0 270,0"/> 
            <glyph glyph-name="Э" unicode="&#x42D;" horiz-adv-x="650" d=" M40,460 Q40,549 116,618 Q192,687 320,687 Q461,687 555.5,592.5 Q650,498 650,333 Q650,169 556,79.5 Q462,-10 320,-10 Q191,-10 116,54.5 Q41,119 41,207 L138,207 Q138,155 186.5,110 Q235,65 319,65 Q409,65 477,122.5 Q545,180 557,291 L258,291 L258,371 L557,371 Q547,487 481,549.5 Q415,612 319,612 Q236,612 185.5,562 Q135,512 135,460"/> 
            <glyph glyph-name="Ю" unicode="&#x42E;" horiz-adv-x="971" d=" M401,344 Q401,222 471,143.5 Q541,65 641,65 Q741,65 811,143.5 Q881,222 881,344 Q881,465 811.5,538.5 Q742,612 641,612 Q540,612 470.5,538.5 Q401,465 401,344 M70,0 L70,677 L155,677 L155,398 L313,398 Q328,534 417.5,610.5 Q507,687 640,687 Q786,687 878.5,595.5 Q971,504 971,344 Q971,183 878,86.5 Q785,-10 640,-10 Q501,-10 410,79 Q319,168 311,318 L155,318 L155,0"/> 
            <glyph glyph-name="Я" unicode="&#x42F;" horiz-adv-x="520" d=" M131,454 Q131,382 180,351 Q229,320 321,320 L435,320 L435,597 L321,597 Q131,597 131,454 M40,0 L194,254 Q40,295 40,454 Q40,568 114.5,622.5 Q189,677 320,677 L520,677 L520,0 L435,0 L435,240 L320,240 Q296,240 285,241 L139,0"/> 
            <glyph glyph-name="а" unicode="&#x430;" horiz-adv-x="492" d=" M126,338 Q126,168 165.5,114 Q205,60 271,60 Q335,60 372.5,111 Q410,162 412,244 L412,253 Q412,338 374.5,389 Q337,440 271,440 Q205,440 126,338 M40,138 Q40,368 101.5,439 Q163,510 260,510 Q357,510 414,418 L422,500 L492,500 L492,0 L422,0 L413,85 Q355,-10 260,-10 Q164,-10 40,138"/> 
            <glyph glyph-name="б" unicode="&#x431;" horiz-adv-x="522" d=" M140,235 Q140,159 180,109.5 Q220,60 286,60 Q353,60 394.5,109.5 Q436,159 436,235 Q436,307 396,353.5 Q356,400 286,400 Q217,400 178.5,354 Q140,308 140,235 M60,235 L60,343 Q60,425 81,483.5 Q102,542 143,578 Q184,614 234,634 Q284,654 354,667 L472,688 L482,610 L372,589 Q250,565 198,522 Q146,479 140,379 Q193,470 307,470 Q400,470 461,403.5 Q522,337 522,235 Q522,132 458.5,61 Q395,-10 286,-10 Q182,-10 121,61 Q60,132 60,235"/> 
            <glyph glyph-name="в" unicode="&#x432;" horiz-adv-x="470" d=" M150,285 L281,285 Q374,285 374,360 Q374,425 271,425 L150,425 M150,75 L280,75 Q331,75 357.5,95 Q384,115 384,150 Q384,181 358,200.5 Q332,220 281,220 L150,220 M70,0 L70,500 L280,500 Q362,500 411,463 Q460,426 460,365 Q460,284 367,256 Q470,228 470,135 Q470,74 421,37 Q372,0 290,0"/> 
            <glyph glyph-name="г" unicode="&#x433;" horiz-adv-x="390" d=" M70,0 L70,500 L390,500 L390,425 L150,425 L150,0"/> 
            <glyph glyph-name="д" unicode="&#x434;" horiz-adv-x="540" d=" M150,75 L380,75 L380,425 L190,425 L190,362 Q190,248 150,75 M10,75 L69,75 Q110,239 110,389 L110,500 L460,500 L460,75 L540,75 L540,-177 L460,-177 L460,0 L90,0 L90,-177 L10,-177"/> 
            <glyph glyph-name="е" unicode="&#x435;" horiz-adv-x="499" d=" M130,310 L412,310 Q410,367 377.5,403.5 Q345,440 276,440 Q210,440 171,402 Q132,364 130,310 M40,136 Q40,370 103,440 Q166,510 276,510 Q383,510 441,445 Q499,380 499,276 L499,245 L126,245 Q128,157 168.5,108.5 Q209,60 280,60 Q354,60 386,102 Q405,128 405,155 L490,155 Q490,111 459,67 Q405,-10 280,-10 Q170,-10 40,136"/> 
            <glyph glyph-name="ж" unicode="&#x436;" horiz-adv-x="688" d=" M30,0 L198,261 L38,500 L127,500 L261,300 L314,300 L314,500 L394,500 L394,300 L448,300 L591,500 L680,500 L509,260 L688,0 L594,0 L440,225 L394,225 L394,0 L314,0 L314,225 L269,225 L124,0"/> 
            <glyph glyph-name="з" unicode="&#x437;" horiz-adv-x="440" d=" M40,153 L125,153 Q125,113 155.5,86.5 Q186,60 240,60 Q295,60 324.5,82.5 Q354,105 354,145 Q354,173 326,193 Q298,213 256,215 L180,215 L180,290 L240,290 Q290,291 317,311 Q344,331 344,365 Q344,400 317.5,420 Q291,440 240,440 Q188,440 161.5,414 Q135,388 135,347 L50,347 Q50,415 95.5,462.5 Q141,510 240,510 Q329,510 379.5,471 Q430,432 430,365 Q430,286 334,257 Q440,229 440,135 Q440,68 387.5,29 Q335,-10 240,-10 Q138,-10 89,38 Q40,86 40,153"/> 
            <glyph glyph-name="и" unicode="&#x438;" horiz-adv-x="500" d=" M70,0 L70,500 L150,500 L150,109 L416,500 L500,500 L500,0 L420,0 L420,387 L156,0"/> 
            <glyph glyph-name="й" unicode="&#x439;" horiz-adv-x="500" d=" M132,677 L208,677 Q210,661 228.5,645 Q247,629 278,629 L298,629 Q329,629 347.5,645 Q366,661 368,677 L444,677 Q435,630 396.5,599 Q358,568 301,568 L275,568 Q218,568 179.5,599 Q141,630 132,677 M70,0 L70,500 L150,500 L150,109 L416,500 L500,500 L500,0 L420,0 L420,387 L156,0"/> 
            <glyph glyph-name="к" unicode="&#x43A;" horiz-adv-x="479" d=" M70,0 L70,500 L150,500 L150,300 L203,300 L377,500 L471,500 L262,259 L479,0 L375,0 L187,225 L150,225 L150,0"/> 
            <glyph glyph-name="л" unicode="&#x43B;" horiz-adv-x="490" d=" M20,0 L20,81 L48,81 Q99,81 124.5,153 Q150,225 150,389 L150,500 L490,500 L490,0 L410,0 L410,425 L230,425 L230,362 Q230,169 184,84.5 Q138,0 51,0"/> 
            <glyph glyph-name="м" unicode="&#x43C;" horiz-adv-x="560" d=" M70,0 L70,500 L160,500 L315,245 L470,500 L560,500 L560,0 L480,0 L480,372 L341,142 L289,142 L150,370 L150,0"/> 
            <glyph glyph-name="н" unicode="&#x43D;" horiz-adv-x="500" d=" M70,0 L70,500 L150,500 L150,300 L420,300 L420,500 L500,500 L500,0 L420,0 L420,225 L150,225 L150,0"/> 
            <glyph glyph-name="о" unicode="&#x43E;" horiz-adv-x="520" d=" M125,253 Q125,168 167.5,114 Q210,60 280,60 Q350,60 392.5,114 Q435,168 435,253 Q435,337 393,388.5 Q351,440 280,440 Q209,440 167,388.5 Q125,337 125,253 M40,137 Q40,369 105.5,439.5 Q171,510 280,510 Q389,510 454.5,439.5 Q520,369 520,253 Q520,137 454,63.5 Q388,-10 280,-10 Q172,-10 40,137"/> 
            <glyph glyph-name="п" unicode="&#x43F;" horiz-adv-x="490" d=" M70,0 L70,500 L490,500 L490,0 L410,0 L410,425 L150,425 L150,0"/> 
            <glyph glyph-name="р" unicode="&#x440;" horiz-adv-x="522" d=" M150,253 Q150,170 185.5,115 Q221,60 291,60 Q354,60 395,114.5 Q436,169 436,253 Q436,338 396.5,389 Q357,440 291,440 Q222,440 186,384.5 Q150,329 150,253 M70,-177 L70,500 L140,500 L147,420 Q201,510 302,510 Q399,510 460.5,439 Q522,368 522,253 Q522,139 458.5,64.5 Q395,-10 302,-10 Q203,-10 150,75 L150,-177"/> 
            <glyph glyph-name="с" unicode="&#x441;" horiz-adv-x="470" d=" M40,253 Q40,373 105,441.5 Q170,510 275,510 Q379,510 433,439 Q468,392 468,332 L383,332 Q383,376 360,403 Q330,440 270,440 Q208,440 167,390.5 Q126,341 126,253 Q126,164 167.5,112 Q209,60 270,60 Q330,60 361,98 Q385,128 385,170 L470,170 Q470,104 436,60 Q382,-10 275,-10 Q171,-10 105.5,61 Q40,132 40,253"/> 
            <glyph glyph-name="т" unicode="&#x442;" horiz-adv-x="460" d=" M20,425 L20,500 L460,500 L460,425 L280,425 L280,0 L200,0 L200,425"/> 
            <glyph glyph-name="у" unicode="&#x443;" horiz-adv-x="500" d=" M20,500 L110,500 L270,97 L415,500 L500,500 L313,5 L311,0 Q272,-95 231,-136 Q190,-177 114,-177 L65,-177 L65,-96 L111,-96 Q186,-96 227,11"/> 
            <glyph glyph-name="ф" unicode="&#x444;" horiz-adv-x="662" d=" M391,70 L411,70 Q480,70 528,120.5 Q576,171 576,253 Q576,335 530,382.5 Q484,430 411,430 L391,430 M126,335 Q126,171 174,120.5 Q222,70 291,70 L311,70 L311,430 L291,430 Q218,430 126,335 M40,253 Q40,366 108.5,433 Q177,500 280,500 L311,500 L311,677 L391,677 L391,500 L422,500 Q525,500 593.5,433 Q662,366 662,253 Q662,141 591.5,70.5 Q521,0 422,0 L391,0 L391,-177 L311,-177 L311,0 L280,0 Q181,0 110.5,70.5 Q40,141 40,253"/> 
            <glyph glyph-name="х" unicode="&#x445;" horiz-adv-x="470" d=" M30,0 L199,251 L38,500 L127,500 L255,299 L373,500 L462,500 L301,251 L470,0 L370,0 L248,193 L124,0"/> 
            <glyph glyph-name="ц" unicode="&#x446;" horiz-adv-x="570" d=" M70,0 L70,500 L150,500 L150,75 L410,75 L410,500 L490,500 L490,75 L570,75 L570,-177 L490,-177 L490,0"/> 
            <glyph glyph-name="ч" unicode="&#x447;" horiz-adv-x="430" d=" M40,350 L40,500 L120,500 L120,360 L120,353 Q120,230 229,230 Q292,230 350,242 L350,500 L430,500 L430,0 L350,0 L350,175 Q280,160 220,160 Q138,160 89,205.5 Q40,251 40,350"/> 
            <glyph glyph-name="ш" unicode="&#x448;" horiz-adv-x="710" d=" M70,0 L70,500 L150,500 L150,75 L350,75 L350,500 L430,500 L430,75 L630,75 L630,500 L710,500 L710,0"/> 
            <glyph glyph-name="щ" unicode="&#x449;" horiz-adv-x="790" d=" M70,0 L70,500 L150,500 L150,75 L350,75 L350,500 L430,500 L430,75 L630,75 L630,500 L710,500 L710,75 L790,75 L790,-177 L710,-177 L710,0"/> 
            <glyph glyph-name="ъ" unicode="&#x44A;" horiz-adv-x="580" d=" M260,75 L390,75 Q440,75 467,99 Q494,123 494,160 Q494,193 468.5,214 Q443,235 387,235 L260,235 M20,425 L20,500 L260,500 L260,310 L388,310 Q473,310 526.5,270.5 Q580,231 580,160 Q580,90 530.5,45 Q481,0 400,0 L180,0 L180,425"/> 
            <glyph glyph-name="ы" unicode="&#x44B;" horiz-adv-x="610" d=" M530,0 L530,500 L610,500 L610,0 M150,75 L255,75 Q302,76 328,100 Q354,124 354,160 Q354,193 328.5,214 Q303,235 247,235 L150,235 M70,0 L70,500 L150,500 L150,310 L248,310 Q333,310 386.5,270.5 Q440,231 440,160 Q440,90 390.5,45 Q341,0 260,0"/> 
            <glyph glyph-name="ь" unicode="&#x44C;" horiz-adv-x="470" d=" M150,75 L280,75 Q330,75 357,99 Q384,123 384,160 Q384,193 358.5,214 Q333,235 277,235 L150,235 M70,0 L70,500 L150,500 L150,310 L278,310 Q363,310 416.5,270.5 Q470,231 470,160 Q470,90 420.5,45 Q371,0 290,0"/> 
            <glyph glyph-name="э" unicode="&#x44D;" horiz-adv-x="470" d=" M40,330 Q40,396 74,440 Q128,510 240,510 Q341,510 405.5,440 Q470,370 470,250 Q470,130 405.5,60 Q341,-10 240,-10 Q131,-10 77,61 Q42,108 42,168 L127,168 Q127,124 150,97 Q180,60 240,60 Q296,60 337,102.5 Q378,145 379,210 L208,210 L208,285 L379,285 Q378,350 336.5,395 Q295,440 240,440 Q180,440 149,402 Q125,372 125,330"/> 
            <glyph glyph-name="ю" unicode="&#x44E;" horiz-adv-x="730" d=" M335,255 Q335,170 377.5,115 Q420,60 490,60 Q560,60 602.5,115 Q645,170 645,255 Q645,339 603,389.5 Q561,440 490,440 Q419,440 377,389.5 Q335,339 335,255 M70,0 L70,500 L150,500 L150,300 L252,300 Q265,397 328,453.5 Q391,510 489,510 Q598,510 664,440 Q730,370 730,255 Q730,139 663.5,64.5 Q597,-10 489,-10 Q388,-10 323,55 Q258,120 250,225 L150,225 L150,0"/> 
            <glyph glyph-name="я" unicode="&#x44F;" horiz-adv-x="440" d=" M126,385 Q126,315 152,290 Q178,265 233,265 L360,265 L360,425 L230,425 Q179,425 126,385 M40,0 L168,197 Q110,212 75,252.5 Q40,293 40,350 Q40,419 89,459.5 Q138,500 220,500 L440,500 L440,0 L360,0 L360,190 L257,190 L134,0"/> 
            <glyph glyph-name="ё" unicode="&#x451;" horiz-adv-x="499" d=" M292,604 Q292,656 308,671.5 Q324,687 349,687 Q374,687 390,671.5 Q406,656 406,630 Q406,604 390,588.5 Q374,573 349,573 Q324,573 292,604 M132,604 Q132,656 148,671.5 Q164,687 189,687 Q214,687 230,671.5 Q246,656 246,630 Q246,604 230,588.5 Q214,573 189,573 Q164,573 132,604 M130,310 L412,310 Q410,367 377.5,403.5 Q345,440 276,440 Q210,440 171,402 Q132,364 130,310 M40,136 Q40,370 103,440 Q166,510 276,510 Q383,510 441,445 Q499,380 499,276 L499,245 L126,245 Q128,157 168.5,108.5 Q209,60 280,60 Q354,60 386,102 Q405,128 405,155 L490,155 Q490,111 459,67 Q405,-10 280,-10 Q170,-10 40,136"/> 
            <glyph glyph-name="ђ" unicode="&#x452;" horiz-adv-x="500" d=" M20,482 L20,557 L110,557 L110,677 L190,677 L190,557 L343,557 L343,482 L190,482 L190,324 Q252,340 320,340 Q402,340 451,294.5 Q500,249 500,150 L500,149 L500,0 Q500,-77 458.5,-127 Q417,-177 344,-177 L325,-177 L325,-96 L341,-96 Q384,-96 401,-68 Q418,-40 420,13 L420,140 L420,147 Q420,270 311,270 Q259,270 190,258 L190,0 L110,0 L110,482"/> 
            <glyph glyph-name="є" unicode="&#x454;" horiz-adv-x="470" d=" M40,130 Q40,370 104.5,440 Q169,510 270,510 Q379,510 433,439 Q468,392 468,332 L383,332 Q383,376 360,403 Q330,440 270,440 Q213,440 172.5,397.5 Q132,355 131,290 L302,290 L302,215 L131,215 Q132,149 173,104.5 Q214,60 270,60 Q330,60 361,98 Q385,128 385,170 L470,170 Q470,104 436,60 Q382,-10 270,-10 Q169,-10 40,130"/> 
            <glyph glyph-name="ѕ" unicode="&#x455;" horiz-adv-x="440" d=" M40,163 L125,163 Q125,119 160,89.5 Q195,60 250,60 Q296,60 325,80.5 Q354,101 354,135 Q354,167 323,184.5 Q292,202 248,212 Q204,222 160.5,235 Q117,248 86,280 Q55,312 55,365 Q55,430 105.5,470 Q156,510 234,510 Q332,510 382.5,458.5 Q433,407 433,337 L348,337 Q348,381 316,410.5 Q284,440 234,440 Q193,440 167,419.5 Q141,399 141,365 Q141,336 163,317.5 Q185,299 218.5,291.5 Q252,284 290.5,273.5 Q329,263 362.5,251 Q396,239 418,209.5 Q440,180 440,135 Q440,70 386.5,30 Q333,-10 250,-10 Q147,-10 93.5,41.5 Q40,93 40,163"/> 
            <glyph glyph-name="і" unicode="&#x456;" horiz-adv-x="167" d=" M70,0 L70,500 L150,500 L150,0 M53,604 Q53,656 69,671.5 Q85,687 110,687 Q135,687 151,671.5 Q167,656 167,630 Q167,604 151,588.5 Q135,573 110,573 Q85,573 53,604"/> 
            <glyph glyph-name="ї" unicode="&#x457;" horiz-adv-x="247" d=" M133,604 Q133,656 149,671.5 Q165,687 190,687 Q215,687 231,671.5 Q247,656 247,630 Q247,604 231,588.5 Q215,573 190,573 Q165,573 133,604 M70,0 L70,500 L150,500 L150,0 M-27,604 Q-27,656 -11,671.5 Q5,687 30,687 Q55,687 71,671.5 Q87,656 87,630 Q87,604 71,588.5 Q55,573 30,573 Q5,573 -27,604"/> 
            <glyph glyph-name="ј" unicode="&#x458;" horiz-adv-x="197" d=" M83,604 Q83,656 99,671.5 Q115,687 140,687 Q165,687 181,671.5 Q197,656 197,630 Q197,604 181,588.5 Q165,573 140,573 Q115,573 83,604 M5,-96 L21,-96 Q67,-96 83.5,-64 Q100,-32 100,30 L100,500 L180,500 L180,0 Q180,-77 138.5,-127 Q97,-177 24,-177 L5,-177"/> 
            <glyph glyph-name="љ" unicode="&#x459;" horiz-adv-x="800" d=" M490,75 L610,75 Q660,75 687,99 Q714,123 714,160 Q714,193 688.5,214 Q663,235 607,235 L490,235 M20,0 L20,81 L48,81 Q98,81 123.5,149 Q149,217 150,372 L150,500 L490,500 L490,310 L610,310 Q694,309 747,270 Q800,231 800,160 Q800,90 750.5,45 Q701,0 620,0 L400,0 L400,425 L230,425 L230,362 Q230,169 184,84.5 Q138,0 51,0"/> 
            <glyph glyph-name="њ" unicode="&#x45A;" horiz-adv-x="820" d=" M500,75 L630,75 Q680,75 707,99 Q734,123 734,160 Q734,193 708.5,214 Q683,235 627,235 L500,235 M70,0 L70,500 L150,500 L150,300 L420,300 L420,500 L500,500 L500,310 L628,310 Q713,310 766.5,270.5 Q820,231 820,160 Q820,90 770.5,45 Q721,0 640,0 L420,0 L420,225 L150,225 L150,0"/> 
            <glyph glyph-name="ћ" unicode="&#x45B;" horiz-adv-x="500" d=" M20,482 L20,557 L110,557 L110,677 L190,677 L190,557 L343,557 L343,482 L190,482 L190,324 Q252,340 320,340 Q402,340 451,294.5 Q500,249 500,150 L500,149 L500,0 L420,0 L420,140 L420,147 Q420,270 311,270 Q259,270 190,258 L190,0 L110,0 L110,482"/> 
            <glyph glyph-name="ў" unicode="&#x45E;" horiz-adv-x="500" d=" M104,677 L180,677 Q182,661 200.5,645 Q219,629 250,629 L270,629 Q301,629 319.5,645 Q338,661 340,677 L416,677 Q407,630 368.5,599 Q330,568 273,568 L247,568 Q190,568 151.5,599 Q113,630 104,677 M20,500 L110,500 L270,97 L415,500 L500,500 L313,5 Q273,-93 232,-135 Q191,-177 114,-177 L65,-177 L65,-96 L111,-96 Q186,-96 227,11"/> 
            <glyph glyph-name="џ" unicode="&#x45F;" horiz-adv-x="490" d=" M70,0 L70,500 L150,500 L150,75 L410,75 L410,500 L490,500 L490,0 L320,0 L320,-177 L240,-177 L240,0"/> 
            <glyph glyph-name="Ґ" unicode="&#x490;" horiz-adv-x="470" d=" M70,0 L70,677 L390,677 L390,849 L470,849 L470,597 L155,597 L155,0"/> 
            <glyph glyph-name="ґ" unicode="&#x491;" horiz-adv-x="390" d=" M70,0 L70,500 L310,500 L310,677 L390,677 L390,425 L150,425 L150,0"/> 
            <glyph glyph-name="–" unicode="&#x2013;" horiz-adv-x="460" d=" M20,245 L20,320 L460,320 L460,245"/> 
            <glyph glyph-name="—" unicode="&#x2014;" horiz-adv-x="610" d=" M10,245 L10,320 L610,320 L610,245"/> 
            <glyph glyph-name="‘" unicode="&#x2018;" horiz-adv-x="212" d=" M49,666 L119,691 L212,435 L142,410"/> 
            <glyph glyph-name="’" unicode="&#x2019;" horiz-adv-x="197" d=" M34,435 L127,691 L197,666 L104,410"/> 
            <glyph glyph-name="‚" unicode="&#x201A;" horiz-adv-x="197" d=" M34,-65 L127,191 L197,166 L104,-90"/> 
            <glyph glyph-name="“" unicode="&#x201C;" horiz-adv-x="412" d=" M249,666 L319,691 L412,435 L342,410 M49,666 L119,691 L212,435 L142,410"/> 
            <glyph glyph-name="”" unicode="&#x201D;" horiz-adv-x="397" d=" M234,435 L327,691 L397,666 L304,410 M34,435 L127,691 L197,666 L104,410"/> 
            <glyph glyph-name="„" unicode="&#x201E;" horiz-adv-x="397" d=" M234,-65 L327,191 L397,166 L304,-90 M34,-65 L127,191 L197,166 L104,-90"/> 
            <glyph glyph-name="‰" unicode="&#x2030;" horiz-adv-x="959" d=" M737,148 Q737,105 758.5,78 Q780,51 815,51 Q850,51 871,78 Q892,105 892,148 Q892,190 871,215.5 Q850,241 815,241 Q779,241 758,215.5 Q737,190 737,148 M670,78 Q670,218 709.5,260 Q749,302 814,302 Q879,302 919,260 Q959,218 959,148 Q959,78 919,34 Q879,-10 814,-10 Q749,-10 670,78 M417,148 Q417,105 438.5,78 Q460,51 495,51 Q530,51 551,78 Q572,105 572,148 Q572,190 551,215.5 Q530,241 495,241 Q459,241 438,215.5 Q417,190 417,148 M350,78 Q350,218 389.5,260 Q429,302 494,302 Q559,302 599,260 Q639,218 639,148 Q639,78 599,34 Q559,-10 494,-10 Q429,-10 350,78 M107,533 Q107,490 128.5,463 Q150,436 185,436 Q220,436 241,463 Q262,490 262,533 Q262,575 241,600.5 Q220,626 185,626 Q149,626 128,600.5 Q107,575 107,533 M62,0 L522,677 L603,677 L143,0 M40,463 Q40,603 79.5,645 Q119,687 184,687 Q249,687 289,645 Q329,603 329,533 Q329,464 289,419.5 Q249,375 184,375 Q119,375 40,463"/> 
            <glyph glyph-name="‹" unicode="&#x2039;" horiz-adv-x="300" d=" M30,263 L207,460 L300,460 L124,263 L300,66 L207,66"/> 
            <glyph glyph-name="›" unicode="&#x203A;" horiz-adv-x="300" d=" M30,66 L206,263 L30,460 L123,460 L300,263 L123,66"/> 
            <glyph glyph-name="⁄" unicode="&#x2044;" horiz-adv-x="615" d=" M74,0 L534,677 L615,677 L155,0"/> 
            <glyph glyph-name="₀" unicode="&#x2080;" horiz-adv-x="347" d=" M100,8 Q100,-151 186,-151 Q272,-151 272,8 Q272,158 186,158 Q100,158 100,8 M24,8 Q24,113 69,164 Q114,215 185,215 Q256,215 301.5,164 Q347,113 347,8 Q347,-99 302.5,-154 Q258,-209 185,-209 Q112,-209 68,-154 Q24,-99 24,8"/> 
            <glyph glyph-name="₁" unicode="&#x2081;" horiz-adv-x="167" d=" M30,146 L30,206 L167,206 L167,-200 L95,-200 L95,146"/> 
            <glyph glyph-name="₂" unicode="&#x2082;" horiz-adv-x="317" d=" M24,100 Q24,144 58.5,179.5 Q93,215 169,215 Q236,215 273.5,180.5 Q311,146 311,93 Q311,5 189,-101 L145,-139 L317,-139 L317,-200 L24,-200 L24,-165 L137,-58 Q235,33 235,94 Q235,158 168,158 Q138,158 118.5,142.5 Q99,127 99,100"/> 
            <glyph glyph-name="₃" unicode="&#x2083;" horiz-adv-x="323" d=" M24,-91 L99,-91 Q99,-116 120,-133.5 Q141,-151 171,-151 Q203,-151 225.5,-133 Q248,-115 248,-83 Q248,-53 221.5,-37.5 Q195,-22 160,-22 L101,-22 L101,39 L159,39 Q192,39 215.5,57.5 Q239,76 239,99 Q239,125 220,141.5 Q201,158 169,158 Q139,158 120,142.5 Q101,127 101,100 L26,100 Q26,144 60,179.5 Q94,215 169,215 Q236,215 275,181.5 Q314,148 314,99 Q314,36 240,15 Q323,-13 323,-83 Q323,-140 282.5,-174.5 Q242,-209 171,-209 Q102,-209 63,-173 Q24,-137 24,-91"/> 
            <glyph glyph-name="₄" unicode="&#x2084;" horiz-adv-x="340" d=" M81,-38 L206,-38 L206,127 M12,-26 L194,206 L281,206 L281,-38 L340,-38 L340,-99 L281,-99 L281,-200 L206,-200 L206,-99 L12,-99"/> 
            <glyph glyph-name="₅" unicode="&#x2085;" horiz-adv-x="317" d=" M24,-101 L99,-101 Q99,-127 117.5,-139 Q136,-151 161,-151 Q241,-151 241,-65 Q241,5 161,5 Q98,5 89,-34 L37,-34 L55,206 L282,206 L282,146 L114,146 L105,40 Q133,60 177,60 Q240,60 278.5,26 Q317,-8 317,-65 Q317,-129 276.5,-169 Q236,-209 161,-209 Q97,-209 60.5,-175 Q24,-141 24,-101"/> 
            <glyph glyph-name="₆" unicode="&#x2086;" horiz-adv-x="328" d=" M99,-59 L99,-65 Q99,-151 178,-151 Q210,-151 231.5,-130 Q253,-109 253,-65 Q253,5 178,5 Q100,5 99,-59 M24,-19 Q24,215 186,215 Q223,215 250,204 Q277,193 289,176 Q301,159 306,145 Q311,131 311,120 L242,120 Q242,132 228,145 Q214,158 186,158 Q140,158 121,129.5 Q102,101 99,23 Q134,60 195,60 Q254,60 291,26 Q328,-8 328,-65 Q328,-129 289,-169 Q250,-209 179,-209 Q24,-209 24,-19"/> 
            <glyph glyph-name="₇" unicode="&#x2087;" horiz-adv-x="325" d=" M12,146 L12,206 L325,206 L325,177 L151,-200 L83,-200 L242,146"/> 
            <glyph glyph-name="₈" unicode="&#x2088;" horiz-adv-x="328" d=" M108,99 Q108,67 127,51 Q146,35 176,35 Q207,35 225.5,51 Q244,67 244,99 Q244,126 225.5,142 Q207,158 176,158 Q145,158 126.5,142 Q108,126 108,99 M99,-78 Q99,-108 118.5,-129.5 Q138,-151 176,-151 Q214,-151 233.5,-129.5 Q253,-108 253,-78 Q253,-46 231.5,-27 Q210,-8 176,-8 Q142,-8 120.5,-27 Q99,-46 99,-78 M24,-83 Q24,-11 99,13 Q33,39 33,104 Q33,153 73.5,184 Q114,215 176,215 Q238,215 278.5,184 Q319,153 319,104 Q319,38 252,13 Q328,-12 328,-83 Q328,-140 286,-174.5 Q244,-209 176,-209 Q109,-209 66.5,-174.5 Q24,-140 24,-83"/> 
            <glyph glyph-name="₉" unicode="&#x2089;" horiz-adv-x="328" d=" M99,71 Q99,1 174,1 Q253,1 253,69 L253,71 Q253,157 174,157 Q142,157 120.5,136 Q99,115 99,71 M24,71 Q24,135 63,175 Q102,215 173,215 Q328,215 328,25 Q328,-209 166,-209 Q129,-209 102,-198 Q75,-187 63,-170 Q51,-153 46,-139 Q41,-125 41,-114 L110,-114 Q110,-126 124,-139 Q138,-152 166,-152 Q211,-152 230,-123 Q249,-94 252,-17 Q217,-54 157,-54 Q98,-54 61,-20 Q24,14 24,71"/> 
            <glyph glyph-name="€" unicode="&#x20AC;" horiz-adv-x="560" d=" M20,227 L20,302 L112,302 Q111,316 111,347 L111,375 L20,375 L20,450 L118,450 Q153,687 361,687 Q452,687 506,632.5 Q560,578 560,500 L485,500 Q485,547 448.5,582 Q412,617 362,617 Q230,617 203,450 L440,450 L440,375 L196,375 L196,350 Q196,317 197,302 L440,302 L440,227 L204,227 Q219,138 258.5,99 Q298,60 362,60 Q412,60 448.5,95 Q485,130 485,177 L560,177 Q560,99 506,44.5 Q452,-10 361,-10 Q155,-10 119,227"/> 
            <glyph glyph-name="₴" unicode="&#x20B4;" horiz-adv-x="570" d=" M50,227 L50,302 L215,302 L302,375 L50,375 L50,450 L397,450 Q434,473 434,522 Q434,561 403.5,589 Q373,617 310,617 Q185,617 185,524 L100,524 Q100,593 149,640 Q198,687 310,687 Q409,687 459.5,640 Q510,593 510,522 Q510,482 485,450 L570,450 L570,375 L399,375 L312,302 L570,302 L570,227 L223,227 Q186,202 186,155 Q186,116 216.5,88 Q247,60 310,60 Q435,60 435,153 L520,153 Q520,84 471,37 Q422,-10 310,-10 Q211,-10 160.5,37 Q110,84 110,155 Q110,194 134,227"/> 
            <glyph glyph-name="₽" unicode="&#x20BD;" horiz-adv-x="550" d=" M195,365 L288,365 Q459,368 459,485 Q459,597 289,597 L195,597 M20,142 L20,217 L110,217 L110,290 L20,290 L20,365 L110,365 L110,677 L290,677 Q408,677 479,626 Q550,575 550,485 Q550,395 474.5,342.5 Q399,290 280,290 L195,290 L195,217 L440,217 L440,142 L195,142 L195,0 L110,0 L110,142"/> 
            <glyph glyph-name="№" unicode="&#x2116;" horiz-adv-x="1050" d=" M802,452 Q802,409 823.5,382 Q845,355 880,355 Q915,355 936,382 Q957,409 957,452 Q957,494 936,519.5 Q915,545 880,545 Q844,545 823,519.5 Q802,494 802,452 M735,382 Q735,522 774.5,564 Q814,606 879,606 Q944,606 984,564 Q1024,522 1024,452 Q1024,382 984,338 Q944,294 879,294 Q814,294 735,382 M710,122 L710,197 L1050,197 L1050,122 M70,0 L70,677 L160,677 L530,126 L530,677 L615,677 L615,0 L525,0 L155,550 L155,0"/> 
            <glyph glyph-name="Ω" unicode="&#x2126;" horiz-adv-x="702" d=" M40,0 L40,80 L191,80 Q50,206 50,370 Q50,509 138.5,598 Q227,687 372,687 Q516,687 604,598 Q692,509 692,370 Q692,206 550,80 L702,80 L702,0 L432,0 L432,70 Q439,74 450.5,82 Q462,90 491,118.5 Q520,147 542,179 Q564,211 582.5,263 Q601,315 601,370 Q601,470 536,541 Q471,612 371,612 Q271,612 206,541 Q141,470 141,370 Q141,315 158.5,263.5 Q176,212 201,178.5 Q226,145 250.5,119 Q275,93 292,82 L310,70 L310,0"/> 
            <glyph glyph-name="←" unicode="&#x2190;" horiz-adv-x="644" d=" M50,290 L316,550 L364,501 L184,324 L644,324 L644,255 L184,255 L364,78 L316,29"/> 
            <glyph glyph-name="↑" unicode="&#x2191;" horiz-adv-x="571" d=" M50,328 L311,594 L571,328 L522,280 L345,460 L345,0 L276,0 L276,460 L100,280"/> 
            <glyph glyph-name="→" unicode="&#x2192;" horiz-adv-x="644" d=" M50,255 L50,324 L510,324 L330,501 L378,550 L644,289 L378,29 L330,78 L510,255"/> 
            <glyph glyph-name="↓" unicode="&#x2193;" horiz-adv-x="571" d=" M50,256 L99,304 L276,124 L276,584 L345,584 L345,124 L521,304 L571,256 L310,-10"/> 
            <glyph glyph-name="∆" unicode="&#x2206;" horiz-adv-x="650" d=" M137,80 L527,80 L332,562 M20,0 L299,677 L368,677 L650,0"/> 
            <glyph glyph-name="−" unicode="&#x2212;" horiz-adv-x="360" d=" M20,245 L20,320 L360,320 L360,245"/> 
            <glyph glyph-name="∶" unicode="&#x2236;" horiz-adv-x="203" d=" M77,527 Q77,555 95,572.5 Q113,590 140,590 Q167,590 185,572.5 Q203,555 203,527 Q203,498 185,481 Q167,464 140,464 Q113,464 95,481 Q77,498 77,527 M77,133 Q77,161 95,178.5 Q113,196 140,196 Q167,196 185,178.5 Q203,161 203,133 Q203,104 185,87 Q167,70 140,70 Q113,70 95,87 Q77,104 77,133"/> 
            <glyph glyph-name="≈" unicode="&#x2248;" horiz-adv-x="613" d=" M20,380 L32,394 Q71,432 99.5,448.5 Q128,465 159,465 Q183,465 219,454 L420,392 Q437,387 449,387 Q482,387 525,430 L556,462 L613,404 L580,371 Q542,334 516,318.5 Q490,303 462,303 Q436,303 400,315 L199,377 Q187,381 173,381 Q136,381 87,335 L78,324 M20,180 L32,194 Q71,232 99.5,248.5 Q128,265 159,265 Q183,265 219,254 L420,192 Q437,187 449,187 Q482,187 525,230 L556,262 L613,204 L580,171 Q542,134 516,118.5 Q490,103 462,103 Q436,103 400,115 L199,177 Q187,181 173,181 Q136,181 87,135 L78,124"/> 
            <glyph glyph-name="≠" unicode="&#x2260;" horiz-adv-x="360" d=" M20,145 L20,220 L123,220 L159,345 L20,345 L20,420 L181,420 L255,677 L320,677 L246,420 L360,420 L360,345 L224,345 L188,220 L360,220 L360,145 L167,145 L125,0 L60,0 L102,145"/> 
            <glyph glyph-name="≤" unicode="&#x2264;" horiz-adv-x="360" d=" M20,323 L340,520 L340,435 L161,323 L340,211 L340,126 M20,-25 L20,50 L360,50 L360,-25"/> 
            <glyph glyph-name="≥" unicode="&#x2265;" horiz-adv-x="360" d=" M20,126 L20,211 L199,323 L20,435 L20,520 L340,323 M20,-25 L20,50 L360,50 L360,-25"/> 
            <glyph glyph-name="ﬀ" unicode="&#xFB00;" horiz-adv-x="606" d=" M20,425 L20,500 L110,500 L110,510 Q110,586 151,631.5 Q192,677 266,677 L323,677 L323,602 L269,602 Q225,602 208.5,578.5 Q192,555 190,500 L393,500 L393,510 Q393,586 434,631.5 Q475,677 549,677 L606,677 L606,602 L552,602 Q508,602 491.5,578.5 Q475,555 473,500 L606,500 L606,425 L473,425 L473,0 L393,0 L393,425 L190,425 L190,0 L110,0 L110,425"/> 
            <glyph glyph-name=" " unicode="&#x20;" horiz-adv-x="370" d=" M295,405 L295,677 L370,677 L370,405 M90,405 L90,677 L165,677 L165,405"/> 
            <glyph glyph-name="!" unicode="&#x21;" horiz-adv-x="645" d=" M295,188 L470,188 L470,430 L295,430 M120,118 L120,188 L220,188 L220,430 L120,430 L120,500 L220,500 L220,607 L295,607 L295,500 L470,500 L470,607 L545,607 L545,500 L645,500 L645,430 L545,430 L545,188 L645,188 L645,118 L545,118 L545,0 L470,0 L470,118 L295,118 L295,0 L220,0 L220,118"/> 
            <glyph glyph-name="&quot;" unicode="&#x22;" horiz-adv-x="530" d=" M335,62 Q384,70 414,99 Q444,128 444,175 Q444,272 335,292 M151,502 Q151,446 177.5,417.5 Q204,389 260,379 L260,615 Q212,610 181.5,580.5 Q151,551 151,502 M50,173 L135,173 Q135,134 168.5,103 Q202,72 260,63 L260,302 Q65,334 65,502 Q65,577 120,627.5 Q175,678 260,686 L260,777 L335,777 L335,683 Q428,671 475.5,619 Q523,567 523,504 L438,504 Q438,540 410.5,570 Q383,600 335,611 L335,369 Q421,354 475.5,308 Q530,262 530,175 Q530,102 475,51.5 Q420,1 335,-8 L335,-100 L260,-100 L260,-8 Q157,1 103.5,54 Q50,107 50,173"/> 
            </font>
</defs>
</svg>
