<?xml version="1.0" standalone="no"?>
<!DOCTYPE svg PUBLIC "-//W3C//DTD SVG 1.1//EN" "http://www.w3.org/Graphics/SVG/1.1/DTD/svg11.dtd" >
<svg xmlns="http://www.w3.org/2000/svg">
    <defs>
        <font id="Mariupol-Medium">
            <font-face font-family="Mariupol-Medium"
                       units-per-em="1024"
                       ascent="777"
                       descent="-187"
                       bbox="-81 -209 1528 874"
                    />
            <missing-glyph horiz-adv-x="0" />
            
            <glyph glyph-name="!" unicode="&#x21;" horiz-adv-x="218" d=" M78,220 L78,677 L199,677 L199,220 M62,65 Q62,100 84.5,121.5 Q107,143 140,143 Q173,143 195.5,121.5 Q218,100 218,65 Q218,29 195.5,8 Q173,-13 140,-13 Q107,-13 84.5,8 Q62,29 62,65"/> 
            <glyph glyph-name="&quot;" unicode="&#x22;" horiz-adv-x="391" d=" M292,392 L292,677 L391,677 L391,392 M81,392 L81,677 L180,677 L180,392"/> 
            <glyph glyph-name="#" unicode="&#x23;" horiz-adv-x="669" d=" M307,200 L470,200 L470,406 L307,406 M108,106 L108,200 L208,200 L208,406 L108,406 L108,500 L208,500 L208,607 L307,607 L307,500 L470,500 L470,607 L569,607 L569,500 L669,500 L669,406 L569,406 L569,200 L669,200 L669,106 L569,106 L569,0 L470,0 L470,106 L307,106 L307,0 L208,0 L208,106"/> 
            <glyph glyph-name="$" unicode="&#x24;" horiz-adv-x="548" d=" M345,87 Q432,102 432,187 Q432,260 345,280 M169,490 Q169,412 258,391 L258,590 Q169,576 169,490 M44,179 L165,179 Q165,147 187.5,121.5 Q210,96 258,87 L258,293 Q218,301 183.5,316 Q149,331 118.5,354.5 Q88,378 70.5,414.5 Q53,451 53,496 Q53,573 106.5,626 Q160,679 258,688 L258,777 L345,777 L345,687 Q445,674 493,618.5 Q541,563 541,498 L420,498 Q420,528 402,552 Q384,576 345,587 L345,378 Q430,362 489,315 Q548,268 548,187 Q548,106 495.5,52 Q443,-2 345,-11 L345,-100 L258,-100 L258,-11 Q146,-1 95,54.5 Q44,110 44,179"/> 
            <glyph glyph-name="%" unicode="&#x25;" horiz-adv-x="683" d=" M466,184 Q466,110 484,86 Q502,62 532,62 Q562,62 579.5,85.5 Q597,109 597,147 Q597,184 579.5,206 Q562,228 532,228 Q501,228 466,184 M380,78 Q380,216 422,259 Q464,302 531,302 Q599,302 641,259.5 Q683,217 683,147 Q683,78 640.5,32.5 Q598,-13 531,-13 Q465,-13 380,78 M126,572 Q126,498 144,474 Q162,450 192,450 Q222,450 239.5,473.5 Q257,497 257,535 Q257,572 239.5,594 Q222,616 192,616 Q161,616 126,572 M71,0 L534,677 L643,677 L180,0 M40,466 Q40,604 82,647 Q124,690 191,690 Q259,690 301,647.5 Q343,605 343,535 Q343,466 300.5,420.5 Q258,375 191,375 Q125,375 40,466"/> 
            <glyph glyph-name="&amp;" unicode="&#x26;" horiz-adv-x="634" d=" M208,514 Q208,463 271,417 Q354,461 354,514 Q354,553 334,573 Q314,593 282,593 Q251,593 229.5,571 Q208,549 208,514 M165,188 Q165,142 194,113 Q223,84 277,84 Q346,84 391,136 L252,308 Q210,281 187.5,253.5 Q165,226 165,188 M44,179 Q44,245 79,289 Q114,333 175,367 Q87,436 87,520 Q87,592 144,641 Q201,690 282,690 Q364,690 417.5,643 Q471,596 471,520 Q471,466 438,429.5 Q405,393 345,358 L444,235 Q452,260 457,287 Q462,314 464,328 L465,342 L582,342 Q573,236 520,140 L634,0 L501,0 L456,56 Q382,-13 277,-13 Q175,-13 109.5,38.5 Q44,90 44,179"/> 
            <glyph glyph-name="'" unicode="&#x27;" horiz-adv-x="180" d=" M81,392 L81,677 L180,677 L180,392"/> 
            <glyph glyph-name="(" unicode="&#x28;" horiz-adv-x="316" d=" M60,255 Q60,335 74.5,407.5 Q89,480 109.5,527 Q130,574 151,609.5 Q172,645 186,661 L201,677 L316,677 Q310,671 300.5,658.5 Q291,646 266.5,605 Q242,564 223,518.5 Q204,473 188.5,401 Q173,329 173,255 Q173,181 187.5,109 Q202,37 223,-12.5 Q244,-62 265.5,-101 Q287,-140 302,-158 L316,-177 L201,-177 Q195,-171 185.5,-159.5 Q176,-148 152,-108 Q128,-68 109,-21.5 Q90,25 75,99.5 Q60,174 60,255"/> 
            <glyph glyph-name=")" unicode="&#x29;" horiz-adv-x="256" d=" M0,-177 Q6,-171 15.5,-158.5 Q25,-146 49.5,-105 Q74,-64 93,-18.5 Q112,27 127.5,99 Q143,171 143,245 Q143,319 128.5,391 Q114,463 93,512.5 Q72,562 50.5,601 Q29,640 14,658 L0,677 L115,677 Q121,671 130.5,659.5 Q140,648 164,608 Q188,568 207,521.5 Q226,475 241,400.5 Q256,326 256,245 Q256,165 241.5,92.5 Q227,20 206.5,-27 Q186,-74 165,-109.5 Q144,-145 130,-161 L115,-177"/> 
            <glyph glyph-name="*" unicode="&#x2A;" horiz-adv-x="491" d=" M40,476 L72,574 L214,528 L214,677 L318,677 L318,528 L459,574 L491,476 L349,430 L437,309 L353,248 L265,368 L178,248 L94,309 L182,430"/> 
            <glyph glyph-name="+" unicode="&#x2B;" horiz-adv-x="452" d=" M40,233 L40,332 L194,332 L194,490 L298,490 L298,332 L452,332 L452,233 L298,233 L298,70 L194,70 L194,233"/> 
            <glyph glyph-name="," unicode="&#x2C;" horiz-adv-x="237" d=" M8,-74 L151,172 L237,123 L94,-123"/> 
            <glyph glyph-name="-" unicode="&#x2D;" horiz-adv-x="352" d=" M40,233 L40,332 L352,332 L352,233"/> 
            <glyph glyph-name="." unicode="&#x2E;" horiz-adv-x="218" d=" M62,65 Q62,100 84.5,121.5 Q107,143 140,143 Q173,143 195.5,121.5 Q218,100 218,65 Q218,29 195.5,8 Q173,-13 140,-13 Q107,-13 84.5,8 Q62,29 62,65"/> 
            <glyph glyph-name="/" unicode="&#x2F;" horiz-adv-x="466" d=" M50,-77 L342,777 L466,777 L174,-77"/> 
            <glyph glyph-name="0" unicode="&#x30;" horiz-adv-x="562" d=" M166,345 Q166,84 303,84 Q440,84 440,345 Q440,593 303,593 Q166,593 166,345 M44,345 Q44,521 115,605.5 Q186,690 302,690 Q418,690 490,605.5 Q562,521 562,345 Q562,166 491.5,76.5 Q421,-13 302,-13 Q184,-13 114,76.5 Q44,166 44,345"/> 
            <glyph glyph-name="1" unicode="&#x31;" horiz-adv-x="274" d=" M54,573 L54,677 L274,677 L274,0 L158,0 L158,573"/> 
            <glyph glyph-name="2" unicode="&#x32;" horiz-adv-x="518" d=" M44,0 L44,69 L232,244 Q386,388 386,490 Q386,593 277,593 Q225,593 195,568 Q165,543 165,500 L44,500 Q44,575 101,632.5 Q158,690 278,690 Q387,690 447.5,634 Q508,578 508,489 Q508,411 452,331 Q396,251 304,165 L239,104 L518,104 L518,0"/> 
            <glyph glyph-name="3" unicode="&#x33;" horiz-adv-x="528" d=" M44,165 L165,165 Q165,135 200.5,109.5 Q236,84 283,84 Q336,84 371.5,113 Q407,142 407,193 Q407,243 365.5,269 Q324,295 265,295 L174,295 L174,399 L265,399 Q320,399 356,428.5 Q392,458 392,503 Q392,542 361,567.5 Q330,593 281,593 Q233,593 203,569 Q173,545 173,500 L52,500 Q52,576 109.5,633 Q167,690 282,690 Q387,690 450,634.5 Q513,579 513,504 Q513,391 394,354 Q528,309 528,193 Q528,101 463,44 Q398,-13 283,-13 Q174,-13 109,43.5 Q44,100 44,165"/> 
            <glyph glyph-name="4" unicode="&#x34;" horiz-adv-x="550" d=" M129,280 L339,280 L339,549 M20,176 L20,300 L319,677 L460,677 L460,280 L550,280 L550,176 L460,176 L460,0 L339,0 L339,176"/> 
            <glyph glyph-name="5" unicode="&#x35;" horiz-adv-x="518" d=" M44,165 L165,165 Q165,129 195,106.5 Q225,84 265,84 Q325,84 360.5,120 Q396,156 396,225 Q396,292 359.5,324 Q323,356 265,356 Q222,356 192,335.5 Q162,315 155,277 L66,277 L96,677 L460,677 L460,573 L192,573 L180,420 Q227,450 292,450 Q391,450 454.5,388 Q518,326 518,225 Q518,120 451.5,53.5 Q385,-13 266,-13 Q163,-13 103.5,43.5 Q44,100 44,165"/> 
            <glyph glyph-name="6" unicode="&#x36;" horiz-adv-x="534" d=" M165,225 Q165,157 200.5,120.5 Q236,84 291,84 Q346,84 379,120 Q412,156 412,225 Q412,289 379,322.5 Q346,356 291,356 Q234,356 199.5,324 Q165,292 165,227 M44,304 Q44,690 303,690 Q357,690 397.5,674.5 Q438,659 457,636.5 Q476,614 488,591.5 Q500,569 502,554 L504,538 L393,538 Q393,540 392,544 Q391,548 385.5,557.5 Q380,567 371.5,574 Q363,581 345,587 Q327,593 303,593 Q241,593 208,545.5 Q175,498 167,384 Q220,450 315,450 Q409,450 471.5,387.5 Q534,325 534,225 Q534,120 470,53.5 Q406,-13 292,-13 Q44,-13 44,304"/> 
            <glyph glyph-name="7" unicode="&#x37;" horiz-adv-x="521" d=" M20,573 L20,677 L521,677 L521,631 L231,0 L105,0 L368,573"/> 
            <glyph glyph-name="8" unicode="&#x38;" horiz-adv-x="534" d=" M180,503 Q180,457 210.5,430.5 Q241,404 289,404 Q337,404 367.5,430.5 Q398,457 398,503 Q398,546 368,569.5 Q338,593 289,593 Q240,593 210,569.5 Q180,546 180,503 M165,247 Q165,151 196.5,117.5 Q228,84 289,84 Q350,84 381.5,117.5 Q413,151 413,199 Q413,247 378.5,277 Q344,307 289,307 Q234,307 165,247 M44,193 Q44,314 172,357 Q59,398 59,509 Q59,589 124.5,639.5 Q190,690 289,690 Q388,690 453.5,639.5 Q519,589 519,509 Q519,398 405,357 Q534,313 534,193 Q534,97 465.5,42 Q397,-13 289,-13 Q181,-13 112.5,42 Q44,97 44,193"/> 
            <glyph glyph-name="9" unicode="&#x39;" horiz-adv-x="534" d=" M166,452 Q166,388 199,354.5 Q232,321 287,321 Q344,321 378.5,353 Q413,385 413,450 L413,452 Q413,520 377.5,556.5 Q342,593 287,593 Q232,593 199,557 Q166,521 166,452 M44,452 Q44,557 108,623.5 Q172,690 286,690 Q534,690 534,373 Q534,-13 275,-13 Q221,-13 180.5,2.5 Q140,18 121,40.5 Q102,63 90,85.5 Q78,108 76,124 L74,139 L185,139 Q185,137 186,133 Q187,129 192.5,119.5 Q198,110 206.5,103 Q215,96 233,90 Q251,84 275,84 Q337,84 369.5,131.5 Q402,179 410,293 Q357,227 263,227 Q169,227 106.5,289.5 Q44,352 44,452"/> 
            <glyph glyph-name=":" unicode="&#x3A;" horiz-adv-x="218" d=" M62,435 Q62,470 84.5,491.5 Q107,513 140,513 Q173,513 195.5,491.5 Q218,470 218,435 Q218,399 195.5,378 Q173,357 140,357 Q107,357 84.5,378 Q62,399 62,435 M62,65 Q62,100 84.5,121.5 Q107,143 140,143 Q173,143 195.5,121.5 Q218,100 218,65 Q218,29 195.5,8 Q173,-13 140,-13 Q107,-13 84.5,8 Q62,29 62,65"/> 
            <glyph glyph-name=";" unicode="&#x3B;" horiz-adv-x="237" d=" M71,435 Q71,470 93.5,491.5 Q116,513 149,513 Q182,513 204.5,491.5 Q227,470 227,435 Q227,399 204.5,378 Q182,357 149,357 Q116,357 93.5,378 Q71,399 71,435 M8,-74 L151,172 L237,123 L94,-123"/> 
            <glyph glyph-name="&lt;" unicode="&#x3C;" horiz-adv-x="334" d=" M14,293 L334,490 L334,379 L189,293 L334,207 L334,96"/> 
            <glyph glyph-name="=" unicode="&#x3D;" horiz-adv-x="372" d=" M20,333 L20,432 L372,432 L372,333 M20,133 L20,232 L372,232 L372,133"/> 
            <glyph glyph-name="&gt;" unicode="&#x3E;" horiz-adv-x="334" d=" M14,96 L14,207 L159,293 L14,379 L14,490 L334,293"/> 
            <glyph glyph-name="?" unicode="&#x3F;" horiz-adv-x="498" d=" M198,65 Q198,100 220.5,121.5 Q243,143 276,143 Q309,143 331.5,121.5 Q354,100 354,65 Q354,29 331.5,8 Q309,-13 276,-13 Q243,-13 220.5,8 Q198,29 198,65 M44,500 Q44,534 56,565.5 Q68,597 92.5,626 Q117,655 162.5,672.5 Q208,690 268,690 Q374,690 436,638.5 Q498,587 498,504 Q498,467 480.5,433.5 Q463,400 437.5,375 Q412,350 387,326.5 Q362,303 344.5,275.5 Q327,248 327,220 L218,220 Q218,260 234.5,294.5 Q251,329 274,353 Q297,377 320,399.5 Q343,422 359.5,449 Q376,476 376,504 Q376,593 267,593 Q220,593 192.5,568 Q165,543 165,500"/> 
            <glyph glyph-name="@" unicode="&#x40;" horiz-adv-x="980" d=" M400,235 Q400,162 431.5,120 Q463,78 507,78 Q550,78 580,115 Q610,152 610,220 L610,232 Q610,305 580.5,343.5 Q551,382 507,382 Q464,382 432,344 Q400,306 400,235 M62,255 Q62,457 196,573.5 Q330,690 536,690 Q732,690 856,579 Q980,468 980,285 Q980,167 925.5,83.5 Q871,0 777,0 Q710,0 677,19.5 Q644,39 634,83 Q590,-13 484,-13 Q400,-13 344,54.5 Q288,122 288,235 Q288,346 345,409.5 Q402,473 484,473 Q570,473 620,394 L638,460 L723,460 L723,166 Q723,126 733.5,109 Q744,92 771,91 Q816,93 840.5,146 Q865,199 865,285 Q865,426 774.5,510 Q684,594 536,594 Q386,594 281.5,503.5 Q177,413 177,255 Q177,78 269.5,-10.5 Q362,-99 509,-99 L568,-99 L568,-190 L510,-190 Q301,-190 181.5,-73 Q62,44 62,255"/> 
            <glyph glyph-name="A" unicode="&#x41;" horiz-adv-x="668" d=" M236,258 L447,258 L341,555 M20,0 L277,677 L408,677 L668,0 L539,0 L484,154 L199,154 L144,0"/> 
            <glyph glyph-name="B" unicode="&#x42;" horiz-adv-x="612" d=" M191,394 L299,394 Q455,394 455,488 Q455,573 309,573 L191,573 M191,104 L339,104 Q485,104 485,201 Q485,247 443,271.5 Q401,296 329,296 L191,296 M70,0 L70,677 L310,677 Q443,677 512.5,628.5 Q582,580 582,498 Q582,388 478,351 Q612,310 612,191 Q612,101 543,50.5 Q474,0 340,0"/> 
            <glyph glyph-name="C" unicode="&#x43;" horiz-adv-x="668" d=" M40,344 Q40,510 132.5,600 Q225,690 376,690 Q514,690 590.5,621.5 Q667,553 667,458 L540,458 Q540,510 496,549 Q452,588 377,588 Q290,588 230,526 Q170,464 170,344 Q170,223 231,156 Q292,89 377,89 Q452,89 497.5,132.5 Q543,176 543,229 L668,229 Q668,133 590.5,60 Q513,-13 376,-13 Q226,-13 133,82 Q40,177 40,344"/> 
            <glyph glyph-name="D" unicode="&#x44;" horiz-adv-x="690" d=" M191,104 L357,104 Q437,104 500,167.5 Q563,231 563,343 Q563,456 503,514.5 Q443,573 357,573 L191,573 M70,0 L70,677 L358,677 Q507,677 598.5,589.5 Q690,502 690,343 Q690,184 596,92 Q502,0 358,0"/> 
            <glyph glyph-name="E" unicode="&#x45;" horiz-adv-x="540" d=" M70,0 L70,677 L540,677 L540,573 L191,573 L191,410 L480,410 L480,306 L191,306 L191,104 L540,104 L540,0"/> 
            <glyph glyph-name="F" unicode="&#x46;" horiz-adv-x="510" d=" M70,0 L70,677 L510,677 L510,573 L191,573 L191,384 L470,384 L470,280 L191,280 L191,0"/> 
            <glyph glyph-name="G" unicode="&#x47;" horiz-adv-x="704" d=" M40,344 Q40,510 132.5,600 Q225,690 376,690 Q518,690 592.5,622 Q667,554 667,458 L540,458 Q540,511 498,549.5 Q456,588 377,588 Q290,588 230,526 Q170,464 170,344 Q170,222 231,155.5 Q292,89 383,89 Q463,89 515.5,133 Q568,177 582,253 L364,253 L364,357 L704,357 L704,296 Q704,158 618,72.5 Q532,-13 382,-13 Q227,-13 133.5,81.5 Q40,176 40,344"/> 
            <glyph glyph-name="H" unicode="&#x48;" horiz-adv-x="631" d=" M70,0 L70,677 L191,677 L191,410 L510,410 L510,677 L631,677 L631,0 L510,0 L510,306 L191,306 L191,0"/> 
            <glyph glyph-name="I" unicode="&#x49;" horiz-adv-x="191" d=" M70,0 L70,677 L191,677 L191,0"/> 
            <glyph glyph-name="J" unicode="&#x4A;" horiz-adv-x="470" d=" M40,207 L161,207 Q161,139 186,111.5 Q211,84 258,84 Q305,84 327,107.5 Q349,131 349,191 L349,677 L470,677 L470,191 Q470,-13 258,-13 Q40,-13 40,207"/> 
            <glyph glyph-name="K" unicode="&#x4B;" horiz-adv-x="623" d=" M70,0 L70,677 L191,677 L191,410 L241,410 L467,677 L606,677 L330,354 L623,0 L473,0 L224,306 L191,306 L191,0"/> 
            <glyph glyph-name="L" unicode="&#x4C;" horiz-adv-x="510" d=" M70,0 L70,677 L191,677 L191,104 L510,104 L510,0"/> 
            <glyph glyph-name="M" unicode="&#x4D;" horiz-adv-x="741" d=" M70,0 L70,677 L208,677 L405,331 L603,677 L741,677 L741,0 L620,0 L620,500 L446,190 L363,190 L191,493 L191,0"/> 
            <glyph glyph-name="N" unicode="&#x4E;" horiz-adv-x="657" d=" M70,0 L70,677 L208,677 L536,169 L536,677 L657,677 L657,0 L519,0 L191,508 L191,0"/> 
            <glyph glyph-name="O" unicode="&#x4F;" horiz-adv-x="724" d=" M169,344 Q169,228 231,158.5 Q293,89 382,89 Q471,89 533,158.5 Q595,228 595,344 Q595,459 533.5,523.5 Q472,588 382,588 Q292,588 230.5,523.5 Q169,459 169,344 M40,344 Q40,505 134,597.5 Q228,690 382,690 Q536,690 630,597.5 Q724,505 724,344 Q724,182 629.5,84.5 Q535,-13 382,-13 Q229,-13 134.5,84.5 Q40,182 40,344"/> 
            <glyph glyph-name="P" unicode="&#x50;" horiz-adv-x="592" d=" M191,320 L306,320 Q465,322 465,451 Q465,517 423,545 Q381,573 299,573 L191,573 M70,0 L70,677 L300,677 Q592,677 592,451 Q592,335 516.5,275.5 Q441,216 300,216 L191,216 L191,0"/> 
            <glyph glyph-name="Q" unicode="&#x51;" horiz-adv-x="724" d=" M169,344 Q169,228 231,158.5 Q293,89 382,89 Q399,89 408,90 L315,254 L423,309 L517,142 Q595,215 595,344 Q595,459 533.5,523.5 Q472,588 382,588 Q292,588 230.5,523.5 Q169,459 169,344 M40,344 Q40,505 134,597.5 Q228,690 382,690 Q536,690 630,597.5 Q724,505 724,344 Q724,242 685,164 Q646,86 575,40 L699,-177 L561,-177 L462,-5 Q422,-13 382,-13 Q229,-13 134.5,84.5 Q40,182 40,344"/> 
            <glyph glyph-name="R" unicode="&#x52;" horiz-adv-x="592" d=" M191,340 L299,340 Q465,340 465,452 Q465,573 299,573 L191,573 M70,0 L70,677 L300,677 Q440,677 516,619 Q592,561 592,452 Q592,304 447,256 L592,0 L453,0 L319,236 L300,236 L191,236 L191,0"/> 
            <glyph glyph-name="S" unicode="&#x53;" horiz-adv-x="609" d=" M40,213 L166,213 Q166,158 210.5,123.5 Q255,89 338,89 Q404,89 443,115 Q482,141 482,185 Q482,218 459,238 Q436,258 399,268 Q362,278 317.5,285.5 Q273,293 229,305.5 Q185,318 148,338 Q111,358 88,398.5 Q65,439 65,497 Q65,578 135.5,634 Q206,690 328,690 Q401,690 455,670 Q509,650 538,617 Q567,584 580.5,547 Q594,510 594,469 L468,469 Q468,522 435,555 Q402,588 328,588 Q268,588 230,563.5 Q192,539 192,497 Q192,447 235,422 Q278,397 339,387 Q400,377 461.5,362.5 Q523,348 566,304.5 Q609,261 609,185 Q609,98 537,42.5 Q465,-13 338,-13 Q260,-13 200,7 Q140,27 106.5,60.5 Q73,94 56.5,132.5 Q40,171 40,213"/> 
            <glyph glyph-name="T" unicode="&#x54;" horiz-adv-x="549" d=" M20,573 L20,677 L549,677 L549,573 L345,573 L345,0 L224,0 L224,573"/> 
            <glyph glyph-name="U" unicode="&#x55;" horiz-adv-x="601" d=" M60,260 L60,677 L181,677 L181,260 Q181,89 330,89 Q480,89 480,260 L480,677 L601,677 L601,260 Q601,120 526,53.5 Q451,-13 329,-13 Q208,-13 134,53 Q60,119 60,260"/> 
            <glyph glyph-name="V" unicode="&#x56;" horiz-adv-x="668" d=" M20,677 L154,677 L346,165 L539,677 L668,677 L401,0 L290,0"/> 
            <glyph glyph-name="W" unicode="&#x57;" horiz-adv-x="855" d=" M24,677 L137,677 L254,163 L391,677 L490,677 L627,172 L742,677 L855,677 L701,0 L569,0 L439,481 L310,0 L178,0"/> 
            <glyph glyph-name="X" unicode="&#x58;" horiz-adv-x="644" d=" M20,0 L249,338 L28,677 L161,677 L332,406 L503,677 L636,677 L415,338 L644,0 L500,0 L334,264 L158,0"/> 
            <glyph glyph-name="Y" unicode="&#x59;" horiz-adv-x="652" d=" M20,677 L154,677 L339,371 L524,677 L652,677 L398,274 L398,0 L277,0 L277,274"/> 
            <glyph glyph-name="Z" unicode="&#x5A;" horiz-adv-x="546" d=" M20,0 L20,52 L371,573 L20,573 L20,677 L546,677 L546,630 L192,104 L546,104 L546,0"/> 
            <glyph glyph-name="[" unicode="&#x5B;" horiz-adv-x="352" d=" M108,-177 L108,677 L352,677 L352,578 L224,578 L224,-78 L352,-78 L352,-177"/> 
            <glyph glyph-name="\" unicode="&#x5C;" horiz-adv-x="466" d=" M50,777 L174,777 L466,-77 L342,-77"/> 
            <glyph glyph-name="]" unicode="&#x5D;" horiz-adv-x="278" d=" M34,-78 L162,-78 L162,578 L34,578 L34,677 L278,677 L278,-177 L34,-177"/> 
            <glyph glyph-name="_" unicode="&#x5F;" horiz-adv-x="622" d=" M10,42 L622,42 L622,-57 L10,-57"/> 
            <glyph glyph-name="a" unicode="&#x61;" horiz-adv-x="531" d=" M162,330 Q162,176 197.5,130 Q233,84 289,84 Q344,84 378,129.5 Q412,175 412,253 L412,261 Q410,335 376.5,375.5 Q343,416 289,416 Q233,416 162,330 M40,253 Q40,368 103,440.5 Q166,513 266,513 Q365,513 420,424 L440,500 L531,500 L531,0 L440,0 L417,77 Q363,-13 266,-13 Q167,-13 103.5,62 Q40,137 40,253"/> 
            <glyph glyph-name="b" unicode="&#x62;" horiz-adv-x="558" d=" M186,250 Q186,176 218,130 Q250,84 309,84 Q367,84 401.5,130 Q436,176 436,250 Q436,325 402,370.5 Q368,416 309,416 Q251,416 218.5,366.5 Q186,317 186,250 M70,0 L70,677 L186,677 L186,435 Q239,513 332,513 Q435,513 496.5,440 Q558,367 558,250 Q558,134 495,60.5 Q432,-13 332,-13 Q231,-13 178,75 L158,0"/> 
            <glyph glyph-name="c" unicode="&#x63;" horiz-adv-x="503" d=" M40,253 Q40,370 109.5,441.5 Q179,513 290,513 Q402,513 463,440 Q501,394 501,323 L380,323 Q380,363 361,386 Q337,416 285,416 Q232,416 197,372.5 Q162,329 162,253 Q162,177 197,130.5 Q232,84 285,84 Q336,84 362,115 Q382,139 382,179 L503,179 Q503,108 466,62 Q404,-13 290,-13 Q180,-13 110,61 Q40,135 40,253"/> 
            <glyph glyph-name="d" unicode="&#x64;" horiz-adv-x="528" d=" M162,330 Q162,176 197.5,130 Q233,84 289,84 Q343,84 376.5,127 Q410,170 412,245 L412,253 Q412,330 378.5,373 Q345,416 289,416 Q233,416 162,330 M40,253 Q40,368 103,440.5 Q166,513 266,513 Q357,513 412,436 L412,677 L528,677 L528,0 L440,0 L417,77 Q363,-13 266,-13 Q167,-13 103.5,62 Q40,137 40,253"/> 
            <glyph glyph-name="e" unicode="&#x65;" horiz-adv-x="527" d=" M165,310 L407,310 Q406,358 376,390 Q346,422 289,422 Q232,422 199,389.5 Q166,357 165,310 M40,134 Q40,372 108.5,442.5 Q177,513 289,513 Q398,513 462.5,444.5 Q527,376 527,270 L527,233 L163,233 Q165,165 200,124.5 Q235,84 294,84 Q356,84 384,119 Q400,141 400,161 L521,161 Q521,115 487,70 Q422,-13 294,-13 Q182,-13 40,134"/> 
            <glyph glyph-name="f" unicode="&#x66;" horiz-adv-x="347" d=" M20,401 L20,500 L104,500 L104,507 Q104,587 149,632 Q194,677 277,677 L347,677 L347,578 L274,578 Q239,578 224.5,560 Q210,542 208,500 L347,500 L347,401 L220,401 L220,0 L104,0 L104,401"/> 
            <glyph glyph-name="g" unicode="&#x67;" horiz-adv-x="518" d=" M162,338 Q162,206 199,167 Q236,128 289,128 Q340,128 371,169.5 Q402,211 402,272 Q402,333 371.5,374.5 Q341,416 289,416 Q237,416 162,338 M40,272 Q40,378 102,445.5 Q164,513 266,513 Q357,513 410,426 L430,500 L518,500 L518,93 Q518,-43 456,-116.5 Q394,-190 269,-190 Q164,-190 117.5,-149.5 Q71,-109 71,-48 L192,-48 Q192,-67 212.5,-80 Q233,-93 269,-93 Q333,-93 366.5,-51.5 Q400,-10 402,89 L402,106 Q347,31 266,31 Q163,31 101.5,99 Q40,167 40,272"/> 
            <glyph glyph-name="h" unicode="&#x68;" horiz-adv-x="546" d=" M70,0 L70,677 L186,677 L186,434 Q243,513 340,513 Q439,513 492.5,453 Q546,393 546,290 L546,0 L430,0 L430,280 L430,285 Q430,339 399.5,377.5 Q369,416 309,416 Q254,416 221,374.5 Q188,333 186,283 L186,0"/> 
            <glyph glyph-name="i" unicode="&#x69;" horiz-adv-x="200" d=" M70,0 L70,500 L180,500 L180,0 M52,630 Q52,660 73,678.5 Q94,697 126,697 Q158,697 179,678.5 Q200,660 200,630 Q200,599 179,581 Q158,563 126,563 Q94,563 73,581 Q52,599 52,630"/> 
            <glyph glyph-name="j" unicode="&#x6A;" horiz-adv-x="232" d=" M84,630 Q84,660 105,678.5 Q126,697 158,697 Q190,697 211,678.5 Q232,660 232,630 Q232,599 211,581 Q190,563 158,563 Q126,563 105,581 Q84,599 84,630 M5,-72 L33,-72 Q100,-72 100,36 L100,500 L216,500 L216,0 Q216,-82 167.5,-129.5 Q119,-177 42,-177 L5,-177"/> 
            <glyph glyph-name="k" unicode="&#x6B;" horiz-adv-x="521" d=" M70,0 L70,677 L186,677 L186,312 L228,312 L383,500 L513,500 L315,260 L521,0 L381,0 L212,213 L186,213 L186,0"/> 
            <glyph glyph-name="l" unicode="&#x6C;" horiz-adv-x="186" d=" M70,0 L70,677 L186,677 L186,0"/> 
            <glyph glyph-name="m" unicode="&#x6D;" horiz-adv-x="806" d=" M70,0 L70,500 L158,500 L175,433 Q225,513 314,513 Q422,513 448,392 Q503,513 624,513 Q710,513 758,458 Q806,403 806,290 L806,0 L690,0 L690,280 L690,290 Q690,416 599,416 Q554,416 526,374.5 Q498,333 496,283 L496,0 L380,0 L380,290 Q380,416 289,416 Q244,416 216,374.5 Q188,333 186,283 L186,0"/> 
            <glyph glyph-name="n" unicode="&#x6E;" horiz-adv-x="546" d=" M70,0 L70,500 L158,500 L178,424 Q236,513 340,513 Q439,513 492.5,453 Q546,393 546,290 L546,0 L430,0 L430,280 L430,285 Q430,339 399.5,377.5 Q369,416 309,416 Q254,416 221,374.5 Q188,333 186,283 L186,0"/> 
            <glyph glyph-name="o" unicode="&#x6F;" horiz-adv-x="544" d=" M161,328 Q161,178 196,131 Q231,84 292,84 Q353,84 388,131 Q423,178 423,253 Q423,328 388,372 Q353,416 292,416 Q231,416 161,328 M40,253 Q40,368 110,440.5 Q180,513 292,513 Q404,513 474,440.5 Q544,368 544,253 Q544,137 473.5,62 Q403,-13 292,-13 Q181,-13 110.5,62 Q40,137 40,253"/> 
            <glyph glyph-name="p" unicode="&#x70;" horiz-adv-x="558" d=" M186,253 Q186,178 218,131 Q250,84 309,84 Q367,84 401.5,131 Q436,178 436,253 Q436,328 402,372 Q368,416 309,416 Q251,416 218.5,368 Q186,320 186,253 M70,-177 L70,500 L158,500 L177,422 Q231,513 332,513 Q435,513 496.5,441.5 Q558,370 558,253 Q558,137 495,62 Q432,-13 332,-13 Q240,-13 186,64 L186,-177"/> 
            <glyph glyph-name="q" unicode="&#x71;" horiz-adv-x="528" d=" M162,330 Q162,176 197.5,130 Q233,84 289,84 Q343,84 376.5,127 Q410,170 412,245 L412,253 Q412,330 378.5,373 Q345,416 289,416 Q233,416 162,330 M40,253 Q40,368 103,440.5 Q166,513 266,513 Q365,513 420,424 L440,500 L528,500 L528,-177 L412,-177 L412,68 Q356,-13 266,-13 Q167,-13 103.5,62 Q40,137 40,253"/> 
            <glyph glyph-name="r" unicode="&#x72;" horiz-adv-x="340" d=" M70,0 L70,500 L158,500 L181,414 Q221,500 320,500 L340,500 L340,397 L320,397 Q252,397 219.5,357.5 Q187,318 186,255 L186,0"/> 
            <glyph glyph-name="s" unicode="&#x73;" horiz-adv-x="470" d=" M40,157 L161,157 Q161,122 188.5,103 Q216,84 265,84 Q304,84 326,99.5 Q348,115 348,141 Q348,166 318,181 Q288,196 244.5,206 Q201,216 158,230 Q115,244 85,278 Q55,312 55,365 Q55,432 106,472.5 Q157,513 249,513 Q354,513 408.5,463 Q463,413 463,343 L342,343 Q342,378 318,397 Q294,416 249,416 Q215,416 196,400.5 Q177,385 177,359 Q177,335 198.5,320.5 Q220,306 253,299.5 Q286,293 323.5,282.5 Q361,272 394,259 Q427,246 448.5,216 Q470,186 470,141 Q470,73 415.5,30 Q361,-13 265,-13 Q151,-13 95.5,36.5 Q40,86 40,157"/> 
            <glyph glyph-name="t" unicode="&#x74;" horiz-adv-x="347" d=" M20,401 L20,500 L104,500 L104,620 L220,620 L220,500 L347,500 L347,401 L220,401 L220,210 Q220,105 272,105 L347,105 L347,0 L263,0 Q185,0 144.5,49 Q104,98 104,180 L104,401"/> 
            <glyph glyph-name="u" unicode="&#x75;" horiz-adv-x="536" d=" M60,210 L60,500 L176,500 L176,220 L176,213 Q176,160 201.5,122 Q227,84 287,84 Q352,84 385,129 Q418,174 420,226 L420,500 L536,500 L536,0 L448,0 L428,73 Q372,-13 262,-13 Q164,-13 112,45 Q60,103 60,210"/> 
            <glyph glyph-name="v" unicode="&#x76;" horiz-adv-x="556" d=" M20,500 L151,500 L290,154 L430,500 L556,500 L347,0 L232,0"/> 
            <glyph glyph-name="w" unicode="&#x77;" horiz-adv-x="698" d=" M20,500 L128,500 L214,173 L310,500 L410,500 L504,174 L590,500 L698,500 L578,0 L462,0 L359,332 L256,0 L140,0"/> 
            <glyph glyph-name="x" unicode="&#x78;" horiz-adv-x="524" d=" M30,0 L199,251 L38,500 L166,500 L282,313 L388,500 L516,500 L355,251 L524,0 L385,0 L276,181 L163,0"/> 
            <glyph glyph-name="y" unicode="&#x79;" horiz-adv-x="536" d=" M20,500 L146,500 L287,137 L415,500 L536,500 L349,5 Q311,-88 261,-132.5 Q211,-177 132,-177 L83,-177 L83,-72 L129,-72 Q191,-72 226,12"/> 
            <glyph glyph-name="z" unicode="&#x7A;" horiz-adv-x="458" d=" M38,0 L38,47 L289,401 L38,401 L38,500 L458,500 L458,453 L207,99 L458,99 L458,0"/> 
            <glyph glyph-name="{" unicode="&#x7B;" horiz-adv-x="428" d=" M108,198 L108,303 L135,303 Q174,303 187.5,324 Q201,345 201,398 L201,507 Q201,587 246,632 Q291,677 374,677 L428,677 L428,572 L383,572 Q344,572 330.5,551 Q317,530 317,477 L317,368 Q317,281 251,250 Q317,219 317,133 L317,23 Q317,-30 330.5,-51 Q344,-72 383,-72 L428,-72 L428,-177 L374,-177 Q291,-177 246,-132 Q201,-87 201,-7 L201,103 Q201,156 187.5,177 Q174,198 135,198"/> 
            <glyph glyph-name="|" unicode="&#x7C;" horiz-adv-x="190" d=" M74,-77 L74,777 L190,777 L190,-77"/> 
            <glyph glyph-name="}" unicode="&#x7D;" horiz-adv-x="340" d=" M20,-72 L65,-72 Q104,-72 117.5,-51 Q131,-30 131,23 L131,132 Q131,218 197,249 Q131,280 131,367 L131,477 Q131,530 117.5,551 Q104,572 65,572 L20,572 L20,677 L74,677 Q157,677 202,632 Q247,587 247,507 L247,397 Q247,344 260.5,323 Q274,302 313,302 L340,302 L340,197 L313,197 Q274,197 260.5,176 Q247,155 247,102 L247,-7 Q247,-87 202,-132 Q157,-177 74,-177 L20,-177"/> 
            <glyph glyph-name="~" unicode="&#x7E;" horiz-adv-x="634" d=" M20,287 L37,304 Q80,348 108.5,365.5 Q137,383 168,383 Q194,383 232,371 L436,308 Q446,305 457,305 Q489,305 527,344 L560,376 L634,302 L596,264 Q557,226 531,210.5 Q505,195 477,195 Q454,195 410,208 L206,270 Q195,273 186,273 Q153,273 113,234 L95,213"/> 
            <glyph glyph-name="¡" unicode="&#xA1;" horiz-adv-x="218" d=" M78,-177 L78,280 L199,280 L199,-177 M62,435 Q62,470 84.5,491.5 Q107,513 140,513 Q173,513 195.5,491.5 Q218,470 218,435 Q218,399 195.5,378 Q173,357 140,357 Q107,357 84.5,378 Q62,399 62,435"/> 
            <glyph glyph-name="£" unicode="&#xA3;" horiz-adv-x="568" d=" M44,0 L44,69 Q49,72 58,78 Q67,84 89.5,103.5 Q112,123 129,144 Q146,165 160,197.5 Q174,230 174,262 L174,273 L64,273 L64,372 L158,372 Q156,380 150.5,397 Q145,414 142.5,423.5 Q140,433 136.5,447.5 Q133,462 131.5,475.5 Q130,489 130,503 Q130,595 186.5,642.5 Q243,690 338,690 Q436,690 488,638.5 Q540,587 540,514 L419,514 Q419,551 396.5,572 Q374,593 338,593 Q300,593 276,570 Q252,547 252,504 Q252,487 255.5,468 Q259,449 265.5,421.5 Q272,394 276,372 L448,372 L448,273 L284,273 L284,262 Q284,186 226,104 L568,104 L568,0"/> 
            <glyph glyph-name="¥" unicode="&#xA5;" horiz-adv-x="654" d=" M22,677 L145,677 L340,368 L536,677 L654,677 L491,418 L600,418 L600,319 L428,319 L400,274 L400,258 L600,258 L600,159 L400,159 L400,0 L279,0 L279,159 L79,159 L79,258 L279,258 L279,273 L250,319 L79,319 L79,418 L187,418"/> 
            <glyph glyph-name="¦" unicode="&#xA6;" horiz-adv-x="190" d=" M74,423 L74,777 L190,777 L190,423 M74,-77 L74,277 L190,277 L190,-77"/> 
            <glyph glyph-name="§" unicode="&#xA7;" horiz-adv-x="554" d=" M160,330 Q160,262 188.5,232 Q217,202 260,182 L357,137 L365,133 Q368,132 375,132 Q400,132 419,151 Q438,170 438,204 Q438,238 409.5,268 Q381,298 338,318 L241,363 Q235,365 232,367 Q230,367 227,367.5 Q224,368 223,368 Q198,368 160,330 M44,292 Q44,346 74,380.5 Q104,415 149,429 Q114,472 114,534 Q114,602 169.5,646 Q225,690 316,690 Q416,690 469,639.5 Q522,589 522,520 L401,520 Q401,554 378,573.5 Q355,593 315,593 Q277,593 256.5,574.5 Q236,556 236,528 Q236,472 299,444 L390,401 Q554,323 554,208 Q554,154 524,119.5 Q494,85 448,71 Q484,27 484,-34 Q484,-102 428.5,-146 Q373,-190 282,-190 Q182,-190 129,-139.5 Q76,-89 76,-20 L197,-20 Q197,-54 220,-73.5 Q243,-93 283,-93 Q321,-93 341.5,-74.5 Q362,-56 362,-28 Q362,28 299,56 L208,99 Q44,177 44,292"/> 
            <glyph glyph-name="¨" unicode="&#xA8;" horiz-adv-x="306" d=" M158,630 Q158,660 179,678.5 Q200,697 232,697 Q264,697 285,678.5 Q306,660 306,630 Q306,599 285,581 Q264,563 232,563 Q200,563 179,581 Q158,599 158,630 M-26,630 Q-26,660 -5,678.5 Q16,697 48,697 Q80,697 101,678.5 Q122,660 122,630 Q122,599 101,581 Q80,563 48,563 Q16,563 -5,581 Q-26,599 -26,630"/> 
            <glyph glyph-name="©" unicode="&#xA9;" horiz-adv-x="745" d=" M219,261 Q219,429 268.5,479.5 Q318,530 392,530 Q462,530 506,490 Q550,450 550,393 L461,393 Q461,458 394,458 Q357,458 332.5,428 Q308,398 308,345 Q308,292 332.5,259 Q357,226 394,226 Q428,226 445,244.5 Q462,263 462,292 L551,292 Q551,234 507,194 Q463,154 392,154 Q319,154 219,261 M125,345 Q125,216 204.5,139 Q284,62 393,62 Q502,62 581,139 Q660,216 660,345 Q660,473 582,544 Q504,615 393,615 Q282,615 203.5,544 Q125,473 125,345 M40,344 Q40,504 138.5,597 Q237,690 392,690 Q547,690 646,597 Q745,504 745,344 Q745,183 645.5,85 Q546,-13 392,-13 Q238,-13 139,85 Q40,183 40,344"/> 
            <glyph glyph-name="«" unicode="&#xAB;" horiz-adv-x="550" d=" M254,263 L427,460 L550,460 L381,263 L550,66 L427,66 M24,263 L197,460 L320,460 L151,263 L320,66 L197,66"/> 
            <glyph glyph-name="­" unicode="&#xAD;" horiz-adv-x="352" d=" M40,233 L40,332 L352,332 L352,233"/> 
            <glyph glyph-name="®" unicode="&#xAE;" horiz-adv-x="618" d=" M291,418 L348,418 Q394,419 394,453 Q394,482 342,482 L291,482 M218,258 L218,546 L348,546 Q402,546 433.5,521 Q465,496 465,453 Q465,390 400,367 L460,258 L379,258 L324,358 L291,358 L291,258 M112,408 Q112,303 176.5,241 Q241,179 329,179 Q418,179 481.5,241 Q545,303 545,408 Q545,511 482,568.5 Q419,626 329,626 Q240,626 176,568.5 Q112,511 112,408 M40,407 Q40,538 120.5,614 Q201,690 328,690 Q455,690 536.5,614 Q618,538 618,407 Q618,275 536.5,195 Q455,115 328,115 Q202,115 121,195 Q40,275 40,407"/> 
            <glyph glyph-name="°" unicode="&#xB0;" horiz-adv-x="347" d=" M130,489 Q130,415 148,391 Q166,367 196,367 Q226,367 243.5,390.5 Q261,414 261,452 Q261,489 243.5,511 Q226,533 196,533 Q165,533 130,489 M44,383 Q44,521 86,564 Q128,607 195,607 Q263,607 305,564.5 Q347,522 347,452 Q347,383 304.5,337.5 Q262,292 195,292 Q129,292 44,383"/> 
            <glyph glyph-name="±" unicode="&#xB1;" horiz-adv-x="452" d=" M70,21 L70,120 L422,120 L422,21 M40,383 L40,482 L194,482 L194,640 L298,640 L298,482 L452,482 L452,383 L298,383 L298,220 L194,220 L194,383"/> 
            <glyph glyph-name="²" unicode="&#xB2;" horiz-adv-x="317" d=" M18,614 Q18,660 54,697.5 Q90,735 169,735 Q239,735 278,699 Q317,663 317,607 Q317,527 195,419 L173,399 L317,399 L317,320 L24,320 L24,361 L131,468 Q223,552 223,608 Q223,666 168,666 Q143,666 127,652.5 Q111,639 111,614"/> 
            <glyph glyph-name="³" unicode="&#xB3;" horiz-adv-x="329" d=" M18,435 L111,435 Q111,410 128,395.5 Q145,381 171,381 Q198,381 217,396 Q236,411 236,437 Q236,464 213,478 Q190,492 160,492 L101,492 L101,565 L159,565 Q188,565 207.5,581 Q227,597 227,619 Q227,640 211.5,653 Q196,666 169,666 Q144,666 128.5,652.5 Q113,639 113,614 L20,614 Q20,660 55.5,697.5 Q91,735 169,735 Q238,735 279,701.5 Q320,668 320,619 Q320,556 243,535 Q329,507 329,437 Q329,380 287,345.5 Q245,311 171,311 Q99,311 58.5,348 Q18,385 18,435"/> 
            <glyph glyph-name="µ" unicode="&#xB5;" horiz-adv-x="546" d=" M70,-177 L70,500 L186,500 L186,220 L186,213 Q186,160 211.5,122 Q237,84 297,84 Q343,84 375,110 Q407,136 418.5,167.5 Q430,199 430,231 L430,500 L546,500 L546,0 L458,0 L439,69 Q388,-12 292,-13 L287,-13 Q221,-13 186,24 L186,-177"/> 
            <glyph glyph-name="¶" unicode="&#xB6;" horiz-adv-x="610" d=" M39,496 Q39,576 104.5,626.5 Q170,677 269,677 L610,677 L610,-177 L489,-177 L489,573 L390,573 L390,-177 L269,-177 L269,294 Q167,294 103,346.5 Q39,399 39,496"/> 
            <glyph glyph-name="·" unicode="&#xB7;" horiz-adv-x="218" d=" M62,255 Q62,290 84.5,311.5 Q107,333 140,333 Q173,333 195.5,311.5 Q218,290 218,255 Q218,219 195.5,198 Q173,177 140,177 Q107,177 84.5,198 Q62,219 62,255"/> 
            <glyph glyph-name="¹" unicode="&#xB9;" horiz-adv-x="176" d=" M24,648 L24,726 L176,726 L176,320 L86,320 L86,648"/> 
            <glyph glyph-name="»" unicode="&#xBB;" horiz-adv-x="550" d=" M254,66 L422,263 L254,460 L377,460 L550,263 L377,66 M24,66 L192,263 L24,460 L147,460 L320,263 L147,66"/> 
            <glyph glyph-name="¼" unicode="&#xBC;" horiz-adv-x="736" d=" M487,118 L593,118 L593,259 M402,45 L402,130 L581,356 L686,356 L686,118 L736,118 L736,45 L686,45 L686,-50 L593,-50 L593,45 M61,0 L524,677 L633,677 L170,0 M24,648 L24,726 L176,726 L176,320 L86,320 L86,648"/> 
            <glyph glyph-name="½" unicode="&#xBD;" horiz-adv-x="781" d=" M482,244 Q482,290 518,327.5 Q554,365 633,365 Q703,365 742,329 Q781,293 781,237 Q781,157 659,49 L637,29 L781,29 L781,-50 L488,-50 L488,-9 L595,98 Q687,182 687,238 Q687,296 632,296 Q607,296 591,282.5 Q575,269 575,244 M61,0 L524,677 L633,677 L170,0 M24,648 L24,726 L176,726 L176,320 L86,320 L86,648"/> 
            <glyph glyph-name="¾" unicode="&#xBE;" horiz-adv-x="840" d=" M591,118 L697,118 L697,259 M506,45 L506,130 L685,356 L790,356 L790,118 L840,118 L840,45 L790,45 L790,-50 L697,-50 L697,45 M165,0 L628,677 L737,677 L274,0 M18,435 L111,435 Q111,410 128,395.5 Q145,381 171,381 Q198,381 217,396 Q236,411 236,437 Q236,464 213,478 Q190,492 160,492 L101,492 L101,565 L159,565 Q188,565 207.5,581 Q227,597 227,619 Q227,640 211.5,653 Q196,666 169,666 Q144,666 128.5,652.5 Q113,639 113,614 L20,614 Q20,660 55.5,697.5 Q91,735 169,735 Q238,735 279,701.5 Q320,668 320,619 Q320,556 243,535 Q329,507 329,437 Q329,380 287,345.5 Q245,311 171,311 Q99,311 58.5,348 Q18,385 18,435"/> 
            <glyph glyph-name="¿" unicode="&#xBF;" horiz-adv-x="498" d=" M198,435 Q198,470 220.5,491.5 Q243,513 276,513 Q309,513 331.5,491.5 Q354,470 354,435 Q354,399 331.5,378 Q309,357 276,357 Q243,357 220.5,378 Q198,399 198,435 M44,-4 Q44,33 61.5,66.5 Q79,100 104.5,125 Q130,150 155,173.5 Q180,197 197.5,224.5 Q215,252 215,280 L324,280 Q324,240 307.5,205.5 Q291,171 268,147 Q245,123 222,100.5 Q199,78 182.5,51 Q166,24 166,-4 Q166,-93 275,-93 Q322,-93 349.5,-68 Q377,-43 377,0 L498,0 Q498,-34 486,-65.5 Q474,-97 449.5,-126 Q425,-155 379.5,-172.5 Q334,-190 274,-190 Q168,-190 106,-138.5 Q44,-87 44,-4"/> 
            <glyph glyph-name="Æ" unicode="&#xC6;" horiz-adv-x="814" d=" M250,258 L426,258 L369,541 M10,0 L317,677 L814,677 L814,573 L472,573 L511,410 L754,410 L754,306 L535,306 L583,104 L814,104 L814,0 L479,0 L447,154 L205,154 L138,0"/> 
            <glyph glyph-name="×" unicode="&#xD7;" horiz-adv-x="431" d=" M61,442 L134,515 L431,218 L358,145"/> 
            <glyph glyph-name="æ" unicode="&#xE6;" horiz-adv-x="899" d=" M538,310 L777,310 Q764,422 661,422 Q559,422 538,310 M162,330 Q162,176 197.5,130 Q233,84 289,84 Q344,84 378,129.5 Q412,175 412,253 L412,261 Q410,335 376.5,375.5 Q343,416 289,416 Q233,416 162,330 M40,253 Q40,368 103,440.5 Q166,513 266,513 Q365,513 420,424 L440,500 L531,500 L531,451 Q578,513 677,513 Q778,513 838.5,444.5 Q899,376 899,270 L899,233 L535,233 Q540,162 576,123 Q612,84 666,84 Q715,84 743.5,109.5 Q772,135 772,161 L893,161 Q893,101 833.5,44 Q774,-13 682,-13 Q579,-13 531,52 L531,0 L440,0 L417,77 Q363,-13 266,-13 Q167,-13 103.5,62 Q40,137 40,253"/> 
            <glyph glyph-name="÷" unicode="&#xF7;" horiz-adv-x="472" d=" M168,459 Q168,494 190.5,515.5 Q213,537 246,537 Q279,537 301.5,515.5 Q324,494 324,459 Q324,423 301.5,402 Q279,381 246,381 Q213,381 190.5,402 Q168,423 168,459 M168,106 Q168,141 190.5,162.5 Q213,184 246,184 Q279,184 301.5,162.5 Q324,141 324,106 Q324,70 301.5,49 Q279,28 246,28 Q213,28 190.5,49 Q168,70 168,106 M20,233 L20,332 L472,332 L472,233"/> 
            <glyph glyph-name="ı" unicode="&#x131;" horiz-adv-x="180" d=" M70,0 L70,500 L180,500 L180,0"/> 
            <glyph glyph-name="Œ" unicode="&#x152;" horiz-adv-x="1074" d=" M170,344 Q170,228 232,158.5 Q294,89 383,89 Q472,89 534,158.5 Q596,228 596,344 Q596,459 534.5,523.5 Q473,588 383,588 Q293,588 231.5,523.5 Q170,459 170,344 M40,344 Q40,505 132.5,597.5 Q225,690 376,690 Q526,690 604,601 L604,677 L1074,677 L1074,573 L725,573 L725,410 L1014,410 L1014,306 L725,306 L725,104 L1074,104 L1074,0 L604,0 L604,81 Q524,-13 376,-13 Q226,-13 133,84.5 Q40,182 40,344"/> 
            <glyph glyph-name="œ" unicode="&#x153;" horiz-adv-x="911" d=" M550,310 L789,310 Q776,422 673,422 Q571,422 550,310 M161,328 Q161,178 196,131 Q231,84 292,84 Q353,84 388,131 Q423,178 423,253 Q423,328 388,372 Q353,416 292,416 Q231,416 161,328 M40,253 Q40,368 110,440.5 Q180,513 292,513 Q423,513 495,415 Q547,513 679,513 Q787,513 849,445 Q911,377 911,270 L911,233 L547,233 Q552,162 588,123 Q624,84 678,84 Q727,84 755.5,109.5 Q784,135 784,161 L905,161 Q905,101 844,44 Q783,-13 684,-13 Q547,-13 495,88 Q423,-13 292,-13 Q181,-13 110.5,62 Q40,137 40,253"/> 
            <glyph glyph-name="˘" unicode="&#x2D8;" horiz-adv-x="474" d=" M126,677 L238,677 Q240,661 255,645 Q270,629 293,629 L307,629 Q330,629 345,645 Q360,661 362,677 L474,677 Q466,626 419,591 Q372,556 310,556 L290,556 Q228,556 181,591 Q134,626 126,677"/> 
            <glyph glyph-name="˙" unicode="&#x2D9;" horiz-adv-x="214" d=" M66,630 Q66,660 87,678.5 Q108,697 140,697 Q172,697 193,678.5 Q214,660 214,630 Q214,599 193,581 Q172,563 140,563 Q108,563 87,581 Q66,599 66,630"/> 
            <glyph glyph-name="΄" unicode="&#x384;" horiz-adv-x="213" d=" M81,557 L107,709 L213,709 L187,557"/> 
            <glyph glyph-name="΅" unicode="&#x385;" horiz-adv-x="344" d=" M224,616 Q224,642 240.5,657.5 Q257,673 284,673 Q310,673 327,657.5 Q344,642 344,616 Q344,590 327,574.5 Q310,559 284,559 Q257,559 240.5,574 Q224,589 224,616 M81,557 L107,709 L213,709 L187,557 M-58,616 Q-58,642 -41.5,657.5 Q-25,673 2,673 Q28,673 45,657.5 Q62,642 62,616 Q62,590 45,574.5 Q28,559 2,559 Q-25,559 -41.5,574 Q-58,589 -58,616"/> 
            <glyph glyph-name="Ά" unicode="&#x386;" horiz-adv-x="701" d=" M269,258 L480,258 L374,555 M62,557 L88,709 L194,709 L168,557 M53,0 L310,677 L441,677 L701,0 L572,0 L517,154 L232,154 L177,0"/> 
            <glyph glyph-name="Έ" unicode="&#x388;" horiz-adv-x="637" d=" M167,0 L167,677 L637,677 L637,573 L288,573 L288,410 L577,410 L577,306 L288,306 L288,104 L637,104 L637,0 M10,557 L36,709 L142,709 L116,557"/> 
            <glyph glyph-name="Ή" unicode="&#x389;" horiz-adv-x="732" d=" M171,0 L171,677 L292,677 L292,410 L611,410 L611,677 L732,677 L732,0 L611,0 L611,306 L292,306 L292,0 M10,557 L36,709 L142,709 L116,557"/> 
            <glyph glyph-name="Ί" unicode="&#x38A;" horiz-adv-x="288" d=" M167,0 L167,677 L288,677 L288,0 M10,557 L36,709 L142,709 L116,557"/> 
            <glyph glyph-name="Ό" unicode="&#x38C;" horiz-adv-x="774" d=" M219,344 Q219,228 281,158.5 Q343,89 432,89 Q521,89 583,158.5 Q645,228 645,344 Q645,459 583.5,523.5 Q522,588 432,588 Q342,588 280.5,523.5 Q219,459 219,344 M90,344 Q90,505 184,597.5 Q278,690 432,690 Q586,690 680,597.5 Q774,505 774,344 Q774,182 679.5,84.5 Q585,-13 432,-13 Q279,-13 184.5,84.5 Q90,182 90,344 M10,557 L36,709 L142,709 L116,557"/> 
            <glyph glyph-name="Ύ" unicode="&#x38E;" horiz-adv-x="791" d=" M159,677 L293,677 L478,371 L663,677 L791,677 L537,274 L537,0 L416,0 L416,274 M10,557 L36,709 L142,709 L116,557"/> 
            <glyph glyph-name="Ώ" unicode="&#x38F;" horiz-adv-x="815" d=" M127,0 L127,104 L264,104 Q137,223 137,369 Q137,513 227.5,601.5 Q318,690 472,690 Q625,690 715,601.5 Q805,513 805,369 Q805,225 678,104 L815,104 L815,0 L518,0 L518,79 Q525,83 535.5,90.5 Q546,98 573.5,124.5 Q601,151 622,182 Q643,213 660.5,263.5 Q678,314 678,369 Q678,464 619.5,526 Q561,588 471,588 Q381,588 322.5,526 Q264,464 264,369 Q264,314 280.5,264 Q297,214 320.5,181.5 Q344,149 368,125 Q392,101 408,90 L425,79 L425,0 M42,557 L68,709 L174,709 L148,557"/> 
            <glyph glyph-name="ΐ" unicode="&#x390;" horiz-adv-x="325" d=" M205,616 Q205,642 221.5,657.5 Q238,673 265,673 Q291,673 308,657.5 Q325,642 325,616 Q325,590 308,574.5 Q291,559 265,559 Q238,559 221.5,574 Q205,589 205,616 M62,557 L88,709 L194,709 L168,557 M60,141 L60,500 L176,500 L176,169 Q176,128 187.5,111 Q199,94 230,94 L230,0 Q133,0 96.5,32 Q60,64 60,141 M-77,616 Q-77,642 -60.5,657.5 Q-44,673 -17,673 Q9,673 26,657.5 Q43,642 43,616 Q43,590 26,574.5 Q9,559 -17,559 Q-44,559 -60.5,574 Q-77,589 -77,616"/> 
            <glyph glyph-name="Α" unicode="&#x391;" horiz-adv-x="668" d=" M236,258 L447,258 L341,555 M20,0 L277,677 L408,677 L668,0 L539,0 L484,154 L199,154 L144,0"/> 
            <glyph glyph-name="Β" unicode="&#x392;" horiz-adv-x="612" d=" M191,394 L299,394 Q455,394 455,488 Q455,573 309,573 L191,573 M191,104 L339,104 Q485,104 485,201 Q485,247 443,271.5 Q401,296 329,296 L191,296 M70,0 L70,677 L310,677 Q443,677 512.5,628.5 Q582,580 582,498 Q582,388 478,351 Q612,310 612,191 Q612,101 543,50.5 Q474,0 340,0"/> 
            <glyph glyph-name="Γ" unicode="&#x393;" horiz-adv-x="446" d=" M70,0 L70,677 L446,677 L446,573 L191,573 L191,0"/> 
            <glyph glyph-name="Δ" unicode="&#x394;" horiz-adv-x="668" d=" M178,104 L504,104 L341,522 M20,0 L287,677 L398,677 L668,0"/> 
            <glyph glyph-name="Ε" unicode="&#x395;" horiz-adv-x="540" d=" M70,0 L70,677 L540,677 L540,573 L191,573 L191,410 L480,410 L480,306 L191,306 L191,104 L540,104 L540,0"/> 
            <glyph glyph-name="Ζ" unicode="&#x396;" horiz-adv-x="546" d=" M20,0 L20,52 L371,573 L20,573 L20,677 L546,677 L546,630 L192,104 L546,104 L546,0"/> 
            <glyph glyph-name="Η" unicode="&#x397;" horiz-adv-x="631" d=" M70,0 L70,677 L191,677 L191,410 L510,410 L510,677 L631,677 L631,0 L510,0 L510,306 L191,306 L191,0"/> 
            <glyph glyph-name="Θ" unicode="&#x398;" horiz-adv-x="724" d=" M241,287 L241,391 L523,391 L523,287 M169,344 Q169,228 231,158.5 Q293,89 382,89 Q471,89 533,158.5 Q595,228 595,344 Q595,459 533.5,523.5 Q472,588 382,588 Q292,588 230.5,523.5 Q169,459 169,344 M40,344 Q40,505 134,597.5 Q228,690 382,690 Q536,690 630,597.5 Q724,505 724,344 Q724,182 629.5,84.5 Q535,-13 382,-13 Q229,-13 134.5,84.5 Q40,182 40,344"/> 
            <glyph glyph-name="Ι" unicode="&#x399;" horiz-adv-x="191" d=" M70,0 L70,677 L191,677 L191,0"/> 
            <glyph glyph-name="Κ" unicode="&#x39A;" horiz-adv-x="623" d=" M70,0 L70,677 L191,677 L191,410 L241,410 L467,677 L606,677 L330,354 L623,0 L473,0 L224,306 L191,306 L191,0"/> 
            <glyph glyph-name="Λ" unicode="&#x39B;" horiz-adv-x="668" d=" M20,0 L287,677 L398,677 L668,0 L539,0 L341,506 L144,0"/> 
            <glyph glyph-name="Μ" unicode="&#x39C;" horiz-adv-x="741" d=" M70,0 L70,677 L208,677 L405,331 L603,677 L741,677 L741,0 L620,0 L620,500 L446,190 L363,190 L191,493 L191,0"/> 
            <glyph glyph-name="Ν" unicode="&#x39D;" horiz-adv-x="657" d=" M70,0 L70,677 L208,677 L536,169 L536,677 L657,677 L657,0 L519,0 L191,508 L191,0"/> 
            <glyph glyph-name="Ξ" unicode="&#x39E;" horiz-adv-x="554" d=" M100,296 L100,400 L474,400 L474,296 M20,573 L20,677 L554,677 L554,573 M20,0 L20,104 L554,104 L554,0"/> 
            <glyph glyph-name="Ο" unicode="&#x39F;" horiz-adv-x="724" d=" M169,344 Q169,228 231,158.5 Q293,89 382,89 Q471,89 533,158.5 Q595,228 595,344 Q595,459 533.5,523.5 Q472,588 382,588 Q292,588 230.5,523.5 Q169,459 169,344 M40,344 Q40,505 134,597.5 Q228,690 382,690 Q536,690 630,597.5 Q724,505 724,344 Q724,182 629.5,84.5 Q535,-13 382,-13 Q229,-13 134.5,84.5 Q40,182 40,344"/> 
            <glyph glyph-name="Π" unicode="&#x3A0;" horiz-adv-x="605" d=" M54,0 L54,677 L605,677 L605,0 L484,0 L484,573 L175,573 L175,0"/> 
            <glyph glyph-name="Ρ" unicode="&#x3A1;" horiz-adv-x="592" d=" M191,320 L306,320 Q465,322 465,451 Q465,517 423,545 Q381,573 299,573 L191,573 M70,0 L70,677 L300,677 Q592,677 592,451 Q592,335 516.5,275.5 Q441,216 300,216 L191,216 L191,0"/> 
            <glyph glyph-name="Σ" unicode="&#x3A3;" horiz-adv-x="546" d=" M20,0 L20,52 L215,340 L20,630 L20,677 L539,677 L539,573 L195,573 L351,341 L191,104 L546,104 L546,0"/> 
            <glyph glyph-name="Τ" unicode="&#x3A4;" horiz-adv-x="549" d=" M20,573 L20,677 L549,677 L549,573 L345,573 L345,0 L224,0 L224,573"/> 
            <glyph glyph-name="Υ" unicode="&#x3A5;" horiz-adv-x="652" d=" M20,677 L154,677 L339,371 L524,677 L652,677 L398,274 L398,0 L277,0 L277,274"/> 
            <glyph glyph-name="Φ" unicode="&#x3A6;" horiz-adv-x="803" d=" M482,190 L506,190 Q583,190 629.5,231 Q676,272 676,353 Q676,430 631,468.5 Q586,507 506,507 L482,507 M167,353 Q167,272 213.5,231 Q260,190 337,190 L361,190 L361,507 L337,507 Q257,507 212,468.5 Q167,430 167,353 M40,353 Q40,471 118,540 Q196,609 336,609 L361,609 L361,677 L482,677 L482,609 L507,609 Q647,609 725,540 Q803,471 803,353 Q803,232 723,160 Q643,88 507,88 L482,88 L482,0 L361,0 L361,88 L336,88 Q200,88 120,160 Q40,232 40,353"/> 
            <glyph glyph-name="Χ" unicode="&#x3A7;" horiz-adv-x="644" d=" M20,0 L249,338 L28,677 L161,677 L332,406 L503,677 L636,677 L415,338 L644,0 L500,0 L334,264 L158,0"/> 
            <glyph glyph-name="Ψ" unicode="&#x3A8;" horiz-adv-x="721" d=" M40,483 L40,677 L156,677 L156,483 Q156,404 201,363 Q246,322 320,320 L320,677 L441,677 L441,320 Q515,322 560,363 Q605,404 605,483 L605,677 L721,677 L721,483 Q721,362 647,290.5 Q573,219 441,218 L441,0 L320,0 L320,218 Q188,219 114,290.5 Q40,362 40,483"/> 
            <glyph glyph-name="Ω" unicode="&#x3A9;" horiz-adv-x="728" d=" M40,0 L40,104 L177,104 Q50,223 50,369 Q50,513 140.5,601.5 Q231,690 385,690 Q538,690 628,601.5 Q718,513 718,369 Q718,225 591,104 L728,104 L728,0 L431,0 L431,79 Q438,83 448.5,90.5 Q459,98 486.5,124.5 Q514,151 535,182 Q556,213 573.5,263.5 Q591,314 591,369 Q591,464 532.5,526 Q474,588 384,588 Q294,588 235.5,526 Q177,464 177,369 Q177,314 193.5,264 Q210,214 234,181.5 Q258,149 281.5,125 Q305,101 322,90 L338,79 L338,0"/> 
            <glyph glyph-name="Ϊ" unicode="&#x3AA;" horiz-adv-x="297" d=" M149,807 Q149,837 170,855.5 Q191,874 223,874 Q255,874 276,855.5 Q297,837 297,807 Q297,776 276,758 Q255,740 223,740 Q191,740 170,758 Q149,776 149,807 M70,0 L70,677 L191,677 L191,0 M-35,807 Q-35,837 -14,855.5 Q7,874 39,874 Q71,874 92,855.5 Q113,837 113,807 Q113,776 92,758 Q71,740 39,740 Q7,740 -14,758 Q-35,776 -35,807"/> 
            <glyph glyph-name="Ϋ" unicode="&#x3AB;" horiz-adv-x="652" d=" M357,807 Q357,837 378,855.5 Q399,874 431,874 Q463,874 484,855.5 Q505,837 505,807 Q505,776 484,758 Q463,740 431,740 Q399,740 378,758 Q357,776 357,807 M173,807 Q173,837 194,855.5 Q215,874 247,874 Q279,874 300,855.5 Q321,837 321,807 Q321,776 300,758 Q279,740 247,740 Q215,740 194,758 Q173,776 173,807 M20,677 L154,677 L339,371 L524,677 L652,677 L398,274 L398,0 L277,0 L277,274"/> 
            <glyph glyph-name="ά" unicode="&#x3AC;" horiz-adv-x="582" d=" M222,557 L248,709 L354,709 L328,557 M162,330 Q162,176 197.5,130 Q233,84 289,84 Q343,84 376.5,127 Q410,170 412,245 L412,253 Q412,330 378.5,373 Q345,416 289,416 Q233,416 162,330 M40,253 Q40,368 103,440.5 Q166,513 266,513 Q365,513 420,424 L440,500 L528,500 L528,169 Q528,128 539.5,111 Q551,94 582,94 L582,0 Q505,0 472.5,25.5 Q440,51 435,111 Q381,-13 266,-13 Q167,-13 103.5,62 Q40,137 40,253"/> 
            <glyph glyph-name="έ" unicode="&#x3AD;" horiz-adv-x="476" d=" M197,557 L223,709 L329,709 L303,557 M40,135 Q40,234 166,259 Q50,282 50,365 Q50,431 106.5,472 Q163,513 258,513 Q363,513 414.5,463.5 Q466,414 466,347 L345,347 Q345,416 258,416 Q172,416 172,359 Q172,305 264,302 L324,302 L324,203 L257,203 Q214,203 188,188 Q162,173 162,151 Q162,84 248,84 Q301,84 328,103 Q355,122 355,153 L476,153 Q476,86 419,36.5 Q362,-13 248,-13 Q153,-13 96.5,28 Q40,69 40,135"/> 
            <glyph glyph-name="ή" unicode="&#x3AE;" horiz-adv-x="546" d=" M253,557 L279,709 L385,709 L359,557 M70,0 L70,500 L158,500 L178,424 Q236,513 340,513 Q439,513 492.5,453 Q546,393 546,290 L546,-177 L430,-177 L430,280 L430,285 Q430,339 399.5,377.5 Q369,416 309,416 Q254,416 221,374.5 Q188,333 186,283 L186,0"/> 
            <glyph glyph-name="ί" unicode="&#x3AF;" horiz-adv-x="230" d=" M64,557 L90,709 L196,709 L170,557 M60,141 L60,500 L176,500 L176,169 Q176,128 187.5,111 Q199,94 230,94 L230,0 Q133,0 96.5,32 Q60,64 60,141"/> 
            <glyph glyph-name="ΰ" unicode="&#x3B0;" horiz-adv-x="516" d=" M369,616 Q369,642 385.5,657.5 Q402,673 429,673 Q455,673 472,657.5 Q489,642 489,616 Q489,590 472,574.5 Q455,559 429,559 Q402,559 385.5,574 Q369,589 369,616 M226,557 L252,709 L358,709 L332,557 M87,616 Q87,642 103.5,657.5 Q120,673 147,673 Q173,673 190,657.5 Q207,642 207,616 Q207,590 190,574.5 Q173,559 147,559 Q120,559 103.5,574 Q87,589 87,616 M60,220 L60,500 L176,500 L176,220 Q176,166 202.5,125 Q229,84 289,84 Q347,84 373.5,125 Q400,166 400,220 L400,500 L516,500 L516,220 Q516,-13 288,-13 Q60,-13 60,220"/> 
            <glyph glyph-name="α" unicode="&#x3B1;" horiz-adv-x="582" d=" M162,330 Q162,176 197.5,130 Q233,84 289,84 Q343,84 376.5,127 Q410,170 412,245 L412,261 Q410,335 376.5,375.5 Q343,416 289,416 Q233,416 162,330 M40,253 Q40,368 103,440.5 Q166,513 266,513 Q365,513 420,424 L440,500 L528,500 L528,169 Q528,128 539.5,111 Q551,94 582,94 L582,0 Q505,0 472.5,25.5 Q440,51 435,111 Q381,-13 266,-13 Q167,-13 103.5,62 Q40,137 40,253"/> 
            <glyph glyph-name="β" unicode="&#x3B2;" horiz-adv-x="552" d=" M186,206 Q186,155 223.5,119.5 Q261,84 323,84 Q375,84 402.5,114 Q430,144 430,195 Q430,243 392,273.5 Q354,304 284,306 L242,306 L242,405 L265,405 Q323,406 352.5,435 Q382,464 382,506 Q382,542 356.5,567.5 Q331,593 286,593 Q236,593 212,554 Q188,515 186,425 M70,-177 L70,451 Q70,563 127,626.5 Q184,690 286,690 Q379,690 441.5,638 Q504,586 504,512 Q504,394 372,363 Q455,351 503.5,307.5 Q552,264 552,189 Q552,100 492.5,43.5 Q433,-13 344,-13 Q239,-13 186,48 L186,-177"/> 
            <glyph glyph-name="γ" unicode="&#x3B3;" horiz-adv-x="547" d=" M10,500 L141,500 L281,146 L421,500 L547,500 L335,0 L335,-177 L225,-177 L225,0"/> 
            <glyph glyph-name="δ" unicode="&#x3B4;" horiz-adv-x="545" d=" M162,235 Q162,168 197.5,126 Q233,84 293,84 Q353,84 388.5,126 Q424,168 424,235 Q424,300 389,338 Q354,376 293,376 Q232,376 197,338 Q162,300 162,235 M40,235 Q40,307 73.5,362 Q107,417 166,446 Q109,477 109,538 Q109,604 165,640.5 Q221,677 320,677 L404,677 L404,572 L317,572 Q231,572 231,523 Q231,473 292,473 Q404,473 474.5,407 Q545,341 545,235 Q545,128 474,57.5 Q403,-13 292,-13 Q181,-13 110.5,57.5 Q40,128 40,235"/> 
            <glyph glyph-name="ε" unicode="&#x3B5;" horiz-adv-x="476" d=" M40,135 Q40,234 166,259 Q50,282 50,365 Q50,431 106.5,472 Q163,513 258,513 Q363,513 414.5,463.5 Q466,414 466,347 L345,347 Q345,416 258,416 Q172,416 172,359 Q172,302 275,302 L324,302 L324,203 L257,203 Q214,203 188,188 Q162,173 162,151 Q162,84 248,84 Q301,84 328,103 Q355,122 355,153 L476,153 Q476,86 419,36.5 Q362,-13 248,-13 Q153,-13 96.5,28 Q40,69 40,135"/> 
            <glyph glyph-name="ζ" unicode="&#x3B6;" horiz-adv-x="466" d=" M40,190 Q40,329 278,578 L64,578 L64,677 L466,677 L466,630 Q454,618 433.5,597.5 Q413,577 360.5,518.5 Q308,460 268,407.5 Q228,355 195,293 Q162,231 162,190 Q162,150 190,123.5 Q218,97 266,97 Q466,97 466,-39 Q466,-177 249,-177 L249,-86 Q341,-86 341,-39 Q341,-16 323,-8 Q305,0 266,0 Q157,0 98.5,51 Q40,102 40,190"/> 
            <glyph glyph-name="η" unicode="&#x3B7;" horiz-adv-x="546" d=" M70,0 L70,500 L158,500 L178,424 Q236,513 340,513 Q439,513 492.5,453 Q546,393 546,290 L546,-177 L430,-177 L430,280 L430,285 Q430,339 399.5,377.5 Q369,416 309,416 Q254,416 221,374.5 Q188,333 186,283 L186,0"/> 
            <glyph glyph-name="θ" unicode="&#x3B8;" horiz-adv-x="546" d=" M157,399 L428,399 Q422,505 388.5,549 Q355,593 293,593 Q231,593 197,549 Q163,505 157,399 M157,300 Q162,184 195,134 Q228,84 293,84 Q358,84 391,134.5 Q424,185 429,300 M40,345 Q40,521 110.5,605.5 Q181,690 292,690 Q404,690 475,605 Q546,520 546,345 Q546,167 476.5,77 Q407,-13 292,-13 Q178,-13 109,77 Q40,167 40,345"/> 
            <glyph glyph-name="ι" unicode="&#x3B9;" horiz-adv-x="230" d=" M60,141 L60,500 L176,500 L176,169 Q176,128 187.5,111 Q199,94 230,94 L230,0 Q133,0 96.5,32 Q60,64 60,141"/> 
            <glyph glyph-name="κ" unicode="&#x3BA;" horiz-adv-x="521" d=" M70,0 L70,500 L186,500 L186,312 L228,312 L383,500 L513,500 L315,260 L521,0 L381,0 L212,213 L186,213 L186,0"/> 
            <glyph glyph-name="λ" unicode="&#x3BB;" horiz-adv-x="535" d=" M10,0 L218,491 Q206,534 185,553 Q164,572 129,572 L130,677 Q220,677 264,634.5 Q308,592 339,495 L439,209 Q462,150 483,122.5 Q504,95 535,95 L535,0 Q453,0 404.5,40 Q356,80 328,172 L274,349 L136,0"/> 
            <glyph glyph-name="μ" unicode="&#x3BC;" horiz-adv-x="546" d=" M70,-177 L70,500 L186,500 L186,220 L186,213 Q186,160 211.5,122 Q237,84 297,84 Q343,84 375,110 Q407,136 418.5,167.5 Q430,199 430,231 L430,500 L546,500 L546,0 L458,0 L439,69 Q388,-12 292,-13 L287,-13 Q221,-13 186,24 L186,-177"/> 
            <glyph glyph-name="ν" unicode="&#x3BD;" horiz-adv-x="556" d=" M20,500 L151,500 L290,154 L430,500 L556,500 L347,0 L232,0"/> 
            <glyph glyph-name="ξ" unicode="&#x3BE;" horiz-adv-x="466" d=" M40,195 Q40,335 188,362 Q50,392 50,512 Q50,587 107.5,638.5 Q165,690 258,690 Q363,690 414.5,640.5 Q466,591 466,524 L345,524 Q345,593 258,593 Q216,593 194,567.5 Q172,542 172,506 Q172,464 201,435 Q230,406 288,405 L404,405 L404,306 L277,306 Q224,306 193,278.5 Q162,251 162,205 Q162,154 192,125.5 Q222,97 282,97 Q366,97 416,64 Q466,31 466,-39 Q466,-177 249,-177 L249,-86 Q341,-86 341,-39 Q341,-16 323,-8 Q305,0 266,0 Q157,0 98.5,51.5 Q40,103 40,195"/> 
            <glyph glyph-name="ο" unicode="&#x3BF;" horiz-adv-x="544" d=" M161,328 Q161,178 196,131 Q231,84 292,84 Q353,84 388,131 Q423,178 423,253 Q423,328 388,372 Q353,416 292,416 Q231,416 161,328 M40,253 Q40,368 110,440.5 Q180,513 292,513 Q404,513 474,440.5 Q544,368 544,253 Q544,137 473.5,62 Q403,-13 292,-13 Q181,-13 110.5,62 Q40,137 40,253"/> 
            <glyph glyph-name="π" unicode="&#x3C0;" horiz-adv-x="572" d=" M40,401 L40,500 L572,500 L572,401 L518,401 L518,169 Q518,128 529.5,111 Q541,94 572,94 L572,0 Q475,0 438.5,32 Q402,64 402,141 L402,401 L210,401 L210,0 L94,0 L94,401"/> 
            <glyph glyph-name="ρ" unicode="&#x3C1;" horiz-adv-x="568" d=" M176,253 Q176,178 212.5,131 Q249,84 309,84 Q370,84 408,131.5 Q446,179 446,253 Q446,327 408,371.5 Q370,416 309,416 Q250,416 214,373.5 Q178,331 176,260 M60,-177 L60,253 Q60,364 127.5,438.5 Q195,513 309,513 Q427,513 497.5,438.5 Q568,364 568,253 Q568,137 506.5,62 Q445,-13 332,-13 Q229,-13 176,62 L176,-177"/> 
            <glyph glyph-name="ς" unicode="&#x3C2;" horiz-adv-x="502" d=" M40,253 Q40,370 108.5,441.5 Q177,513 282,513 Q402,513 463,440 Q501,394 501,323 L380,323 Q380,363 361,386 Q337,416 285,416 Q232,416 197,372.5 Q162,329 162,253 Q162,174 197.5,135.5 Q233,97 318,97 Q401,97 451.5,64 Q502,31 502,-39 Q502,-177 285,-177 L285,-86 Q377,-86 377,-39 Q377,-16 359,-8 Q341,0 302,0 Q188,0 114,61.5 Q40,123 40,253"/> 
            <glyph glyph-name="σ" unicode="&#x3C3;" horiz-adv-x="592" d=" M156,250 Q156,175 191,129.5 Q226,84 287,84 Q348,84 383,129.5 Q418,175 418,250 Q418,315 384.5,357.5 Q351,400 293,403 L286,403 Q226,402 191,359.5 Q156,317 156,250 M34,250 Q34,359 104.5,429.5 Q175,500 286,500 L592,500 L592,401 L491,401 Q539,335 539,250 Q539,134 468.5,60.5 Q398,-13 286,-13 Q175,-13 104.5,60.5 Q34,134 34,250"/> 
            <glyph glyph-name="τ" unicode="&#x3C4;" horiz-adv-x="472" d=" M20,401 L20,500 L472,500 L472,401 L304,401 L304,169 Q304,128 315.5,111 Q327,94 358,94 L358,0 Q261,0 224.5,32 Q188,64 188,141 L188,401"/> 
            <glyph glyph-name="υ" unicode="&#x3C5;" horiz-adv-x="516" d=" M60,220 L60,500 L176,500 L176,220 Q176,166 202.5,125 Q229,84 289,84 Q347,84 373.5,125 Q400,166 400,220 L400,500 L516,500 L516,220 Q516,-13 288,-13 Q60,-13 60,220"/> 
            <glyph glyph-name="φ" unicode="&#x3C6;" horiz-adv-x="722" d=" M439,97 L453,97 Q517,97 558.5,140.5 Q600,184 600,253 Q600,322 559,362.5 Q518,403 453,403 L439,403 M162,322 Q162,184 203.5,140.5 Q245,97 309,97 L323,97 L323,403 L309,403 Q244,403 162,322 M40,253 Q40,361 110,430.5 Q180,500 292,500 L323,500 L323,677 L439,677 L439,500 L470,500 Q582,500 652,430.5 Q722,361 722,253 Q722,146 650,73 Q578,0 470,0 L439,0 L439,-177 L323,-177 L323,0 L292,0 Q184,0 112,73 Q40,146 40,253"/> 
            <glyph glyph-name="χ" unicode="&#x3C7;" horiz-adv-x="524" d=" M10,-177 L195,174 L18,500 L143,500 L272,254 L391,500 L516,500 L338,174 L524,-177 L388,-177 L265,76 L140,-177"/> 
            <glyph glyph-name="ψ" unicode="&#x3C8;" horiz-adv-x="706" d=" M60,255 L60,500 L176,500 L176,255 Q176,187 216,142 Q256,97 313,97 L325,97 L325,677 L441,677 L441,97 L453,97 Q510,97 550,142 Q590,187 590,255 L590,500 L706,500 L706,255 Q706,148 638.5,74 Q571,0 470,0 L441,0 L441,-177 L325,-177 L325,0 L296,0 Q195,0 127.5,74 Q60,148 60,255"/> 
            <glyph glyph-name="ω" unicode="&#x3C9;" horiz-adv-x="728" d=" M40,250 Q40,297 49,340 Q58,383 71,410.5 Q84,438 97,459.5 Q110,481 119,490 L128,500 L230,500 Q222,488 209.5,466.5 Q197,445 176.5,379.5 Q156,314 156,250 Q156,84 250,84 Q326,84 326,220 L326,400 L442,400 L442,220 Q442,84 518,84 Q612,84 612,250 Q612,314 593.5,376.5 Q575,439 556,470 L538,500 L640,500 Q644,497 649.5,490 Q655,483 670.5,460 Q686,437 697.5,410.5 Q709,384 718.5,340.5 Q728,297 728,250 Q728,115 676,51 Q624,-13 537,-13 Q416,-13 384,87 Q352,-13 231,-13 Q144,-13 92,51 Q40,115 40,250"/> 
            <glyph glyph-name="ϊ" unicode="&#x3CA;" horiz-adv-x="285" d=" M137,630 Q137,660 158,678.5 Q179,697 211,697 Q243,697 264,678.5 Q285,660 285,630 Q285,599 264,581 Q243,563 211,563 Q179,563 158,581 Q137,599 137,630 M60,141 L60,500 L176,500 L176,169 Q176,128 187.5,111 Q199,94 230,94 L230,0 Q133,0 96.5,32 Q60,64 60,141 M-47,630 Q-47,660 -26,678.5 Q-5,697 27,697 Q59,697 80,678.5 Q101,660 101,630 Q101,599 80,581 Q59,563 27,563 Q-5,563 -26,581 Q-47,599 -47,630"/> 
            <glyph glyph-name="ϋ" unicode="&#x3CB;" horiz-adv-x="516" d=" M309,630 Q309,660 330,678.5 Q351,697 383,697 Q415,697 436,678.5 Q457,660 457,630 Q457,599 436,581 Q415,563 383,563 Q351,563 330,581 Q309,599 309,630 M125,630 Q125,660 146,678.5 Q167,697 199,697 Q231,697 252,678.5 Q273,660 273,630 Q273,599 252,581 Q231,563 199,563 Q167,563 146,581 Q125,599 125,630 M60,220 L60,500 L176,500 L176,220 Q176,166 202.5,125 Q229,84 289,84 Q347,84 373.5,125 Q400,166 400,220 L400,500 L516,500 L516,220 Q516,-13 288,-13 Q60,-13 60,220"/> 
            <glyph glyph-name="ό" unicode="&#x3CC;" horiz-adv-x="544" d=" M221,557 L247,709 L353,709 L327,557 M161,328 Q161,178 196,131 Q231,84 292,84 Q353,84 388,131 Q423,178 423,253 Q423,328 388,372 Q353,416 292,416 Q231,416 161,328 M40,253 Q40,368 110,440.5 Q180,513 292,513 Q404,513 474,440.5 Q544,368 544,253 Q544,137 473.5,62 Q403,-13 292,-13 Q181,-13 110.5,62 Q40,137 40,253"/> 
            <glyph glyph-name="ύ" unicode="&#x3CD;" horiz-adv-x="516" d=" M227,557 L253,709 L359,709 L333,557 M60,220 L60,500 L176,500 L176,220 Q176,166 202.5,125 Q229,84 289,84 Q347,84 373.5,125 Q400,166 400,220 L400,500 L516,500 L516,220 Q516,-13 288,-13 Q60,-13 60,220"/> 
            <glyph glyph-name="ώ" unicode="&#x3CE;" horiz-adv-x="728" d=" M318,557 L344,709 L450,709 L424,557 M40,250 Q40,297 49,340 Q58,383 71,410.5 Q84,438 97,459.5 Q110,481 119,490 L128,500 L230,500 Q222,488 209.5,466.5 Q197,445 176.5,379.5 Q156,314 156,250 Q156,84 250,84 Q326,84 326,220 L326,400 L442,400 L442,220 Q442,84 518,84 Q612,84 612,250 Q612,314 593.5,376.5 Q575,439 556,470 L538,500 L640,500 Q644,497 649.5,490 Q655,483 670.5,460 Q686,437 697.5,410.5 Q709,384 718.5,340.5 Q728,297 728,250 Q728,115 676,51 Q624,-13 537,-13 Q416,-13 384,87 Q352,-13 231,-13 Q144,-13 92,51 Q40,115 40,250"/> 
            <glyph glyph-name="Ё" unicode="&#x401;" horiz-adv-x="540" d=" M329,807 Q329,837 350,855.5 Q371,874 403,874 Q435,874 456,855.5 Q477,837 477,807 Q477,776 456,758 Q435,740 403,740 Q371,740 350,758 Q329,776 329,807 M145,807 Q145,837 166,855.5 Q187,874 219,874 Q251,874 272,855.5 Q293,837 293,807 Q293,776 272,758 Q251,740 219,740 Q187,740 166,758 Q145,776 145,807 M70,0 L70,677 L540,677 L540,573 L191,573 L191,410 L480,410 L480,306 L191,306 L191,104 L540,104 L540,0"/> 
            <glyph glyph-name="Ђ" unicode="&#x402;" horiz-adv-x="732" d=" M20,573 L20,677 L549,677 L549,573 L345,573 L345,415 L481,415 Q732,415 732,218 L732,177 Q732,93 684,46.5 Q636,0 558,0 L521,0 L521,105 L549,105 Q614,105 614,213 L614,218 Q614,311 480,311 L345,311 L345,0 L224,0 L224,573"/> 
            <glyph glyph-name="Є" unicode="&#x404;" horiz-adv-x="668" d=" M40,344 Q40,510 132.5,600 Q225,690 376,690 Q514,690 590.5,621.5 Q667,553 667,458 L540,458 Q540,510 496,549 Q452,588 377,588 Q295,588 237.5,542 Q180,496 167,399 L426,399 L426,295 L167,295 Q178,191 235.5,140 Q293,89 377,89 Q452,89 497.5,132.5 Q543,176 543,229 L668,229 Q668,133 590.5,60 Q513,-13 376,-13 Q226,-13 133,82 Q40,177 40,344"/> 
            <glyph glyph-name="Ѕ" unicode="&#x405;" horiz-adv-x="609" d=" M40,213 L166,213 Q166,158 210.5,123.5 Q255,89 338,89 Q404,89 443,115 Q482,141 482,185 Q482,218 459,238 Q436,258 399,268 Q362,278 317.5,285.5 Q273,293 229,305.5 Q185,318 148,338 Q111,358 88,398.5 Q65,439 65,497 Q65,578 135.5,634 Q206,690 328,690 Q401,690 455,670 Q509,650 538,617 Q567,584 580.5,547 Q594,510 594,469 L468,469 Q468,522 435,555 Q402,588 328,588 Q268,588 230,563.5 Q192,539 192,497 Q192,447 235,422 Q278,397 339,387 Q400,377 461.5,362.5 Q523,348 566,304.5 Q609,261 609,185 Q609,98 537,42.5 Q465,-13 338,-13 Q260,-13 200,7 Q140,27 106.5,60.5 Q73,94 56.5,132.5 Q40,171 40,213"/> 
            <glyph glyph-name="І" unicode="&#x406;" horiz-adv-x="191" d=" M70,0 L70,677 L191,677 L191,0"/> 
            <glyph glyph-name="Ї" unicode="&#x407;" horiz-adv-x="297" d=" M149,807 Q149,837 170,855.5 Q191,874 223,874 Q255,874 276,855.5 Q297,837 297,807 Q297,776 276,758 Q255,740 223,740 Q191,740 170,758 Q149,776 149,807 M70,0 L70,677 L191,677 L191,0 M-35,807 Q-35,837 -14,855.5 Q7,874 39,874 Q71,874 92,855.5 Q113,837 113,807 Q113,776 92,758 Q71,740 39,740 Q7,740 -14,758 Q-35,776 -35,807"/> 
            <glyph glyph-name="Ј" unicode="&#x408;" horiz-adv-x="470" d=" M40,207 L161,207 Q161,139 186,111.5 Q211,84 258,84 Q305,84 327,107.5 Q349,131 349,191 L349,677 L470,677 L470,191 Q470,-13 258,-13 Q40,-13 40,207"/> 
            <glyph glyph-name="Љ" unicode="&#x409;" horiz-adv-x="980" d=" M579,104 L687,104 Q853,104 853,235 Q853,301 811,329 Q769,357 687,357 L579,357 M20,0 L20,116 L48,116 Q148,116 148,459 L148,677 L579,677 L579,461 L688,461 Q980,461 980,235 Q980,119 904.5,59.5 Q829,0 688,0 L458,0 L458,573 L269,573 L269,432 Q269,0 51,0"/> 
            <glyph glyph-name="Њ" unicode="&#x40A;" horiz-adv-x="1032" d=" M631,104 L739,104 Q905,104 905,235 Q905,301 863,329 Q821,357 739,357 L631,357 M70,0 L70,677 L191,677 L191,410 L510,410 L510,677 L631,677 L631,461 L740,461 Q1032,461 1032,235 Q1032,119 956.5,59.5 Q881,0 740,0 L510,0 L510,306 L191,306 L191,0"/> 
            <glyph glyph-name="Ћ" unicode="&#x40B;" horiz-adv-x="732" d=" M20,573 L20,677 L549,677 L549,573 L345,573 L345,415 L481,415 Q614,415 673,358.5 Q732,302 732,194 L732,0 L616,0 L616,194 Q616,254 584,282.5 Q552,311 480,311 L345,311 L345,0 L224,0 L224,573"/> 
            <glyph glyph-name="Ў" unicode="&#x40E;" horiz-adv-x="668" d=" M180,811 L292,811 Q294,795 309,779 Q324,763 347,763 L361,763 Q384,763 399,779 Q414,795 416,811 L528,811 Q520,760 473,725 Q426,690 364,690 L344,690 Q282,690 235,725 Q188,760 180,811 M20,677 L158,677 L366,305 L536,677 L668,677 L428,179 Q335,0 192,0 L143,0 L143,110 L189,110 Q267,110 303,193"/> 
            <glyph glyph-name="Џ" unicode="&#x40F;" horiz-adv-x="621" d=" M70,0 L70,677 L191,677 L191,104 L500,104 L500,677 L621,677 L621,0 L403,0 L403,-177 L282,-177 L282,0"/> 
            <glyph glyph-name="А" unicode="&#x410;" horiz-adv-x="668" d=" M236,258 L447,258 L341,555 M20,0 L277,677 L408,677 L668,0 L539,0 L484,154 L199,154 L144,0"/> 
            <glyph glyph-name="Б" unicode="&#x411;" horiz-adv-x="592" d=" M191,104 L314,104 Q465,107 465,209 Q465,258 430,280.5 Q395,303 320,305 L315,305 L299,305 L191,305 M70,0 L70,677 L504,677 L504,573 L191,573 L191,409 L300,409 Q592,409 592,209 Q592,107 517,53.5 Q442,0 300,0"/> 
            <glyph glyph-name="В" unicode="&#x412;" horiz-adv-x="612" d=" M191,394 L299,394 Q455,394 455,488 Q455,573 309,573 L191,573 M191,104 L339,104 Q485,104 485,201 Q485,247 443,271.5 Q401,296 329,296 L191,296 M70,0 L70,677 L310,677 Q443,677 512.5,628.5 Q582,580 582,498 Q582,388 478,351 Q612,310 612,191 Q612,101 543,50.5 Q474,0 340,0"/> 
            <glyph glyph-name="Г" unicode="&#x413;" horiz-adv-x="446" d=" M70,0 L70,677 L446,677 L446,573 L191,573 L191,0"/> 
            <glyph glyph-name="Д" unicode="&#x414;" horiz-adv-x="679" d=" M211,104 L478,104 L478,573 L259,573 L259,432 Q259,230 211,104 M24,104 L90,104 Q138,240 138,459 L138,677 L599,677 L599,104 L679,104 L679,-177 L558,-177 L558,0 L145,0 L145,-177 L24,-177"/> 
            <glyph glyph-name="Е" unicode="&#x415;" horiz-adv-x="540" d=" M70,0 L70,677 L540,677 L540,573 L191,573 L191,410 L480,410 L480,306 L191,306 L191,104 L540,104 L540,0"/> 
            <glyph glyph-name="Ж" unicode="&#x416;" horiz-adv-x="905" d=" M20,0 L264,355 L37,677 L168,677 L354,410 L402,410 L402,677 L523,677 L523,410 L571,410 L757,677 L888,677 L660,355 L905,0 L763,0 L557,306 L523,306 L523,0 L402,0 L402,306 L368,306 L162,0"/> 
            <glyph glyph-name="З" unicode="&#x417;" horiz-adv-x="634" d=" M40,213 L166,213 Q166,157 210,123 Q254,89 343,89 Q423,89 465,119 Q507,149 507,201 Q507,293 341,293 L274,293 L274,397 L334,397 Q407,399 443,420 Q479,441 479,488 Q479,534 436.5,561 Q394,588 324,588 Q253,588 216.5,554 Q180,520 180,469 L54,469 Q54,509 69.5,546.5 Q85,584 116,617 Q147,650 200.5,670 Q254,690 324,690 Q458,690 532,633 Q606,576 606,498 Q606,382 483,347 Q634,311 634,191 Q634,106 557,46.5 Q480,-13 343,-13 Q261,-13 200,7 Q139,27 105.5,60.5 Q72,94 56,132 Q40,170 40,213"/> 
            <glyph glyph-name="И" unicode="&#x418;" horiz-adv-x="657" d=" M70,0 L70,677 L191,677 L191,169 L519,677 L657,677 L657,0 L536,0 L536,508 L208,0"/> 
            <glyph glyph-name="Й" unicode="&#x419;" horiz-adv-x="657" d=" M194,811 L306,811 Q308,795 323,779 Q338,763 361,763 L375,763 Q398,763 413,779 Q428,795 430,811 L542,811 Q534,760 487,725 Q440,690 378,690 L358,690 Q296,690 249,725 Q202,760 194,811 M70,0 L70,677 L191,677 L191,169 L519,677 L657,677 L657,0 L536,0 L536,508 L208,0"/> 
            <glyph glyph-name="К" unicode="&#x41A;" horiz-adv-x="623" d=" M70,0 L70,677 L191,677 L191,410 L241,410 L467,677 L606,677 L330,354 L623,0 L473,0 L224,306 L191,306 L191,0"/> 
            <glyph glyph-name="Л" unicode="&#x41B;" horiz-adv-x="579" d=" M20,0 L20,116 L48,116 Q145,116 148,441 L148,677 L579,677 L579,0 L458,0 L458,573 L269,573 L269,432 Q269,0 51,0"/> 
            <glyph glyph-name="М" unicode="&#x41C;" horiz-adv-x="741" d=" M70,0 L70,677 L208,677 L405,331 L603,677 L741,677 L741,0 L620,0 L620,500 L446,190 L363,190 L191,493 L191,0"/> 
            <glyph glyph-name="Н" unicode="&#x41D;" horiz-adv-x="631" d=" M70,0 L70,677 L191,677 L191,410 L510,410 L510,677 L631,677 L631,0 L510,0 L510,306 L191,306 L191,0"/> 
            <glyph glyph-name="О" unicode="&#x41E;" horiz-adv-x="724" d=" M169,344 Q169,228 231,158.5 Q293,89 382,89 Q471,89 533,158.5 Q595,228 595,344 Q595,459 533.5,523.5 Q472,588 382,588 Q292,588 230.5,523.5 Q169,459 169,344 M40,344 Q40,505 134,597.5 Q228,690 382,690 Q536,690 630,597.5 Q724,505 724,344 Q724,182 629.5,84.5 Q535,-13 382,-13 Q229,-13 134.5,84.5 Q40,182 40,344"/> 
            <glyph glyph-name="П" unicode="&#x41F;" horiz-adv-x="621" d=" M70,0 L70,677 L621,677 L621,0 L500,0 L500,573 L191,573 L191,0"/> 
            <glyph glyph-name="Р" unicode="&#x420;" horiz-adv-x="592" d=" M191,320 L306,320 Q465,322 465,451 Q465,517 423,545 Q381,573 299,573 L191,573 M70,0 L70,677 L300,677 Q592,677 592,451 Q592,335 516.5,275.5 Q441,216 300,216 L191,216 L191,0"/> 
            <glyph glyph-name="С" unicode="&#x421;" horiz-adv-x="668" d=" M40,344 Q40,510 132.5,600 Q225,690 376,690 Q514,690 590.5,621.5 Q667,553 667,458 L540,458 Q540,510 496,549 Q452,588 377,588 Q290,588 230,526 Q170,464 170,344 Q170,223 231,156 Q292,89 377,89 Q452,89 497.5,132.5 Q543,176 543,229 L668,229 Q668,133 590.5,60 Q513,-13 376,-13 Q226,-13 133,82 Q40,177 40,344"/> 
            <glyph glyph-name="Т" unicode="&#x422;" horiz-adv-x="549" d=" M20,573 L20,677 L549,677 L549,573 L345,573 L345,0 L224,0 L224,573"/> 
            <glyph glyph-name="У" unicode="&#x423;" horiz-adv-x="668" d=" M20,677 L158,677 L366,305 L536,677 L668,677 L428,179 L427,177 Q334,0 192,0 L143,0 L143,110 L189,110 Q267,110 303,193"/> 
            <glyph glyph-name="Ф" unicode="&#x424;" horiz-adv-x="803" d=" M482,190 L506,190 Q583,190 629.5,231 Q676,272 676,353 Q676,430 631,468.5 Q586,507 506,507 L482,507 M167,353 Q167,272 213.5,231 Q260,190 337,190 L361,190 L361,507 L337,507 Q257,507 212,468.5 Q167,430 167,353 M40,353 Q40,471 118,540 Q196,609 336,609 L361,609 L361,677 L482,677 L482,609 L507,609 Q647,609 725,540 Q803,471 803,353 Q803,232 723,160 Q643,88 507,88 L482,88 L482,0 L361,0 L361,88 L336,88 Q200,88 120,160 Q40,232 40,353"/> 
            <glyph glyph-name="Х" unicode="&#x425;" horiz-adv-x="644" d=" M20,0 L249,338 L28,677 L161,677 L332,406 L503,677 L636,677 L415,338 L644,0 L500,0 L334,264 L158,0"/> 
            <glyph glyph-name="Ц" unicode="&#x426;" horiz-adv-x="701" d=" M70,0 L70,677 L191,677 L191,104 L500,104 L500,677 L621,677 L621,104 L701,104 L701,-177 L580,-177 L580,0"/> 
            <glyph glyph-name="Ч" unicode="&#x427;" horiz-adv-x="548" d=" M40,483 L40,677 L156,677 L156,483 Q156,410 187.5,378 Q219,346 292,346 L427,346 L427,677 L548,677 L548,0 L427,0 L427,242 L291,242 Q156,242 98,301.5 Q40,361 40,483"/> 
            <glyph glyph-name="Ш" unicode="&#x428;" horiz-adv-x="871" d=" M70,0 L70,677 L191,677 L191,104 L410,104 L410,677 L531,677 L531,104 L750,104 L750,677 L871,677 L871,0"/> 
            <glyph glyph-name="Щ" unicode="&#x429;" horiz-adv-x="951" d=" M70,0 L70,677 L191,677 L191,104 L410,104 L410,677 L531,677 L531,104 L750,104 L750,677 L871,677 L871,104 L951,104 L951,-177 L830,-177 L830,0"/> 
            <glyph glyph-name="Ъ" unicode="&#x42A;" horiz-adv-x="768" d=" M367,104 L475,104 Q641,104 641,235 Q641,301 599,329 Q557,357 475,357 L367,357 M20,573 L20,677 L367,677 L367,461 L476,461 Q768,461 768,235 Q768,119 692.5,59.5 Q617,0 476,0 L246,0 L246,573"/> 
            <glyph glyph-name="Ы" unicode="&#x42B;" horiz-adv-x="769" d=" M648,0 L648,677 L769,677 L769,0 M191,104 L276,104 Q435,106 435,235 Q435,301 393,329 Q351,357 269,357 L191,357 M70,0 L70,677 L191,677 L191,461 L270,461 Q562,461 562,235 Q562,119 486.5,59.5 Q411,0 270,0"/> 
            <glyph glyph-name="Ь" unicode="&#x42C;" horiz-adv-x="592" d=" M191,104 L299,104 Q465,104 465,235 Q465,301 423,329 Q381,357 299,357 L191,357 M70,0 L70,677 L191,677 L191,461 L300,461 Q592,461 592,235 Q592,119 516.5,59.5 Q441,0 300,0"/> 
            <glyph glyph-name="Э" unicode="&#x42D;" horiz-adv-x="668" d=" M40,448 Q40,544 117.5,617 Q195,690 332,690 Q482,690 575,595 Q668,500 668,333 Q668,167 575.5,77 Q483,-13 332,-13 Q194,-13 117.5,55.5 Q41,124 41,219 L168,219 Q168,167 212,128 Q256,89 331,89 Q412,89 469.5,135 Q527,181 540,278 L282,278 L282,382 L541,382 Q530,485 472.5,536.5 Q415,588 331,588 Q256,588 210.5,544.5 Q165,501 165,448"/> 
            <glyph glyph-name="Ю" unicode="&#x42E;" horiz-adv-x="1007" d=" M452,344 Q452,228 514,158.5 Q576,89 665,89 Q754,89 816,158.5 Q878,228 878,344 Q878,459 816.5,523.5 Q755,588 665,588 Q575,588 513.5,523.5 Q452,459 452,344 M70,0 L70,677 L191,677 L191,410 L332,410 Q351,542 439.5,616 Q528,690 664,690 Q818,690 912.5,597.5 Q1007,505 1007,344 Q1007,182 912,84.5 Q817,-13 664,-13 Q521,-13 430.5,73 Q340,159 329,306 L191,306 L191,0"/> 
            <glyph glyph-name="Я" unicode="&#x42F;" horiz-adv-x="562" d=" M167,442 Q167,376 209,348 Q251,320 333,320 L441,320 L441,573 L326,573 Q167,570 167,442 M40,0 L183,236 Q40,283 40,442 Q40,558 115.5,617.5 Q191,677 332,677 L562,677 L562,0 L441,0 L441,216 L332,216 L306,216 L175,0"/> 
            <glyph glyph-name="а" unicode="&#x430;" horiz-adv-x="531" d=" M162,330 Q162,176 197.5,130 Q233,84 289,84 Q344,84 378,129.5 Q412,175 412,253 L412,261 Q410,335 376.5,375.5 Q343,416 289,416 Q233,416 162,330 M40,253 Q40,368 103,440.5 Q166,513 266,513 Q365,513 420,424 L440,500 L531,500 L531,0 L440,0 L417,77 Q363,-13 266,-13 Q167,-13 103.5,62 Q40,137 40,253"/> 
            <glyph glyph-name="б" unicode="&#x431;" horiz-adv-x="552" d=" M176,229 Q176,167 211,125.5 Q246,84 301,84 Q357,84 393.5,125.5 Q430,167 430,229 Q430,289 394.5,326.5 Q359,364 301,364 Q244,364 210,327 Q176,290 176,229 M60,229 L60,337 Q60,418 82.5,478.5 Q105,539 147,576.5 Q189,614 239,635.5 Q289,657 354,667 L502,690 L518,582 L378,559 Q264,539 215,498 Q166,457 164,360 Q214,461 326,461 Q425,461 488.5,395.5 Q552,330 552,229 Q552,128 483,57.5 Q414,-13 301,-13 Q192,-13 126,57.5 Q60,128 60,229"/> 
            <glyph glyph-name="в" unicode="&#x432;" horiz-adv-x="506" d=" M180,291 L286,291 Q333,291 353.5,305.5 Q374,320 374,351 Q374,407 282,407 L180,407 M180,93 L292,93 Q384,93 384,156 Q384,214 292,214 L180,214 M70,0 L70,500 L292,500 Q394,500 445,464 Q496,428 496,365 Q496,280 384,256 Q506,236 506,141 Q506,77 454.5,38.5 Q403,0 302,0"/> 
            <glyph glyph-name="г" unicode="&#x433;" horiz-adv-x="414" d=" M70,0 L70,500 L414,500 L414,401 L186,401 L186,0"/> 
            <glyph glyph-name="д" unicode="&#x434;" horiz-adv-x="582" d=" M197,99 L386,99 L386,401 L232,401 L232,362 Q232,231 197,99 M16,99 L81,99 Q114,244 116,376 L116,500 L502,500 L502,99 L582,99 L582,-177 L466,-177 L466,0 L132,0 L132,-177 L16,-177"/> 
            <glyph glyph-name="е" unicode="&#x435;" horiz-adv-x="527" d=" M165,310 L407,310 Q406,358 376,390 Q346,422 289,422 Q232,422 199,389.5 Q166,357 165,310 M40,134 Q40,372 108.5,442.5 Q177,513 289,513 Q398,513 462.5,444.5 Q527,376 527,270 L527,233 L163,233 Q165,165 200,124.5 Q235,84 294,84 Q356,84 384,119 Q400,141 400,161 L521,161 Q521,115 487,70 Q422,-13 294,-13 Q182,-13 40,134"/> 
            <glyph glyph-name="ж" unicode="&#x436;" horiz-adv-x="742" d=" M24,0 L181,261 L32,500 L157,500 L274,312 L320,312 L320,500 L436,500 L436,312 L484,312 L609,500 L734,500 L575,261 L742,0 L612,0 L475,213 L436,213 L436,0 L320,0 L320,213 L281,213 L154,0"/> 
            <glyph glyph-name="з" unicode="&#x437;" horiz-adv-x="479" d=" M40,153 L161,153 Q161,119 185,98.5 Q209,78 258,78 Q354,78 354,146 Q354,206 259,206 L198,206 L198,299 L252,299 Q344,302 344,362 Q344,422 258,422 Q171,422 171,347 L50,347 Q50,415 100.5,464 Q151,513 258,513 Q359,513 414,472.5 Q469,432 469,365 Q469,283 365,256 Q479,230 479,135 Q479,68 420.5,27.5 Q362,-13 258,-13 Q148,-13 94,36 Q40,85 40,153"/> 
            <glyph glyph-name="и" unicode="&#x438;" horiz-adv-x="530" d=" M70,0 L70,500 L186,500 L186,166 L406,500 L530,500 L530,0 L414,0 L414,333 L194,0"/> 
            <glyph glyph-name="й" unicode="&#x439;" horiz-adv-x="530" d=" M126,677 L238,677 Q240,661 255,645 Q270,629 293,629 L307,629 Q330,629 345,645 Q360,661 362,677 L474,677 Q466,626 419,591 Q372,556 310,556 L290,556 Q228,556 181,591 Q134,626 126,677 M70,0 L70,500 L186,500 L186,166 L406,500 L530,500 L530,0 L414,0 L414,333 L194,0"/> 
            <glyph glyph-name="к" unicode="&#x43A;" horiz-adv-x="521" d=" M70,0 L70,500 L186,500 L186,312 L228,312 L383,500 L513,500 L315,260 L521,0 L381,0 L212,213 L186,213 L186,0"/> 
            <glyph glyph-name="л" unicode="&#x43B;" horiz-adv-x="502" d=" M20,0 L20,111 L48,111 Q93,111 112.5,177 Q132,243 132,389 L132,500 L502,500 L502,0 L386,0 L386,401 L248,401 L248,362 Q248,167 199.5,83.5 Q151,0 51,0"/> 
            <glyph glyph-name="м" unicode="&#x43C;" horiz-adv-x="620" d=" M70,0 L70,500 L202,500 L345,262 L488,500 L620,500 L620,0 L504,0 L504,334 L380,127 L310,127 L186,334 L186,0"/> 
            <glyph glyph-name="н" unicode="&#x43D;" horiz-adv-x="524" d=" M70,0 L70,500 L186,500 L186,312 L408,312 L408,500 L524,500 L524,0 L408,0 L408,213 L186,213 L186,0"/> 
            <glyph glyph-name="о" unicode="&#x43E;" horiz-adv-x="544" d=" M161,328 Q161,178 196,131 Q231,84 292,84 Q353,84 388,131 Q423,178 423,253 Q423,328 388,372 Q353,416 292,416 Q231,416 161,328 M40,253 Q40,368 110,440.5 Q180,513 292,513 Q404,513 474,440.5 Q544,368 544,253 Q544,137 473.5,62 Q403,-13 292,-13 Q181,-13 110.5,62 Q40,137 40,253"/> 
            <glyph glyph-name="п" unicode="&#x43F;" horiz-adv-x="514" d=" M70,0 L70,500 L514,500 L514,0 L398,0 L398,401 L186,401 L186,0"/> 
            <glyph glyph-name="р" unicode="&#x440;" horiz-adv-x="558" d=" M186,253 Q186,178 218,131 Q250,84 309,84 Q367,84 401.5,131 Q436,178 436,253 Q436,328 402,372 Q368,416 309,416 Q251,416 218.5,368 Q186,320 186,253 M70,-177 L70,500 L158,500 L177,422 Q231,513 332,513 Q435,513 496.5,441.5 Q558,370 558,253 Q558,137 495,62 Q432,-13 332,-13 Q240,-13 186,64 L186,-177"/> 
            <glyph glyph-name="с" unicode="&#x441;" horiz-adv-x="503" d=" M40,253 Q40,370 109.5,441.5 Q179,513 290,513 Q402,513 463,440 Q501,394 501,323 L380,323 Q380,363 361,386 Q337,416 285,416 Q232,416 197,372.5 Q162,329 162,253 Q162,177 197,130.5 Q232,84 285,84 Q336,84 362,115 Q382,139 382,179 L503,179 Q503,108 466,62 Q404,-13 290,-13 Q180,-13 110,61 Q40,135 40,253"/> 
            <glyph glyph-name="т" unicode="&#x442;" horiz-adv-x="472" d=" M20,401 L20,500 L472,500 L472,401 L304,401 L304,0 L188,0 L188,401"/> 
            <glyph glyph-name="у" unicode="&#x443;" horiz-adv-x="536" d=" M20,500 L146,500 L287,137 L415,500 L536,500 L349,5 Q311,-88 261,-132.5 Q211,-177 132,-177 L83,-177 L83,-72 L129,-72 Q191,-72 226,12"/> 
            <glyph glyph-name="ф" unicode="&#x444;" horiz-adv-x="722" d=" M439,97 L453,97 Q517,97 558.5,140.5 Q600,184 600,253 Q600,322 559,362.5 Q518,403 453,403 L439,403 M162,322 Q162,184 203.5,140.5 Q245,97 309,97 L323,97 L323,403 L309,403 Q244,403 162,322 M40,253 Q40,361 110,430.5 Q180,500 292,500 L323,500 L323,677 L439,677 L439,500 L470,500 Q582,500 652,430.5 Q722,361 722,253 Q722,146 650,73 Q578,0 470,0 L439,0 L439,-177 L323,-177 L323,0 L292,0 Q184,0 112,73 Q40,146 40,253"/> 
            <glyph glyph-name="х" unicode="&#x445;" horiz-adv-x="524" d=" M30,0 L199,251 L38,500 L166,500 L282,313 L388,500 L516,500 L355,251 L524,0 L385,0 L276,181 L163,0"/> 
            <glyph glyph-name="ц" unicode="&#x446;" horiz-adv-x="594" d=" M70,0 L70,500 L186,500 L186,99 L398,99 L398,500 L514,500 L514,99 L594,99 L594,-177 L478,-177 L478,0"/> 
            <glyph glyph-name="ч" unicode="&#x447;" horiz-adv-x="466" d=" M40,350 L40,500 L156,500 L156,350 Q157,248 247,248 Q295,248 350,258 L350,500 L466,500 L466,0 L350,0 L350,168 Q292,154 226,154 Q40,154 40,350"/> 
            <glyph glyph-name="ш" unicode="&#x448;" horiz-adv-x="734" d=" M70,0 L70,500 L186,500 L186,99 L344,99 L344,500 L460,500 L460,99 L618,99 L618,500 L734,500 L734,0"/> 
            <glyph glyph-name="щ" unicode="&#x449;" horiz-adv-x="814" d=" M70,0 L70,500 L186,500 L186,99 L344,99 L344,500 L460,500 L460,99 L618,99 L618,500 L734,500 L734,99 L814,99 L814,-177 L698,-177 L698,0"/> 
            <glyph glyph-name="ъ" unicode="&#x44A;" horiz-adv-x="610" d=" M290,99 L396,99 Q439,99 463.5,119.5 Q488,140 488,172 Q488,235 393,235 L290,235 M20,401 L20,500 L290,500 L290,334 L394,334 Q492,334 551,292.5 Q610,251 610,172 Q610,95 555,47.5 Q500,0 406,0 L174,0 L174,401"/> 
            <glyph glyph-name="ы" unicode="&#x44B;" horiz-adv-x="661" d=" M551,0 L551,500 L661,500 L661,0 M186,99 L270,99 Q309,101 331.5,121 Q354,141 354,172 Q354,235 259,235 L186,235 M70,0 L70,500 L186,500 L186,334 L260,334 Q358,334 417,292.5 Q476,251 476,172 Q476,95 421,47.5 Q366,0 272,0"/> 
            <glyph glyph-name="ь" unicode="&#x44C;" horiz-adv-x="506" d=" M186,99 L292,99 Q335,99 359.5,119.5 Q384,140 384,172 Q384,235 289,235 L186,235 M70,0 L70,500 L186,500 L186,334 L290,334 Q388,334 447,292.5 Q506,251 506,172 Q506,95 451,47.5 Q396,0 302,0"/> 
            <glyph glyph-name="э" unicode="&#x44D;" horiz-adv-x="491" d=" M28,327 Q28,395 65,438 Q127,513 249,513 Q357,513 424,440.5 Q491,368 491,250 Q491,132 424,59.5 Q357,-13 249,-13 Q129,-13 68,60 Q30,104 30,171 L151,171 Q151,136 170,114 Q194,84 252,84 Q302,84 337,115 Q372,146 373,198 L205,198 L205,297 L373,297 Q372,348 336,382 Q300,416 252,416 Q195,416 169,385 Q149,362 149,327"/> 
            <glyph glyph-name="ю" unicode="&#x44E;" horiz-adv-x="778" d=" M395,255 Q395,179 430.5,131.5 Q466,84 526,84 Q586,84 621.5,131.5 Q657,179 657,255 Q657,330 622,373 Q587,416 526,416 Q465,416 430,373 Q395,330 395,255 M70,0 L70,500 L186,500 L186,312 L284,312 Q300,404 364,458.5 Q428,513 525,513 Q641,513 709.5,442 Q778,371 778,255 Q778,138 709,62.5 Q640,-13 525,-13 Q425,-13 359,49.5 Q293,112 281,213 L186,213 L186,0"/> 
            <glyph glyph-name="я" unicode="&#x44F;" horiz-adv-x="476" d=" M162,341 Q162,271 257,271 L360,271 L360,401 L254,401 Q162,401 162,341 M40,0 L163,190 Q40,225 40,341 Q40,417 96,458.5 Q152,500 244,500 L476,500 L476,0 L360,0 L360,178 L285,178 L170,0"/> 
            <glyph glyph-name="ё" unicode="&#x451;" horiz-adv-x="527" d=" M304,630 Q304,660 325,678.5 Q346,697 378,697 Q410,697 431,678.5 Q452,660 452,630 Q452,599 431,581 Q410,563 378,563 Q346,563 325,581 Q304,599 304,630 M165,310 L407,310 Q406,358 376,390 Q346,422 289,422 Q232,422 199,389.5 Q166,357 165,310 M120,630 Q120,660 141,678.5 Q162,697 194,697 Q226,697 247,678.5 Q268,660 268,630 Q268,599 247,581 Q226,563 194,563 Q162,563 141,581 Q120,599 120,630 M40,134 Q40,372 108.5,442.5 Q177,513 289,513 Q398,513 462.5,444.5 Q527,376 527,270 L527,233 L163,233 Q165,165 200,124.5 Q235,84 294,84 Q356,84 384,119 Q400,141 400,161 L521,161 Q521,115 487,70 Q422,-13 294,-13 Q182,-13 40,134"/> 
            <glyph glyph-name="ђ" unicode="&#x452;" horiz-adv-x="530" d=" M20,458 L20,557 L104,557 L104,677 L220,677 L220,557 L367,557 L367,458 L220,458 L220,332 Q285,346 344,346 Q530,346 530,150 L530,0 Q530,-82 481.5,-129.5 Q433,-177 356,-177 L319,-177 L319,-72 L347,-72 Q414,-72 414,36 L414,150 Q413,252 323,252 Q268,252 220,241 L220,0 L104,0 L104,458"/> 
            <glyph glyph-name="є" unicode="&#x454;" horiz-adv-x="503" d=" M40,132 Q40,368 107,440.5 Q174,513 282,513 Q402,513 463,440 Q501,396 501,329 L380,329 Q380,364 361,386 Q337,416 279,416 Q229,416 194,384.5 Q159,353 158,302 L326,302 L326,203 L158,203 Q159,151 194.5,117.5 Q230,84 279,84 Q336,84 362,115 Q382,138 382,173 L503,173 Q503,105 466,62 Q404,-13 282,-13 Q174,-13 40,132"/> 
            <glyph glyph-name="ѕ" unicode="&#x455;" horiz-adv-x="470" d=" M40,157 L161,157 Q161,122 188.5,103 Q216,84 265,84 Q304,84 326,99.5 Q348,115 348,141 Q348,166 318,181 Q288,196 244.5,206 Q201,216 158,230 Q115,244 85,278 Q55,312 55,365 Q55,432 106,472.5 Q157,513 249,513 Q354,513 408.5,463 Q463,413 463,343 L342,343 Q342,378 318,397 Q294,416 249,416 Q215,416 196,400.5 Q177,385 177,359 Q177,335 198.5,320.5 Q220,306 253,299.5 Q286,293 323.5,282.5 Q361,272 394,259 Q427,246 448.5,216 Q470,186 470,141 Q470,73 415.5,30 Q361,-13 265,-13 Q151,-13 95.5,36.5 Q40,86 40,157"/> 
            <glyph glyph-name="і" unicode="&#x456;" horiz-adv-x="200" d=" M70,0 L70,500 L180,500 L180,0 M52,630 Q52,660 73,678.5 Q94,697 126,697 Q158,697 179,678.5 Q200,660 200,630 Q200,599 179,581 Q158,563 126,563 Q94,563 73,581 Q52,599 52,630"/> 
            <glyph glyph-name="ї" unicode="&#x457;" horiz-adv-x="291" d=" M143,630 Q143,660 164,678.5 Q185,697 217,697 Q249,697 270,678.5 Q291,660 291,630 Q291,599 270,581 Q249,563 217,563 Q185,563 164,581 Q143,599 143,630 M70,0 L70,500 L180,500 L180,0 M-41,630 Q-41,660 -20,678.5 Q1,697 33,697 Q65,697 86,678.5 Q107,660 107,630 Q107,599 86,581 Q65,563 33,563 Q1,563 -20,581 Q-41,599 -41,630"/> 
            <glyph glyph-name="ј" unicode="&#x458;" horiz-adv-x="232" d=" M84,630 Q84,660 105,678.5 Q126,697 158,697 Q190,697 211,678.5 Q232,660 232,630 Q232,599 211,581 Q190,563 158,563 Q126,563 105,581 Q84,599 84,630 M5,-72 L33,-72 Q100,-72 100,36 L100,500 L216,500 L216,0 Q216,-82 167.5,-129.5 Q119,-177 42,-177 L5,-177"/> 
            <glyph glyph-name="љ" unicode="&#x459;" horiz-adv-x="812" d=" M502,99 L598,99 Q641,99 665.5,119.5 Q690,140 690,172 Q690,235 595,235 L502,235 M20,0 L20,111 L48,111 Q91,111 110.5,171 Q130,231 132,362 L132,500 L502,500 L502,334 L597,334 Q695,333 753.5,291.5 Q812,250 812,172 Q812,95 757,47.5 Q702,0 608,0 L376,0 L376,401 L248,401 L248,362 Q248,167 199.5,83.5 Q151,0 51,0"/> 
            <glyph glyph-name="њ" unicode="&#x45A;" horiz-adv-x="844" d=" M524,99 L630,99 Q673,99 697.5,119.5 Q722,140 722,172 Q722,235 627,235 L524,235 M70,0 L70,500 L186,500 L186,312 L408,312 L408,500 L524,500 L524,334 L628,334 Q726,334 785,292.5 Q844,251 844,172 Q844,95 789,47.5 Q734,0 640,0 L408,0 L408,213 L186,213 L186,0"/> 
            <glyph glyph-name="ћ" unicode="&#x45B;" horiz-adv-x="530" d=" M20,458 L20,557 L104,557 L104,677 L220,677 L220,557 L367,557 L367,458 L220,458 L220,332 Q285,346 344,346 Q530,346 530,150 L530,149 L530,0 L414,0 L414,140 L414,147 Q414,252 323,252 Q268,252 220,241 L220,0 L104,0 L104,458"/> 
            <glyph glyph-name="ў" unicode="&#x45E;" horiz-adv-x="536" d=" M104,677 L216,677 Q218,661 233,645 Q248,629 271,629 L285,629 Q308,629 323,645 Q338,661 340,677 L452,677 Q444,626 397,591 Q350,556 288,556 L268,556 Q206,556 159,591 Q112,626 104,677 M20,500 L146,500 L287,137 L415,500 L536,500 L349,5 L347,0 Q309,-90 259.5,-133.5 Q210,-177 132,-177 L83,-177 L83,-72 L129,-72 Q191,-72 226,12"/> 
            <glyph glyph-name="џ" unicode="&#x45F;" horiz-adv-x="514" d=" M70,0 L70,500 L186,500 L186,99 L398,99 L398,500 L514,500 L514,0 L350,0 L350,-177 L234,-177 L234,0"/> 
            <glyph glyph-name="Ґ" unicode="&#x490;" horiz-adv-x="476" d=" M70,0 L70,677 L360,677 L360,849 L476,849 L476,573 L191,573 L191,0"/> 
            <glyph glyph-name="ґ" unicode="&#x491;" horiz-adv-x="414" d=" M70,0 L70,500 L298,500 L298,677 L414,677 L414,401 L186,401 L186,0"/> 
            <glyph glyph-name="–" unicode="&#x2013;" horiz-adv-x="472" d=" M20,233 L20,332 L472,332 L472,233"/> 
            <glyph glyph-name="—" unicode="&#x2014;" horiz-adv-x="622" d=" M10,233 L10,332 L622,332 L622,233"/> 
            <glyph glyph-name="‘" unicode="&#x2018;" horiz-adv-x="228" d=" M37,659 L130,693 L228,425 L135,391"/> 
            <glyph glyph-name="’" unicode="&#x2019;" horiz-adv-x="222" d=" M31,425 L129,693 L222,659 L124,391"/> 
            <glyph glyph-name="‚" unicode="&#x201A;" horiz-adv-x="228" d=" M37,-75 L135,193 L228,159 L130,-109"/> 
            <glyph glyph-name="“" unicode="&#x201C;" horiz-adv-x="428" d=" M237,659 L330,693 L428,425 L335,391 M37,659 L130,693 L228,425 L135,391"/> 
            <glyph glyph-name="”" unicode="&#x201D;" horiz-adv-x="422" d=" M231,425 L329,693 L422,659 L324,391 M31,425 L129,693 L222,659 L124,391"/> 
            <glyph glyph-name="„" unicode="&#x201E;" horiz-adv-x="428" d=" M237,-75 L335,193 L428,159 L330,-109 M37,-75 L135,193 L228,159 L130,-109"/> 
            <glyph glyph-name="‰" unicode="&#x2030;" horiz-adv-x="1015" d=" M798,184 Q798,110 816,86 Q834,62 864,62 Q894,62 911.5,85.5 Q929,109 929,147 Q929,184 911.5,206 Q894,228 864,228 Q833,228 798,184 M712,78 Q712,216 754,259 Q796,302 863,302 Q931,302 973,259.5 Q1015,217 1015,147 Q1015,78 972.5,32.5 Q930,-13 863,-13 Q797,-13 712,78 M466,184 Q466,110 484,86 Q502,62 532,62 Q562,62 579.5,85.5 Q597,109 597,147 Q597,184 579.5,206 Q562,228 532,228 Q501,228 466,184 M380,78 Q380,216 422,259 Q464,302 531,302 Q599,302 641,259.5 Q683,217 683,147 Q683,78 640.5,32.5 Q598,-13 531,-13 Q465,-13 380,78 M126,572 Q126,498 144,474 Q162,450 192,450 Q222,450 239.5,473.5 Q257,497 257,535 Q257,572 239.5,594 Q222,616 192,616 Q161,616 126,572 M71,0 L534,677 L643,677 L180,0 M40,466 Q40,604 82,647 Q124,690 191,690 Q259,690 301,647.5 Q343,605 343,535 Q343,466 300.5,420.5 Q258,375 191,375 Q125,375 40,466"/> 
            <glyph glyph-name="‹" unicode="&#x2039;" horiz-adv-x="320" d=" M24,263 L197,460 L320,460 L151,263 L320,66 L197,66"/> 
            <glyph glyph-name="›" unicode="&#x203A;" horiz-adv-x="320" d=" M24,66 L192,263 L24,460 L147,460 L320,263 L147,66"/> 
            <glyph glyph-name="⁄" unicode="&#x2044;" horiz-adv-x="641" d=" M69,0 L532,677 L641,677 L178,0"/> 
            <glyph glyph-name="₀" unicode="&#x2080;" horiz-adv-x="353" d=" M112,8 Q112,-139 186,-139 Q266,-139 266,8 Q266,146 186,146 Q112,146 112,8 M24,8 Q24,113 69,164 Q114,215 185,215 Q259,215 306,164 Q353,113 353,8 Q353,-100 307,-154.5 Q261,-209 185,-209 Q112,-209 68,-154 Q24,-99 24,8"/> 
            <glyph glyph-name="₁" unicode="&#x2081;" horiz-adv-x="176" d=" M24,128 L24,206 L176,206 L176,-200 L86,-200 L86,128"/> 
            <glyph glyph-name="₂" unicode="&#x2082;" horiz-adv-x="317" d=" M18,94 Q18,140 54,177.5 Q90,215 169,215 Q239,215 278,179 Q317,143 317,87 Q317,7 195,-101 L173,-121 L317,-121 L317,-200 L24,-200 L24,-159 L131,-52 Q223,32 223,88 Q223,146 168,146 Q143,146 127,132.5 Q111,119 111,94"/> 
            <glyph glyph-name="₃" unicode="&#x2083;" horiz-adv-x="329" d=" M18,-85 L111,-85 Q111,-110 128,-124.5 Q145,-139 171,-139 Q198,-139 217,-124 Q236,-109 236,-83 Q236,-56 213,-42 Q190,-28 160,-28 L101,-28 L101,45 L159,45 Q188,45 207.5,61 Q227,77 227,99 Q227,120 211.5,133 Q196,146 169,146 Q144,146 128.5,132.5 Q113,119 113,94 L20,94 Q20,140 55.5,177.5 Q91,215 169,215 Q238,215 279,181.5 Q320,148 320,99 Q320,36 243,15 Q329,-13 329,-83 Q329,-140 287,-174.5 Q245,-209 171,-209 Q99,-209 58.5,-172 Q18,-135 18,-85"/> 
            <glyph glyph-name="₄" unicode="&#x2084;" horiz-adv-x="340" d=" M91,-32 L197,-32 L197,109 M6,-20 L185,206 L290,206 L290,-32 L340,-32 L340,-105 L290,-105 L290,-200 L197,-200 L197,-105 L6,-105"/> 
            <glyph glyph-name="₅" unicode="&#x2085;" horiz-adv-x="323" d=" M18,-95 L111,-95 Q111,-139 161,-139 Q229,-139 229,-65 Q229,-1 161,-1 Q109,-1 101,-34 L31,-34 L49,206 L282,206 L282,134 L125,134 L118,53 Q142,66 177,66 Q243,66 283,30.5 Q323,-5 323,-65 Q323,-129 281,-169 Q239,-209 161,-209 Q94,-209 56,-173 Q18,-137 18,-95"/> 
            <glyph glyph-name="₆" unicode="&#x2086;" horiz-adv-x="334" d=" M111,-56 L111,-65 Q111,-139 178,-139 Q206,-139 223.5,-121.5 Q241,-104 241,-65 Q241,-1 178,-1 Q115,-1 111,-56 M18,-19 Q18,104 61,159.5 Q104,215 186,215 Q225,215 253,204 Q281,193 294,176 Q307,159 312,145 Q317,131 317,120 L230,120 Q230,125 226.5,130 Q223,135 212.5,140.5 Q202,146 186,146 Q150,146 133.5,123 Q117,100 113,40 Q146,66 195,66 Q257,66 295.5,30.5 Q334,-5 334,-65 Q334,-129 293.5,-169 Q253,-209 179,-209 Q18,-209 18,-19"/> 
            <glyph glyph-name="₇" unicode="&#x2087;" horiz-adv-x="325" d=" M12,128 L12,206 L325,206 L325,177 L151,-200 L59,-200 L210,128"/> 
            <glyph glyph-name="₈" unicode="&#x2088;" horiz-adv-x="334" d=" M120,99 Q120,44 176,44 Q232,44 232,99 Q232,121 217,133.5 Q202,146 176,146 Q150,146 135,133.5 Q120,121 120,99 M111,-78 Q111,-103 127.5,-121 Q144,-139 176,-139 Q208,-139 224.5,-121 Q241,-103 241,-78 Q241,-49 223,-33 Q205,-17 176,-17 Q147,-17 129,-33 Q111,-49 111,-78 M18,-83 Q18,-12 96,13 Q27,38 27,104 Q27,153 69,184 Q111,215 176,215 Q241,215 283,184 Q325,153 325,104 Q325,39 255,13 Q334,-12 334,-83 Q334,-140 290.5,-174.5 Q247,-209 176,-209 Q106,-209 62,-174.5 Q18,-140 18,-83"/> 
            <glyph glyph-name="₉" unicode="&#x2089;" horiz-adv-x="334" d=" M111,71 Q111,7 174,7 Q237,7 241,62 L241,71 Q241,145 174,145 Q146,145 128.5,127.5 Q111,110 111,71 M18,71 Q18,135 58.5,175 Q99,215 173,215 Q334,215 334,25 Q334,-98 291,-153.5 Q248,-209 166,-209 Q127,-209 99,-198 Q71,-187 58,-170 Q45,-153 40,-139 Q35,-125 35,-114 L122,-114 Q122,-119 125.5,-124 Q129,-129 139.5,-134.5 Q150,-140 166,-140 Q202,-140 218.5,-117 Q235,-94 239,-34 Q205,-60 157,-60 Q95,-60 56.5,-24.5 Q18,11 18,71"/> 
            <glyph glyph-name="€" unicode="&#x20AC;" horiz-adv-x="587" d=" M20,208 L20,307 L108,307 L108,345 L108,369 L20,369 L20,468 L119,468 Q164,690 371,690 Q428,690 471.5,672 Q515,654 539,625 Q563,596 575,564.5 Q587,533 587,500 L476,500 Q476,535 447,564 Q418,593 371,593 Q316,593 283.5,563 Q251,533 238,468 L440,468 L440,369 L229,369 L229,346 L229,307 L440,307 L440,208 L240,208 Q253,142 284.5,113 Q316,84 371,84 Q419,84 447.5,113 Q476,142 476,177 L587,177 Q587,144 575,112.5 Q563,81 539,52 Q515,23 471.5,5 Q428,-13 371,-13 Q167,-13 121,208"/> 
            <glyph glyph-name="₴" unicode="&#x20B4;" horiz-adv-x="612" d=" M50,209 L50,308 L236,308 L304,369 L50,369 L50,468 L412,468 Q431,491 431,519 Q431,551 406.5,575 Q382,599 328,599 Q276,599 250,579.5 Q224,560 224,530 L103,530 Q103,593 159.5,641.5 Q216,690 328,690 Q432,690 489,641 Q546,592 546,522 Q546,494 532,468 L612,468 L612,369 L433,369 L366,308 L612,308 L612,209 L250,209 Q231,187 231,158 Q231,126 255.5,102 Q280,78 334,78 Q432,78 432,147 L553,147 Q553,83 499.5,35 Q446,-13 334,-13 Q230,-13 173,36 Q116,85 116,155 Q116,183 129,209"/> 
            <glyph glyph-name="₽" unicode="&#x20BD;" horiz-adv-x="586" d=" M231,374 L311,374 Q459,377 459,478 Q459,573 307,573 L231,573 M20,114 L20,213 L110,213 L110,275 L20,275 L20,374 L110,374 L110,677 L314,677 Q441,677 513.5,622 Q586,567 586,478 Q586,380 513.5,327.5 Q441,275 310,275 L231,275 L231,213 L442,213 L442,114 L231,114 L231,0 L110,0 L110,114"/> 
            <glyph glyph-name="№" unicode="&#x2116;" horiz-adv-x="1100" d=" M857,489 Q857,415 875,391 Q893,367 923,367 Q953,367 970.5,390.5 Q988,414 988,452 Q988,489 970.5,511 Q953,533 923,533 Q892,533 857,489 M771,383 Q771,521 813,564 Q855,607 922,607 Q990,607 1032,564.5 Q1074,522 1074,452 Q1074,383 1031.5,337.5 Q989,292 922,292 Q856,292 771,383 M748,98 L748,197 L1100,197 L1100,98 M70,0 L70,677 L208,677 L536,169 L536,677 L657,677 L657,0 L519,0 L191,508 L191,0"/> 
            <glyph glyph-name="Ω" unicode="&#x2126;" horiz-adv-x="728" d=" M40,0 L40,104 L177,104 Q50,223 50,369 Q50,513 140.5,601.5 Q231,690 385,690 Q538,690 628,601.5 Q718,513 718,369 Q718,225 591,104 L728,104 L728,0 L431,0 L431,79 Q438,83 448.5,90.5 Q459,98 486.5,124.5 Q514,151 535,182 Q556,213 573.5,263.5 Q591,314 591,369 Q591,464 532.5,526 Q474,588 384,588 Q294,588 235.5,526 Q177,464 177,369 Q177,314 193.5,264 Q210,214 234,181.5 Q258,149 281.5,125 Q305,101 322,90 L338,79 L338,0"/> 
            <glyph glyph-name="←" unicode="&#x2190;" horiz-adv-x="650" d=" M44,288 L342,572 L406,507 L221,333 L650,333 L650,242 L221,242 L406,68 L342,3"/> 
            <glyph glyph-name="↑" unicode="&#x2191;" horiz-adv-x="638" d=" M44,308 L342,618 L638,308 L572,244 L386,441 L386,0 L295,0 L295,441 L110,244"/> 
            <glyph glyph-name="→" unicode="&#x2192;" horiz-adv-x="650" d=" M44,242 L44,333 L473,333 L288,507 L352,572 L650,287 L352,3 L288,68 L473,242"/> 
            <glyph glyph-name="↓" unicode="&#x2193;" horiz-adv-x="638" d=" M44,297 L110,361 L296,164 L296,605 L387,605 L387,164 L572,361 L638,297 L340,-13"/> 
            <glyph glyph-name="∆" unicode="&#x2206;" horiz-adv-x="668" d=" M178,104 L504,104 L341,522 M20,0 L287,677 L398,677 L668,0"/> 
            <glyph glyph-name="−" unicode="&#x2212;" horiz-adv-x="372" d=" M20,233 L20,332 L372,332 L372,233"/> 
            <glyph glyph-name="∶" unicode="&#x2236;" horiz-adv-x="218" d=" M62,515 Q62,550 84.5,571.5 Q107,593 140,593 Q173,593 195.5,571.5 Q218,550 218,515 Q218,479 195.5,458 Q173,437 140,437 Q107,437 84.5,458 Q62,479 62,515 M62,145 Q62,180 84.5,201.5 Q107,223 140,223 Q173,223 195.5,201.5 Q218,180 218,145 Q218,109 195.5,88 Q173,67 140,67 Q107,67 84.5,88 Q62,109 62,145"/> 
            <glyph glyph-name="≈" unicode="&#x2248;" horiz-adv-x="634" d=" M20,387 L37,404 Q80,448 108.5,465.5 Q137,483 168,483 Q194,483 232,471 L436,408 Q446,405 457,405 Q489,405 527,444 L560,476 L634,402 L596,364 Q557,326 531,310.5 Q505,295 477,295 Q454,295 410,308 L206,370 Q195,373 186,373 Q153,373 113,334 L95,313 M20,187 L37,204 Q80,248 108.5,265.5 Q137,283 168,283 Q194,283 232,271 L436,208 Q446,205 457,205 Q489,205 527,244 L560,276 L634,202 L596,164 Q557,126 531,110.5 Q505,95 477,95 Q454,95 410,108 L206,170 Q196,173 186,173 Q153,173 113,134 L95,113"/> 
            <glyph glyph-name="≠" unicode="&#x2260;" horiz-adv-x="372" d=" M20,133 L20,232 L113,232 L142,333 L20,333 L20,432 L170,432 L240,677 L344,677 L274,432 L372,432 L372,333 L246,333 L217,232 L372,232 L372,133 L189,133 L152,0 L48,0 L85,133"/> 
            <glyph glyph-name="≤" unicode="&#x2264;" horiz-adv-x="366" d=" M20,335 L340,532 L340,421 L195,335 L340,249 L340,138 M14,-25 L14,74 L366,74 L366,-25"/> 
            <glyph glyph-name="≥" unicode="&#x2265;" horiz-adv-x="378" d=" M32,138 L32,249 L177,335 L32,421 L32,532 L352,335 M26,-25 L26,74 L378,74 L378,-25"/> 
            <glyph glyph-name="ﬀ" unicode="&#xFB00;" horiz-adv-x="654" d=" M20,401 L20,500 L104,500 L104,507 Q104,587 149,632 Q194,677 277,677 L347,677 L347,578 L274,578 Q239,578 224.5,560 Q210,542 208,500 L411,500 L411,507 Q411,587 456,632 Q501,677 584,677 L654,677 L654,578 L581,578 Q546,578 531.5,560 Q517,542 515,500 L654,500 L654,401 L527,401 L527,0 L411,0 L411,401 L220,401 L220,0 L104,0 L104,401"/> 
            <glyph glyph-name=" " unicode="&#x20;" horiz-adv-x="391" d=" M292,392 L292,677 L391,677 L391,392 M81,392 L81,677 L180,677 L180,392"/> 
            <glyph glyph-name="!" unicode="&#x21;" horiz-adv-x="669" d=" M307,200 L470,200 L470,406 L307,406 M108,106 L108,200 L208,200 L208,406 L108,406 L108,500 L208,500 L208,607 L307,607 L307,500 L470,500 L470,607 L569,607 L569,500 L669,500 L669,406 L569,406 L569,200 L669,200 L669,106 L569,106 L569,0 L470,0 L470,106 L307,106 L307,0 L208,0 L208,106"/> 
            <glyph glyph-name="&quot;" unicode="&#x22;" horiz-adv-x="548" d=" M345,87 Q432,102 432,187 Q432,260 345,280 M169,490 Q169,412 258,391 L258,590 Q169,576 169,490 M44,179 L165,179 Q165,147 187.5,121.5 Q210,96 258,87 L258,293 Q218,301 183.5,316 Q149,331 118.5,354.5 Q88,378 70.5,414.5 Q53,451 53,496 Q53,573 106.5,626 Q160,679 258,688 L258,777 L345,777 L345,687 Q445,674 493,618.5 Q541,563 541,498 L420,498 Q420,528 402,552 Q384,576 345,587 L345,378 Q430,362 489,315 Q548,268 548,187 Q548,106 495.5,52 Q443,-2 345,-11 L345,-100 L258,-100 L258,-11 Q146,-1 95,54.5 Q44,110 44,179"/> 
            <glyph glyph-name="#" unicode="&#x23;" horiz-adv-x="683" d=" M466,184 Q466,110 484,86 Q502,62 532,62 Q562,62 579.5,85.5 Q597,109 597,147 Q597,184 579.5,206 Q562,228 532,228 Q501,228 466,184 M380,78 Q380,216 422,259 Q464,302 531,302 Q599,302 641,259.5 Q683,217 683,147 Q683,78 640.5,32.5 Q598,-13 531,-13 Q465,-13 380,78 M126,572 Q126,498 144,474 Q162,450 192,450 Q222,450 239.5,473.5 Q257,497 257,535 Q257,572 239.5,594 Q222,616 192,616 Q161,616 126,572 M71,0 L534,677 L643,677 L180,0 M40,466 Q40,604 82,647 Q124,690 191,690 Q259,690 301,647.5 Q343,605 343,535 Q343,466 300.5,420.5 Q258,375 191,375 Q125,375 40,466"/> 
            <glyph glyph-name="$" unicode="&#x24;" horiz-adv-x="634" d=" M208,514 Q208,463 271,417 Q354,461 354,514 Q354,553 334,573 Q314,593 282,593 Q251,593 229.5,571 Q208,549 208,514 M165,188 Q165,142 194,113 Q223,84 277,84 Q346,84 391,136 L252,308 Q210,281 187.5,253.5 Q165,226 165,188 M44,179 Q44,245 79,289 Q114,333 175,367 Q87,436 87,520 Q87,592 144,641 Q201,690 282,690 Q364,690 417.5,643 Q471,596 471,520 Q471,466 438,429.5 Q405,393 345,358 L444,235 Q452,260 457,287 Q462,314 464,328 L465,342 L582,342 Q573,236 520,140 L634,0 L501,0 L456,56 Q382,-13 277,-13 Q175,-13 109.5,38.5 Q44,90 44,179"/> 
            <glyph glyph-name="%" unicode="&#x25;" horiz-adv-x="180" d=" M81,392 L81,677 L180,677 L180,392"/> 
            </font>
</defs>
</svg>
