<svg xmlns="http://www.w3.org/2000/svg" width="50" height="50" viewBox="0 0 50 50"><defs><linearGradient id="a" x1="50%" x2="50%" y1="0%" y2="100%"><stop offset="0%" stop-color="#7682D8"/><stop offset="100%" stop-color="#414BAF"/></linearGradient></defs><path fill="url(#a)" fill-rule="evenodd" d="M37 19a2 2 0 0 1-2 2h-4a2 2 0 0 1 0-4h4a2 2 0 0 1 2 2zm-24 0a2 2 0 0 1 2-2h4a2 2 0 0 1 0 4h-4a2 2 0 0 1-2-2zm24 11.154A6.845 6.845 0 0 1 30.154 37H19.846C16.08 37 13 33.92 13 30.154c0-1.104.896-1.788 2-1.788s2 1.106 2 2.212c0 1.104.896 2.422 2 2.422h12c1.104 0 2-1.318 2-2.422 0-1.106.896-2.424 2-2.424a2 2 0 0 1 2 2zm4-17.948V24.17C41 32.992 33.822 41 25 41S9 32.992 9 24.17v-14C9 9.066 9.896 9 11 9h28c1.104 0 2 .066 2 1.17v2.036zM41 5H9c-2.21 0-4 .96-4 3.17v16c0 4.492 1.5 8.624 4 11.964a20.15 20.15 0 0 0 4.036 4.036C16.376 42.67 20.508 45 25 45s8.624-2.33 11.964-4.83A20.15 20.15 0 0 0 41 36.134c2.5-3.34 4-7.472 4-11.964v-16C45 5.96 43.21 5 41 5z"/></svg>