<svg xmlns="http://www.w3.org/2000/svg" width="50" height="50" viewBox="0 0 50 50"><defs><linearGradient id="a" x1="50%" x2="50%" y1="0%" y2="100%"><stop offset="0%" stop-color="#7682D8"/><stop offset="100%" stop-color="#414BAF"/></linearGradient></defs><g fill="none" fill-rule="evenodd"><path fill="#505BBB" fill-rule="nonzero" d="M18.86 28.424h3.244c0 1.375 1.224 2.32 3.373 2.32 1.632 0 2.707-.73 2.707-1.719 0-3.136-8.788-.472-8.788-6.703 0-2.105 2.084-4.19 5.952-4.19 4.447 0 5.95 2.665 5.95 4.792h-3.243c0-1.139-.688-2.213-2.707-2.213-1.504 0-2.686.623-2.686 1.611 0 3.567 8.787.688 8.787 6.703 0 2.32-1.976 4.297-5.972 4.297-4.834 0-6.618-2.556-6.618-4.898z"/><path stroke="url(#a)" stroke-width="4" d="M6.047 13.95a40.689 40.689 0 0 0 19.3 32.692 41.496 41.496 0 0 0 18.61-32.753c-3.24-.268-6.315-.96-9.22-2.077-3.125-1.201-6.289-3.485-9.517-6.832-3.057 3.244-6.335 5.539-9.835 6.86-3.218 1.215-6.332 1.92-9.338 2.11z"/></g></svg>