<svg xmlns="http://www.w3.org/2000/svg" xmlns:xlink="http://www.w3.org/1999/xlink" width="573" height="478" viewBox="0 0 573 478"><defs><linearGradient id="a" x1="50%" x2="50%" y1="21.825%" y2="100%"><stop offset="0%" stop-color="#3DCDA0"/><stop offset="100%" stop-color="#33C3B4"/></linearGradient><linearGradient id="b" x1="50%" x2="50%" y1="100%" y2="0%"><stop offset="0%" stop-color="#48D888" stop-opacity=".112"/><stop offset="100%" stop-color="#31C1B7"/></linearGradient><ellipse id="d" cx="400.5" cy="246" rx="27.5" ry="34"/><filter id="c" width="323.6%" height="280.9%" x="-111.8%" y="-87.5%" filterUnits="objectBoundingBox"><feMorphology in="SourceAlpha" operator="dilate" radius=".5" result="shadowSpreadOuter1"/><feOffset dy="2" in="shadowSpreadOuter1" result="shadowOffsetOuter1"/><feGaussianBlur in="shadowOffsetOuter1" result="shadowBlurOuter1" stdDeviation="20"/><feComposite in="shadowBlurOuter1" in2="SourceAlpha" operator="out" result="shadowBlurOuter1"/><feColorMatrix in="shadowBlurOuter1" values="0 0 0 0 0 0 0 0 0 0 0 0 0 0 0 0 0 0 0.5 0"/></filter><linearGradient id="e" x1="50%" x2="50%" y1="-71.038%" y2="100%"><stop offset="0%" stop-color="#F4F3F9"/><stop offset="100%" stop-color="#FFF"/></linearGradient></defs><g fill="none" fill-rule="evenodd"><path fill="#F4F3F9" fill-rule="nonzero" d="M53.082 88.006h7.646v60.349h-38.53L0 191.729l202.886 104.208c39.793 20.44 88.62 4.75 109.06-35.043l.054-.106 54-105.517L90.956 14 53.082 88.006z"/><path fill="url(#a)" d="M83 62h422v186c0 14.36-11.64 26-26 26H109c-14.36 0-26-11.64-26-26V62z"/><path fill="#5AE6B7" fill-rule="nonzero" opacity=".3" d="M142 138h311v1H142zM143 156h311v1H143zM143 192h311v1H143zM143 208h311v1H143zM143 174h311v1H143z"/><ellipse cx="406.5" cy="466" fill="#F4F3F9" fill-rule="nonzero" rx="133.5" ry="12"/><path fill="#2F2E41" fill-rule="nonzero" d="M382.169 454.396s-7.973-.891-9.745 0c-1.772.891-4.43 7.129 0 10.693S388.37 474 391.914 474a18.24 18.24 0 0 0 7.086-1.782l-1.772-15.149-15.06-2.673zm35.831 3.8l.865 12.04s11.24 1.72 12.105 0c.865-1.72 9.512-6.02 10.376-6.88.865-.86 1.73-10.32-3.458-11.18-5.188-.86-6.918 1.72-6.918 1.72l-12.97 4.3z"/><path fill="#FFF" fill-rule="nonzero" d="M150.989 208l-.989-1.033 46.295-43.908 40.81 29.211 33.002-36.409 14.471 12.24 39.364-23.503 43.724 29.244L436.292 135l.708 1.239-69.397 39.28-43.704-29.231-39.466 23.562-14.195-12.006-32.928 36.329-40.887-29.265z"/><path fill="#D3D2E7" fill-rule="nonzero" d="M284.035 441.878c3.43 12.426 15.173 20.122 15.173 20.122s6.185-12.451 2.757-24.878C298.535 424.696 286.792 417 286.792 417s-6.185 12.451-2.757 24.878z"/><path fill="url(#b)" fill-rule="nonzero" d="M289.774 438.879C298.887 447.992 300 462 300 462s-13.662-.766-22.774-9.879C268.113 443.008 267 429 267 429s13.662.766 22.774 9.879z" opacity=".537"/><circle cx="549" cy="24" r="24" fill="url(#b)" fill-rule="nonzero" opacity=".537"/><circle cx="504" cy="64" r="17" fill="url(#b)" fill-rule="nonzero" opacity=".537"/><circle cx="483" cy="373" r="9" fill="url(#b)" fill-rule="nonzero" opacity=".537"/><g opacity=".425"><use fill="#000" filter="url(#c)" xlink:href="#d"/><use fill="#D8D8D8" stroke="#979797" xlink:href="#d"/></g><circle cx="331" cy="420" r="7" fill="url(#b)" fill-rule="nonzero" opacity=".537"/><circle cx="308" cy="329" r="9" fill="url(#b)" fill-rule="nonzero" opacity=".537"/><circle cx="436.5" cy="138.5" r="9.5" fill="#5AE6B7" fill-rule="nonzero"/><path fill="#D3D2E7" fill-rule="nonzero" d="M375.44 307.78l-7.883.877s-3.503 15.785 0 36.831c3.504 21.047 7.883 42.094 7.883 42.094s3.504 68.402 5.255 69.28c1.752.876 17.518 6.138 18.394.876.876-5.261.876-125.404.876-125.404l12.262 57.879S413.98 463 417.482 463c3.504 0 14.89-.877 14.89-7.016 0-6.138 2.628-86.818 2.628-86.818s-.876-59.633-4.38-61.387c-3.503-1.753-55.18 0-55.18 0z"/><path fill="#F1CFCF" fill-rule="nonzero" d="M343.648 234s-21.052 20.279-18.42 30.859c2.631 10.58 23.684 41.439 23.684 41.439s20.175 10.58 22.806 0c2.632-10.58-14.035-7.935-14.035-7.935l-13.157-31.74 14.912-21.161L343.648 234zm94.708-31s19.078-12.34 18.636-20.818c-.441-8.478-11.942-35.21-11.942-35.21s-8.997-18.815-12.574-11.126c-3.576 7.69 4.701 15.875 4.701 15.875l5.343 26.223L428 191.877 438.356 203z"/><circle cx="391" cy="170" r="16" fill="#F1CFCF" fill-rule="nonzero"/><path fill="#F1CFCF" fill-rule="nonzero" d="M383 179.492L385.64 196l19.36-3.475s-.88-16.508-.88-18.246c0-1.738-21.12 5.213-21.12 5.213z"/><path fill="url(#e)" fill-rule="nonzero" d="M381.6 195.888s-1.886-5.462 0-5.888c3.592-.81 14.406-2.684 20.072-1.87 4 .574 3.574 3.672 4.403 4.23 2.623 1.764 15.734 3.528 15.734 3.528l14.86 22.931-4.37 29.105S442.251 374.062 444 382c1.748 7.938-1.205 9.843-21.31 11.607-20.103 1.764-23.6-.882-37.585 2.646C371.119 399.78 352.504 388.528 356 385c3.496-3.528 18.608-134.43 11.615-139.721-6.993-5.292-9.615-32.634-9.615-32.634s23.6-12.347 23.6-16.757z"/><path fill="#F9F8FC" fill-rule="nonzero" d="M420 197.971l2.615-2.657 18.261-17.57s-5.43-13.056-4.376-21.744c.762-6.281 7.602-9.347 9.5-8 1.636 1.16 14.668 29.744 11 39.93-.93 2.582-20.5 31.534-20.5 31.534L429.587 221 420 197.971z"/><path fill="#F9F9FC" fill-rule="nonzero" d="M368.54 213.767L358.984 212c-2.591 1.767-8.605 8.837-11.2 12.372-2.594 3.535-21.42 28.994-21.42 28.994-3.88 6.74-5.361 10.445-4.444 11.115 1.395 1.018 21.746 40.03 24.909 40.422 1.611.2 9.713-2.66 8.743-12.474-.398-4.033-4.08-12.636-11.045-25.807L372 234.977l-3.46-21.21z"/><path fill="#2F2E41" fill-rule="nonzero" d="M396.19 151.037l-.163-1.252a10.077 10.077 0 0 0-3.167.492 5.08 5.08 0 0 1 .196-2.25 10.193 10.193 0 0 0-2.931 1.258l-.64-2.285-8.788 4.279c-3.155 1.535-6.481 3.223-8.284 6.206-2.01 3.325-1.661 7.599-.287 11.226 1.375 3.628 3.658 6.838 5.489 10.263a25.572 25.572 0 0 0 2.494 4.194c3.318 4.085 9.775 4.91 14.452 2.445a8.309 8.309 0 0 0 4.005-4.07c.34-1.106.608-2.232.8-3.372.578-2.334 1.25-7.153 3.17-8.63.844-.65 2.518 1.505 3.218.704 1.799-2.056 1.422-5.228.304-7.711a56.016 56.016 0 0 0-3.75-7.226c-.603-.93-6.138-4.42-6.119-4.27z"/><path fill="url(#b)" fill-rule="nonzero" opacity=".537" d="M9 96h46v46H9z"/></g></svg>