<svg xmlns="http://www.w3.org/2000/svg" width="16" height="16" viewBox="0 0 16 16"><g fill="none" fill-rule="evenodd"><rect width="16" height="16" fill="#36C6AD" rx="3"/><g fill="#FFF"><path d="M5.543 10.812h4.663v.889c0 1.23-.926 2.28-2.107 2.39a2.334 2.334 0 0 1-2.555-2.319v-.96zm-.556-.556H3.961a2.333 2.333 0 0 1-2.33-2.332 2.333 2.333 0 0 1 2.33-2.33h1.026v4.662zm6.72-5.22h-.06a.278.278 0 0 0 0 .557h.142a2.333 2.333 0 0 1 2.33 2.331 2.333 2.333 0 0 1-2.33 2.332h-1.027V6.483a.278.278 0 0 0-.556 0v3.773H5.543V5.593h3.708a.278.278 0 0 0 0-.556H5.543v-1.02c0-1.23.926-2.28 2.108-2.39a2.335 2.335 0 0 1 2.555 2.319v.142a.278.278 0 0 0 .556 0v-.062c0-1.587-1.205-2.89-2.744-2.965a2.868 2.868 0 0 0-2.134.794 2.862 2.862 0 0 0-.897 2.09v1.092h-.945c-1.588 0-2.89 1.205-2.965 2.743a2.864 2.864 0 0 0 .793 2.135 2.862 2.862 0 0 0 2.09.897h1.027v.96a2.89 2.89 0 0 0 2.888 2.888 2.89 2.89 0 0 0 2.887-2.887v-.961h1.027c.797 0 1.54-.319 2.09-.897.55-.578.833-1.336.793-2.135-.075-1.538-1.377-2.743-2.964-2.743z"/><path d="M10.915 5.333a.44.44 0 1 0-.882 0 .44.44 0 0 0 .882 0"/></g></g></svg>