<svg xmlns="http://www.w3.org/2000/svg" width="474" height="263" viewBox="0 0 474 263"><defs><linearGradient id="a" x1="50%" x2="50%" y1="100%" y2="0%"><stop offset="0%" stop-color="#48D888" stop-opacity=".112"/><stop offset="100%" stop-color="#31C1B7"/></linearGradient></defs><g fill="none" fill-rule="evenodd"><path fill="#000" d="M466 62h4v-2h-4v2zm1 3h2c0 6-10 6-10 0h2c0 4 6 4 6 0zm-9-3h4v-2h-4v2zm-2 10h16V56h-16v16zm-2 2h20V54h-20v20z" opacity=".196"/><path fill="#414BAF" d="M18.387 207.161c0-.801.65-1.451 1.452-1.451h2.903c.801 0 1.452.65 1.452 1.451v2.904c0 .798-.654 1.451-1.452 1.451h-2.903a1.456 1.456 0 0 1-1.452-1.451v-2.904zm-6.774 2.904c0 .8-.65 1.451-1.452 1.451H7.258c-.801 0-1.452-.65-1.452-1.451v-2.904c0-.801.65-1.451 1.452-1.451h2.903c.802 0 1.452.65 1.452 1.451v2.904zm12.58 5.889v1.694c0 1.694-1.37 3.536-3.064 3.536v.01H8.871v-.01c-1.692 0-3.065-2.002-3.065-3.696v-1.534c0-.847 0-1.495 1.533-1.495v.04c1.532 0 1.532.766 1.532 1.614v.158c0 .849.686 1.854 1.532 1.854h9.194c.846 0 1.532-1.005 1.532-1.854v-.317c0-.847.686-1.535 1.532-1.535s1.533.688 1.533 1.535zm2.904 6.63c0 .835-.678 1.513-1.512 1.513H4.415a1.513 1.513 0 0 1-1.512-1.512v-21.17c0-.834.678-1.512 1.512-1.512h21.17c.834 0 1.512.678 1.512 1.512v21.17zM30 200a3 3 0 0 0-3-3H3a3 3 0 0 0-3 3v24a3 3 0 0 0 3 3h24a3 3 0 0 0 3-3v-24z"/><path fill="#414BAF" d="M376 246.8h18c0 12.6-18 12.6-18 0zm18-9a1.8 1.8 0 0 1 0 3.6h-3.6a1.8 1.8 0 0 1 0-3.6h3.6zm-18 3.6a1.8 1.8 0 0 1 0-3.6h3.6a1.8 1.8 0 0 1 0 3.6H376zm23.4 15.48c0 .994-.806 2.52-1.8 2.52h-25.2c-.994 0-1.8-1.526-1.8-2.52V245c0-18 28.8-18 28.8 0v11.88zm-3.632-27c-3.006-2.25-6.725-2.88-10.768-2.88-12.73 0-18 9.484-18 17.28v14.4c0 1.989 1.611 4.32 3.6 4.32h28.8c1.989 0 3.6-2.331 3.6-4.32v-14.4c0-5.769-2.777-11.063-7.232-14.4z" opacity=".343"/><path fill="url(#a)" fill-rule="nonzero" d="M92 22.5c0 3.039-2.461 5.5-5.5 5.5a5.498 5.498 0 0 1-5.5-5.5c0-3.039 2.461-5.5 5.5-5.5s5.5 2.461 5.5 5.5m-3.048 10.737c-2.79 14.35-24.115 14.35-26.904 0C61.721 31.546 63.102 30 64.796 30c1.32 0 2.398.972 2.706 2.28 1.912 8.162 14.084 8.162 15.996 0 .308-1.308 1.386-2.28 2.706-2.28 1.694 0 3.075 1.546 2.748 3.237M64.5 28a5.498 5.498 0 0 1-5.5-5.5c0-3.039 2.461-5.5 5.5-5.5s5.5 2.461 5.5 5.5-2.461 5.5-5.5 5.5M75 50c-12.13 0-22-9.87-22-22S62.87 6 75 6s22 9.87 22 22-9.87 22-22 22m.5-50C60.312 0 48 12.312 48 27.5S60.312 55 75.5 55 103 42.688 103 27.5 90.688 0 75.5 0" opacity=".537"/></g></svg>