<svg xmlns="http://www.w3.org/2000/svg" width="170" height="38" viewBox="0 0 170 38"><g fill="#FFF" fill-rule="evenodd"><path d="M56.88 11.722c2.17 0 3.783.748 4.841 1.934.768.851 1.059 1.96 1.059 3.173h-3.837c0-.594-.133-1.11-.423-1.47-.343-.44-.925-.67-1.773-.67-1.666 0-2.884 1.417-2.884 3.79s1.218 3.946 2.884 3.946c.848 0 1.43-.258 1.8-.696.317-.387.45-.903.45-1.497h3.837c0 1.187-.292 2.297-1.032 3.147-1.086 1.239-2.699 2.012-4.923 2.012-4.022 0-6.88-2.94-6.88-6.912s2.858-6.757 6.88-6.757m14.71 10.703c1.614 0 2.857-1.289 2.936-3.74V18.3c-.079-2.45-1.322-3.61-2.936-3.61-1.668 0-3.043 1.21-3.043 3.79 0 2.579 1.375 3.946 3.043 3.946m-.873-10.474c1.88 0 3.036.574 4.127 1.722l.053-1.564h3.467v12.896h-3.657l.058-1.571c-1.201 1.15-2.414 1.71-4.24 1.71-3.6 0-5.841-2.693-5.841-6.664 0-3.972 2.435-6.529 6.033-6.529m10.262.157h3.526l.048 1.949c.714-1.341 1.56-1.949 3.57-1.949h.53v3.224h-.53c-2.274 0-3.386 1.316-3.44 3.122v6.55h-3.704V12.108zm18.337 4.901c-.026-1.419-.979-2.58-2.805-2.58-1.825 0-2.857 1.161-2.884 2.58h5.69zm-2.805-5.287c3.917 0 6.563 2.785 6.563 6.422v1.057h-9.447c.027 1.831 1.217 3.225 3.043 3.225 1.244 0 1.746-.362 2.09-.8.265-.335.372-.748.372-.877h3.836c0 .62-.292 1.599-.953 2.399-1.005 1.238-2.62 2.244-5.345 2.244-3.916 0-6.96-2.683-6.96-6.913s2.885-6.757 6.8-6.757zM105.526 25.004h3.705V7.696h-3.705zM114.763 12.108l3.387 8.641 3.096-8.64h3.837l-4.947 12.766c-1.271 3.045-3.15 4.695-6.06 4.695h-1.296V26.45h1.216c1.059 0 1.773-.722 2.25-1.78l-5.452-12.56h3.97zm11.53 0h2.118V9.013h3.705v3.095h3.253v2.967h-3.253v4.462c0 1.65.502 2.347 1.243 2.347h2.01v3.12h-2.353c-3.15 0-4.605-1.856-4.605-4.694v-5.235h-2.118v-2.967zm11.61 12.897h3.44V12.109h-3.44v12.896zM139.548 7c1.128 0 1.998.748 1.998 1.908 0 1.187-.87 1.91-1.998 1.91-1.13 0-2.023-.723-2.023-1.91 0-1.16.894-1.908 2.023-1.908zm10.687 4.722c2.17 0 3.782.748 4.842 1.934.767.851 1.058 1.96 1.058 3.173H152.3c0-.594-.133-1.11-.425-1.47-.343-.44-.925-.67-1.771-.67-1.668 0-2.886 1.417-2.886 3.79s1.218 3.946 2.886 3.946c.846 0 1.428-.258 1.799-.696.316-.387.45-.903.45-1.497h3.836c0 1.187-.29 2.297-1.032 3.147-1.085 1.239-2.699 2.012-4.921 2.012-4.024 0-6.88-2.94-6.88-6.912s2.856-6.757 6.88-6.757m11.694 9.336c0 .98.793 1.368 2.38 1.368 1.219 0 1.827-.49 1.827-1.162 0-1.96-7.648-.773-7.648-5.674 0-2.269 1.695-3.869 5.4-3.869 4.154 0 5.925 2.167 5.925 4.334h-3.837c0-.98-.66-1.367-2.089-1.367-1.06 0-1.535.49-1.535 1.161 0 2.218 7.647.516 7.647 5.415 0 2.27-1.825 4.128-5.69 4.128-4.63 0-6.217-2.167-6.217-4.334h3.837z"/><g><path d="M12.284 26.123h12.248v2.336c0 3.23-2.432 5.988-5.535 6.28a6.075 6.075 0 0 1-4.71-1.57 6.131 6.131 0 0 1-2.003-4.522v-2.524zm-1.46-1.461H8.126a6.128 6.128 0 0 1-6.119-6.123c0-3.377 2.745-6.124 6.12-6.124h2.695v12.247zm17.652-13.708h-.162a.731.731 0 0 0 0 1.46h.375c3.374 0 6.119 2.748 6.119 6.125a6.128 6.128 0 0 1-6.12 6.123h-2.696v-9.91a.732.732 0 0 0-1.46 0v9.91H12.284V12.415h9.738a.731.731 0 0 0 0-1.461h-9.738v-2.68c0-3.23 2.432-5.988 5.535-6.28a6.08 6.08 0 0 1 4.71 1.57 6.133 6.133 0 0 1 2.003 4.521v.375a.731.731 0 0 0 1.46 0V8.3c0-4.17-3.166-7.592-7.207-7.788a7.534 7.534 0 0 0-5.605 2.084 7.517 7.517 0 0 0-2.357 5.49v2.869H8.34c-4.17 0-7.591 3.165-7.788 7.207a7.522 7.522 0 0 0 2.084 5.605 7.517 7.517 0 0 0 5.491 2.357h2.696v2.524c0 4.182 3.403 7.585 7.585 7.585s7.584-3.403 7.584-7.585v-2.524h2.697a7.516 7.516 0 0 0 5.49-2.357 7.518 7.518 0 0 0 2.084-5.605c-.196-4.042-3.617-7.207-7.787-7.207z"/><path d="M26.393 11.732a1.158 1.158 0 1 0-2.315 0 1.158 1.158 0 0 0 2.315 0"/></g></g></svg>