<svg xmlns="http://www.w3.org/2000/svg" width="733" height="732" viewBox="0 0 733 732"><g fill="#FFF" fill-opacity=".08" fill-rule="evenodd"><path d="M241.373 524.73h250.778v47.831c0 66.147-49.781 122.626-113.33 128.589-35.778 3.322-70.002-8.05-96.43-32.126-26.068-23.735-41.018-57.49-41.018-92.597v-51.698zm-29.921-29.912H156.25c-69.086 0-125.298-56.244-125.298-125.383 0-69.15 56.212-125.394 125.298-125.394h55.2v250.777zM572.918 214.13h-3.312c-8.242 0-14.95 6.708-14.95 14.95 0 8.252 6.708 14.96 14.95 14.96h7.667c69.086 0 125.298 56.245 125.298 125.395 0 69.14-56.212 125.383-125.298 125.383H522.06V291.905c0-8.242-6.719-14.95-14.96-14.95-8.242 0-14.95 6.708-14.95 14.95v202.913H241.373V244.041h199.4c8.241 0 14.95-6.709 14.95-14.96 0-8.243-6.709-14.951-14.95-14.951h-199.4v-54.86c0-66.147 49.78-122.625 113.33-128.588 35.735-3.312 70.001 8.05 96.43 32.125 26.057 23.735 41.018 57.49 41.018 92.587v7.677c0 8.242 6.708 14.95 14.95 14.95 8.241 0 14.96-6.708 14.96-14.95v-3.311C522.061 74.37 457.235 4.316 374.487.29 331.5-1.72 290.802 13.357 259.71 42.97c-31.114 29.634-48.257 69.565-48.257 112.424v58.736h-50.846c-85.388 0-155.443 64.816-159.468 147.564-2.098 42.933 13.054 83.695 42.667 114.788 29.634 31.114 69.565 48.247 112.446 48.247h55.2v51.698c0 85.633 69.672 155.305 155.306 155.305 85.633 0 155.304-69.672 155.304-155.305v-51.698h55.212c42.87 0 82.811-17.133 112.435-48.247 29.623-31.093 44.776-71.855 42.667-114.788-4.025-82.748-74.069-147.564-159.457-147.564z"/><path d="M530.272 230.06c0-13.083-10.618-23.701-23.7-23.701-13.084 0-23.702 10.618-23.702 23.7 0 13.084 10.618 23.702 23.701 23.702s23.701-10.618 23.701-23.701"/></g></svg>